<?xml version="1.0" encoding="UTF-8"?>
<!--Generator: Apple Native CoreSVG 341-->
<!DOCTYPE svg
PUBLIC "-//W3C//DTD SVG 1.1//EN"
       "http://www.w3.org/Graphics/SVG/1.1/DTD/svg11.dtd">
<svg version="1.1" xmlns="http://www.w3.org/2000/svg" xmlns:xlink="http://www.w3.org/1999/xlink" viewBox="0 0 3300 2200">
 <!--glyph: "", point size: 100.0, font version: "21.1d1e1", template writer version: "138.0.0"-->
 <style>.defaults {-sfsymbols-variable-value-mode:color;-sfsymbols-draw-reverses-motion-groups:false}

.SFSymbolsPreviewWireframe {fill:none;opacity:1.0;stroke:black;stroke-width:0.5}
</style>
 <g id="Notes">
  <rect height="2200" id="artboard" style="fill:white;opacity:1" width="3300" x="0" y="0"/>
  <line style="fill:none;stroke:black;opacity:1;stroke-width:0.5;" x1="263" x2="3036" y1="292" y2="292"/>
  <text style="stroke:none;fill:black;font-family:sans-serif;font-size:13;font-weight:bold;" transform="matrix(1 0 0 1 263 322)">Weight/Scale Variations</text>
  <text style="stroke:none;fill:black;font-family:sans-serif;font-size:13;text-anchor:middle;" transform="matrix(1 0 0 1 559.711 322)">Ultralight</text>
  <text style="stroke:none;fill:black;font-family:sans-serif;font-size:13;text-anchor:middle;" transform="matrix(1 0 0 1 856.422 322)">Thin</text>
  <text style="stroke:none;fill:black;font-family:sans-serif;font-size:13;text-anchor:middle;" transform="matrix(1 0 0 1 1153.13 322)">Light</text>
  <text style="stroke:none;fill:black;font-family:sans-serif;font-size:13;text-anchor:middle;" transform="matrix(1 0 0 1 1449.84 322)">Regular</text>
  <text style="stroke:none;fill:black;font-family:sans-serif;font-size:13;text-anchor:middle;" transform="matrix(1 0 0 1 1746.56 322)">Medium</text>
  <text style="stroke:none;fill:black;font-family:sans-serif;font-size:13;text-anchor:middle;" transform="matrix(1 0 0 1 2043.27 322)">Semibold</text>
  <text style="stroke:none;fill:black;font-family:sans-serif;font-size:13;text-anchor:middle;" transform="matrix(1 0 0 1 2339.98 322)">Bold</text>
  <text style="stroke:none;fill:black;font-family:sans-serif;font-size:13;text-anchor:middle;" transform="matrix(1 0 0 1 2636.69 322)">Heavy</text>
  <text style="stroke:none;fill:black;font-family:sans-serif;font-size:13;text-anchor:middle;" transform="matrix(1 0 0 1 2933.4 322)">Black</text>
  <line style="fill:none;stroke:black;opacity:1;stroke-width:0.5;" x1="263" x2="3036" y1="1903" y2="1903"/>
  <g transform="matrix(0.2 0 0 0.2 263 1933)">
   <path d="m46.2402 4.15039c21.7773 0 39.4531-17.627 39.4531-39.4043s-17.6758-39.4043-39.4531-39.4043c-21.7285 0-39.4043 17.627-39.4043 39.4043s17.6758 39.4043 39.4043 39.4043Zm0-7.42188c-17.6758 0-31.9336-14.3066-31.9336-31.9824s14.2578-31.9824 31.9336-31.9824 31.9824 14.3066 31.9824 31.9824-14.3066 31.9824-31.9824 31.9824Zm3.61328-17.7734v-28.4668c0-2.24609-1.46484-3.75977-3.71094-3.75977-2.14844 0-3.61328 1.51367-3.61328 3.75977v28.4668c0 2.19727 1.46484 3.71094 3.61328 3.71094 2.24609 0 3.71094-1.51367 3.71094-3.71094Zm-17.8223-10.5957h28.418c2.19727 0 3.71094-1.46484 3.71094-3.61328 0-2.19727-1.51367-3.71094-3.71094-3.71094h-28.418c-2.24609 0-3.75977 1.51367-3.75977 3.71094 0 2.14844 1.51367 3.61328 3.75977 3.61328Z"/>
  </g>
  <g transform="matrix(0.2 0 0 0.2 281.506 1933)">
   <path d="m58.5449 14.5508c27.4902 0 49.8047-22.3145 49.8047-49.8047s-22.3145-49.8047-49.8047-49.8047-49.8047 22.3145-49.8047 49.8047 22.3145 49.8047 49.8047 49.8047Zm0-8.30078c-22.9492 0-41.5039-18.5547-41.5039-41.5039s18.5547-41.5039 41.5039-41.5039 41.5039 18.5547 41.5039 41.5039-18.5547 41.5039-41.5039 41.5039Zm4.05273-23.0957v-36.9141c0-2.49023-1.70898-4.19922-4.15039-4.19922-2.39258 0-4.05273 1.70898-4.05273 4.19922v36.9141c0 2.44141 1.66016 4.15039 4.05273 4.15039 2.44141 0 4.15039-1.66016 4.15039-4.15039Zm-22.5586-14.4043h36.9629c2.44141 0 4.15039-1.61133 4.15039-4.00391 0-2.44141-1.70898-4.15039-4.15039-4.15039h-36.9629c-2.49023 0-4.15039 1.70898-4.15039 4.15039 0 2.39258 1.66016 4.00391 4.15039 4.00391Z"/>
  </g>
  <g transform="matrix(0.2 0 0 0.2 304.924 1933)">
   <path d="m74.8535 28.3203c35.1074 0 63.623-28.4668 63.623-63.5742s-28.5156-63.623-63.623-63.623-63.5742 28.5156-63.5742 63.623 28.4668 63.5742 63.5742 63.5742Zm0-9.08203c-30.127 0-54.4922-24.3652-54.4922-54.4922s24.3652-54.4922 54.4922-54.4922 54.4922 24.3652 54.4922 54.4922-24.3652 54.4922-54.4922 54.4922Zm4.44336-30.3223v-48.4863c0-2.73438-1.85547-4.63867-4.54102-4.63867-2.58789 0-4.44336 1.9043-4.44336 4.63867v48.4863c0 2.68555 1.85547 4.58984 4.44336 4.58984 2.68555 0 4.54102-1.85547 4.54102-4.58984Zm-28.7109-19.7754h48.4863c2.68555 0 4.58984-1.80664 4.58984-4.39453 0-2.73438-1.85547-4.58984-4.58984-4.58984h-48.4863c-2.73438 0-4.58984 1.85547-4.58984 4.58984 0 2.58789 1.85547 4.39453 4.58984 4.39453Z"/>
  </g>
  <text style="stroke:none;fill:black;font-family:sans-serif;font-size:13;font-weight:bold;" transform="matrix(1 0 0 1 263 1953)">Design Variations</text>
  <text style="stroke:none;fill:black;font-family:sans-serif;font-size:13;" transform="matrix(1 0 0 1 263 1971)">Symbols are supported in up to nine weights and three scales.</text>
  <text style="stroke:none;fill:black;font-family:sans-serif;font-size:13;" transform="matrix(1 0 0 1 263 1989)">For optimal layout with text and other symbols, vertically align</text>
  <text style="stroke:none;fill:black;font-family:sans-serif;font-size:13;" transform="matrix(1 0 0 1 263 2007)">symbols with the adjacent text.</text>
  <line style="fill:none;stroke:#00AEEF;stroke-width:0.5;opacity:1.0;" x1="776" x2="776" y1="1919" y2="1933"/>
  <g transform="matrix(0.2 0 0 0.2 776 1933)">
   <path d="m16.5527 0.78125c2.58789 0 3.85742-0.976562 4.78516-3.71094l20.5566-57.5195h0.244141l20.6055 57.5195c0.927734 2.73438 2.19727 3.71094 4.73633 3.71094 2.58789 0 4.24805-1.5625 4.24805-4.00391 0-0.830078-0.146484-1.61133-0.537109-2.63672l-22.9004-60.9863c-1.12305-2.97852-3.125-4.49219-6.25-4.49219-3.02734 0-5.07812 1.46484-6.15234 4.44336l-22.9004 61.084c-0.390625 1.02539-0.537109 1.80664-0.537109 2.63672 0 2.44141 1.5625 3.95508 4.10156 3.95508Zm10.2051-20.9473h30.6641c2.00195 0 3.66211-1.66016 3.66211-3.66211 0-2.05078-1.66016-3.66211-3.66211-3.66211h-30.6641c-2.00195 0-3.66211 1.61133-3.66211 3.66211 0 2.00195 1.66016 3.66211 3.66211 3.66211Z"/>
  </g>
  <line style="fill:none;stroke:#00AEEF;stroke-width:0.5;opacity:1.0;" x1="792.836" x2="792.836" y1="1919" y2="1933"/>
  <text style="stroke:none;fill:black;font-family:sans-serif;font-size:13;font-weight:bold;" transform="matrix(1 0 0 1 776 1953)">Margins</text>
  <text style="stroke:none;fill:black;font-family:sans-serif;font-size:13;" transform="matrix(1 0 0 1 776 1971)">Leading and trailing margins on the left and right side of each symbol</text>
  <text style="stroke:none;fill:black;font-family:sans-serif;font-size:13;" transform="matrix(1 0 0 1 776 1989)">can be adjusted by modifying the x-location of the margin guidelines.</text>
  <text style="stroke:none;fill:black;font-family:sans-serif;font-size:13;" transform="matrix(1 0 0 1 776 2007)">Modifications are automatically applied proportionally to all</text>
  <text style="stroke:none;fill:black;font-family:sans-serif;font-size:13;" transform="matrix(1 0 0 1 776 2025)">scales and weights.</text>
  <g transform="matrix(0.2 0 0 0.2 1289 1933)">
   <path d="m14.209 13.1348 7.86133 7.86133c4.29688 4.39453 9.32617 4.10156 13.8672-1.02539l60.6934-68.2129-4.88281-4.88281-60.2539 67.6758c-1.80664 1.95312-3.4668 2.44141-5.81055 0.0976562l-5.17578-5.12695c-2.29492-2.29492-1.80664-3.95508 0.195312-5.81055l67.4805-62.1582-4.88281-4.83398-68.0664 62.5977c-4.98047 4.58984-5.32227 9.47266-1.02539 13.8184Zm44.873-97.4609c-2.05078 2.00195-2.24609 4.88281-1.07422 6.78711 1.12305 1.80664 3.4668 3.02734 6.5918 2.24609 5.85938-1.66016 12.5977-2.39258 18.8965 0.927734l-2.68555 7.12891c-1.61133 4.00391-0.732422 6.88477 1.70898 9.42383l10.2539 10.3027c2.34375 2.39258 4.54102 2.44141 7.08008 1.95312l4.44336-0.732422 2.58789 2.53906-0.195312 2.24609c-0.0976562 2.29492 0.537109 4.29688 2.7832 6.49414l3.36914 3.32031c2.29492 2.29492 5.51758 2.49023 7.8125 0.195312l12.9883-13.0371c2.29492-2.34375 2.14844-5.37109-0.195312-7.66602l-3.41797-3.41797c-2.19727-2.19727-4.05273-3.02734-6.34766-2.88086l-2.34375 0.244141-2.44141-2.44141 1.02539-4.6875c0.634766-2.73438-0.244141-4.98047-2.88086-7.61719l-11.2793-11.1816c-12.9395-12.8418-35.5957-11.0352-46.6797-0.146484Zm7.08008 2.05078c8.78906-6.39648 25.9766-5.66406 33.6914 1.95312l12.3047 12.207c1.02539 1.02539 1.2207 1.80664 0.927734 3.32031l-1.46484 6.64062 6.73828 6.68945 4.39453-0.244141c1.12305-0.0488281 1.51367 0.0488281 2.34375 0.878906l2.53906 2.49023-10.8398 10.8398-2.49023-2.49023c-0.830078-0.878906-0.976562-1.2207-0.927734-2.39258l0.292969-4.3457-6.68945-6.73828-6.83594 1.17188c-1.41602 0.292969-2.05078 0.195312-3.17383-0.878906l-8.93555-8.88672c-1.07422-1.02539-1.17188-1.70898-0.488281-3.36914l4.58984-11.4746c-6.10352-6.34766-17.041-7.51953-25.5859-4.58984-0.683594 0.244141-0.927734-0.390625-0.390625-0.78125Z"/>
  </g>
  <text style="stroke:none;fill:black;font-family:sans-serif;font-size:13;font-weight:bold;" transform="matrix(1 0 0 1 1289 1953)">Exporting</text>
  <text style="stroke:none;fill:black;font-family:sans-serif;font-size:13;" transform="matrix(1 0 0 1 1289 1971)">Symbols should be outlined when exporting to ensure the</text>
  <text style="stroke:none;fill:black;font-family:sans-serif;font-size:13;" transform="matrix(1 0 0 1 1289 1989)">design is preserved when submitting to Xcode.</text>
  <text id="template-version" style="stroke:none;fill:black;font-family:sans-serif;font-size:13;text-anchor:end;" transform="matrix(1 0 0 1 3036 1933)">Template v.6.0</text>
  <text style="stroke:none;fill:black;font-family:sans-serif;font-size:13;text-anchor:end;" transform="matrix(1 0 0 1 3036 1951)">Requires Xcode 16 or greater</text>
  <text id="descriptive-name" style="stroke:none;fill:black;font-family:sans-serif;font-size:13;text-anchor:end;" transform="matrix(1 0 0 1 3036 1969)">Generated from design.icon.curve.pencil.ruler</text>
  <text style="stroke:none;fill:black;font-family:sans-serif;font-size:13;text-anchor:end;" transform="matrix(1 0 0 1 3036 1987)">Typeset at 100.0 points</text>
  <text style="stroke:none;fill:black;font-family:sans-serif;font-size:13;" transform="matrix(1 0 0 1 263 726)">Small</text>
  <text style="stroke:none;fill:black;font-family:sans-serif;font-size:13;" transform="matrix(1 0 0 1 263 1156)">Medium</text>
  <text style="stroke:none;fill:black;font-family:sans-serif;font-size:13;" transform="matrix(1 0 0 1 263 1586)">Large</text>
 </g>
 <g id="Guides">
  <g id="H-reference" style="fill:#27AAE1;stroke:none;" transform="matrix(1 0 0 1 339 696)">
   <path d="M0.993654 0L3.63775 0L29.3281-67.1323L30.0303-67.1323L30.0303-70.459L28.1226-70.459ZM11.6885-24.4799L46.9815-24.4799L46.2315-26.7285L12.4385-26.7285ZM55.1196 0L57.7637 0L30.6382-70.459L29.4326-70.459L29.4326-67.1323Z"/>
  </g>
  <line id="Baseline-S" style="fill:none;stroke:#27AAE1;opacity:1;stroke-width:0.5;" x1="263" x2="3036" y1="696" y2="696"/>
  <line id="Capline-S" style="fill:none;stroke:#27AAE1;opacity:1;stroke-width:0.5;" x1="263" x2="3036" y1="625.541" y2="625.541"/>
  <g id="H-reference" style="fill:#27AAE1;stroke:none;" transform="matrix(1 0 0 1 339 1126)">
   <path d="M0.993654 0L3.63775 0L29.3281-67.1323L30.0303-67.1323L30.0303-70.459L28.1226-70.459ZM11.6885-24.4799L46.9815-24.4799L46.2315-26.7285L12.4385-26.7285ZM55.1196 0L57.7637 0L30.6382-70.459L29.4326-70.459L29.4326-67.1323Z"/>
  </g>
  <line id="Baseline-M" style="fill:none;stroke:#27AAE1;opacity:1;stroke-width:0.5;" x1="263" x2="3036" y1="1126" y2="1126"/>
  <line id="Capline-M" style="fill:none;stroke:#27AAE1;opacity:1;stroke-width:0.5;" x1="263" x2="3036" y1="1055.54" y2="1055.54"/>
  <g id="H-reference" style="fill:#27AAE1;stroke:none;" transform="matrix(1 0 0 1 339 1556)">
   <path d="M0.993654 0L3.63775 0L29.3281-67.1323L30.0303-67.1323L30.0303-70.459L28.1226-70.459ZM11.6885-24.4799L46.9815-24.4799L46.2315-26.7285L12.4385-26.7285ZM55.1196 0L57.7637 0L30.6382-70.459L29.4326-70.459L29.4326-67.1323Z"/>
  </g>
  <line id="Baseline-L" style="fill:none;stroke:#27AAE1;opacity:1;stroke-width:0.5;" x1="263" x2="3036" y1="1556" y2="1556"/>
  <line id="Capline-L" style="fill:none;stroke:#27AAE1;opacity:1;stroke-width:0.5;" x1="263" x2="3036" y1="1485.54" y2="1485.54"/>
  <line id="right-margin-Regular-M" style="fill:none;stroke:#FF3B30;stroke-width:0.5;opacity:1.0;" x1="1518.9" x2="1518.9" y1="1030.79" y2="1150.12"/>
  <line id="left-margin-Regular-M" style="fill:none;stroke:#FF3B30;stroke-width:0.5;opacity:1.0;" x1="1380.79" x2="1380.79" y1="1030.79" y2="1150.12"/>
 </g>
 <g id="Symbols">
  <g id="Black-L" transform="matrix(1 0 0 1 2877.68 1556)">
   <path class="SFSymbolsPreviewWireframe" d="M-34.749 35.991L110.362 35.991C115.483 35.991 119.677 31.735 119.677 26.614C119.677 21.435 115.483 17.178 110.362 17.178L-34.749 17.178C-39.929 17.178-44.123 21.435-44.123 26.614C-44.123 31.735-39.929 35.991-34.749 35.991ZM-9.671 47.398L14.757 47.398C25.783 47.398 32.833 40.29 32.833 29.084L32.833-70.644C32.833-81.848 25.783-88.978 14.757-88.978L-9.671-88.978C-20.775-88.978-27.805-81.848-27.805-70.644L-27.805 29.084C-27.805 40.29-20.775 47.398-9.671 47.398ZM61.151 5.873L85.579 5.873C96.626 5.873 103.654-1.235 103.654-12.46L103.654-70.644C103.654-81.848 96.626-88.978 85.579-88.978L61.151-88.978C50.068-88.978 43.017-81.848 43.017-70.644L43.017-12.46C43.017-1.235 50.068 5.873 61.151 5.873Z"/>
  </g>
  <g id="Heavy-L" transform="matrix(1 0 0 1 2583.21 1556)">
   <path class="SFSymbolsPreviewWireframe" d="M-35.987 9.413L107.105 9.413C111.565 9.413 115.197 5.691 115.197 1.232C115.197-3.272 111.565-6.995 107.105-6.995L-35.987-6.995C-40.491-6.995-44.123-3.272-44.123 1.232C-44.123 5.691-40.491 9.413-35.987 9.413ZM-10.684 44.468L13.266 44.468C23.757 44.468 30.287 37.893 30.287 27.222L30.287-70.711C30.287-81.376 23.757-87.987 13.266-87.987L-10.684-87.987C-21.244-87.987-27.75-81.376-27.75-70.711L-27.75 27.222C-27.75 37.893-21.244 44.468-10.684 44.468ZM58.092 2.316L82.042 2.316C92.563 2.316 99.063-4.259 99.063-14.954L99.063-70.711C99.063-81.376 92.563-87.987 82.042-87.987L58.092-87.987C47.563-87.987 41.026-81.376 41.026-70.711L41.026-14.954C41.026-4.259 47.563 2.316 58.092 2.316Z"/>
  </g>
  <g id="Bold-L" transform="matrix(1 0 0 1 2289.27 1556)">
   <path class="SFSymbolsPreviewWireframe" d="M-37.486-39.865L103.034-39.865C106.686-39.865 109.641-42.935 109.641-46.587C109.641-50.268 106.686-53.337 103.034-53.337L-37.486-53.337C-41.168-53.337-44.123-50.268-44.123-46.587C-44.123-42.935-41.168-39.865-37.486-39.865ZM-12.13 40.819L11.496 40.819C21.214 40.819 27.092 34.912 27.092 25.021L27.092-70.877C27.092-80.755 21.214-86.713 11.496-86.713L-12.13-86.713C-21.902-86.713-27.755-80.755-27.755-70.877L-27.755 25.021C-27.755 34.912-21.902 40.819-12.13 40.819ZM54.237-1.856L77.863-1.856C87.619-1.856 93.459-7.763 93.459-17.678L93.459-70.877C93.459-80.755 87.619-86.713 77.863-86.713L54.237-86.713C44.503-86.713 38.612-80.755 38.612-70.877L38.612-17.678C38.612-7.763 44.503-1.856 54.237-1.856Z"/>
  </g>
  <g id="Semibold-L" transform="matrix(1 0 0 1 1994.48 1556)">
   <path class="SFSymbolsPreviewWireframe" d="M-38.52-77.647L100.227-77.647C103.323-77.647 105.812-80.266 105.812-83.361C105.812-86.476 103.323-89.094 100.227-89.094L-38.52-89.094C-41.634-89.094-44.123-86.476-44.123-83.361C-44.123-80.266-41.634-77.647-38.52-77.647ZM-13.127 38.303L10.276 38.303C19.462 38.303 24.889 32.857 24.889 23.504L24.889-70.992C24.889-80.327 19.462-85.835 10.276-85.835L-13.127-85.835C-22.356-85.835-27.759-80.327-27.759-70.992L-27.759 23.504C-27.759 32.857-22.356 38.303-13.127 38.303ZM51.579-4.732L74.983-4.732C84.211-4.732 89.596-10.178 89.596-19.556L89.596-70.992C89.596-80.327 84.211-85.835 74.983-85.835L51.579-85.835C42.394-85.835 36.948-80.327 36.948-70.992L36.948-19.556C36.948-10.178 42.394-4.732 51.579-4.732Z"/>
  </g>
  <g id="Medium-L" transform="matrix(1 0 0 1 1677.5 1556)">
   <path class="SFSymbolsPreviewWireframe" d="M15.87-83.0753C13.953-83.0753 12.461-84.7233 12.461-86.6403C12.461-88.5574 13.953-90.2043 15.87-90.2043L122.236-90.2043C124.153-90.2043 125.645-88.5574 125.645-86.6403C125.645-84.7233 124.153-83.0753 122.236-83.0753L15.87-83.0753ZM134.108-77.6673L134.108-84.6693C134.108-88.1133 135.851-90.1673 138.993-90.1673L141.406-90.1673C144.539-90.1673 146.344-88.2073 146.344-84.6693L146.344-77.6673L134.108-77.6673ZM134.108 6.87265L134.108-71.9624L146.344-71.9624L146.344 6.93465L141.418 17.8967C140.869 19.0887 139.055 18.9957 138.557 17.8447L134.108 6.87265ZM-32.207 18.9226C-39.267 18.9226-44.123 14.0557-44.123 6.89265L-44.123-77.4633C-44.123-84.6373-39.267-89.4943-32.207-89.4943L-7.981-89.4943C-0.859-89.4943 3.998-84.5853 3.998-77.4123L3.998 6.94465C3.998 14.0557-0.859 18.9226-7.981 18.9226L-32.207 18.9226ZM-3.183 5.62965L-24.033 5.62965C-25.05 5.62965-25.755 4.77965-25.755 3.77265C-25.755 2.72565-24.998 1.95765-23.981 1.95765L-3.183 1.95765L-3.183-2.24235L-16.255-2.24235C-17.324-2.24235-17.967-2.98835-17.967-4.05735C-17.967-5.15635-17.272-5.81035-16.203-5.81035L-3.183-5.81035L-3.183-10.0204L-16.255-10.0204C-17.324-10.0204-17.967-10.8813-17.967-11.8363C-17.967-12.8944-17.272-13.6403-16.203-13.6403L-3.183-13.6403L-3.183-17.7994L-16.255-17.7994C-17.324-17.7994-17.967-18.6083-17.967-19.6143C-17.967-20.7243-17.272-21.4293-16.203-21.4293L-3.183-21.4293L-3.183-25.5774L-16.255-25.5774C-17.324-25.5774-17.967-26.4383-17.967-27.4963C-17.967-28.5023-17.272-29.2604-16.203-29.2604L-3.183-29.2604L-3.183-33.5223L-24.033-33.5223C-25.05-33.5223-25.755-34.2173-25.755-35.2753C-25.755-36.3854-24.998-37.0494-23.981-37.0494L-3.183-37.0494L-3.183-41.2593L-16.255-41.2593C-17.324-41.2593-17.967-42.1093-17.967-43.0123C-17.967-44.1744-17.272-44.9413-16.203-44.9413L-3.183-44.9413L-3.183-49.0893L-16.255-49.0893C-17.324-49.0893-17.967-49.8883-17.967-50.9463C-17.967-52.0043-17.272-52.7203-16.203-52.7203L-3.183-52.7203L-3.183-56.8783L-16.255-56.8783C-17.324-56.8783-17.967-57.6663-17.967-58.6734C-17.967-59.7314-17.272-60.4993-16.203-60.4993L-3.183-60.4993L-3.183-64.7604L-16.255-64.7604C-17.324-64.7604-17.967-65.5073-17.967-66.5133C-17.967-67.6233-17.272-68.3293-16.203-68.3293L-3.183-68.3293L-3.183-72.5394L-24.033-72.5394C-25.05-72.5394-25.755-73.4003-25.755-74.3543C-25.755-75.4543-24.998-76.2114-23.981-76.2114L-3.183-76.2114L-3.183-76.3564C-3.183-79.9334-5.604-82.3133-9.285-82.3133L-30.892-82.3133C-34.584-82.3133-36.943-79.9334-36.943-76.3564L-36.943 5.83665C-36.943 9.41365-34.584 11.7947-30.892 11.7947L-9.285 11.7947C-5.604 11.7947-3.183 9.36265-3.183 5.78465L-3.183 5.62965ZM25.933 6.8288C28.7609 6.8288 31.0449 9.11285 31.0449 11.9407L31.0449 15.8018C31.0449 18.6297 28.7609 20.9137 25.933 20.9137L22.0719 20.9137C19.244 20.9137 16.96 18.6297 16.96 15.8018L16.96 11.9407C16.96 9.11285 19.244 6.8288 22.0719 6.8288L25.933 6.8288ZM41.044 1.7568C43.8719 1.7568 46.1559 4.04085 46.1559 6.86871L46.1559 10.7298C46.1559 13.5577 43.8719 15.8417 41.044 15.8417L37.1829 15.8417C34.355 15.8417 32.071 13.5577 32.071 10.7298L32.071 6.86871C32.071 4.04085 34.355 1.7568 37.1829 1.7568L41.044 1.7568ZM69.66-53.8032C72.4879-53.8032 74.7719-51.5192 74.7719-48.6913L74.7719-44.8302C74.7719-42.0023 72.4879-39.7183 69.66-39.7183L65.7989-39.7183C62.971-39.7183 60.687-42.0023 60.687-44.8302L60.687-48.6913C60.687-51.5192 62.971-53.8032 65.7989-53.8032L69.66-53.8032ZM56.156-15.8412C58.9839-15.8412 61.2679-13.5572 61.2679-10.7293L61.2679-6.86817C61.2679-4.0403 58.9839-1.75626 56.156-1.75626L52.2949-1.75626C49.467-1.75626 47.183-4.0403 47.183-6.86817L47.183-10.7293C47.183-13.5572 49.467-15.8412 52.2949-15.8412L56.156-15.8412ZM84.8652-70.5382C87.6931-70.5382 89.9771-68.2542 89.9771-65.4263L89.9771-61.5652C89.9771-58.7373 87.6931-56.4533 84.8652-56.4533L81.0041-56.4533C78.1762-56.4533 75.8922-58.7373 75.8922-61.5652L75.8922-65.4263C75.8922-68.2542 78.1762-70.5382 81.0041-70.5382L84.8652-70.5382ZM100.759-74.8242C103.587-74.8242 105.871-72.5402 105.871-69.7123L105.871-65.8512C105.871-63.0233 103.587-60.7393 100.759-60.7393L96.8976-60.7393C94.0697-60.7393 91.7857-63.0233 91.7857-65.8512L91.7857-69.7123C91.7857-72.5402 94.0697-74.8242 96.8976-74.8242L100.759-74.8242ZM116.602-76.7912C119.43-76.7912 121.714-74.5072 121.714-71.6793L121.714-67.8182C121.714-64.9903 119.43-62.7063 116.602-62.7063L112.741-62.7063C109.913-62.7063 107.629-64.9903 107.629-67.8182L107.629-71.6793C107.629-74.5072 109.913-76.7912 112.741-76.7912L116.602-76.7912ZM15.1438 18.461C12.9931 18.3146 11.3626 16.4554 11.5126 14.3032C11.6627 12.1623 13.5133 10.5397 15.6639 10.6749C15.6639 10.6749 31.1089 11.7003 43.2328 0.950732C46.2537-1.73103 48.6245-6.14804 50.7252-11.0834C54.2263-19.309 56.8071-28.943 59.2679-35.7826C61.8287-42.9039 64.6696-50.5436 68.7109-56.6282C71.7019-61.1016 75.333-64.7637 79.8745-67.0172C96.6098-75.2991 122.498-74.3076 122.498-74.3076C124.649-74.2287 126.319-72.4033 126.229-70.2511C126.149-68.099 124.329-66.4313 122.178-66.5215C122.178-66.5215 98.5805-67.5694 83.3356-60.0199C79.0942-57.924 76.0433-54.0366 73.5225-49.5295C70.7015-44.4814 68.5809-38.6334 66.6002-33.1347C64.0994-26.1824 61.4586-16.3906 57.9075-8.02978C55.2966-1.91131 52.1656 3.46347 48.4044 6.7875C33.7897 19.7456 15.1438 18.461 15.1438 18.461Z"/>
  </g>
  <g id="Regular-L" transform="matrix(1 0 0 1 1404.4 1556)">
   <path class="SFSymbolsPreviewWireframe" d="M-40.326-96.323L95.323-96.323C97.446-96.323 99.12-98.155 99.12-100.278C99.12-102.401 97.446-104.233 95.323-104.233L-40.326-104.233C-42.449-104.233-44.123-102.401-44.123-100.278C-44.123-98.155-42.449-96.323-40.326-96.323ZM-14.869 33.907L8.144 33.907C16.399 33.907 21.041 29.266 21.041 20.853L21.041-71.193C21.041-79.578 16.399-84.3 8.144-84.3L-14.869-84.3C-23.149-84.3-27.765-79.578-27.765-71.193L-27.765 20.853C-27.765 29.266-23.149 33.907-14.869 33.907ZM46.935-9.757L69.949-9.757C78.257-9.757 82.845-14.399 82.845-22.837L82.845-26.646C82.845-35.031 78.257-39.753 69.949-39.753L46.935-39.753C38.708-39.753 34.039-35.031 34.039-26.646L34.039-22.837C34.039-14.399 38.708-9.757 46.935-9.757Z"/>
  </g>
  <g id="Light-L" transform="matrix(1 0 0 1 1117.57 1556)">
   <path class="SFSymbolsPreviewWireframe" d="M12.196-95.445L76.389-95.445C78.035-95.445 79.365-96.876 79.365-98.522C79.365-100.168 78.035-101.599 76.389-101.599L12.196-101.599C10.55-101.599 9.22-100.168 9.22-98.522C9.22-96.876 10.55-95.445 12.196-95.445ZM-32.983 31.255L-8.462 31.255C-1.447 31.255 2.679 27.128 2.679 20.013L2.679-71.842C2.679-78.91-1.447-83.117-8.462-83.117L-32.983-83.117C-39.984-83.117-44.123-78.91-44.123-71.842L-44.123 20.013C-44.123 27.128-39.984 31.255-32.983 31.255ZM27.963-11.132L52.484-11.132C59.532-11.132 63.624-15.258 63.624-22.36L63.624-71.842C63.624-78.91 59.532-83.117 52.484-83.117L27.963-83.117C20.995-83.117 16.822-78.91 16.822-71.842L16.822-22.36C16.822-15.258 20.995-11.132 27.963-11.132Z"/>
  </g>
  <g id="Thin-L" transform="matrix(1 0 0 1 815.478 1556)">
   <path class="SFSymbolsPreviewWireframe" d="M-42.232-94.284L88.231-94.284C89.246-94.284 90.122-95.185 90.122-96.2C90.122-97.215 89.246-98.116 88.231-98.116L-42.232-98.116C-43.247-98.116-44.123-97.215-44.123-96.2C-44.123-95.185-43.247-94.284-42.232-94.284ZM-20.055 27.746L6.46 27.746C11.834 27.746 15.278 24.301 15.278 18.902L15.278-72.7C15.278-78.027 11.834-81.552 6.46-81.552L-20.055-81.552C-25.365-81.552-28.874-78.027-28.874-72.7L-28.874 18.902C-28.874 24.301-25.365 27.746-20.055 27.746ZM39.755-12.949L66.27-12.949C71.652-12.949 75.088-16.394 75.088-21.729L75.088-72.7C75.088-78.027 71.652-81.552 66.27-81.552L39.755-81.552C34.453-81.552 30.936-78.027 30.936-72.7L30.936-21.729C30.936-16.394 34.453-12.949 39.755-12.949Z"/>
  </g>
  <g id="Ultralight-L" transform="matrix(1 0 0 1 520.08 1556)">
   <path class="SFSymbolsPreviewWireframe" d="M-42.788-93.689L86.162-93.689C86.854-93.689 87.497-94.319 87.497-95.01C87.497-95.702 86.854-96.332 86.162-96.332L-42.788-96.332C-43.48-96.332-44.123-95.702-44.123-95.01C-44.123-94.319-43.48-93.689-42.788-93.689ZM-21.568 25.949L5.969 25.949C10.502 25.949 13.597 22.853 13.597 18.334L13.597-73.139C13.597-77.574 10.502-80.75 5.969-80.75L-21.568-80.75C-26.012-80.75-29.197-77.574-29.197-73.139L-29.197 18.334C-29.197 22.853-26.012 25.949-21.568 25.949ZM37.66-13.88L65.197-13.88C69.726-13.88 72.826-16.975 72.826-21.406L72.826-73.139C72.826-77.574 69.726-80.75 65.197-80.75L37.66-80.75C33.212-80.75 30.031-77.574 30.031-73.139L30.031-21.406C30.031-16.975 33.212-13.88 37.66-13.88Z"/>
  </g>
  <g id="Black-M" transform="matrix(1 0 0 1 2894.46 1126)">
   <path class="SFSymbolsPreviewWireframe" d="M-35.909 52.061L77.948 52.061C82.42 52.061 86.105 48.359 86.105 43.887C86.105 39.359 82.42 35.657 77.948 35.657L-35.909 35.657C-40.437 35.657-44.123 39.359-44.123 43.887C-44.123 48.359-40.437 52.061-35.909 52.061ZM-16.863 30.944L2.677 30.944C11.511 30.944 17.349 25.049 17.349 16.084L17.349-62.696C17.349-71.661 11.511-77.562 2.677-77.562L-16.863-77.562C-25.76-77.562-31.593-71.661-31.593-62.696L-31.593 16.084C-31.593 25.049-25.76 30.944-16.863 30.944ZM39.647-0.514L59.187-0.514C68.027-0.514 73.86-6.409 73.86-15.38L73.86-62.696C73.86-71.661 68.027-77.562 59.187-77.562L39.647-77.562C30.756-77.562 24.918-71.661 24.918-62.696L24.918-15.38C24.918-6.409 30.756-0.514 39.647-0.514Z"/>
  </g>
  <g id="Heavy-M" transform="matrix(1 0 0 1 2599.76 1126)">
   <path class="SFSymbolsPreviewWireframe" d="M-37.043-84.664L75.046-84.664C78.915-84.664 82.083-87.881 82.083-91.75C82.083-95.662 78.915-98.879 75.046-98.879L-37.043-98.879C-40.955-98.879-44.123-95.662-44.123-91.75C-44.123-87.881-40.955-84.664-37.043-84.664ZM1.286 28.324C9.712 28.324 15.09 22.903 15.09 14.341L15.09-62.702C15.09-71.262 9.712-76.702 1.286-76.702C-7.197-76.702-12.561-71.262-12.561-62.702L-12.561 14.341C-12.561 22.903-7.197 28.324 1.286 28.324ZM36.942-3.865L55.876-3.865C64.318-3.865 69.68-9.287 69.68-17.863L69.68-62.702C69.68-71.262 64.318-76.702 55.876-76.702L36.942-76.702C28.475-76.702 23.095-71.262 23.095-62.702L23.095-17.863C23.095-9.287 28.475-3.865 36.942-3.865Z"/>
  </g>
  <g id="Bold-M" transform="matrix(1 0 0 1 2305.3 1126)">
   <path class="SFSymbolsPreviewWireframe" d="M-38.311-84.11L71.8-84.11C74.994-84.11 77.583-86.785 77.583-89.979C77.583-93.202 74.994-95.877 71.8-95.877L-38.311-95.877C-41.534-95.877-44.123-93.202-44.123-89.979C-44.123-86.785-41.534-84.11-38.311-84.11ZM-18.525-28.911L-0.269-28.911C7.699-28.911 12.562-33.803 12.562-41.914L12.562-62.709C12.562-70.815 7.699-75.741-0.269-75.741L-18.525-75.741C-26.545-75.741-31.385-70.815-31.385-62.709L-31.385-41.914C-31.385-33.803-26.545-28.911-18.525-28.911ZM33.916-7.613L52.172-7.613C60.169-7.613 65.004-12.506 65.004-20.64L65.004-62.709C65.004-70.815 60.169-75.741 52.172-75.741L33.916-75.741C25.925-75.741 21.056-70.815 21.056-62.709L21.056-20.64C21.056-12.506 25.925-7.613 33.916-7.613Z"/>
  </g>
  <g id="Semibold-M" transform="matrix(1 0 0 1 2010.14 1126)">
   <path class="SFSymbolsPreviewWireframe" d="M-39.186-83.728L69.562-83.728C72.291-83.728 74.481-86.029 74.481-88.759C74.481-91.506 72.291-93.807 69.562-93.807L-39.186-93.807C-41.933-93.807-44.123-91.506-44.123-88.759C-44.123-86.029-41.933-83.728-39.186-83.728ZM-19.13 23.375L-1.342 23.375C6.311 23.375 10.82 18.847 10.82 11.047L10.82-62.714C10.82-70.507 6.311-75.079-1.342-75.079L-19.13-75.079C-26.831-75.079-31.31-70.507-31.31-62.714L-31.31 11.047C-31.31 18.847-26.831 23.375-19.13 23.375ZM31.83-10.197L34.997-10.197C42.687-10.197 47.159-14.725 47.159-22.555L47.159-62.714C47.159-70.507 42.687-75.079 34.997-75.079L31.83-75.079C24.166-75.079 19.65-70.507 19.65-62.714L19.65-22.555C19.65-14.725 24.166-10.197 31.83-10.197Z"/>
  </g>
  <g id="Medium-M" transform="matrix(1 0 0 1 1714.61 1126)">
   <path class="SFSymbolsPreviewWireframe" d="M-39.849-83.439L67.865-83.439C70.242-83.439 72.129-85.456 72.129-87.833C72.129-90.22 70.242-92.237 67.865-92.237L-39.849-92.237C-42.236-92.237-44.123-90.22-44.123-87.833C-44.123-85.456-42.236-83.439-39.849-83.439ZM-19.588 21.843L-2.155 21.843C5.259 21.843 9.499 17.593 9.499 10.028L9.499-62.717C9.499-70.274 5.259-74.576-2.155-74.576L-19.588-74.576C-27.047-74.576-31.253-70.274-31.253-62.717L-31.253 10.028C-31.253 17.593-27.047 21.843-19.588 21.843ZM47.682-12.157C55.139-12.157 59.336-16.407 59.336-24.007L59.336-62.717C59.336-70.274 55.139-74.576 47.682-74.576C40.266-74.576 36.018-70.274 36.018-62.717L36.018-24.007C36.018-16.407 40.266-12.157 47.682-12.157Z"/>
  </g>
  <g id="Regular-M" transform="matrix(1 0 0 1 1380.79 1126)">
   <path class="SFSymbolsPreviewWireframe" d="M15.87-83.061C13.953-83.061 12.461-84.709 12.461-86.626C12.461-88.543 13.953-90.19 15.87-90.19L122.236-90.19C124.153-90.19 125.645-88.543 125.645-86.626C125.645-84.709 124.153-83.061 122.236-83.061L15.87-83.061ZM67.943 0C60.851 0 56.951-3.89 56.951-11.188L56.951-62.722C56.951-69.969 60.851-73.921 67.943-73.921L70.201-73.921C77.355-73.921 81.193-69.969 81.193-62.722L81.193-11.188C81.193-3.89 77.355 0 70.201 0L67.943 0ZM99.482-14.712C92.39-14.712 88.49-18.602 88.49-25.9L88.49-62.722C88.49-69.969 92.39-73.921 99.482-73.921L101.74-73.921C108.894-73.921 112.732-69.969 112.732-62.722L112.732-25.9C112.732-18.602 108.894-14.712 101.74-14.712L99.482-14.712ZM36.405 19.845C29.313 19.845 25.413 15.956 25.413 8.657L25.413-62.722C25.413-69.969 29.313-73.921 36.405-73.921L38.663-73.921C45.817-73.921 49.655-69.969 49.655-62.722L49.655 8.657C49.655 15.956 45.817 19.845 38.663 19.845L36.405 19.845ZM134.108-77.653L134.108-84.655C134.108-88.099 135.851-90.153 138.993-90.153L141.406-90.153C144.539-90.153 146.344-88.193 146.344-84.655L146.344-77.653L134.108-77.653ZM134.108 6.887L134.108-71.948L146.344-71.948L146.344 6.949L141.418 17.911C140.869 19.103 139.055 19.01 138.557 17.859L134.108 6.887ZM-32.207 18.937C-39.267 18.937-44.123 14.07-44.123 6.907L-44.123-77.449C-44.123-84.623-39.267-89.48-32.207-89.48L-7.981-89.48C-0.859-89.48 3.998-84.571 3.998-77.398L3.998 6.959C3.998 14.07-0.859 18.937-7.981 18.937L-32.207 18.937ZM-3.183 5.644L-24.033 5.644C-25.05 5.644-25.755 4.794-25.755 3.787C-25.755 2.74-24.998 1.972-23.981 1.972L-3.183 1.972L-3.183-2.228L-16.255-2.228C-17.324-2.228-17.967-2.974-17.967-4.043C-17.967-5.142-17.272-5.796-16.203-5.796L-3.183-5.796L-3.183-10.006L-16.255-10.006C-17.324-10.006-17.967-10.867-17.967-11.822C-17.967-12.88-17.272-13.626-16.203-13.626L-3.183-13.626L-3.183-17.785L-16.255-17.785C-17.324-17.785-17.967-18.594-17.967-19.6C-17.967-20.71-17.272-21.415-16.203-21.415L-3.183-21.415L-3.183-25.563L-16.255-25.563C-17.324-25.563-17.967-26.424-17.967-27.482C-17.967-28.488-17.272-29.246-16.203-29.246L-3.183-29.246L-3.183-33.508L-24.033-33.508C-25.05-33.508-25.755-34.203-25.755-35.261C-25.755-36.371-24.998-37.035-23.981-37.035L-3.183-37.035L-3.183-41.245L-16.255-41.245C-17.324-41.245-17.967-42.095-17.967-42.998C-17.967-44.16-17.272-44.927-16.203-44.927L-3.183-44.927L-3.183-49.075L-16.255-49.075C-17.324-49.075-17.967-49.874-17.967-50.932C-17.967-51.99-17.272-52.706-16.203-52.706L-3.183-52.706L-3.183-56.864L-16.255-56.864C-17.324-56.864-17.967-57.652-17.967-58.659C-17.967-59.717-17.272-60.485-16.203-60.485L-3.183-60.485L-3.183-64.746L-16.255-64.746C-17.324-64.746-17.967-65.493-17.967-66.499C-17.967-67.609-17.272-68.315-16.203-68.315L-3.183-68.315L-3.183-72.525L-24.033-72.525C-25.05-72.525-25.755-73.386-25.755-74.34C-25.755-75.44-24.998-76.197-23.981-76.197L-3.183-76.197L-3.183-76.342C-3.183-79.919-5.604-82.299-9.285-82.299L-30.892-82.299C-34.584-82.299-36.943-79.919-36.943-76.342L-36.943 5.851C-36.943 9.428-34.584 11.809-30.892 11.809L-9.285 11.809C-5.604 11.809-3.183 9.377-3.183 5.799L-3.183 5.644Z"/>
  </g>
  <g id="Light-M" transform="matrix(1 0 0 1 1124.46 1126)">
   <path class="SFSymbolsPreviewWireframe" d="M-41.45-82.274L62.914-82.274C64.403-82.274 65.588-83.563 65.588-85.052C65.588-86.541 64.403-87.829 62.914-87.829L-41.45-87.829C-42.939-87.829-44.123-86.541-44.123-85.052C-44.123-83.563-42.939-82.274-41.45-82.274ZM-22.188-41.028L-3.866-41.028C2.124-41.028 5.551-44.456 5.551-50.55L5.551-63.304C5.551-69.37 2.124-72.86-3.866-72.86L-22.188-72.86C-28.186-72.86-31.606-69.37-31.606-63.304L-31.606-50.55C-31.606-44.456-28.186-41.028-22.188-41.028ZM25.414-15.944L43.736-15.944C49.761-15.944 53.153-19.372 53.153-25.473L53.153-63.304C53.153-69.37 49.761-72.86 43.736-72.86L25.414-72.86C19.451-72.86 15.996-69.37 15.996-63.304L15.996-25.473C15.996-19.372 19.451-15.944 25.414-15.944Z"/>
  </g>
  <g id="Thin-M" transform="matrix(1 0 0 1 830.042 1126)">
   <path class="SFSymbolsPreviewWireframe" d="M-42.423-81.233L59.293-81.233C60.217-81.233 60.994-82.046 60.994-82.97C60.994-83.893 60.217-84.706 59.293-84.706L-42.423-84.706C-43.346-84.706-44.123-83.893-44.123-82.97C-44.123-82.046-43.346-81.233-42.423-81.233ZM-24.836 14.321L-4.726 14.321C-0.207 14.321 2.609 11.505 2.609 6.95L2.609-64.073C2.609-68.578-0.207-71.457-4.726-71.457L-24.836-71.457C-29.317-71.457-32.172-68.578-32.172-64.073L-32.172 6.95C-32.172 11.505-29.317 14.321-24.836 14.321ZM21.748-17.574L41.858-17.574C46.389-17.574 49.193-20.39 49.193-24.907L49.193-64.073C49.193-68.578 46.389-71.457 41.858-71.457L21.748-71.457C17.279-71.457 14.412-68.578 14.412-64.073L14.412-24.907C14.412-20.39 17.279-17.574 21.748-17.574Z"/>
  </g>
  <g id="Ultralight-M" transform="matrix(1 0 0 1 534.508 1126)">
   <path class="SFSymbolsPreviewWireframe" d="M-42.921-80.7L57.439-80.7C58.072-80.7 58.64-81.27 58.64-81.903C58.64-82.537 58.072-83.106 57.439-83.106L-42.921-83.106C-43.555-83.106-44.123-82.537-44.123-81.903C-44.123-81.27-43.555-80.7-42.921-80.7ZM-26.192 12.71L-5.167 12.71C-1.401 12.71 1.103 10.207 1.103 6.44L1.103-64.467C1.103-68.172-1.401-70.738-5.167-70.738L-26.192-70.738C-29.897-70.738-32.462-68.172-32.462-64.467L-32.462 6.44C-32.462 10.207-29.897 12.71-26.192 12.71ZM19.87-18.408L40.896-18.408C44.662-18.408 47.165-20.912 47.165-24.617L47.165-64.467C47.165-68.172 44.662-70.738 40.896-70.738L19.87-70.738C16.166-70.738 13.601-68.172 13.601-64.467L13.601-24.617C13.601-20.912 16.166-18.408 19.87-18.408Z"/>
  </g>
  <g id="Black-S" transform="matrix(1 0 0 1 2908.04 696)">
   <path class="SFSymbolsPreviewWireframe" d="M-37.385-74.463L52.263-74.463C55.925-74.463 58.953-77.49 58.953-81.152C58.953-84.863 55.925-87.891 52.263-87.891L-37.385-87.891C-41.096-87.891-44.123-84.863-44.123-81.152C-44.123-77.49-41.096-74.463-37.385-74.463ZM-22.639 17.285L-7.063 17.285C-0.08 17.285 4.607 12.549 4.607 5.469L4.607-56.787C4.607-63.867-0.08-68.604-7.063-68.604L-22.639-68.604C-29.67-68.604-34.358-63.867-34.358-56.787L-34.358 5.469C-34.358 12.549-29.67 17.285-22.639 17.285ZM22.185-7.08L37.761-7.08C44.744-7.08 49.431-11.816 49.431-18.897L49.431-56.787C49.431-63.867 44.744-68.604 37.761-68.604L22.185-68.604C15.154-68.604 10.467-63.867 10.467-56.787L10.467-18.897C10.467-11.816 15.154-7.08 22.185-7.08Z"/>
  </g>
  <g id="Heavy-S" transform="matrix(1 0 0 1 2612.83 696)">
   <path class="SFSymbolsPreviewWireframe" d="M-38.261-74.14L50.131-74.14C53.332-74.14 55.956-76.799 55.956-80C55.956-83.238 53.332-85.897 50.131-85.897L-38.261-85.897C-41.499-85.897-44.123-83.238-44.123-80C-44.123-76.799-41.499-74.14-38.261-74.14ZM-23.054 15.349L-8.169 15.349C-1.394 15.349 2.959 10.959 2.959 4.074L2.959-56.718C2.959-63.602-1.394-68.004-8.169-68.004L-23.054-68.004C-29.878-68.004-34.219-63.602-34.219-56.718L-34.219 4.074C-34.219 10.959-29.878 15.349-23.054 15.349ZM20.226-9.788L35.111-9.788C41.897-9.788 46.239-14.179 46.239-21.075L46.239-56.718C46.239-63.602 41.897-68.004 35.111-68.004L20.226-68.004C13.414-68.004 9.061-63.602 9.061-56.718L9.061-21.075C9.061-14.179 13.414-9.788 20.226-9.788Z"/>
  </g>
  <g id="Bold-S" transform="matrix(1 0 0 1 2317.79 696)">
   <path class="SFSymbolsPreviewWireframe" d="M-39.241-73.779L47.747-73.779C50.432-73.779 52.605-76.025 52.605-78.711C52.605-81.421 50.432-83.667 47.747-83.667L-39.241-83.667C-41.95-83.667-44.123-81.421-44.123-78.711C-44.123-76.025-41.95-73.779-39.241-73.779ZM-23.518 13.184L-9.407 13.184C-2.864 13.184 1.116 9.18 1.116 2.515L1.116-56.641C1.116-63.306-2.864-67.334-9.407-67.334L-23.518-67.334C-30.11-67.334-34.065-63.306-34.065-56.641L-34.065 2.515C-34.065 9.18-30.11 13.184-23.518 13.184ZM18.035-12.817L32.146-12.817C38.714-12.817 42.669-16.821 42.669-23.511L42.669-56.641C42.669-63.306 38.714-67.334 32.146-67.334L18.035-67.334C11.467-67.334 7.488-63.306 7.488-56.641L7.488-23.511C7.488-16.821 11.467-12.817 18.035-12.817Z"/>
  </g>
  <g id="Semibold-S" transform="matrix(1 0 0 1 2022.24 696)">
   <path class="SFSymbolsPreviewWireframe" d="M-39.916-73.531L46.103-73.531C48.433-73.531 50.295-75.492 50.295-77.822C50.295-80.168 48.433-82.13 46.103-82.13L-39.916-82.13C-42.262-82.13-44.123-80.168-44.123-77.822C-44.123-75.492-42.262-73.531-39.916-73.531ZM-23.838 11.691L-10.26 11.691C-3.877 11.691-0.155 7.953-0.155 1.439L-0.155-56.587C-0.155-63.101-3.877-66.872-10.26-66.872L-23.838-66.872C-30.27-66.872-33.958-63.101-33.958-56.587L-33.958 1.439C-33.958 7.953-30.27 11.691-23.838 11.691ZM16.524-14.906L30.102-14.906C36.519-14.906 40.207-18.643 40.207-25.19L40.207-56.587C40.207-63.101 36.519-66.872 30.102-66.872L16.524-66.872C10.126-66.872 6.404-63.101 6.404-56.587L6.404-25.19C6.404-18.643 10.126-14.906 16.524-14.906Z"/>
  </g>
  <g id="Medium-S" transform="matrix(1 0 0 1 1726.4 696)">
   <path class="SFSymbolsPreviewWireframe" d="M-40.428-73.342L44.856-73.342C46.917-73.342 48.543-75.088 48.543-77.148C48.543-79.218 46.917-80.964 44.856-80.964L-40.428-80.964C-42.497-80.964-44.123-79.218-44.123-77.148C-44.123-75.088-42.497-73.342-40.428-73.342ZM-24.08 10.559L-10.907 10.559C-4.645 10.559-1.118 7.023-1.118 0.624L-1.118-56.547C-1.118-62.946-4.645-66.522-10.907-66.522L-24.08-66.522C-30.391-66.522-33.877-62.946-33.877-56.547L-33.877 0.624C-33.877 7.023-30.391 10.559-24.08 10.559ZM15.379-16.489L28.552-16.489C34.854-16.489 38.341-20.024 38.341-26.464L38.341-56.547C38.341-62.946 34.854-66.522 28.552-66.522L15.379-66.522C9.108-66.522 5.582-62.946 5.582-56.547L5.582-26.464C5.582-20.024 9.108-16.489 15.379-16.489Z"/>
  </g>
  <g id="Regular-S" transform="matrix(1 0 0 1 1430.83 696)">
   <path class="SFSymbolsPreviewWireframe" d="M-41.096-73.096L43.23-73.096C44.939-73.096 46.257-74.561 46.257-76.269C46.257-77.979 44.939-79.443 43.23-79.443L-41.096-79.443C-42.805-79.443-44.123-77.979-44.123-76.269C-44.123-74.561-42.805-73.096-41.096-73.096ZM-24.397 9.082L-11.75 9.082C-5.647 9.082-2.375 5.811-2.375-0.439L-2.375-56.494C-2.375-62.744-5.647-66.065-11.75-66.065L-24.397-66.065C-30.549-66.065-33.772-62.744-33.772-56.494L-33.772-0.439C-33.772 5.811-30.549 9.082-24.397 9.082ZM13.884-18.555L26.531-18.555C32.683-18.555 35.906-21.826 35.906-28.125L35.906-56.494C35.906-62.744 32.683-66.065 26.531-66.065L13.884-66.065C7.781-66.065 4.509-62.744 4.509-56.494L4.509-28.125C4.509-21.826 7.781-18.555 13.884-18.555Z"/>
  </g>
  <g id="Light-S" transform="matrix(1 0 0 1 1135.66 696)">
   <path class="SFSymbolsPreviewWireframe" d="M-41.747-72.399L40.808-72.399C42.139-72.399 43.185-73.546 43.185-74.877C43.185-76.208 42.139-77.355 40.808-77.355L-41.747-77.355C-43.077-77.355-44.123-76.208-44.123-74.877C-44.123-73.546-43.077-72.399-41.747-72.399ZM-26.168 6.978L-12.325 6.978C-7.206 6.978-4.343 4.115-4.343-1.105L-4.343-57.009C-4.343-62.214-7.206-65.126-12.325-65.126L-26.168-65.126C-31.306-65.126-34.15-62.214-34.15-57.009L-34.15-1.105C-34.15 4.115-31.306 6.978-26.168 6.978ZM11.432-19.645L25.275-19.645C30.428-19.645 33.257-22.507 33.257-27.747L33.257-57.009C33.257-62.214 30.428-65.126 25.275-65.126L11.432-65.126C6.328-65.126 3.45-62.214 3.45-57.009L3.45-27.747C3.45-22.507 6.328-19.645 11.432-19.645Z"/>
  </g>
  <g id="Thin-S" transform="matrix(1 0 0 1 840.979 696)">
   <path class="SFSymbolsPreviewWireframe" d="M-42.608-71.479L37.605-71.479C38.435-71.479 39.121-72.205 39.121-73.035C39.121-73.865 38.435-74.592 37.605-74.592L-42.608-74.592C-43.438-74.592-44.123-73.865-44.123-73.035C-44.123-72.205-43.438-71.479-42.608-71.479ZM-28.51 4.195L-13.086 4.195C-9.268 4.195-6.946 1.873-6.946-1.986L-6.946-57.689C-6.946-61.514-9.268-63.885-13.086-63.885L-28.51-63.885C-32.307-63.885-34.651-61.514-34.651-57.689L-34.651-1.986C-34.651 1.873-32.307 4.195-28.51 4.195ZM8.189-21.086L23.613-21.086C27.445-21.086 29.754-23.408 29.754-27.246L29.754-57.689C29.754-61.514 27.445-63.885 23.613-63.885L8.189-63.885C4.406-63.885 2.049-61.514 2.049-57.689L2.049-27.246C2.049-23.408 4.406-21.086 8.189-21.086Z"/>
  </g>
  <g id="Ultralight-S" transform="matrix(1 0 0 1 545.309 696)">
   <path class="SFSymbolsPreviewWireframe" d="M-43.049-71.007L35.965-71.007C36.538-71.007 37.039-71.518 37.039-72.092C37.039-72.666 36.538-73.177 35.965-73.177L-43.049-73.177C-43.622-73.177-44.123-72.666-44.123-72.092C-44.123-71.518-43.622-71.007-43.049-71.007ZM-29.71 2.77L-13.476 2.77C-10.324 2.77-8.279 0.725-8.279-2.437L-8.279-58.038C-8.279-61.155-10.324-63.249-13.476-63.249L-29.71-63.249C-32.82-63.249-34.907-61.155-34.907-58.038L-34.907-2.437C-34.907 0.725-32.82 2.77-29.71 2.77ZM6.528-21.824L22.762-21.824C25.917-21.824 27.959-23.87 27.959-26.99L27.959-58.038C27.959-61.155 25.917-63.249 22.762-63.249L6.528-63.249C3.422-63.249 1.331-61.155 1.331-58.038L1.331-26.99C1.331-23.87 3.422-21.824 6.528-21.824Z"/>
  </g>
 </g>
</svg>
