<?xml version="1.0" encoding="UTF-8"?>
<!--Generator: Apple Native CoreSVG 341-->
<!DOCTYPE svg
PUBLIC "-//W3C//DTD SVG 1.1//EN"
       "http://www.w3.org/Graphics/SVG/1.1/DTD/svg11.dtd">
<svg version="1.1" xmlns="http://www.w3.org/2000/svg" xmlns:xlink="http://www.w3.org/1999/xlink" viewBox="0 0 3300 2200">
 <!--glyph: "", point size: 100.0, font version: "21.1d1e1", template writer version: "138.0.0"-->
 <style>.defaults {-sfsymbols-variable-value-mode:color;-sfsymbols-draw-reverses-motion-groups:true}

.monochrome-0 {-sfsymbols-motion-group:0;-sfsymbols-layer-tags:-743911e518568731}

.multicolor-0:tintColor {-sfsymbols-motion-group:0;-sfsymbols-layer-tags:-743911e518568731}

.hierarchical-0:primary {-sfsymbols-motion-group:0;-sfsymbols-layer-tags:-743911e518568731}

.SFSymbolsPreviewWireframe {fill:none;opacity:1.0;stroke:black;stroke-width:0.5}
</style>
 <g id="Notes">
  <rect height="2200" id="artboard" style="fill:white;opacity:1" width="3300" x="0" y="0"/>
  <line style="fill:none;stroke:black;opacity:1;stroke-width:0.5;" x1="263" x2="3036" y1="292" y2="292"/>
  <text style="stroke:none;fill:black;font-family:sans-serif;font-size:13;font-weight:bold;" transform="matrix(1 0 0 1 263 322)">Weight/Scale Variations</text>
  <text style="stroke:none;fill:black;font-family:sans-serif;font-size:13;text-anchor:middle;" transform="matrix(1 0 0 1 559.711 322)">Ultralight</text>
  <text style="stroke:none;fill:black;font-family:sans-serif;font-size:13;text-anchor:middle;" transform="matrix(1 0 0 1 856.422 322)">Thin</text>
  <text style="stroke:none;fill:black;font-family:sans-serif;font-size:13;text-anchor:middle;" transform="matrix(1 0 0 1 1153.13 322)">Light</text>
  <text style="stroke:none;fill:black;font-family:sans-serif;font-size:13;text-anchor:middle;" transform="matrix(1 0 0 1 1449.84 322)">Regular</text>
  <text style="stroke:none;fill:black;font-family:sans-serif;font-size:13;text-anchor:middle;" transform="matrix(1 0 0 1 1746.56 322)">Medium</text>
  <text style="stroke:none;fill:black;font-family:sans-serif;font-size:13;text-anchor:middle;" transform="matrix(1 0 0 1 2043.27 322)">Semibold</text>
  <text style="stroke:none;fill:black;font-family:sans-serif;font-size:13;text-anchor:middle;" transform="matrix(1 0 0 1 2339.98 322)">Bold</text>
  <text style="stroke:none;fill:black;font-family:sans-serif;font-size:13;text-anchor:middle;" transform="matrix(1 0 0 1 2636.69 322)">Heavy</text>
  <text style="stroke:none;fill:black;font-family:sans-serif;font-size:13;text-anchor:middle;" transform="matrix(1 0 0 1 2933.4 322)">Black</text>
  <line style="fill:none;stroke:black;opacity:1;stroke-width:0.5;" x1="263" x2="3036" y1="1903" y2="1903"/>
  <g transform="matrix(0.2 0 0 0.2 263 1933)">
   <path d="m46.2402 4.15039c21.7773 0 39.4531-17.627 39.4531-39.4043s-17.6758-39.4043-39.4531-39.4043c-21.7285 0-39.4043 17.627-39.4043 39.4043s17.6758 39.4043 39.4043 39.4043Zm0-7.42188c-17.6758 0-31.9336-14.3066-31.9336-31.9824s14.2578-31.9824 31.9336-31.9824 31.9824 14.3066 31.9824 31.9824-14.3066 31.9824-31.9824 31.9824Zm3.61328-17.7734v-28.4668c0-2.24609-1.46484-3.75977-3.71094-3.75977-2.14844 0-3.61328 1.51367-3.61328 3.75977v28.4668c0 2.19727 1.46484 3.71094 3.61328 3.71094 2.24609 0 3.71094-1.51367 3.71094-3.71094Zm-17.8223-10.5957h28.418c2.19727 0 3.71094-1.46484 3.71094-3.61328 0-2.19727-1.51367-3.71094-3.71094-3.71094h-28.418c-2.24609 0-3.75977 1.51367-3.75977 3.71094 0 2.14844 1.51367 3.61328 3.75977 3.61328Z"/>
  </g>
  <g transform="matrix(0.2 0 0 0.2 281.506 1933)">
   <path d="m58.5449 14.5508c27.4902 0 49.8047-22.3145 49.8047-49.8047s-22.3145-49.8047-49.8047-49.8047-49.8047 22.3145-49.8047 49.8047 22.3145 49.8047 49.8047 49.8047Zm0-8.30078c-22.9492 0-41.5039-18.5547-41.5039-41.5039s18.5547-41.5039 41.5039-41.5039 41.5039 18.5547 41.5039 41.5039-18.5547 41.5039-41.5039 41.5039Zm4.05273-23.0957v-36.9141c0-2.49023-1.70898-4.19922-4.15039-4.19922-2.39258 0-4.05273 1.70898-4.05273 4.19922v36.9141c0 2.44141 1.66016 4.15039 4.05273 4.15039 2.44141 0 4.15039-1.66016 4.15039-4.15039Zm-22.5586-14.4043h36.9629c2.44141 0 4.15039-1.61133 4.15039-4.00391 0-2.44141-1.70898-4.15039-4.15039-4.15039h-36.9629c-2.49023 0-4.15039 1.70898-4.15039 4.15039 0 2.39258 1.66016 4.00391 4.15039 4.00391Z"/>
  </g>
  <g transform="matrix(0.2 0 0 0.2 304.924 1933)">
   <path d="m74.8535 28.3203c35.1074 0 63.623-28.4668 63.623-63.5742s-28.5156-63.623-63.623-63.623-63.5742 28.5156-63.5742 63.623 28.4668 63.5742 63.5742 63.5742Zm0-9.08203c-30.127 0-54.4922-24.3652-54.4922-54.4922s24.3652-54.4922 54.4922-54.4922 54.4922 24.3652 54.4922 54.4922-24.3652 54.4922-54.4922 54.4922Zm4.44336-30.3223v-48.4863c0-2.73438-1.85547-4.63867-4.54102-4.63867-2.58789 0-4.44336 1.9043-4.44336 4.63867v48.4863c0 2.68555 1.85547 4.58984 4.44336 4.58984 2.68555 0 4.54102-1.85547 4.54102-4.58984Zm-28.7109-19.7754h48.4863c2.68555 0 4.58984-1.80664 4.58984-4.39453 0-2.73438-1.85547-4.58984-4.58984-4.58984h-48.4863c-2.73438 0-4.58984 1.85547-4.58984 4.58984 0 2.58789 1.85547 4.39453 4.58984 4.39453Z"/>
  </g>
  <text style="stroke:none;fill:black;font-family:sans-serif;font-size:13;font-weight:bold;" transform="matrix(1 0 0 1 263 1953)">Design Variations</text>
  <text style="stroke:none;fill:black;font-family:sans-serif;font-size:13;" transform="matrix(1 0 0 1 263 1971)">Symbols are supported in up to nine weights and three scales.</text>
  <text style="stroke:none;fill:black;font-family:sans-serif;font-size:13;" transform="matrix(1 0 0 1 263 1989)">For optimal layout with text and other symbols, vertically align</text>
  <text style="stroke:none;fill:black;font-family:sans-serif;font-size:13;" transform="matrix(1 0 0 1 263 2007)">symbols with the adjacent text.</text>
  <line style="fill:none;stroke:#00AEEF;stroke-width:0.5;opacity:1.0;" x1="776" x2="776" y1="1919" y2="1933"/>
  <g transform="matrix(0.2 0 0 0.2 776 1933)">
   <path d="m16.5527 0.78125c2.58789 0 3.85742-0.976562 4.78516-3.71094l20.5566-57.5195h0.244141l20.6055 57.5195c0.927734 2.73438 2.19727 3.71094 4.73633 3.71094 2.58789 0 4.24805-1.5625 4.24805-4.00391 0-0.830078-0.146484-1.61133-0.537109-2.63672l-22.9004-60.9863c-1.12305-2.97852-3.125-4.49219-6.25-4.49219-3.02734 0-5.07812 1.46484-6.15234 4.44336l-22.9004 61.084c-0.390625 1.02539-0.537109 1.80664-0.537109 2.63672 0 2.44141 1.5625 3.95508 4.10156 3.95508Zm10.2051-20.9473h30.6641c2.00195 0 3.66211-1.66016 3.66211-3.66211 0-2.05078-1.66016-3.66211-3.66211-3.66211h-30.6641c-2.00195 0-3.66211 1.61133-3.66211 3.66211 0 2.00195 1.66016 3.66211 3.66211 3.66211Z"/>
  </g>
  <line style="fill:none;stroke:#00AEEF;stroke-width:0.5;opacity:1.0;" x1="792.836" x2="792.836" y1="1919" y2="1933"/>
  <text style="stroke:none;fill:black;font-family:sans-serif;font-size:13;font-weight:bold;" transform="matrix(1 0 0 1 776 1953)">Margins</text>
  <text style="stroke:none;fill:black;font-family:sans-serif;font-size:13;" transform="matrix(1 0 0 1 776 1971)">Leading and trailing margins on the left and right side of each symbol</text>
  <text style="stroke:none;fill:black;font-family:sans-serif;font-size:13;" transform="matrix(1 0 0 1 776 1989)">can be adjusted by modifying the x-location of the margin guidelines.</text>
  <text style="stroke:none;fill:black;font-family:sans-serif;font-size:13;" transform="matrix(1 0 0 1 776 2007)">Modifications are automatically applied proportionally to all</text>
  <text style="stroke:none;fill:black;font-family:sans-serif;font-size:13;" transform="matrix(1 0 0 1 776 2025)">scales and weights.</text>
  <g transform="matrix(0.2 0 0 0.2 1289 1933)">
   <path d="m14.209 13.1348 7.86133 7.86133c4.29688 4.39453 9.32617 4.10156 13.8672-1.02539l60.6934-68.2129-4.88281-4.88281-60.2539 67.6758c-1.80664 1.95312-3.4668 2.44141-5.81055 0.0976562l-5.17578-5.12695c-2.29492-2.29492-1.80664-3.95508 0.195312-5.81055l67.4805-62.1582-4.88281-4.83398-68.0664 62.5977c-4.98047 4.58984-5.32227 9.47266-1.02539 13.8184Zm44.873-97.4609c-2.05078 2.00195-2.24609 4.88281-1.07422 6.78711 1.12305 1.80664 3.4668 3.02734 6.5918 2.24609 5.85938-1.66016 12.5977-2.39258 18.8965 0.927734l-2.68555 7.12891c-1.61133 4.00391-0.732422 6.88477 1.70898 9.42383l10.2539 10.3027c2.34375 2.39258 4.54102 2.44141 7.08008 1.95312l4.44336-0.732422 2.58789 2.53906-0.195312 2.24609c-0.0976562 2.29492 0.537109 4.29688 2.7832 6.49414l3.36914 3.32031c2.29492 2.29492 5.51758 2.49023 7.8125 0.195312l12.9883-13.0371c2.29492-2.34375 2.14844-5.37109-0.195312-7.66602l-3.41797-3.41797c-2.19727-2.19727-4.05273-3.02734-6.34766-2.88086l-2.34375 0.244141-2.44141-2.44141 1.02539-4.6875c0.634766-2.73438-0.244141-4.98047-2.88086-7.61719l-11.2793-11.1816c-12.9395-12.8418-35.5957-11.0352-46.6797-0.146484Zm7.08008 2.05078c8.78906-6.39648 25.9766-5.66406 33.6914 1.95312l12.3047 12.207c1.02539 1.02539 1.2207 1.80664 0.927734 3.32031l-1.46484 6.64062 6.73828 6.68945 4.39453-0.244141c1.12305-0.0488281 1.51367 0.0488281 2.34375 0.878906l2.53906 2.49023-10.8398 10.8398-2.49023-2.49023c-0.830078-0.878906-0.976562-1.2207-0.927734-2.39258l0.292969-4.3457-6.68945-6.73828-6.83594 1.17188c-1.41602 0.292969-2.05078 0.195312-3.17383-0.878906l-8.93555-8.88672c-1.07422-1.02539-1.17188-1.70898-0.488281-3.36914l4.58984-11.4746c-6.10352-6.34766-17.041-7.51953-25.5859-4.58984-0.683594 0.244141-0.927734-0.390625-0.390625-0.78125Z"/>
  </g>
  <text style="stroke:none;fill:black;font-family:sans-serif;font-size:13;font-weight:bold;" transform="matrix(1 0 0 1 1289 1953)">Exporting</text>
  <text style="stroke:none;fill:black;font-family:sans-serif;font-size:13;" transform="matrix(1 0 0 1 1289 1971)">Symbols should be outlined when exporting to ensure the</text>
  <text style="stroke:none;fill:black;font-family:sans-serif;font-size:13;" transform="matrix(1 0 0 1 1289 1989)">design is preserved when submitting to Xcode.</text>
  <text id="template-version" style="stroke:none;fill:black;font-family:sans-serif;font-size:13;text-anchor:end;" transform="matrix(1 0 0 1 3036 1933)">Template v.6.0</text>
  <text style="stroke:none;fill:black;font-family:sans-serif;font-size:13;text-anchor:end;" transform="matrix(1 0 0 1 3036 1951)">Requires Xcode 16 or greater</text>
  <text id="descriptive-name" style="stroke:none;fill:black;font-family:sans-serif;font-size:13;text-anchor:end;" transform="matrix(1 0 0 1 3036 1969)">Generated from chevron.right.chevron.left</text>
  <text style="stroke:none;fill:black;font-family:sans-serif;font-size:13;text-anchor:end;" transform="matrix(1 0 0 1 3036 1987)">Typeset at 100.0 points</text>
  <text style="stroke:none;fill:black;font-family:sans-serif;font-size:13;" transform="matrix(1 0 0 1 263 726)">Small</text>
  <text style="stroke:none;fill:black;font-family:sans-serif;font-size:13;" transform="matrix(1 0 0 1 263 1156)">Medium</text>
  <text style="stroke:none;fill:black;font-family:sans-serif;font-size:13;" transform="matrix(1 0 0 1 263 1586)">Large</text>
 </g>
 <g id="Guides">
  <g id="H-reference" style="fill:#27AAE1;stroke:none;" transform="matrix(1 0 0 1 339 696)">
   <path d="M0.993654 0L3.63775 0L29.3281-67.1323L30.0303-67.1323L30.0303-70.459L28.1226-70.459ZM11.6885-24.4799L46.9815-24.4799L46.2315-26.7285L12.4385-26.7285ZM55.1196 0L57.7637 0L30.6382-70.459L29.4326-70.459L29.4326-67.1323Z"/>
  </g>
  <line id="Baseline-S" style="fill:none;stroke:#27AAE1;opacity:1;stroke-width:0.5;" x1="263" x2="3036" y1="696" y2="696"/>
  <line id="Capline-S" style="fill:none;stroke:#27AAE1;opacity:1;stroke-width:0.5;" x1="263" x2="3036" y1="625.541" y2="625.541"/>
  <g id="H-reference" style="fill:#27AAE1;stroke:none;" transform="matrix(1 0 0 1 339 1126)">
   <path d="M0.993654 0L3.63775 0L29.3281-67.1323L30.0303-67.1323L30.0303-70.459L28.1226-70.459ZM11.6885-24.4799L46.9815-24.4799L46.2315-26.7285L12.4385-26.7285ZM55.1196 0L57.7637 0L30.6382-70.459L29.4326-70.459L29.4326-67.1323Z"/>
  </g>
  <line id="Baseline-M" style="fill:none;stroke:#27AAE1;opacity:1;stroke-width:0.5;" x1="263" x2="3036" y1="1126" y2="1126"/>
  <line id="Capline-M" style="fill:none;stroke:#27AAE1;opacity:1;stroke-width:0.5;" x1="263" x2="3036" y1="1055.54" y2="1055.54"/>
  <g id="H-reference" style="fill:#27AAE1;stroke:none;" transform="matrix(1 0 0 1 339 1556)">
   <path d="M0.993654 0L3.63775 0L29.3281-67.1323L30.0303-67.1323L30.0303-70.459L28.1226-70.459ZM11.6885-24.4799L46.9815-24.4799L46.2315-26.7285L12.4385-26.7285ZM55.1196 0L57.7637 0L30.6382-70.459L29.4326-70.459L29.4326-67.1323Z"/>
  </g>
  <line id="Baseline-L" style="fill:none;stroke:#27AAE1;opacity:1;stroke-width:0.5;" x1="263" x2="3036" y1="1556" y2="1556"/>
  <line id="Capline-L" style="fill:none;stroke:#27AAE1;opacity:1;stroke-width:0.5;" x1="263" x2="3036" y1="1485.54" y2="1485.54"/>
  <line id="right-margin-Regular-M" style="fill:none;stroke:#00AEEF;stroke-width:0.5;opacity:1.0;" x1="1520.79" x2="1520.79" y1="1030.79" y2="1150.12"/>
  <line id="left-margin-Regular-M" style="fill:none;stroke:#00AEEF;stroke-width:0.5;opacity:1.0;" x1="1378.9" x2="1378.9" y1="1030.79" y2="1150.12"/>
 </g>
 <g id="Symbols">
  <g id="Black-L" transform="matrix(1 0 0 1 2833.98 1556)">
   <path class="monochrome-0 multicolor-0:tintColor hierarchical-0:primary SFSymbolsPreviewWireframe" d="M33.951 20.797C31.509 23.237 28.636 24.364 25.23 24.364C18.223 24.364 12.461 18.639 12.461 11.75C12.461 8.229 13.935 5.002 16.646 2.329L57.761-37.499L57.761-33.239L16.646-72.868C13.876-75.543 12.461-78.79 12.461-82.232C12.461-89.121 18.223-94.846 25.23-94.846C28.694-94.846 31.508-93.721 33.949-91.301L80.281-45.928C83.659-42.628 85.08-39.36 85.139-35.27C85.139-31.238 83.719-27.954 80.282-24.613L33.951 20.797ZM164.902 20.797L118.571-24.613C115.172-28.012 113.694-31.238 113.694-35.27C113.752-39.36 115.231-42.57 118.572-45.928L164.904-91.301C167.324-93.721 170.139-94.846 173.602-94.846C180.609-94.846 186.392-89.121 186.392-82.232C186.392-78.79 184.956-75.543 182.207-72.868L141.071-33.239L141.071-37.499L182.207 2.329C184.898 5.002 186.392 8.229 186.392 11.75C186.392 18.639 180.609 24.364 173.602 24.364C170.197 24.364 167.382 23.179 164.902 20.797Z"/>
  </g>
  <g id="Heavy-L" transform="matrix(1 0 0 1 2540.12 1556)">
   <path class="monochrome-0 multicolor-0:tintColor hierarchical-0:primary SFSymbolsPreviewWireframe" d="M31.048 19.943C28.93 22.055 26.435 23.063 23.476 23.063C17.405 23.063 12.461 18.133 12.461 12.151C12.461 9.114 13.72 6.335 16.025 4.05L59.13-37.738L59.13-32.977L16.025-74.59C13.675-76.88 12.461-79.69 12.461-82.652C12.461-88.633 17.405-93.564 23.476-93.564C26.48-93.564 28.924-92.561 31.042-90.479L78.243-44.358C81.086-41.591 82.328-38.751 82.373-35.27C82.373-31.833 81.136-29.015 78.249-26.187L31.048 19.943ZM162.106 19.943L114.905-26.187C112.032-29.06 110.75-31.833 110.75-35.27C110.795-38.751 112.082-41.546 114.91-44.358L162.112-90.479C164.199-92.561 166.649-93.564 169.647-93.564C175.718-93.564 180.693-88.633 180.693-82.652C180.693-79.69 179.448-76.88 177.129-74.59L133.993-32.977L133.993-37.738L177.129 4.05C179.403 6.335 180.693 9.114 180.693 12.151C180.693 18.133 175.718 23.063 169.647 23.063C166.693 23.063 164.238 22.01 162.106 19.943Z"/>
  </g>
  <g id="Bold-L" transform="matrix(1 0 0 1 2246.85 1556)">
   <path class="monochrome-0 multicolor-0:tintColor hierarchical-0:primary SFSymbolsPreviewWireframe" d="M27.511 18.764C25.786 20.476 23.76 21.338 21.347 21.338C16.421 21.338 12.461 17.369 12.461 12.502C12.461 10.057 13.459 7.816 15.279 6L60.732-37.933L60.732-32.758L15.279-76.539C13.429-78.368 12.461-80.647 12.461-83.025C12.461-87.892 16.421-91.861 21.347-91.861C23.789-91.861 25.773-91.012 27.498-89.338L75.715-42.504C77.934-40.352 78.969-38.035 78.998-35.27C78.998-32.533 77.977-30.277 75.728-28.049L27.511 18.764ZM158.751 18.764L110.534-28.049C108.277-30.306 107.227-32.533 107.227-35.27C107.256-38.035 108.32-40.323 110.547-42.504L158.765-89.338C160.452-91.012 162.449-91.861 164.878-91.861C169.804-91.861 173.802-87.892 173.802-83.025C173.802-80.647 172.795-78.368 170.984-76.539L125.493-32.758L125.493-37.933L170.984 6C172.766 7.816 173.802 10.057 173.802 12.502C173.802 17.369 169.804 21.338 164.878 21.338C162.478 21.338 160.468 20.447 158.751 18.764Z"/>
  </g>
  <g id="Semibold-L" transform="matrix(1 0 0 1 1952.51 1556)">
   <path class="monochrome-0 multicolor-0:tintColor hierarchical-0:primary SFSymbolsPreviewWireframe" d="M25.073 17.951C23.618 19.387 21.915 20.148 19.879 20.148C15.742 20.148 12.461 16.842 12.461 12.743C12.461 10.706 13.278 8.836 14.764 7.344L61.836-38.068L61.836-32.608L14.764-77.884C13.26-79.394 12.461-81.307 12.461-83.283C12.461-87.381 15.742-90.688 19.879-90.688C21.934-90.688 23.6-89.945 25.055-88.552L73.973-41.225C75.762-39.498 76.653-37.542 76.671-35.27C76.671-33.016 75.799-31.147 73.991-29.333L25.073 17.951ZM156.44 17.951L107.522-29.333C105.69-31.165 104.799-33.016 104.799-35.27C104.817-37.542 105.727-39.48 107.541-41.225L156.459-88.552C157.87-89.945 159.555-90.688 161.592-90.688C165.728-90.688 169.052-87.381 169.052-83.283C169.052-81.307 168.21-79.394 166.749-77.884L119.635-32.608L119.635-38.068L166.749 7.344C168.192 8.836 169.052 10.706 169.052 12.743C169.052 16.842 165.728 20.148 161.592 20.148C159.573 20.148 157.87 19.368 156.44 17.951Z"/>
  </g>
  <g id="Medium-L" transform="matrix(1 0 0 1 1657.6 1556)">
   <path class="monochrome-0 multicolor-0:tintColor hierarchical-0:primary SFSymbolsPreviewWireframe" d="M23.225 17.334C21.975 18.561 20.517 19.246 18.765 19.246C15.228 19.246 12.461 16.443 12.461 12.926C12.461 11.199 13.142 9.61 14.374 8.363L62.673-38.17L62.673-32.494L14.374-78.903C13.131-80.172 12.461-81.808 12.461-83.478C12.461-86.994 15.228-89.798 18.765-89.798C20.527-89.798 21.952-89.135 23.202-87.955L72.651-40.256C74.114-38.851 74.897-37.167 74.907-35.27C74.907-33.383 74.147-31.806 72.674-30.306L23.225 17.334ZM154.687 17.334L105.238-30.306C103.728-31.817 102.957-33.383 102.957-35.27C102.968-37.167 103.761-38.84 105.261-40.256L154.71-87.955C155.912-89.135 157.36-89.798 159.099-89.798C162.637-89.798 165.451-86.994 165.451-83.478C165.451-81.808 164.733-80.172 163.538-78.903L115.192-32.494L115.192-38.17L163.538 8.363C164.723 9.61 165.451 11.199 165.451 12.926C165.451 16.443 162.637 19.246 159.099 19.246C157.37 19.246 155.9 18.551 154.687 17.334Z"/>
  </g>
  <g id="Regular-L" transform="matrix(1 0 0 1 1363.24 1556)">
   <path class="monochrome-0 multicolor-0:tintColor hierarchical-0:primary SFSymbolsPreviewWireframe" d="M20.813 16.53C19.831 17.485 18.693 18.07 17.313 18.07C14.557 18.07 12.461 15.922 12.461 13.165C12.461 11.841 12.964 10.62 13.866 9.693L63.764-38.303L63.764-32.345L13.866-80.232C12.964-81.187 12.461-82.461 12.461-83.732C12.461-86.489 14.557-88.637 17.313-88.637C18.693-88.637 19.803-88.079 20.786-87.177L70.928-38.991C71.966-38.006 72.606-36.679 72.606-35.27C72.606-33.86 71.993-32.667 70.955-31.576L20.813 16.53ZM152.401 16.53L102.259-31.576C101.168-32.667 100.555-33.86 100.555-35.27C100.555-36.679 101.196-38.006 102.286-38.991L152.428-87.177C153.358-88.079 154.496-88.637 155.848-88.637C158.605-88.637 160.753-86.489 160.753-83.732C160.753-82.461 160.198-81.187 159.348-80.232L109.397-32.345L109.397-38.303L159.348 9.693C160.198 10.62 160.753 11.841 160.753 13.165C160.753 15.922 158.605 18.07 155.848 18.07C154.496 18.07 153.331 17.485 152.401 16.53Z"/>
  </g>
  <g id="Light-L" transform="matrix(1 0 0 1 1068.36 1556)">
   <path class="monochrome-0 multicolor-0:tintColor hierarchical-0:primary SFSymbolsPreviewWireframe" d="M18.752 14.927C17.98 15.652 17.166 16.142 16.111 16.142C14.06 16.142 12.461 14.509 12.461 12.459C12.461 11.498 12.811 10.544 13.503 9.864L64.26-37.787L64.26-32.879L13.503-80.404C12.811-81.13 12.461-82.117 12.461-83.045C12.461-85.096 14.06-86.729 16.111-86.729C17.166-86.729 17.933-86.285 18.705-85.593L69.153-38.285C70.019-37.453 70.602-36.431 70.602-35.27C70.602-34.108 70.066-33.201 69.2-32.301L18.752 14.927ZM150.798 14.927L100.351-32.301C99.451-33.201 98.914-34.108 98.914-35.27C98.914-36.431 99.498-37.453 100.398-38.285L150.845-85.593C151.584-86.285 152.398-86.729 153.406-86.729C155.456-86.729 157.089-85.096 157.089-83.045C157.089-82.117 156.706-81.13 156.047-80.404L105.256-32.879L105.256-37.787L156.047 9.864C156.706 10.544 157.089 11.498 157.089 12.459C157.089 14.509 155.456 16.142 153.406 16.142C152.398 16.142 151.537 15.652 150.798 14.927Z"/>
  </g>
  <g id="Thin-L" transform="matrix(1 0 0 1 774.075 1556)">
   <path class="monochrome-0 multicolor-0:tintColor hierarchical-0:primary SFSymbolsPreviewWireframe" d="M16.026 12.806C15.531 13.229 15.146 13.593 14.52 13.593C13.404 13.593 12.461 12.642 12.461 11.525C12.461 11.043 12.609 10.443 13.023 10.092L64.917-37.106L64.917-33.586L13.023-80.631C12.609-81.054 12.461-81.663 12.461-82.137C12.461-83.253 13.404-84.204 14.52-84.204C15.146-84.204 15.459-83.913 15.954-83.498L66.805-37.351C67.444-36.721 67.952-36.103 67.952-35.27C67.952-34.436 67.516-33.908 66.877-33.26L16.026 12.806ZM148.677 12.806L97.826-33.26C97.179-33.908 96.743-34.436 96.743-35.27C96.743-36.103 97.251-36.721 97.898-37.351L148.749-83.498C149.236-83.913 149.62-84.204 150.174-84.204C151.291-84.204 152.242-83.253 152.242-82.137C152.242-81.663 152.086-81.054 151.68-80.631L99.778-33.586L99.778-37.106L151.68 10.092C152.086 10.443 152.242 11.043 152.242 11.525C152.242 12.642 151.291 13.593 150.174 13.593C149.62 13.593 149.164 13.229 148.677 12.806Z"/>
  </g>
  <g id="Ultralight-L" transform="matrix(1 0 0 1 478.605 1556)">
   <path class="monochrome-0 multicolor-0:tintColor hierarchical-0:primary SFSymbolsPreviewWireframe" d="M14.63 11.72C14.277 11.988 14.112 12.287 13.706 12.287C13.068 12.287 12.461 11.685 12.461 11.047C12.461 10.811 12.505 10.391 12.778 10.208L65.253-36.757L65.253-33.948L12.778-80.747C12.505-81.015 12.461-81.43 12.461-81.671C12.461-82.309 13.068-82.912 13.706-82.912C14.112-82.912 14.192-82.697 14.545-82.425L65.603-36.873C66.125-36.346 66.594-35.935 66.594-35.27C66.594-34.604 66.21-34.27 65.688-33.752L14.63 11.72ZM147.591 11.72L96.533-33.752C96.015-34.27 95.631-34.604 95.631-35.27C95.631-35.935 96.1-36.346 96.618-36.873L147.676-82.425C148.034-82.697 148.198-82.912 148.52-82.912C149.158-82.912 149.76-82.309 149.76-81.671C149.76-81.43 149.72-81.015 149.443-80.747L96.973-33.948L96.973-36.757L149.443 10.208C149.72 10.391 149.76 10.811 149.76 11.047C149.76 11.685 149.158 12.287 148.52 12.287C148.198 12.287 147.949 11.988 147.591 11.72Z"/>
  </g>
  <g id="Black-M" transform="matrix(1 0 0 1 2851.37 1126)">
   <path class="monochrome-0 multicolor-0:tintColor hierarchical-0:primary SFSymbolsPreviewWireframe" d="M31.325 8.693C29.183 10.835 26.676 11.797 23.697 11.797C17.561 11.797 12.461 6.748 12.461 0.726C12.461-2.368 13.766-5.217 16.188-7.588L46.447-36.712L46.447-33.985L16.188-62.934C13.709-65.304 12.461-68.159 12.461-71.19C12.461-77.212 17.561-82.26 23.697-82.26C26.733-82.26 29.184-81.298 31.326-79.162L66.514-44.771C69.569-41.779 70.815-38.919 70.873-35.261C70.873-31.66 69.625-28.753 66.513-25.75L31.325 8.693ZM132.751 8.693L97.562-25.75C94.502-28.811 93.198-31.66 93.198-35.261C93.255-38.919 94.559-41.722 97.562-44.771L132.75-79.162C134.887-81.298 137.337-82.26 140.373-82.26C146.51-82.26 151.615-77.212 151.615-71.19C151.615-68.159 150.361-65.304 147.888-62.934L117.623-33.985L117.623-36.712L147.888-7.588C150.304-5.217 151.615-2.368 151.615 0.726C151.615 6.748 146.51 11.797 140.373 11.797C137.394 11.797 134.944 10.778 132.751 8.693Z"/>
  </g>
  <g id="Heavy-M" transform="matrix(1 0 0 1 2557.27 1126)">
   <path class="monochrome-0 multicolor-0:tintColor hierarchical-0:primary SFSymbolsPreviewWireframe" d="M28.678 8.006C26.833 9.848 24.666 10.703 22.094 10.703C16.807 10.703 12.461 6.384 12.461 1.184C12.461-1.471 13.571-3.906 15.614-5.921L47.74-36.993L47.74-33.68L15.614-64.601C13.527-66.617 12.461-69.069 12.461-71.664C12.461-76.864 16.807-81.183 22.094-81.183C24.71-81.183 26.831-80.33 28.675-78.505L64.686-43.302C67.233-40.815 68.31-38.347 68.354-35.261C68.354-32.218 67.279-29.741 64.688-27.222L28.678 8.006ZM130.164 8.006L94.154-27.222C91.591-29.785 90.472-32.218 90.472-35.261C90.515-38.347 91.636-40.772 94.156-43.302L130.167-78.505C131.995-80.33 134.118-81.183 136.732-81.183C142.018-81.183 146.381-76.864 146.381-71.664C146.381-69.069 145.299-66.617 143.228-64.601L111.086-33.68L111.086-36.993L143.228-5.921C145.255-3.906 146.381-1.471 146.381 1.184C146.381 6.384 142.018 10.703 136.732 10.703C134.162 10.703 132.036 9.805 130.164 8.006Z"/>
  </g>
  <g id="Bold-M" transform="matrix(1 0 0 1 2263.49 1126)">
   <path class="monochrome-0 multicolor-0:tintColor hierarchical-0:primary SFSymbolsPreviewWireframe" d="M25.716 7.238C24.205 8.745 22.418 9.479 20.301 9.479C15.964 9.479 12.461 5.976 12.461 1.696C12.461-0.467 13.352-2.441 14.972-4.056L49.186-37.308L49.186-33.338L14.972-66.465C13.323-68.086 12.461-70.088 12.461-72.194C12.461-76.474 15.964-79.977 20.301-79.977C22.446-79.977 24.199-79.248 25.711-77.77L62.641-41.659C64.62-39.737 65.508-37.707 65.536-35.261C65.536-32.843 64.654-30.846 62.647-28.868L25.716 7.238ZM127.271 7.238L90.34-28.868C88.333-30.875 87.422-32.843 87.422-35.261C87.45-37.707 88.367-39.709 90.345-41.659L127.276-77.77C128.759-79.248 130.517-79.977 132.657-79.977C136.994-79.977 140.526-76.474 140.526-72.194C140.526-70.088 139.635-68.086 138.015-66.465L103.772-33.338L103.772-37.308L138.015-4.056C139.607-2.441 140.526-0.467 140.526 1.696C140.526 5.976 136.994 9.479 132.657 9.479C130.546 9.479 128.782 8.716 127.271 7.238Z"/>
  </g>
  <g id="Semibold-M" transform="matrix(1 0 0 1 1968.8 1126)">
   <path class="monochrome-0 multicolor-0:tintColor hierarchical-0:primary SFSymbolsPreviewWireframe" d="M23.674 6.709C22.392 7.984 20.867 8.636 19.065 8.636C15.383 8.636 12.461 5.695 12.461 2.049C12.461 0.225 13.201-1.43 14.529-2.77L50.183-37.525L50.183-33.102L14.529-67.751C13.183-69.098 12.461-70.79 12.461-72.56C12.461-76.206 15.383-79.146 19.065-79.146C20.886-79.146 22.385-78.501 23.667-77.263L61.232-40.526C62.818-38.994 63.576-37.265 63.594-35.261C63.594-33.274 62.844-31.608 61.239-30.003L23.674 6.709ZM125.277 6.709L87.712-30.003C86.089-31.626 85.32-33.274 85.32-35.261C85.338-37.265 86.114-38.976 87.719-40.526L125.284-77.263C126.529-78.501 128.035-79.146 129.849-79.146C133.531-79.146 136.49-76.206 136.49-72.56C136.49-70.79 135.731-69.098 134.421-67.751L98.731-33.102L98.731-37.525L134.421-2.77C135.713-1.43 136.49 0.225 136.49 2.049C136.49 5.695 133.531 8.636 129.849 8.636C128.053 8.636 126.54 7.966 125.277 6.709Z"/>
  </g>
  <g id="Medium-M" transform="matrix(1 0 0 1 1673.61 1126)">
   <path class="monochrome-0 multicolor-0:tintColor hierarchical-0:primary SFSymbolsPreviewWireframe" d="M22.126 6.308C21.018 7.407 19.692 7.997 18.128 7.997C14.942 7.997 12.461 5.482 12.461 2.317C12.461 0.75 13.086-0.664 14.194-1.796L50.939-37.69L50.939-32.923L14.194-68.726C13.076-69.866 12.461-71.323 12.461-72.837C12.461-76.002 14.942-78.516 18.128-78.516C19.702-78.516 21.009-77.935 22.117-76.879L60.163-39.667C61.452-38.431 62.111-36.931 62.121-35.261C62.121-33.601 61.471-32.186 60.172-30.863L22.126 6.308ZM123.764 6.308L85.719-30.863C84.386-32.196 83.726-33.601 83.726-35.261C83.736-36.931 84.405-38.421 85.727-39.667L123.773-76.879C124.837-77.935 126.153-78.516 127.719-78.516C130.904-78.516 133.429-76.002 133.429-72.837C133.429-71.323 132.77-69.866 131.696-68.726L94.908-32.923L94.908-37.69L131.696-1.796C132.76-0.664 133.429 0.75 133.429 2.317C133.429 5.482 130.904 7.997 127.719 7.997C126.163 7.997 124.839 7.397 123.764 6.308Z"/>
  </g>
  <g id="Regular-M" transform="matrix(1 0 0 1 1378.9 1126)">
   <path class="monochrome-0 multicolor-0:tintColor hierarchical-0:primary SFSymbolsPreviewWireframe" d="M20.106 5.784C19.226 6.654 18.159 7.162 16.905 7.162C14.367 7.162 12.461 5.204 12.461 2.666C12.461 1.434 12.937 0.335 13.756-0.524L51.925-37.904L51.925-32.69L13.756-69.997C12.937-70.867 12.461-72.017 12.461-73.198C12.461-75.736 14.367-77.694 16.905-77.694C18.159-77.694 19.215-77.197 20.096-76.378L58.769-38.546C59.671-37.696 60.2-36.494 60.2-35.261C60.2-34.027 59.681-32.939 58.779-31.986L20.106 5.784ZM121.791 5.784L83.118-31.986C82.164-32.939 81.646-34.027 81.646-35.261C81.646-36.494 82.175-37.696 83.129-38.546L121.802-76.378C122.631-77.197 123.698-77.694 124.941-77.694C127.479-77.694 129.437-75.736 129.437-73.198C129.437-72.017 128.909-70.867 128.142-69.997L89.921-32.69L89.921-37.904L128.142-0.524C128.909 0.335 129.437 1.434 129.437 2.666C129.437 5.204 127.479 7.162 124.941 7.162C123.698 7.162 122.621 6.654 121.791 5.784Z"/>
  </g>
  <g id="Light-M" transform="matrix(1 0 0 1 1083.83 1126)">
   <path class="monochrome-0 multicolor-0:tintColor hierarchical-0:primary SFSymbolsPreviewWireframe" d="M18.258 4.347C17.566 5.012 16.79 5.434 15.827 5.434C13.922 5.434 12.461 3.938 12.461 2.033C12.461 1.126 12.8 0.267 13.431-0.37L52.37-37.442L52.37-33.169L13.431-70.151C12.8-70.816 12.461-71.709 12.461-72.582C12.461-74.487 13.922-75.983 15.827-75.983C16.79-75.983 17.538-75.588 18.231-74.958L57.178-37.913C57.925-37.2 58.403-36.272 58.403-35.261C58.403-34.25 57.953-33.418 57.205-32.636L18.258 4.347ZM120.355 4.347L81.408-32.636C80.625-33.418 80.175-34.25 80.175-35.261C80.175-36.272 80.653-37.2 81.436-37.913L120.382-74.958C121.04-75.588 121.816-75.983 122.751-75.983C124.656-75.983 126.152-74.487 126.152-72.582C126.152-71.709 125.778-70.816 125.182-70.151L86.209-33.169L86.209-37.442L125.182-0.37C125.778 0.267 126.152 1.126 126.152 2.033C126.152 3.938 124.656 5.434 122.751 5.434C121.816 5.434 121.012 5.012 120.355 4.347Z"/>
  </g>
  <g id="Thin-M" transform="matrix(1 0 0 1 789.292 1126)">
   <path class="monochrome-0 multicolor-0:tintColor hierarchical-0:primary SFSymbolsPreviewWireframe" d="M15.814 2.446C15.371 2.839 14.98 3.148 14.402 3.148C13.334 3.148 12.461 2.263 12.461 1.196C12.461 0.718 12.619 0.176 13.001-0.167L52.958-36.831L52.958-33.803L13.001-70.355C12.619-70.748 12.461-71.302 12.461-71.768C12.461-72.835 13.334-73.72 14.402-73.72C14.98-73.72 15.32-73.461 15.764-73.08L55.073-37.076C55.617-36.544 56.027-35.978 56.027-35.261C56.027-34.544 55.668-34.052 55.123-33.496L15.814 2.446ZM118.454 2.446L79.144-33.496C78.588-34.052 78.228-34.544 78.228-35.261C78.228-35.978 78.638-36.544 79.194-37.076L118.504-73.08C118.935-73.461 119.327-73.72 119.854-73.72C120.922-73.72 121.807-72.835 121.807-71.768C121.807-71.302 121.636-70.748 121.267-70.355L81.297-33.803L81.297-36.831L121.267-0.167C121.636 0.176 121.807 0.718 121.807 1.196C121.807 2.263 120.922 3.148 119.854 3.148C119.327 3.148 118.885 2.839 118.454 2.446Z"/>
  </g>
  <g id="Ultralight-M" transform="matrix(1 0 0 1 493.694 1126)">
   <path class="monochrome-0 multicolor-0:tintColor hierarchical-0:primary SFSymbolsPreviewWireframe" d="M14.562 1.472C14.246 1.726 14.052 1.978 13.671 1.978C13.033 1.978 12.461 1.406 12.461 0.767C12.461 0.51 12.527 0.13 12.78-0.062L53.26-36.518L53.26-34.127L12.78-70.459C12.527-70.713 12.461-71.093 12.461-71.35C12.461-71.989 13.033-72.561 13.671-72.561C14.052-72.561 14.184-72.372 14.501-72.118L53.995-36.647C54.435-36.207 54.81-35.827 54.81-35.261C54.81-34.694 54.497-34.377 54.057-33.936L14.562 1.472ZM117.48 1.472L77.985-33.936C77.545-34.377 77.232-34.694 77.232-35.261C77.232-35.827 77.607-36.207 78.047-36.647L117.541-72.118C117.857-72.372 118.051-72.561 118.37-72.561C119.009-72.561 119.581-71.989 119.581-71.35C119.581-71.093 119.515-70.713 119.262-70.459L78.782-34.127L78.782-36.518L119.262-0.062C119.515 0.13 119.581 0.51 119.581 0.767C119.581 1.406 119.009 1.978 118.37 1.978C118.051 1.978 117.795 1.726 117.48 1.472Z"/>
  </g>
  <g id="Black-S" transform="matrix(1 0 0 1 2865.72 696)">
   <path class="monochrome-0 multicolor-0:tintColor hierarchical-0:primary SFSymbolsPreviewWireframe" d="M27.939-0.684C26.181 1.074 24.131 1.855 21.689 1.855C16.66 1.855 12.461-2.295 12.461-7.227C12.461-9.766 13.535-12.109 15.537-14.063L38.73-36.279L38.73-34.375L15.537-56.445C13.486-58.398 12.461-60.742 12.461-63.232C12.461-68.164 16.66-72.315 21.689-72.315C24.179-72.315 26.181-71.533 27.939-69.775L55.283-43.115C57.822-40.625 58.847-38.281 58.896-35.254C58.896-32.275 57.871-29.883 55.283-27.393L27.939-0.684ZM107.432-0.684L80.087-27.393C77.548-29.932 76.474-32.275 76.474-35.254C76.523-38.281 77.597-40.576 80.087-43.115L107.432-69.775C109.189-71.533 111.191-72.315 113.682-72.315C118.711-72.315 122.91-68.164 122.91-63.232C122.91-60.742 121.885-58.398 119.834-56.445L96.64-34.375L96.64-36.279L119.834-14.063C121.836-12.109 122.91-9.766 122.91-7.227C122.91-2.295 118.711 1.855 113.682 1.855C111.24 1.855 109.238 1.025 107.432-0.684Z"/>
  </g>
  <g id="Heavy-S" transform="matrix(1 0 0 1 2571.04 696)">
   <path class="monochrome-0 multicolor-0:tintColor hierarchical-0:primary SFSymbolsPreviewWireframe" d="M25.911-1.087C24.384 0.44 22.586 1.141 20.456 1.141C16.072 1.141 12.461-2.445 12.461-6.754C12.461-8.959 13.385-10.98 15.087-12.657L39.779-36.579L39.779-34.052L15.087-57.851C13.348-59.528 12.461-61.56 12.461-63.716C12.461-68.026 16.072-71.612 20.456-71.612C22.624-71.612 24.384-70.911 25.911-69.395L53.923-41.94C56.047-39.864 56.934-37.82 56.972-35.254C56.972-32.725 56.085-30.667 53.923-28.568L25.911-1.087ZM105.403-1.087L77.391-28.568C75.255-30.704 74.331-32.725 74.331-35.254C74.368-37.82 75.292-39.827 77.391-41.94L105.403-69.395C106.918-70.911 108.678-71.612 110.846-71.612C115.23-71.612 118.853-68.026 118.853-63.716C118.853-61.56 117.954-59.528 116.226-57.851L91.523-34.052L91.523-36.579L116.226-12.657C117.917-10.98 118.853-8.959 118.853-6.754C118.853-2.445 115.23 1.141 110.846 1.141C108.716 1.141 106.956 0.403 105.403-1.087Z"/>
  </g>
  <g id="Bold-S" transform="matrix(1 0 0 1 2276.59 696)">
   <path class="monochrome-0 multicolor-0:tintColor hierarchical-0:primary SFSymbolsPreviewWireframe" d="M23.642-1.538C22.373-0.269 20.859 0.342 19.077 0.342C15.415 0.342 12.461-2.612 12.461-6.226C12.461-8.057 13.217-9.717 14.585-11.084L40.952-36.914L40.952-33.691L14.585-59.424C13.193-60.791 12.461-62.476 12.461-64.258C12.461-67.871 15.415-70.825 19.077-70.825C20.883-70.825 22.373-70.215 23.642-68.97L52.402-40.625C54.062-39.014 54.795-37.305 54.819-35.254C54.819-33.228 54.087-31.543 52.402-29.883L23.642-1.538ZM103.134-1.538L74.374-29.883C72.69-31.567 71.933-33.228 71.933-35.254C71.957-37.305 72.714-38.989 74.374-40.625L103.134-68.97C104.38-70.215 105.869-70.825 107.675-70.825C111.338-70.825 114.316-67.871 114.316-64.258C114.316-62.476 113.559-60.791 112.192-59.424L85.8-33.691L85.8-36.914L112.192-11.084C113.535-9.717 114.316-8.057 114.316-6.226C114.316-2.612 111.338 0.342 107.675 0.342C105.893 0.342 104.404-0.293 103.134-1.538Z"/>
  </g>
  <g id="Semibold-S" transform="matrix(1 0 0 1 1981.45 696)">
   <path class="monochrome-0 multicolor-0:tintColor hierarchical-0:primary SFSymbolsPreviewWireframe" d="M22.078-1.849C20.986-0.757 19.668-0.209 18.126-0.209C14.961-0.209 12.461-2.728 12.461-5.861C12.461-7.435 13.102-8.846 14.238-10L41.761-37.145L41.761-33.443L14.238-60.508C13.086-61.662 12.461-63.106 12.461-64.631C12.461-67.765 14.961-70.283 18.126-70.283C19.684-70.283 20.986-69.735 22.078-68.677L51.353-39.719C52.694-38.427 53.319-36.949 53.335-35.254C53.335-33.574 52.709-32.147 51.353-30.789L22.078-1.849ZM101.571-1.849L72.295-30.789C70.921-32.163 70.28-33.574 70.28-35.254C70.296-36.949 70.937-38.412 72.295-39.719L101.571-68.677C102.629-69.735 103.932-70.283 105.489-70.283C108.654-70.283 111.188-67.765 111.188-64.631C111.188-63.106 110.529-61.662 109.411-60.508L81.855-33.443L81.855-37.145L109.411-10C110.513-8.846 111.188-7.435 111.188-5.861C111.188-2.728 108.654-0.209 105.489-0.209C103.947-0.209 102.645-0.773 101.571-1.849Z"/>
  </g>
  <g id="Medium-S" transform="matrix(1 0 0 1 1685.92 696)">
   <path class="monochrome-0 multicolor-0:tintColor hierarchical-0:primary SFSymbolsPreviewWireframe" d="M20.892-2.085C19.935-1.128 18.765-0.627 17.405-0.627C14.618-0.627 12.461-2.815 12.461-5.585C12.461-6.963 13.014-8.186 13.975-9.178L42.374-37.32L42.374-33.254L13.975-61.33C13.006-62.322 12.461-63.585 12.461-64.914C12.461-67.684 14.618-69.872 17.405-69.872C18.774-69.872 19.935-69.371 20.892-68.454L50.558-39.031C51.656-37.982 52.201-36.68 52.21-35.254C52.21-33.837 51.665-32.606 50.558-31.477L20.892-2.085ZM100.384-2.085L70.718-31.477C69.581-32.614 69.027-33.837 69.027-35.254C69.036-36.68 69.589-37.974 70.718-39.031L100.384-68.454C101.301-69.371 102.462-69.872 103.832-69.872C106.619-69.872 108.816-67.684 108.816-64.914C108.816-63.585 108.231-62.322 107.301-61.33L78.863-33.254L78.863-37.32L107.301-9.178C108.222-8.186 108.816-6.963 108.816-5.585C108.816-2.815 106.619-0.627 103.832-0.627C102.471-0.627 101.31-1.137 100.384-2.085Z"/>
  </g>
  <g id="Regular-S" transform="matrix(1 0 0 1 1390.76 696)">
   <path class="monochrome-0 multicolor-0:tintColor hierarchical-0:primary SFSymbolsPreviewWireframe" d="M19.345-2.393C18.564-1.611 17.588-1.172 16.465-1.172C14.17-1.172 12.461-2.93 12.461-5.225C12.461-6.348 12.9-7.324 13.633-8.105L43.174-37.549L43.174-33.008L13.633-62.402C12.9-63.184 12.461-64.209 12.461-65.283C12.461-67.578 14.17-69.336 16.465-69.336C17.588-69.336 18.564-68.897 19.345-68.164L49.521-38.135C50.302-37.402 50.742-36.328 50.742-35.254C50.742-34.18 50.302-33.203 49.521-32.373L19.345-2.393ZM98.837-2.393L68.661-32.373C67.831-33.203 67.392-34.18 67.392-35.254C67.392-36.328 67.831-37.402 68.661-38.135L98.837-68.164C99.57-68.897 100.546-69.336 101.669-69.336C103.964-69.336 105.722-67.578 105.722-65.283C105.722-64.209 105.234-63.184 104.55-62.402L74.96-33.008L74.96-37.549L104.55-8.105C105.234-7.324 105.722-6.348 105.722-5.225C105.722-2.93 103.964-1.172 101.669-1.172C100.546-1.172 99.57-1.611 98.837-2.393Z"/>
  </g>
  <g id="Light-S" transform="matrix(1 0 0 1 1095.5 696)">
   <path class="monochrome-0 multicolor-0:tintColor hierarchical-0:primary SFSymbolsPreviewWireframe" d="M17.711-3.664C17.096-3.064 16.377-2.701 15.511-2.701C13.776-2.701 12.461-4.05 12.461-5.785C12.461-6.62 12.779-7.385 13.345-7.969L43.567-37.14L43.567-33.432L13.345-62.539C12.779-63.138 12.461-63.937 12.461-64.738C12.461-66.473 13.776-67.822 15.511-67.822C16.377-67.822 17.081-67.474 17.695-66.908L48.113-37.575C48.758-36.963 49.152-36.131 49.152-35.254C49.152-34.377 48.774-33.627 48.129-32.948L17.711-3.664ZM97.566-3.664L67.148-32.948C66.469-33.627 66.091-34.377 66.091-35.254C66.091-36.131 66.484-36.963 67.163-37.575L97.581-66.908C98.162-67.474 98.881-67.822 99.732-67.822C101.467-67.822 102.816-66.473 102.816-64.738C102.816-63.937 102.464-63.138 101.932-62.539L71.676-33.432L71.676-37.14L101.932-7.969C102.464-7.385 102.816-6.62 102.816-5.785C102.816-4.05 101.467-2.701 99.732-2.701C98.881-2.701 98.147-3.064 97.566-3.664Z"/>
  </g>
  <g id="Thin-S" transform="matrix(1 0 0 1 800.71 696)">
   <path class="monochrome-0 multicolor-0:tintColor hierarchical-0:primary SFSymbolsPreviewWireframe" d="M15.549-5.346C15.154-4.986 14.775-4.723 14.25-4.723C13.256-4.723 12.461-5.531 12.461-6.525C12.461-6.98 12.619-7.465 12.965-7.789L44.088-36.6L44.088-33.992L12.965-62.719C12.619-63.078 12.461-63.576 12.461-64.018C12.461-65.012 13.256-65.82 14.25-65.82C14.775-65.82 15.119-65.592 15.513-65.246L46.252-36.834C46.717-36.383 47.051-35.871 47.051-35.254C47.051-34.637 46.752-34.188 46.287-33.709L15.549-5.346ZM95.884-5.346L65.146-33.709C64.668-34.188 64.369-34.637 64.369-35.254C64.369-35.871 64.703-36.383 65.181-36.834L95.92-65.246C96.3-65.592 96.679-65.82 97.17-65.82C98.164-65.82 98.972-65.012 98.972-64.018C98.972-63.576 98.801-63.078 98.468-62.719L67.332-33.992L67.332-36.6L98.468-7.789C98.801-7.465 98.972-6.98 98.972-6.525C98.972-5.531 98.164-4.723 97.17-4.723C96.679-4.723 96.265-4.986 95.884-5.346Z"/>
  </g>
  <g id="Ultralight-S" transform="matrix(1 0 0 1 504.983 696)">
   <path class="monochrome-0 multicolor-0:tintColor hierarchical-0:primary SFSymbolsPreviewWireframe" d="M14.441-6.207C14.159-5.971 13.955-5.758 13.604-5.758C12.989-5.758 12.461-6.29 12.461-6.905C12.461-7.165 12.537-7.506 12.77-7.697L44.354-36.323L44.354-34.279L12.77-62.811C12.537-63.047 12.461-63.392 12.461-63.649C12.461-64.263 12.989-64.795 13.604-64.795C13.955-64.795 14.114-64.628 14.396-64.395L45.298-36.455C45.671-36.086 45.974-35.738 45.974-35.254C45.974-34.77 45.716-34.475 45.343-34.099L14.441-6.207ZM95.023-6.207L64.121-34.099C63.745-34.475 63.487-34.77 63.487-35.254C63.487-35.738 63.79-36.086 64.166-36.455L95.069-64.395C95.347-64.628 95.551-64.795 95.857-64.795C96.472-64.795 97.004-64.263 97.004-63.649C97.004-63.392 96.924-63.047 96.695-62.811L65.107-34.279L65.107-36.323L96.695-7.697C96.924-7.506 97.004-7.165 97.004-6.905C97.004-6.29 96.472-5.758 95.857-5.758C95.551-5.758 95.301-5.971 95.023-6.207Z"/>
  </g>
 </g>
</svg>
