<?xml version="1.0" encoding="UTF-8"?>
<!--Generator: Apple Native CoreSVG 341-->
<!DOCTYPE svg
PUBLIC "-//W3C//DTD SVG 1.1//EN"
       "http://www.w3.org/Graphics/SVG/1.1/DTD/svg11.dtd">
<svg version="1.1" xmlns="http://www.w3.org/2000/svg" xmlns:xlink="http://www.w3.org/1999/xlink" viewBox="0 0 3300 2200">
 <!--glyph: "", point size: 100.0, font version: "21.1d1e1", template writer version: "138.0.0"-->
 <style>.defaults {-sfsymbols-variable-value-mode:color;-sfsymbols-draw-reverses-motion-groups:false}

.SFSymbolsPreviewWireframe {fill:none;opacity:1.0;stroke:black;stroke-width:0.5}
</style>
 <g id="Notes">
  <rect height="2200" id="artboard" style="fill:white;opacity:1" width="3300" x="0" y="0"/>
  <line style="fill:none;stroke:black;opacity:1;stroke-width:0.5;" x1="263" x2="3036" y1="292" y2="292"/>
  <text style="stroke:none;fill:black;font-family:sans-serif;font-size:13;font-weight:bold;" transform="matrix(1 0 0 1 263 322)">Weight/Scale Variations</text>
  <text style="stroke:none;fill:black;font-family:sans-serif;font-size:13;text-anchor:middle;" transform="matrix(1 0 0 1 559.711 322)">Ultralight</text>
  <text style="stroke:none;fill:black;font-family:sans-serif;font-size:13;text-anchor:middle;" transform="matrix(1 0 0 1 856.422 322)">Thin</text>
  <text style="stroke:none;fill:black;font-family:sans-serif;font-size:13;text-anchor:middle;" transform="matrix(1 0 0 1 1153.13 322)">Light</text>
  <text style="stroke:none;fill:black;font-family:sans-serif;font-size:13;text-anchor:middle;" transform="matrix(1 0 0 1 1449.84 322)">Regular</text>
  <text style="stroke:none;fill:black;font-family:sans-serif;font-size:13;text-anchor:middle;" transform="matrix(1 0 0 1 1746.56 322)">Medium</text>
  <text style="stroke:none;fill:black;font-family:sans-serif;font-size:13;text-anchor:middle;" transform="matrix(1 0 0 1 2043.27 322)">Semibold</text>
  <text style="stroke:none;fill:black;font-family:sans-serif;font-size:13;text-anchor:middle;" transform="matrix(1 0 0 1 2339.98 322)">Bold</text>
  <text style="stroke:none;fill:black;font-family:sans-serif;font-size:13;text-anchor:middle;" transform="matrix(1 0 0 1 2636.69 322)">Heavy</text>
  <text style="stroke:none;fill:black;font-family:sans-serif;font-size:13;text-anchor:middle;" transform="matrix(1 0 0 1 2933.4 322)">Black</text>
  <line style="fill:none;stroke:black;opacity:1;stroke-width:0.5;" x1="263" x2="3036" y1="1903" y2="1903"/>
  <g transform="matrix(0.2 0 0 0.2 263 1933)">
   <path d="m46.2402 4.15039c21.7773 0 39.4531-17.627 39.4531-39.4043s-17.6758-39.4043-39.4531-39.4043c-21.7285 0-39.4043 17.627-39.4043 39.4043s17.6758 39.4043 39.4043 39.4043Zm0-7.42188c-17.6758 0-31.9336-14.3066-31.9336-31.9824s14.2578-31.9824 31.9336-31.9824 31.9824 14.3066 31.9824 31.9824-14.3066 31.9824-31.9824 31.9824Zm3.61328-17.7734v-28.4668c0-2.24609-1.46484-3.75977-3.71094-3.75977-2.14844 0-3.61328 1.51367-3.61328 3.75977v28.4668c0 2.19727 1.46484 3.71094 3.61328 3.71094 2.24609 0 3.71094-1.51367 3.71094-3.71094Zm-17.8223-10.5957h28.418c2.19727 0 3.71094-1.46484 3.71094-3.61328 0-2.19727-1.51367-3.71094-3.71094-3.71094h-28.418c-2.24609 0-3.75977 1.51367-3.75977 3.71094 0 2.14844 1.51367 3.61328 3.75977 3.61328Z"/>
  </g>
  <g transform="matrix(0.2 0 0 0.2 281.506 1933)">
   <path d="m58.5449 14.5508c27.4902 0 49.8047-22.3145 49.8047-49.8047s-22.3145-49.8047-49.8047-49.8047-49.8047 22.3145-49.8047 49.8047 22.3145 49.8047 49.8047 49.8047Zm0-8.30078c-22.9492 0-41.5039-18.5547-41.5039-41.5039s18.5547-41.5039 41.5039-41.5039 41.5039 18.5547 41.5039 41.5039-18.5547 41.5039-41.5039 41.5039Zm4.05273-23.0957v-36.9141c0-2.49023-1.70898-4.19922-4.15039-4.19922-2.39258 0-4.05273 1.70898-4.05273 4.19922v36.9141c0 2.44141 1.66016 4.15039 4.05273 4.15039 2.44141 0 4.15039-1.66016 4.15039-4.15039Zm-22.5586-14.4043h36.9629c2.44141 0 4.15039-1.61133 4.15039-4.00391 0-2.44141-1.70898-4.15039-4.15039-4.15039h-36.9629c-2.49023 0-4.15039 1.70898-4.15039 4.15039 0 2.39258 1.66016 4.00391 4.15039 4.00391Z"/>
  </g>
  <g transform="matrix(0.2 0 0 0.2 304.924 1933)">
   <path d="m74.8535 28.3203c35.1074 0 63.623-28.4668 63.623-63.5742s-28.5156-63.623-63.623-63.623-63.5742 28.5156-63.5742 63.623 28.4668 63.5742 63.5742 63.5742Zm0-9.08203c-30.127 0-54.4922-24.3652-54.4922-54.4922s24.3652-54.4922 54.4922-54.4922 54.4922 24.3652 54.4922 54.4922-24.3652 54.4922-54.4922 54.4922Zm4.44336-30.3223v-48.4863c0-2.73438-1.85547-4.63867-4.54102-4.63867-2.58789 0-4.44336 1.9043-4.44336 4.63867v48.4863c0 2.68555 1.85547 4.58984 4.44336 4.58984 2.68555 0 4.54102-1.85547 4.54102-4.58984Zm-28.7109-19.7754h48.4863c2.68555 0 4.58984-1.80664 4.58984-4.39453 0-2.73438-1.85547-4.58984-4.58984-4.58984h-48.4863c-2.73438 0-4.58984 1.85547-4.58984 4.58984 0 2.58789 1.85547 4.39453 4.58984 4.39453Z"/>
  </g>
  <text style="stroke:none;fill:black;font-family:sans-serif;font-size:13;font-weight:bold;" transform="matrix(1 0 0 1 263 1953)">Design Variations</text>
  <text style="stroke:none;fill:black;font-family:sans-serif;font-size:13;" transform="matrix(1 0 0 1 263 1971)">Symbols are supported in up to nine weights and three scales.</text>
  <text style="stroke:none;fill:black;font-family:sans-serif;font-size:13;" transform="matrix(1 0 0 1 263 1989)">For optimal layout with text and other symbols, vertically align</text>
  <text style="stroke:none;fill:black;font-family:sans-serif;font-size:13;" transform="matrix(1 0 0 1 263 2007)">symbols with the adjacent text.</text>
  <line style="fill:none;stroke:#00AEEF;stroke-width:0.5;opacity:1.0;" x1="776" x2="776" y1="1919" y2="1933"/>
  <g transform="matrix(0.2 0 0 0.2 776 1933)">
   <path d="m16.5527 0.78125c2.58789 0 3.85742-0.976562 4.78516-3.71094l20.5566-57.5195h0.244141l20.6055 57.5195c0.927734 2.73438 2.19727 3.71094 4.73633 3.71094 2.58789 0 4.24805-1.5625 4.24805-4.00391 0-0.830078-0.146484-1.61133-0.537109-2.63672l-22.9004-60.9863c-1.12305-2.97852-3.125-4.49219-6.25-4.49219-3.02734 0-5.07812 1.46484-6.15234 4.44336l-22.9004 61.084c-0.390625 1.02539-0.537109 1.80664-0.537109 2.63672 0 2.44141 1.5625 3.95508 4.10156 3.95508Zm10.2051-20.9473h30.6641c2.00195 0 3.66211-1.66016 3.66211-3.66211 0-2.05078-1.66016-3.66211-3.66211-3.66211h-30.6641c-2.00195 0-3.66211 1.61133-3.66211 3.66211 0 2.00195 1.66016 3.66211 3.66211 3.66211Z"/>
  </g>
  <line style="fill:none;stroke:#00AEEF;stroke-width:0.5;opacity:1.0;" x1="792.836" x2="792.836" y1="1919" y2="1933"/>
  <text style="stroke:none;fill:black;font-family:sans-serif;font-size:13;font-weight:bold;" transform="matrix(1 0 0 1 776 1953)">Margins</text>
  <text style="stroke:none;fill:black;font-family:sans-serif;font-size:13;" transform="matrix(1 0 0 1 776 1971)">Leading and trailing margins on the left and right side of each symbol</text>
  <text style="stroke:none;fill:black;font-family:sans-serif;font-size:13;" transform="matrix(1 0 0 1 776 1989)">can be adjusted by modifying the x-location of the margin guidelines.</text>
  <text style="stroke:none;fill:black;font-family:sans-serif;font-size:13;" transform="matrix(1 0 0 1 776 2007)">Modifications are automatically applied proportionally to all</text>
  <text style="stroke:none;fill:black;font-family:sans-serif;font-size:13;" transform="matrix(1 0 0 1 776 2025)">scales and weights.</text>
  <g transform="matrix(0.2 0 0 0.2 1289 1933)">
   <path d="m14.209 13.1348 7.86133 7.86133c4.29688 4.39453 9.32617 4.10156 13.8672-1.02539l60.6934-68.2129-4.88281-4.88281-60.2539 67.6758c-1.80664 1.95312-3.4668 2.44141-5.81055 0.0976562l-5.17578-5.12695c-2.29492-2.29492-1.80664-3.95508 0.195312-5.81055l67.4805-62.1582-4.88281-4.83398-68.0664 62.5977c-4.98047 4.58984-5.32227 9.47266-1.02539 13.8184Zm44.873-97.4609c-2.05078 2.00195-2.24609 4.88281-1.07422 6.78711 1.12305 1.80664 3.4668 3.02734 6.5918 2.24609 5.85938-1.66016 12.5977-2.39258 18.8965 0.927734l-2.68555 7.12891c-1.61133 4.00391-0.732422 6.88477 1.70898 9.42383l10.2539 10.3027c2.34375 2.39258 4.54102 2.44141 7.08008 1.95312l4.44336-0.732422 2.58789 2.53906-0.195312 2.24609c-0.0976562 2.29492 0.537109 4.29688 2.7832 6.49414l3.36914 3.32031c2.29492 2.29492 5.51758 2.49023 7.8125 0.195312l12.9883-13.0371c2.29492-2.34375 2.14844-5.37109-0.195312-7.66602l-3.41797-3.41797c-2.19727-2.19727-4.05273-3.02734-6.34766-2.88086l-2.34375 0.244141-2.44141-2.44141 1.02539-4.6875c0.634766-2.73438-0.244141-4.98047-2.88086-7.61719l-11.2793-11.1816c-12.9395-12.8418-35.5957-11.0352-46.6797-0.146484Zm7.08008 2.05078c8.78906-6.39648 25.9766-5.66406 33.6914 1.95312l12.3047 12.207c1.02539 1.02539 1.2207 1.80664 0.927734 3.32031l-1.46484 6.64062 6.73828 6.68945 4.39453-0.244141c1.12305-0.0488281 1.51367 0.0488281 2.34375 0.878906l2.53906 2.49023-10.8398 10.8398-2.49023-2.49023c-0.830078-0.878906-0.976562-1.2207-0.927734-2.39258l0.292969-4.3457-6.68945-6.73828-6.83594 1.17188c-1.41602 0.292969-2.05078 0.195312-3.17383-0.878906l-8.93555-8.88672c-1.07422-1.02539-1.17188-1.70898-0.488281-3.36914l4.58984-11.4746c-6.10352-6.34766-17.041-7.51953-25.5859-4.58984-0.683594 0.244141-0.927734-0.390625-0.390625-0.78125Z"/>
  </g>
  <text style="stroke:none;fill:black;font-family:sans-serif;font-size:13;font-weight:bold;" transform="matrix(1 0 0 1 1289 1953)">Exporting</text>
  <text style="stroke:none;fill:black;font-family:sans-serif;font-size:13;" transform="matrix(1 0 0 1 1289 1971)">Symbols should be outlined when exporting to ensure the</text>
  <text style="stroke:none;fill:black;font-family:sans-serif;font-size:13;" transform="matrix(1 0 0 1 1289 1989)">design is preserved when submitting to Xcode.</text>
  <text id="template-version" style="stroke:none;fill:black;font-family:sans-serif;font-size:13;text-anchor:end;" transform="matrix(1 0 0 1 3036 1933)">Template v.6.0</text>
  <text style="stroke:none;fill:black;font-family:sans-serif;font-size:13;text-anchor:end;" transform="matrix(1 0 0 1 3036 1951)">Requires Xcode 16 or greater</text>
  <text id="descriptive-name" style="stroke:none;fill:black;font-family:sans-serif;font-size:13;text-anchor:end;" transform="matrix(1 0 0 1 3036 1969)">Generated from line.chevron.left.line.chevron.right.wide</text>
  <text style="stroke:none;fill:black;font-family:sans-serif;font-size:13;text-anchor:end;" transform="matrix(1 0 0 1 3036 1987)">Typeset at 100.0 points</text>
  <text style="stroke:none;fill:black;font-family:sans-serif;font-size:13;" transform="matrix(1 0 0 1 263 726)">Small</text>
  <text style="stroke:none;fill:black;font-family:sans-serif;font-size:13;" transform="matrix(1 0 0 1 263 1156)">Medium</text>
  <text style="stroke:none;fill:black;font-family:sans-serif;font-size:13;" transform="matrix(1 0 0 1 263 1586)">Large</text>
 </g>
 <g id="Guides">
  <g id="H-reference" style="fill:#27AAE1;stroke:none;" transform="matrix(1 0 0 1 339 696)">
   <path d="M0.993654 0L3.63775 0L29.3281-67.1323L30.0303-67.1323L30.0303-70.459L28.1226-70.459ZM11.6885-24.4799L46.9815-24.4799L46.2315-26.7285L12.4385-26.7285ZM55.1196 0L57.7637 0L30.6382-70.459L29.4326-70.459L29.4326-67.1323Z"/>
  </g>
  <line id="Baseline-S" style="fill:none;stroke:#27AAE1;opacity:1;stroke-width:0.5;" x1="263" x2="3036" y1="696" y2="696"/>
  <line id="Capline-S" style="fill:none;stroke:#27AAE1;opacity:1;stroke-width:0.5;" x1="263" x2="3036" y1="625.541" y2="625.541"/>
  <g id="H-reference" style="fill:#27AAE1;stroke:none;" transform="matrix(1 0 0 1 339 1126)">
   <path d="M0.993654 0L3.63775 0L29.3281-67.1323L30.0303-67.1323L30.0303-70.459L28.1226-70.459ZM11.6885-24.4799L46.9815-24.4799L46.2315-26.7285L12.4385-26.7285ZM55.1196 0L57.7637 0L30.6382-70.459L29.4326-70.459L29.4326-67.1323Z"/>
  </g>
  <line id="Baseline-M" style="fill:none;stroke:#27AAE1;opacity:1;stroke-width:0.5;" x1="263" x2="3036" y1="1126" y2="1126"/>
  <line id="Capline-M" style="fill:none;stroke:#27AAE1;opacity:1;stroke-width:0.5;" x1="263" x2="3036" y1="1055.54" y2="1055.54"/>
  <g id="H-reference" style="fill:#27AAE1;stroke:none;" transform="matrix(1 0 0 1 339 1556)">
   <path d="M0.993654 0L3.63775 0L29.3281-67.1323L30.0303-67.1323L30.0303-70.459L28.1226-70.459ZM11.6885-24.4799L46.9815-24.4799L46.2315-26.7285L12.4385-26.7285ZM55.1196 0L57.7637 0L30.6382-70.459L29.4326-70.459L29.4326-67.1323Z"/>
  </g>
  <line id="Baseline-L" style="fill:none;stroke:#27AAE1;opacity:1;stroke-width:0.5;" x1="263" x2="3036" y1="1556" y2="1556"/>
  <line id="Capline-L" style="fill:none;stroke:#27AAE1;opacity:1;stroke-width:0.5;" x1="263" x2="3036" y1="1485.54" y2="1485.54"/>
  <line id="right-margin-Regular-M" style="fill:none;stroke:#FF3B30;stroke-width:0.5;opacity:1.0;" x1="1520.79" x2="1520.79" y1="1030.79" y2="1150.12"/>
  <line id="left-margin-Regular-M" style="fill:none;stroke:#FF3B30;stroke-width:0.5;opacity:1.0;" x1="1378.9" x2="1378.9" y1="1030.79" y2="1150.12"/>
 </g>
 <g id="Symbols">
  <g id="Black-L" transform="matrix(1 0 0 1 2843.97 1556)">
   <path class="SFSymbolsPreviewWireframe" d="M33.652 20.797C36.094 23.237 38.967 24.364 42.373 24.364C49.379 24.364 55.142 18.639 55.142 11.75C55.142 8.229 53.668 5.002 50.956 2.329L9.841-37.499L9.841-33.239L50.956-72.868C53.726-75.543 55.142-78.79 55.142-82.232C55.142-89.121 49.379-94.846 42.373-94.846C38.908-94.846 36.095-93.721 33.653-91.301L-12.678-45.928C-16.056-42.628-17.478-39.36-17.536-35.27C-17.536-31.238-16.116-27.954-12.679-24.613L33.652 20.797ZM145.187 20.797L191.518-24.613C194.917-28.012 196.395-31.238 196.395-35.27C196.337-39.36 194.858-42.57 191.517-45.928L145.185-91.301C142.765-93.721 139.95-94.846 136.487-94.846C129.48-94.846 123.697-89.121 123.697-82.232C123.697-78.79 125.133-75.543 127.882-72.868L169.018-33.239L169.018-37.499L127.882 2.329C125.191 5.002 123.697 8.229 123.697 11.75C123.697 18.639 129.48 24.364 136.487 24.364C139.892 24.364 142.707 23.179 145.187 20.797Z"/>
  </g>
  <g id="Heavy-L" transform="matrix(1 0 0 1 2550.11 1556)">
   <path class="SFSymbolsPreviewWireframe" d="M33.789 19.943C35.907 22.055 38.401 23.063 41.36 23.063C47.431 23.063 52.376 18.133 52.376 12.151C52.376 9.114 51.117 6.335 48.812 4.05L5.706-37.738L5.706-32.977L48.812-74.59C51.161-76.88 52.376-79.69 52.376-82.652C52.376-88.633 47.431-93.564 41.36-93.564C38.357-93.564 35.912-92.561 33.795-90.479L-13.406-44.358C-16.249-41.591-17.491-38.751-17.536-35.27C-17.536-31.833-16.299-29.015-13.412-26.187L33.789 19.943ZM139.34 19.943L186.541-26.187C189.414-29.06 190.696-31.833 190.696-35.27C190.651-38.751 189.364-41.546 186.536-44.358L139.334-90.479C137.247-92.561 134.797-93.564 131.799-93.564C125.728-93.564 120.753-88.633 120.753-82.652C120.753-79.69 121.998-76.88 124.317-74.59L167.453-32.977L167.453-37.738L124.317 4.05C122.043 6.335 120.753 9.114 120.753 12.151C120.753 18.133 125.728 23.063 131.799 23.063C134.753 23.063 137.208 22.01 139.34 19.943Z"/>
  </g>
  <g id="Bold-L" transform="matrix(1 0 0 1 2256.85 1556)">
   <path class="SFSymbolsPreviewWireframe" d="M33.951 18.764C35.676 20.476 37.702 21.338 40.115 21.338C45.041 21.338 49.001 17.369 49.001 12.502C49.001 10.057 48.003 7.816 46.183 6L0.73-37.933L0.73-32.758L46.183-76.539C48.033-78.368 49.001-80.647 49.001-83.025C49.001-87.892 45.041-91.861 40.115-91.861C37.673-91.861 35.689-91.012 33.964-89.338L-14.253-42.504C-16.472-40.352-17.507-38.035-17.536-35.27C-17.536-32.533-16.515-30.277-14.266-28.049L33.951 18.764ZM132.281 18.764L180.498-28.049C182.755-30.306 183.805-32.533 183.805-35.27C183.776-38.035 182.712-40.323 180.485-42.504L132.267-89.338C130.58-91.012 128.583-91.861 126.154-91.861C121.228-91.861 117.23-87.892 117.23-83.025C117.23-80.647 118.237-78.368 120.048-76.539L165.539-32.758L165.539-37.933L120.048 6C118.266 7.816 117.23 10.057 117.23 12.502C117.23 17.369 121.228 21.338 126.154 21.338C128.554 21.338 130.564 20.447 132.281 18.764Z"/>
  </g>
  <g id="Semibold-L" transform="matrix(1 0 0 1 1962.51 1556)">
   <path class="SFSymbolsPreviewWireframe" d="M34.062 17.951C35.517 19.387 37.22 20.148 39.257 20.148C43.393 20.148 46.674 16.842 46.674 12.743C46.674 10.706 45.857 8.836 44.371 7.344L-2.7-38.068L-2.7-32.608L44.371-77.884C45.876-79.394 46.674-81.307 46.674-83.283C46.674-87.381 43.393-90.688 39.257-90.688C37.201-90.688 35.536-89.945 34.081-88.552L-14.837-41.225C-16.626-39.498-17.517-37.542-17.536-35.27C-17.536-33.016-16.663-31.147-14.856-29.333L34.062 17.951ZM127.414 17.951L176.332-29.333C178.164-31.165 179.055-33.016 179.055-35.27C179.037-37.542 178.127-39.48 176.313-41.225L127.395-88.552C125.984-89.945 124.299-90.688 122.262-90.688C118.126-90.688 114.802-87.381 114.802-83.283C114.802-81.307 115.644-79.394 117.105-77.884L164.219-32.608L164.219-38.068L117.105 7.344C115.662 8.836 114.802 10.706 114.802 12.743C114.802 16.842 118.126 20.148 122.262 20.148C124.281 20.148 125.984 19.368 127.414 17.951Z"/>
  </g>
  <g id="Medium-L" transform="matrix(1 0 0 1 1667.6 1556)">
   <path class="SFSymbolsPreviewWireframe" d="M34.147 17.334C35.397 18.561 36.855 19.246 38.606 19.246C42.143 19.246 44.91 16.443 44.91 12.926C44.91 11.199 44.23 9.61 42.997 8.363L-5.301-38.17L-5.301-32.494L42.997-78.903C44.24-80.172 44.91-81.808 44.91-83.478C44.91-86.994 42.143-89.798 38.606-89.798C36.844-89.798 35.419-89.135 34.169-87.955L-15.28-40.256C-16.743-38.851-17.526-37.167-17.536-35.27C-17.536-33.383-16.776-31.806-15.302-30.306L34.147 17.334ZM123.724 17.334L173.173-30.306C174.683-31.817 175.454-33.383 175.454-35.27C175.443-37.167 174.65-38.84 173.15-40.256L123.701-87.955C122.499-89.135 121.051-89.798 119.312-89.798C115.774-89.798 112.96-86.994 112.96-83.478C112.96-81.808 113.678-80.172 114.873-78.903L163.219-32.494L163.219-38.17L114.873 8.363C113.688 9.61 112.96 11.199 112.96 12.926C112.96 16.443 115.774 19.246 119.312 19.246C121.041 19.246 122.511 18.551 123.724 17.334Z"/>
  </g>
  <g id="Regular-L" transform="matrix(1 0 0 1 1373.24 1556)">
   <path class="SFSymbolsPreviewWireframe" d="M34.257 16.53C35.239 17.485 36.378 18.07 37.757 18.07C40.514 18.07 42.609 15.922 42.609 13.165C42.609 11.841 42.107 10.62 41.205 9.693L-8.694-38.303L-8.694-32.345L41.205-80.232C42.107-81.187 42.609-82.461 42.609-83.732C42.609-86.489 40.514-88.637 37.757-88.637C36.378-88.637 35.267-88.079 34.285-87.177L-15.857-38.991C-16.895-38.006-17.536-36.679-17.536-35.27C-17.536-33.86-16.923-32.667-15.885-31.576L34.257 16.53ZM118.91 16.53L169.052-31.576C170.143-32.667 170.756-33.86 170.756-35.27C170.756-36.679 170.115-38.006 169.025-38.991L118.883-87.177C117.953-88.079 116.815-88.637 115.463-88.637C112.706-88.637 110.558-86.489 110.558-83.732C110.558-82.461 111.113-81.187 111.963-80.232L161.914-32.345L161.914-38.303L111.963 9.693C111.113 10.62 110.558 11.841 110.558 13.165C110.558 15.922 112.706 18.07 115.463 18.07C116.815 18.07 117.98 17.485 118.91 16.53Z"/>
  </g>
  <g id="Light-L" transform="matrix(1 0 0 1 1078.36 1556)">
   <path class="SFSymbolsPreviewWireframe" d="M34.314 14.927C35.087 15.652 35.901 16.142 36.956 16.142C39.006 16.142 40.605 14.509 40.605 12.459C40.605 11.498 40.256 10.544 39.563 9.864L-11.194-37.787L-11.194-32.879L39.563-80.404C40.256-81.13 40.605-82.117 40.605-83.045C40.605-85.096 39.006-86.729 36.956-86.729C35.901-86.729 35.134-86.285 34.361-85.593L-16.086-38.285C-16.952-37.453-17.536-36.431-17.536-35.27C-17.536-34.108-16.999-33.201-16.133-32.301L34.314 14.927ZM115.208 14.927L165.655-32.301C166.555-33.201 167.092-34.108 167.092-35.27C167.092-36.431 166.508-37.453 165.608-38.285L115.161-85.593C114.422-86.285 113.608-86.729 112.6-86.729C110.55-86.729 108.917-85.096 108.917-83.045C108.917-82.117 109.3-81.13 109.959-80.404L160.75-32.879L160.75-37.787L109.959 9.864C109.3 10.544 108.917 11.498 108.917 12.459C108.917 14.509 110.55 16.142 112.6 16.142C113.608 16.142 114.469 15.652 115.208 14.927Z"/>
  </g>
  <g id="Thin-L" transform="matrix(1 0 0 1 784.071 1556)">
   <path class="SFSymbolsPreviewWireframe" d="M34.39 12.806C34.885 13.229 35.27 13.593 35.896 13.593C37.012 13.593 37.955 12.642 37.955 11.525C37.955 11.043 37.807 10.443 37.393 10.092L-14.501-37.106L-14.501-33.586L37.393-80.631C37.807-81.054 37.955-81.663 37.955-82.137C37.955-83.253 37.012-84.204 35.896-84.204C35.27-84.204 34.957-83.913 34.462-83.498L-16.389-37.351C-17.028-36.721-17.536-36.103-17.536-35.27C-17.536-34.436-17.1-33.908-16.461-33.26L34.39 12.806ZM110.311 12.806L161.162-33.26C161.809-33.908 162.245-34.436 162.245-35.27C162.245-36.103 161.737-36.721 161.09-37.351L110.239-83.498C109.752-83.913 109.368-84.204 108.814-84.204C107.697-84.204 106.746-83.253 106.746-82.137C106.746-81.663 106.902-81.054 107.308-80.631L159.21-33.586L159.21-37.106L107.308 10.092C106.902 10.443 106.746 11.043 106.746 11.525C106.746 12.642 107.697 13.593 108.814 13.593C109.368 13.593 109.824 13.229 110.311 12.806Z"/>
  </g>
  <g id="Ultralight-L" transform="matrix(1 0 0 1 488.601 1556)">
   <path class="SFSymbolsPreviewWireframe" d="M34.429 11.72C34.781 11.988 34.946 12.287 35.352 12.287C35.99 12.287 36.597 11.685 36.597 11.047C36.597 10.811 36.553 10.391 36.281 10.208L-16.195-36.757L-16.195-33.948L36.281-80.747C36.553-81.015 36.597-81.43 36.597-81.671C36.597-82.309 35.99-82.912 35.352-82.912C34.946-82.912 34.866-82.697 34.514-82.425L-16.544-36.873C-17.067-36.346-17.536-35.935-17.536-35.27C-17.536-34.604-17.152-34.27-16.629-33.752L34.429 11.72ZM107.803 11.72L158.861-33.752C159.379-34.27 159.763-34.604 159.763-35.27C159.763-35.935 159.294-36.346 158.776-36.873L107.718-82.425C107.36-82.697 107.196-82.912 106.874-82.912C106.236-82.912 105.634-82.309 105.634-81.671C105.634-81.43 105.674-81.015 105.951-80.747L158.421-33.948L158.421-36.757L105.951 10.208C105.674 10.391 105.634 10.811 105.634 11.047C105.634 11.685 106.236 12.287 106.874 12.287C107.196 12.287 107.445 11.988 107.803 11.72Z"/>
  </g>
  <g id="Black-M" transform="matrix(1 0 0 1 2861.36 1126)">
   <path class="SFSymbolsPreviewWireframe" d="M22.011 8.693C24.153 10.835 26.66 11.797 29.64 11.797C35.776 11.797 40.876 6.748 40.876 0.726C40.876-2.368 39.57-5.217 37.148-7.588L6.889-36.712L6.889-33.985L37.148-62.934C39.628-65.304 40.876-68.159 40.876-71.19C40.876-77.212 35.776-82.26 29.64-82.26C26.603-82.26 24.153-81.298 22.011-79.162L-13.177-44.771C-16.232-41.779-17.479-38.919-17.536-35.261C-17.536-31.66-16.289-28.753-13.177-25.75L22.011 8.693ZM122.065 8.693L157.254-25.75C160.314-28.811 161.618-31.66 161.618-35.261C161.561-38.919 160.257-41.722 157.254-44.771L122.066-79.162C119.929-81.298 117.479-82.26 114.443-82.26C108.306-82.26 103.201-77.212 103.201-71.19C103.201-68.159 104.455-65.304 106.928-62.934L137.193-33.985L137.193-36.712L106.928-7.588C104.512-5.217 103.201-2.368 103.201 0.726C103.201 6.748 108.306 11.797 114.443 11.797C117.422 11.797 119.872 10.778 122.065 8.693Z"/>
  </g>
  <g id="Heavy-M" transform="matrix(1 0 0 1 2567.27 1126)">
   <path class="SFSymbolsPreviewWireframe" d="M22.14 8.006C23.984 9.848 26.152 10.703 28.724 10.703C34.011 10.703 38.357 6.384 38.357 1.184C38.357-1.471 37.247-3.906 35.204-5.921L3.078-36.993L3.078-33.68L35.204-64.601C37.291-66.617 38.357-69.069 38.357-71.664C38.357-76.864 34.011-81.183 28.724-81.183C26.108-81.183 23.987-80.33 22.142-78.505L-13.868-43.302C-16.415-40.815-17.492-38.347-17.536-35.261C-17.536-32.218-16.461-29.741-13.871-27.222L22.14 8.006ZM116.692 8.006L152.702-27.222C155.265-29.785 156.384-32.218 156.384-35.261C156.341-38.347 155.22-40.772 152.7-43.302L116.689-78.505C114.861-80.33 112.738-81.183 110.124-81.183C104.837-81.183 100.475-76.864 100.475-71.664C100.475-69.069 101.557-66.617 103.628-64.601L135.77-33.68L135.77-36.993L103.628-5.921C101.601-3.906 100.475-1.471 100.475 1.184C100.475 6.384 104.837 10.703 110.124 10.703C112.694 10.703 114.82 9.805 116.692 8.006Z"/>
  </g>
  <g id="Bold-M" transform="matrix(1 0 0 1 2273.48 1126)">
   <path class="SFSymbolsPreviewWireframe" d="M22.284 7.238C23.796 8.745 25.583 9.479 27.699 9.479C32.036 9.479 35.539 5.976 35.539 1.696C35.539-0.467 34.649-2.441 33.028-4.056L-1.186-37.308L-1.186-33.338L33.028-66.465C34.677-68.086 35.539-70.088 35.539-72.194C35.539-76.474 32.036-79.977 27.699-79.977C25.554-79.977 23.801-79.248 22.289-77.77L-14.641-41.659C-16.62-39.737-17.508-37.707-17.536-35.261C-17.536-32.843-16.653-30.846-14.646-28.868L22.284 7.238ZM110.68 7.238L147.611-28.868C149.618-30.875 150.529-32.843 150.529-35.261C150.501-37.707 149.584-39.709 147.606-41.659L110.675-77.77C109.192-79.248 107.434-79.977 105.294-79.977C100.957-79.977 97.425-76.474 97.425-72.194C97.425-70.088 98.316-68.086 99.936-66.465L134.179-33.338L134.179-37.308L99.936-4.056C98.345-2.441 97.425-0.467 97.425 1.696C97.425 5.976 100.957 9.479 105.294 9.479C107.405 9.479 109.169 8.716 110.68 7.238Z"/>
  </g>
  <g id="Semibold-M" transform="matrix(1 0 0 1 1978.79 1126)">
   <path class="SFSymbolsPreviewWireframe" d="M22.384 6.709C23.666 7.984 25.19 8.636 26.993 8.636C30.675 8.636 33.597 5.695 33.597 2.049C33.597 0.225 32.857-1.43 31.529-2.77L-4.125-37.525L-4.125-33.102L31.529-67.751C32.875-69.098 33.597-70.79 33.597-72.56C33.597-76.206 30.675-79.146 26.993-79.146C25.172-79.146 23.673-78.501 22.391-77.263L-15.174-40.526C-16.761-38.994-17.518-37.265-17.536-35.261C-17.536-33.274-16.786-31.608-15.181-30.003L22.384 6.709ZM106.536 6.709L144.101-30.003C145.724-31.626 146.493-33.274 146.493-35.261C146.475-37.265 145.699-38.976 144.094-40.526L106.529-77.263C105.284-78.501 103.777-79.146 101.964-79.146C98.282-79.146 95.323-76.206 95.323-72.56C95.323-70.79 96.082-69.098 97.391-67.751L133.082-33.102L133.082-37.525L97.391-2.77C96.1-1.43 95.323 0.225 95.323 2.049C95.323 5.695 98.282 8.636 101.964 8.636C103.759 8.636 105.273 7.966 106.536 6.709Z"/>
  </g>
  <g id="Medium-M" transform="matrix(1 0 0 1 1683.61 1126)">
   <path class="SFSymbolsPreviewWireframe" d="M22.459 6.308C23.567 7.407 24.893 7.997 26.457 7.997C29.643 7.997 32.124 5.482 32.124 2.317C32.124 0.75 31.499-0.664 30.391-1.796L-6.354-37.69L-6.354-32.923L30.391-68.726C31.509-69.866 32.124-71.323 32.124-72.837C32.124-76.002 29.643-78.516 26.457-78.516C24.883-78.516 23.576-77.935 22.468-76.879L-15.578-39.667C-16.868-38.431-17.526-36.931-17.536-35.261C-17.536-33.601-16.886-32.186-15.587-30.863L22.459 6.308ZM103.394 6.308L141.439-30.863C142.772-32.196 143.432-33.601 143.432-35.261C143.422-36.931 142.753-38.421 141.431-39.667L103.385-76.879C102.321-77.935 101.005-78.516 99.439-78.516C96.253-78.516 93.729-76.002 93.729-72.837C93.729-71.323 94.387-69.866 95.461-68.726L132.25-32.923L132.25-37.69L95.461-1.796C94.398-0.664 93.729 0.75 93.729 2.317C93.729 5.482 96.253 7.997 99.439 7.997C100.995 7.997 102.319 7.397 103.394 6.308Z"/>
  </g>
  <g id="Regular-M" transform="matrix(1 0 0 1 1378.9 1126)">
   <path class="SFSymbolsPreviewWireframe" d="M32.554 5.784C33.435 6.654 34.502 7.162 35.756 7.162C38.294 7.162 40.2 5.204 40.2 2.666C40.2 1.434 39.724 0.335 38.905-0.524L0.736-37.904L0.736-32.69L38.905-69.997C39.724-70.867 40.2-72.017 40.2-73.198C40.2-75.736 38.294-77.694 35.756-77.694C34.502-77.694 33.446-77.197 32.565-76.378L-6.108-38.546C-7.01-37.696-7.539-36.494-7.539-35.261C-7.539-34.027-7.021-32.939-6.119-31.986L32.554 5.784ZM109.292 5.784L147.965-31.986C148.919-32.939 149.437-34.027 149.437-35.261C149.437-36.494 148.908-37.696 147.954-38.546L109.281-76.378C108.452-77.197 107.385-77.694 106.142-77.694C103.604-77.694 101.646-75.736 101.646-73.198C101.646-72.017 102.174-70.867 102.941-69.997L141.162-32.69L141.162-37.904L102.941-0.524C102.174 0.335 101.646 1.434 101.646 2.666C101.646 5.204 103.604 7.162 106.142 7.162C107.385 7.162 108.463 6.654 109.292 5.784ZM-8.528 2.65436C-8.528 3.85841-9.00092 4.99365-9.84542 5.84221C-10.6899 6.69078-11.8384 7.16093-13.032 7.16093C-13.032 7.16093-13.032 7.16093-13.032 7.16093C-14.2256 7.16093-15.3741 6.69078-16.2186 5.84221C-17.0631 4.99365-17.536 3.85841-17.536 2.65436L-17.536-73.189C-17.536-74.3931-17.0631-75.5283-16.2186-76.3769C-15.3741-77.2255-14.2256-77.6956-13.032-77.6956C-13.032-77.6956-13.032-77.6956-13.032-77.6956C-11.8384-77.6956-10.6899-77.2255-9.84542-76.3769C-9.00092-75.5283-8.528-74.3931-8.528-73.189C-8.528-58.4997-8.528-12.035-8.528 2.65436ZM159.432 2.65436C159.432 3.85841 158.959 4.99365 158.115 5.84221C157.27 6.69078 156.122 7.16093 154.928 7.16093C154.928 7.16093 154.928 7.16093 154.928 7.16093C153.734 7.16093 152.586 6.69078 151.741 5.84221C150.897 4.99365 150.424 3.85841 150.424 2.65436C150.424-12.035 150.424-58.4997 150.424-73.189C150.424-74.3931 150.897-75.5283 151.741-76.3769C152.586-77.2255 153.734-77.6956 154.928-77.6956C154.928-77.6956 154.928-77.6956 154.928-77.6956C156.122-77.6956 157.27-77.2255 158.115-76.3769C158.959-75.5283 159.432-74.3931 159.432-73.189C159.432-58.4997 159.432-12.035 159.432 2.65436Z"/>
  </g>
  <g id="Light-M" transform="matrix(1 0 0 1 1093.83 1126)">
   <path class="SFSymbolsPreviewWireframe" d="M22.609 4.347C23.301 5.012 24.077 5.434 25.04 5.434C26.945 5.434 28.406 3.938 28.406 2.033C28.406 1.126 28.067 0.267 27.437-0.37L-11.503-37.442L-11.503-33.169L27.437-70.151C28.067-70.816 28.406-71.709 28.406-72.582C28.406-74.487 26.945-75.983 25.04-75.983C24.077-75.983 23.329-75.588 22.636-74.958L-16.31-37.913C-17.058-37.2-17.536-36.272-17.536-35.261C-17.536-34.25-17.086-33.418-16.338-32.636L22.609 4.347ZM95.975 4.347L134.922-32.636C135.705-33.418 136.155-34.25 136.155-35.261C136.155-36.272 135.677-37.2 134.894-37.913L95.948-74.958C95.29-75.588 94.514-75.983 93.579-75.983C91.674-75.983 90.178-74.487 90.178-72.582C90.178-71.709 90.552-70.816 91.147-70.151L130.121-33.169L130.121-37.442L91.147-0.37C90.552 0.267 90.178 1.126 90.178 2.033C90.178 3.938 91.674 5.434 93.579 5.434C94.514 5.434 95.317 5.012 95.975 4.347Z"/>
  </g>
  <g id="Thin-M" transform="matrix(1 0 0 1 799.288 1126)">
   <path class="SFSymbolsPreviewWireframe" d="M22.677 2.446C23.12 2.839 23.512 3.148 24.09 3.148C25.157 3.148 26.03 2.263 26.03 1.196C26.03 0.718 25.872 0.176 25.49-0.167L-14.467-36.831L-14.467-33.803L25.49-70.355C25.872-70.748 26.03-71.302 26.03-71.768C26.03-72.835 25.157-73.72 24.09-73.72C23.512-73.72 23.171-73.461 22.727-73.08L-16.582-37.076C-17.126-36.544-17.536-35.978-17.536-35.261C-17.536-34.544-17.177-34.052-16.632-33.496L22.677 2.446ZM91.585 2.446L130.894-33.496C131.45-34.052 131.81-34.544 131.81-35.261C131.81-35.978 131.4-36.544 130.844-37.076L91.535-73.08C91.103-73.461 90.712-73.72 90.184-73.72C89.117-73.72 88.232-72.835 88.232-71.768C88.232-71.302 88.402-70.748 88.771-70.355L128.741-33.803L128.741-36.831L88.771-0.167C88.402 0.176 88.232 0.718 88.232 1.196C88.232 2.263 89.117 3.148 90.184 3.148C90.712 3.148 91.153 2.839 91.585 2.446Z"/>
  </g>
  <g id="Ultralight-M" transform="matrix(1 0 0 1 503.69 1126)">
   <path class="SFSymbolsPreviewWireframe" d="M22.712 1.472C23.028 1.726 23.222 1.978 23.603 1.978C24.241 1.978 24.813 1.406 24.813 0.767C24.813 0.51 24.747 0.13 24.494-0.062L-15.986-36.518L-15.986-34.127L24.494-70.459C24.747-70.713 24.813-71.093 24.813-71.35C24.813-71.989 24.241-72.561 23.603-72.561C23.222-72.561 23.09-72.372 22.773-72.118L-16.721-36.647C-17.161-36.207-17.536-35.827-17.536-35.261C-17.536-34.694-17.223-34.377-16.783-33.936L22.712 1.472ZM89.336 1.472L128.831-33.936C129.271-34.377 129.584-34.694 129.584-35.261C129.584-35.827 129.209-36.207 128.769-36.647L89.274-72.118C88.959-72.372 88.765-72.561 88.445-72.561C87.807-72.561 87.235-71.989 87.235-71.35C87.235-71.093 87.301-70.713 87.554-70.459L128.034-34.127L128.034-36.518L87.554-0.062C87.301 0.13 87.235 0.51 87.235 0.767C87.235 1.406 87.807 1.978 88.445 1.978C88.765 1.978 89.021 1.726 89.336 1.472Z"/>
  </g>
  <g id="Black-S" transform="matrix(1 0 0 1 2875.71 696)">
   <path class="SFSymbolsPreviewWireframe" d="M13.421-0.684C15.179 1.074 17.229 1.855 19.671 1.855C24.7 1.855 28.899-2.295 28.899-7.227C28.899-9.766 27.825-12.109 25.823-14.063L2.63-36.279L2.63-34.375L25.823-56.445C27.874-58.398 28.899-60.742 28.899-63.232C28.899-68.164 24.7-72.315 19.671-72.315C17.18-72.315 15.179-71.533 13.421-69.775L-13.923-43.115C-16.462-40.625-17.488-38.281-17.536-35.254C-17.536-32.275-16.511-29.883-13.923-27.393L13.421-0.684ZM101.956-0.684L129.3-27.393C131.839-29.932 132.913-32.275 132.913-35.254C132.864-38.281 131.79-40.576 129.3-43.115L101.956-69.775C100.198-71.533 98.196-72.315 95.706-72.315C90.677-72.315 86.477-68.164 86.477-63.232C86.477-60.742 87.503-58.398 89.554-56.445L112.747-34.375L112.747-36.279L89.554-14.063C87.552-12.109 86.477-9.766 86.477-7.227C86.477-2.295 90.677 1.855 95.706 1.855C98.147 1.855 100.149 1.025 101.956-0.684Z"/>
  </g>
  <g id="Heavy-S" transform="matrix(1 0 0 1 2581.03 696)">
   <path class="SFSymbolsPreviewWireframe" d="M13.524-1.087C15.052 0.44 16.849 1.141 18.979 1.141C23.363 1.141 26.975-2.445 26.975-6.754C26.975-8.959 26.05-10.98 24.348-12.657L-0.344-36.579L-0.344-34.052L24.348-57.851C26.088-59.528 26.975-61.56 26.975-63.716C26.975-68.026 23.363-71.612 18.979-71.612C16.812-71.612 15.052-70.911 13.524-69.395L-14.488-41.94C-16.612-39.864-17.499-37.82-17.536-35.254C-17.536-32.725-16.649-30.667-14.488-28.568L13.524-1.087ZM97.784-1.087L125.796-28.568C127.932-30.704 128.856-32.725 128.856-35.254C128.819-37.82 127.895-39.827 125.796-41.94L97.784-69.395C96.268-70.911 94.508-71.612 92.341-71.612C87.957-71.612 84.334-68.026 84.334-63.716C84.334-61.56 85.232-59.528 86.961-57.851L111.664-34.052L111.664-36.579L86.961-12.657C85.27-10.98 84.334-8.959 84.334-6.754C84.334-2.445 87.957 1.141 92.341 1.141C94.471 1.141 96.231 0.403 97.784-1.087Z"/>
  </g>
  <g id="Bold-S" transform="matrix(1 0 0 1 2286.59 696)">
   <path class="SFSymbolsPreviewWireframe" d="M13.64-1.538C14.91-0.269 16.424 0.342 18.206 0.342C21.868 0.342 24.822-2.612 24.822-6.226C24.822-8.057 24.065-9.717 22.698-11.084L-3.669-36.914L-3.669-33.691L22.698-59.424C24.09-60.791 24.822-62.476 24.822-64.258C24.822-67.871 21.868-70.825 18.206-70.825C16.399-70.825 14.91-70.215 13.64-68.97L-15.119-40.625C-16.779-39.014-17.512-37.305-17.536-35.254C-17.536-33.228-16.804-31.543-15.119-29.883L13.64-1.538ZM93.118-1.538L121.878-29.883C123.562-31.567 124.319-33.228 124.319-35.254C124.295-37.305 123.538-38.989 121.878-40.625L93.118-68.97C91.873-70.215 90.384-70.825 88.577-70.825C84.915-70.825 81.936-67.871 81.936-64.258C81.936-62.476 82.693-60.791 84.06-59.424L110.452-33.691L110.452-36.914L84.06-11.084C82.717-9.717 81.936-8.057 81.936-6.226C81.936-2.612 84.915 0.342 88.577 0.342C90.359 0.342 91.848-0.293 93.118-1.538Z"/>
  </g>
  <g id="Semibold-S" transform="matrix(1 0 0 1 1991.44 696)">
   <path class="SFSymbolsPreviewWireframe" d="M13.72-1.849C14.812-0.757 16.13-0.209 17.673-0.209C20.837-0.209 23.338-2.728 23.338-5.861C23.338-7.435 22.697-8.846 21.56-10L-5.962-37.145L-5.962-33.443L21.56-60.508C22.712-61.662 23.338-63.106 23.338-64.631C23.338-67.765 20.837-70.283 17.673-70.283C16.115-70.283 14.812-69.735 13.72-68.677L-15.555-39.719C-16.895-38.427-17.521-36.949-17.536-35.254C-17.536-33.574-16.911-32.147-15.555-30.789L13.72-1.849ZM89.901-1.849L119.176-30.789C120.55-32.163 121.191-33.574 121.191-35.254C121.175-36.949 120.534-38.412 119.176-39.719L89.901-68.677C88.842-69.735 87.54-70.283 85.982-70.283C82.818-70.283 80.283-67.765 80.283-64.631C80.283-63.106 80.942-61.662 82.061-60.508L109.617-33.443L109.617-37.145L82.061-10C80.958-8.846 80.283-7.435 80.283-5.861C80.283-2.728 82.818-0.209 85.982-0.209C87.524-0.209 88.827-0.773 89.901-1.849Z"/>
  </g>
  <g id="Medium-S" transform="matrix(1 0 0 1 1695.92 696)">
   <path class="SFSymbolsPreviewWireframe" d="M13.781-2.085C14.738-1.128 15.908-0.627 17.268-0.627C20.055-0.627 22.213-2.815 22.213-5.585C22.213-6.963 21.659-8.186 20.698-9.178L-7.7-37.32L-7.7-33.254L20.698-61.33C21.668-62.322 22.213-63.585 22.213-64.914C22.213-67.684 20.055-69.872 17.268-69.872C15.899-69.872 14.738-69.371 13.781-68.454L-15.885-39.031C-16.983-37.982-17.528-36.68-17.536-35.254C-17.536-33.837-16.992-32.606-15.885-31.477L13.781-2.085ZM87.462-2.085L117.128-31.477C118.265-32.614 118.819-33.837 118.819-35.254C118.81-36.68 118.257-37.974 117.128-39.031L87.462-68.454C86.545-69.371 85.384-69.872 84.014-69.872C81.227-69.872 79.03-67.684 79.03-64.914C79.03-63.585 79.615-62.322 80.545-61.33L108.983-33.254L108.983-37.32L80.545-9.178C79.624-8.186 79.03-6.963 79.03-5.585C79.03-2.815 81.227-0.627 84.014-0.627C85.375-0.627 86.536-1.137 87.462-2.085Z"/>
  </g>
  <g id="Regular-S" transform="matrix(1 0 0 1 1400.75 696)">
   <path class="SFSymbolsPreviewWireframe" d="M13.86-2.393C14.641-1.611 15.618-1.172 16.741-1.172C19.036-1.172 20.745-2.93 20.745-5.225C20.745-6.348 20.305-7.324 19.573-8.105L-9.968-37.549L-9.968-33.008L19.573-62.402C20.305-63.184 20.745-64.209 20.745-65.283C20.745-67.578 19.036-69.336 16.741-69.336C15.618-69.336 14.641-68.897 13.86-68.164L-16.316-38.135C-17.097-37.402-17.536-36.328-17.536-35.254C-17.536-34.18-17.097-33.203-16.316-32.373L13.86-2.393ZM84.28-2.393L114.456-32.373C115.286-33.203 115.725-34.18 115.725-35.254C115.725-36.328 115.286-37.402 114.456-38.135L84.28-68.164C83.548-68.897 82.571-69.336 81.448-69.336C79.153-69.336 77.395-67.578 77.395-65.283C77.395-64.209 77.884-63.184 78.567-62.402L108.157-33.008L108.157-37.549L78.567-8.105C77.884-7.324 77.395-6.348 77.395-5.225C77.395-2.93 79.153-1.172 81.448-1.172C82.571-1.172 83.548-1.611 84.28-2.393Z"/>
  </g>
  <g id="Light-S" transform="matrix(1 0 0 1 1105.49 696)">
   <path class="SFSymbolsPreviewWireframe" d="M13.906-3.664C14.52-3.064 15.24-2.701 16.105-2.701C17.84-2.701 19.156-4.05 19.156-5.785C19.156-6.62 18.837-7.385 18.271-7.969L-11.951-37.14L-11.951-33.432L18.271-62.539C18.837-63.138 19.156-63.937 19.156-64.738C19.156-66.473 17.84-67.822 16.105-67.822C15.24-67.822 14.535-67.474 13.921-66.908L-16.497-37.575C-17.142-36.963-17.536-36.131-17.536-35.254C-17.536-34.377-17.157-33.627-16.512-32.948L13.906-3.664ZM81.344-3.664L111.762-32.948C112.44-33.627 112.819-34.377 112.819-35.254C112.819-36.131 112.425-36.963 111.746-37.575L81.328-66.908C80.747-67.474 80.028-67.822 79.178-67.822C77.443-67.822 76.094-66.473 76.094-64.738C76.094-63.937 76.446-63.138 76.978-62.539L107.234-33.432L107.234-37.14L76.978-7.969C76.446-7.385 76.094-6.62 76.094-5.785C76.094-4.05 77.443-2.701 79.178-2.701C80.028-2.701 80.763-3.064 81.344-3.664Z"/>
  </g>
  <g id="Thin-S" transform="matrix(1 0 0 1 810.706 696)">
   <path class="SFSymbolsPreviewWireframe" d="M13.966-5.346C14.36-4.986 14.739-4.723 15.264-4.723C16.259-4.723 17.054-5.531 17.054-6.525C17.054-6.98 16.895-7.465 16.55-7.789L-14.573-36.6L-14.573-33.992L16.55-62.719C16.895-63.078 17.054-63.576 17.054-64.018C17.054-65.012 16.259-65.82 15.264-65.82C14.739-65.82 14.395-65.592 14.001-65.246L-16.738-36.834C-17.202-36.383-17.536-35.871-17.536-35.254C-17.536-34.637-17.238-34.188-16.773-33.709L13.966-5.346ZM77.46-5.346L108.198-33.709C108.677-34.188 108.975-34.637 108.975-35.254C108.975-35.871 108.641-36.383 108.163-36.834L77.425-65.246C77.044-65.592 76.665-65.82 76.175-65.82C75.181-65.82 74.372-65.012 74.372-64.018C74.372-63.576 74.544-63.078 74.876-62.719L106.013-33.992L106.013-36.6L74.876-7.789C74.544-7.465 74.372-6.98 74.372-6.525C74.372-5.531 75.181-4.723 76.175-4.723C76.665-4.723 77.079-4.986 77.46-5.346Z"/>
  </g>
  <g id="Ultralight-S" transform="matrix(1 0 0 1 509.979 696)">
   <path class="SFSymbolsPreviewWireframe" d="M13.996-6.207C14.278-5.971 14.483-5.758 14.834-5.758C15.449-5.758 15.977-6.29 15.977-6.905C15.977-7.165 15.901-7.506 15.668-7.697L-15.917-36.323L-15.917-34.279L15.668-62.811C15.901-63.047 15.977-63.392 15.977-63.649C15.977-64.263 15.449-64.795 14.834-64.795C14.483-64.795 14.324-64.628 14.042-64.395L-16.861-36.455C-17.233-36.086-17.536-35.738-17.536-35.254C-17.536-34.77-17.279-34.475-16.906-34.099L13.996-6.207ZM85.471-6.207L116.373-34.099C116.749-34.475 117.007-34.77 117.007-35.254C117.007-35.738 116.703-36.086 116.327-36.455L85.425-64.395C85.147-64.628 84.942-64.795 84.637-64.795C84.022-64.795 83.49-64.263 83.49-63.649C83.49-63.392 83.57-63.047 83.799-62.811L115.387-34.279L115.387-36.323L83.799-7.697C83.57-7.506 83.49-7.165 83.49-6.905C83.49-6.29 84.022-5.758 84.637-5.758C84.942-5.758 85.192-5.971 85.471-6.207Z"/>
  </g>
 </g>
</svg>
