<?xml version="1.0" encoding="UTF-8"?>
<!--Generator: Apple Native CoreSVG 341-->
<!DOCTYPE svg
PUBLIC "-//W3C//DTD SVG 1.1//EN"
       "http://www.w3.org/Graphics/SVG/1.1/DTD/svg11.dtd">
<svg version="1.1" xmlns="http://www.w3.org/2000/svg" xmlns:xlink="http://www.w3.org/1999/xlink" viewBox="0 0 3300 2200">
 <!--glyph: "", point size: 100.0, font version: "21.1d1e1", template writer version: "138.0.0"-->
 <style>.defaults {-sfsymbols-variable-value-mode:color;-sfsymbols-draw-reverses-motion-groups:false}

.SFSymbolsPreviewWireframe {fill:none;opacity:1.0;stroke:black;stroke-width:0.5}
</style>
 <g id="Notes">
  <rect height="2200" id="artboard" style="fill:white;opacity:1" width="3300" x="0" y="0"/>
  <line style="fill:none;stroke:black;opacity:1;stroke-width:0.5;" x1="263" x2="3036" y1="292" y2="292"/>
  <text style="stroke:none;fill:black;font-family:sans-serif;font-size:13;font-weight:bold;" transform="matrix(1 0 0 1 263 322)">Weight/Scale Variations</text>
  <text style="stroke:none;fill:black;font-family:sans-serif;font-size:13;text-anchor:middle;" transform="matrix(1 0 0 1 559.711 322)">Ultralight</text>
  <text style="stroke:none;fill:black;font-family:sans-serif;font-size:13;text-anchor:middle;" transform="matrix(1 0 0 1 856.422 322)">Thin</text>
  <text style="stroke:none;fill:black;font-family:sans-serif;font-size:13;text-anchor:middle;" transform="matrix(1 0 0 1 1153.13 322)">Light</text>
  <text style="stroke:none;fill:black;font-family:sans-serif;font-size:13;text-anchor:middle;" transform="matrix(1 0 0 1 1449.84 322)">Regular</text>
  <text style="stroke:none;fill:black;font-family:sans-serif;font-size:13;text-anchor:middle;" transform="matrix(1 0 0 1 1746.56 322)">Medium</text>
  <text style="stroke:none;fill:black;font-family:sans-serif;font-size:13;text-anchor:middle;" transform="matrix(1 0 0 1 2043.27 322)">Semibold</text>
  <text style="stroke:none;fill:black;font-family:sans-serif;font-size:13;text-anchor:middle;" transform="matrix(1 0 0 1 2339.98 322)">Bold</text>
  <text style="stroke:none;fill:black;font-family:sans-serif;font-size:13;text-anchor:middle;" transform="matrix(1 0 0 1 2636.69 322)">Heavy</text>
  <text style="stroke:none;fill:black;font-family:sans-serif;font-size:13;text-anchor:middle;" transform="matrix(1 0 0 1 2933.4 322)">Black</text>
  <line style="fill:none;stroke:black;opacity:1;stroke-width:0.5;" x1="263" x2="3036" y1="1903" y2="1903"/>
  <g transform="matrix(0.2 0 0 0.2 263 1933)">
   <path d="m46.2402 4.15039c21.7773 0 39.4531-17.627 39.4531-39.4043s-17.6758-39.4043-39.4531-39.4043c-21.7285 0-39.4043 17.627-39.4043 39.4043s17.6758 39.4043 39.4043 39.4043Zm0-7.42188c-17.6758 0-31.9336-14.3066-31.9336-31.9824s14.2578-31.9824 31.9336-31.9824 31.9824 14.3066 31.9824 31.9824-14.3066 31.9824-31.9824 31.9824Zm3.61328-17.7734v-28.4668c0-2.24609-1.46484-3.75977-3.71094-3.75977-2.14844 0-3.61328 1.51367-3.61328 3.75977v28.4668c0 2.19727 1.46484 3.71094 3.61328 3.71094 2.24609 0 3.71094-1.51367 3.71094-3.71094Zm-17.8223-10.5957h28.418c2.19727 0 3.71094-1.46484 3.71094-3.61328 0-2.19727-1.51367-3.71094-3.71094-3.71094h-28.418c-2.24609 0-3.75977 1.51367-3.75977 3.71094 0 2.14844 1.51367 3.61328 3.75977 3.61328Z"/>
  </g>
  <g transform="matrix(0.2 0 0 0.2 281.506 1933)">
   <path d="m58.5449 14.5508c27.4902 0 49.8047-22.3145 49.8047-49.8047s-22.3145-49.8047-49.8047-49.8047-49.8047 22.3145-49.8047 49.8047 22.3145 49.8047 49.8047 49.8047Zm0-8.30078c-22.9492 0-41.5039-18.5547-41.5039-41.5039s18.5547-41.5039 41.5039-41.5039 41.5039 18.5547 41.5039 41.5039-18.5547 41.5039-41.5039 41.5039Zm4.05273-23.0957v-36.9141c0-2.49023-1.70898-4.19922-4.15039-4.19922-2.39258 0-4.05273 1.70898-4.05273 4.19922v36.9141c0 2.44141 1.66016 4.15039 4.05273 4.15039 2.44141 0 4.15039-1.66016 4.15039-4.15039Zm-22.5586-14.4043h36.9629c2.44141 0 4.15039-1.61133 4.15039-4.00391 0-2.44141-1.70898-4.15039-4.15039-4.15039h-36.9629c-2.49023 0-4.15039 1.70898-4.15039 4.15039 0 2.39258 1.66016 4.00391 4.15039 4.00391Z"/>
  </g>
  <g transform="matrix(0.2 0 0 0.2 304.924 1933)">
   <path d="m74.8535 28.3203c35.1074 0 63.623-28.4668 63.623-63.5742s-28.5156-63.623-63.623-63.623-63.5742 28.5156-63.5742 63.623 28.4668 63.5742 63.5742 63.5742Zm0-9.08203c-30.127 0-54.4922-24.3652-54.4922-54.4922s24.3652-54.4922 54.4922-54.4922 54.4922 24.3652 54.4922 54.4922-24.3652 54.4922-54.4922 54.4922Zm4.44336-30.3223v-48.4863c0-2.73438-1.85547-4.63867-4.54102-4.63867-2.58789 0-4.44336 1.9043-4.44336 4.63867v48.4863c0 2.68555 1.85547 4.58984 4.44336 4.58984 2.68555 0 4.54102-1.85547 4.54102-4.58984Zm-28.7109-19.7754h48.4863c2.68555 0 4.58984-1.80664 4.58984-4.39453 0-2.73438-1.85547-4.58984-4.58984-4.58984h-48.4863c-2.73438 0-4.58984 1.85547-4.58984 4.58984 0 2.58789 1.85547 4.39453 4.58984 4.39453Z"/>
  </g>
  <text style="stroke:none;fill:black;font-family:sans-serif;font-size:13;font-weight:bold;" transform="matrix(1 0 0 1 263 1953)">Design Variations</text>
  <text style="stroke:none;fill:black;font-family:sans-serif;font-size:13;" transform="matrix(1 0 0 1 263 1971)">Symbols are supported in up to nine weights and three scales.</text>
  <text style="stroke:none;fill:black;font-family:sans-serif;font-size:13;" transform="matrix(1 0 0 1 263 1989)">For optimal layout with text and other symbols, vertically align</text>
  <text style="stroke:none;fill:black;font-family:sans-serif;font-size:13;" transform="matrix(1 0 0 1 263 2007)">symbols with the adjacent text.</text>
  <line style="fill:none;stroke:#00AEEF;stroke-width:0.5;opacity:1.0;" x1="776" x2="776" y1="1919" y2="1933"/>
  <g transform="matrix(0.2 0 0 0.2 776 1933)">
   <path d="m16.5527 0.78125c2.58789 0 3.85742-0.976562 4.78516-3.71094l20.5566-57.5195h0.244141l20.6055 57.5195c0.927734 2.73438 2.19727 3.71094 4.73633 3.71094 2.58789 0 4.24805-1.5625 4.24805-4.00391 0-0.830078-0.146484-1.61133-0.537109-2.63672l-22.9004-60.9863c-1.12305-2.97852-3.125-4.49219-6.25-4.49219-3.02734 0-5.07812 1.46484-6.15234 4.44336l-22.9004 61.084c-0.390625 1.02539-0.537109 1.80664-0.537109 2.63672 0 2.44141 1.5625 3.95508 4.10156 3.95508Zm10.2051-20.9473h30.6641c2.00195 0 3.66211-1.66016 3.66211-3.66211 0-2.05078-1.66016-3.66211-3.66211-3.66211h-30.6641c-2.00195 0-3.66211 1.61133-3.66211 3.66211 0 2.00195 1.66016 3.66211 3.66211 3.66211Z"/>
  </g>
  <line style="fill:none;stroke:#00AEEF;stroke-width:0.5;opacity:1.0;" x1="792.836" x2="792.836" y1="1919" y2="1933"/>
  <text style="stroke:none;fill:black;font-family:sans-serif;font-size:13;font-weight:bold;" transform="matrix(1 0 0 1 776 1953)">Margins</text>
  <text style="stroke:none;fill:black;font-family:sans-serif;font-size:13;" transform="matrix(1 0 0 1 776 1971)">Leading and trailing margins on the left and right side of each symbol</text>
  <text style="stroke:none;fill:black;font-family:sans-serif;font-size:13;" transform="matrix(1 0 0 1 776 1989)">can be adjusted by modifying the x-location of the margin guidelines.</text>
  <text style="stroke:none;fill:black;font-family:sans-serif;font-size:13;" transform="matrix(1 0 0 1 776 2007)">Modifications are automatically applied proportionally to all</text>
  <text style="stroke:none;fill:black;font-family:sans-serif;font-size:13;" transform="matrix(1 0 0 1 776 2025)">scales and weights.</text>
  <g transform="matrix(0.2 0 0 0.2 1289 1933)">
   <path d="m14.209 13.1348 7.86133 7.86133c4.29688 4.39453 9.32617 4.10156 13.8672-1.02539l60.6934-68.2129-4.88281-4.88281-60.2539 67.6758c-1.80664 1.95312-3.4668 2.44141-5.81055 0.0976562l-5.17578-5.12695c-2.29492-2.29492-1.80664-3.95508 0.195312-5.81055l67.4805-62.1582-4.88281-4.83398-68.0664 62.5977c-4.98047 4.58984-5.32227 9.47266-1.02539 13.8184Zm44.873-97.4609c-2.05078 2.00195-2.24609 4.88281-1.07422 6.78711 1.12305 1.80664 3.4668 3.02734 6.5918 2.24609 5.85938-1.66016 12.5977-2.39258 18.8965 0.927734l-2.68555 7.12891c-1.61133 4.00391-0.732422 6.88477 1.70898 9.42383l10.2539 10.3027c2.34375 2.39258 4.54102 2.44141 7.08008 1.95312l4.44336-0.732422 2.58789 2.53906-0.195312 2.24609c-0.0976562 2.29492 0.537109 4.29688 2.7832 6.49414l3.36914 3.32031c2.29492 2.29492 5.51758 2.49023 7.8125 0.195312l12.9883-13.0371c2.29492-2.34375 2.14844-5.37109-0.195312-7.66602l-3.41797-3.41797c-2.19727-2.19727-4.05273-3.02734-6.34766-2.88086l-2.34375 0.244141-2.44141-2.44141 1.02539-4.6875c0.634766-2.73438-0.244141-4.98047-2.88086-7.61719l-11.2793-11.1816c-12.9395-12.8418-35.5957-11.0352-46.6797-0.146484Zm7.08008 2.05078c8.78906-6.39648 25.9766-5.66406 33.6914 1.95312l12.3047 12.207c1.02539 1.02539 1.2207 1.80664 0.927734 3.32031l-1.46484 6.64062 6.73828 6.68945 4.39453-0.244141c1.12305-0.0488281 1.51367 0.0488281 2.34375 0.878906l2.53906 2.49023-10.8398 10.8398-2.49023-2.49023c-0.830078-0.878906-0.976562-1.2207-0.927734-2.39258l0.292969-4.3457-6.68945-6.73828-6.83594 1.17188c-1.41602 0.292969-2.05078 0.195312-3.17383-0.878906l-8.93555-8.88672c-1.07422-1.02539-1.17188-1.70898-0.488281-3.36914l4.58984-11.4746c-6.10352-6.34766-17.041-7.51953-25.5859-4.58984-0.683594 0.244141-0.927734-0.390625-0.390625-0.78125Z"/>
  </g>
  <text style="stroke:none;fill:black;font-family:sans-serif;font-size:13;font-weight:bold;" transform="matrix(1 0 0 1 1289 1953)">Exporting</text>
  <text style="stroke:none;fill:black;font-family:sans-serif;font-size:13;" transform="matrix(1 0 0 1 1289 1971)">Symbols should be outlined when exporting to ensure the</text>
  <text style="stroke:none;fill:black;font-family:sans-serif;font-size:13;" transform="matrix(1 0 0 1 1289 1989)">design is preserved when submitting to Xcode.</text>
  <text id="template-version" style="stroke:none;fill:black;font-family:sans-serif;font-size:13;text-anchor:end;" transform="matrix(1 0 0 1 3036 1933)">Template v.6.0</text>
  <text style="stroke:none;fill:black;font-family:sans-serif;font-size:13;text-anchor:end;" transform="matrix(1 0 0 1 3036 1951)">Requires Xcode 16 or greater</text>
  <text id="descriptive-name" style="stroke:none;fill:black;font-family:sans-serif;font-size:13;text-anchor:end;" transform="matrix(1 0 0 1 3036 1969)">Generated from chevron.down.chevron.up.line</text>
  <text style="stroke:none;fill:black;font-family:sans-serif;font-size:13;text-anchor:end;" transform="matrix(1 0 0 1 3036 1987)">Typeset at 100.0 points</text>
  <text style="stroke:none;fill:black;font-family:sans-serif;font-size:13;" transform="matrix(1 0 0 1 263 726)">Small</text>
  <text style="stroke:none;fill:black;font-family:sans-serif;font-size:13;" transform="matrix(1 0 0 1 263 1156)">Medium</text>
  <text style="stroke:none;fill:black;font-family:sans-serif;font-size:13;" transform="matrix(1 0 0 1 263 1586)">Large</text>
 </g>
 <g id="Guides">
  <g id="H-reference" style="fill:#27AAE1;stroke:none;" transform="matrix(1 0 0 1 339 696)">
   <path d="M0.993654 0L3.63775 0L29.3281-67.1323L30.0303-67.1323L30.0303-70.459L28.1226-70.459ZM11.6885-24.4799L46.9815-24.4799L46.2315-26.7285L12.4385-26.7285ZM55.1196 0L57.7637 0L30.6382-70.459L29.4326-70.459L29.4326-67.1323Z"/>
  </g>
  <line id="Baseline-S" style="fill:none;stroke:#27AAE1;opacity:1;stroke-width:0.5;" x1="263" x2="3036" y1="696" y2="696"/>
  <line id="Capline-S" style="fill:none;stroke:#27AAE1;opacity:1;stroke-width:0.5;" x1="263" x2="3036" y1="625.541" y2="625.541"/>
  <g id="H-reference" style="fill:#27AAE1;stroke:none;" transform="matrix(1 0 0 1 339 1126)">
   <path d="M0.993654 0L3.63775 0L29.3281-67.1323L30.0303-67.1323L30.0303-70.459L28.1226-70.459ZM11.6885-24.4799L46.9815-24.4799L46.2315-26.7285L12.4385-26.7285ZM55.1196 0L57.7637 0L30.6382-70.459L29.4326-70.459L29.4326-67.1323Z"/>
  </g>
  <line id="Baseline-M" style="fill:none;stroke:#27AAE1;opacity:1;stroke-width:0.5;" x1="263" x2="3036" y1="1126" y2="1126"/>
  <line id="Capline-M" style="fill:none;stroke:#27AAE1;opacity:1;stroke-width:0.5;" x1="263" x2="3036" y1="1055.54" y2="1055.54"/>
  <g id="H-reference" style="fill:#27AAE1;stroke:none;" transform="matrix(1 0 0 1 339 1556)">
   <path d="M0.993654 0L3.63775 0L29.3281-67.1323L30.0303-67.1323L30.0303-70.459L28.1226-70.459ZM11.6885-24.4799L46.9815-24.4799L46.2315-26.7285L12.4385-26.7285ZM55.1196 0L57.7637 0L30.6382-70.459L29.4326-70.459L29.4326-67.1323Z"/>
  </g>
  <line id="Baseline-L" style="fill:none;stroke:#27AAE1;opacity:1;stroke-width:0.5;" x1="263" x2="3036" y1="1556" y2="1556"/>
  <line id="Capline-L" style="fill:none;stroke:#27AAE1;opacity:1;stroke-width:0.5;" x1="263" x2="3036" y1="1485.54" y2="1485.54"/>
  <line id="right-margin-Regular-M" style="fill:none;stroke:#00AEEF;stroke-width:0.5;opacity:1.0;" x1="1520.79" x2="1520.79" y1="1030.79" y2="1150.12"/>
  <line id="left-margin-Regular-M" style="fill:none;stroke:#00AEEF;stroke-width:0.5;opacity:1.0;" x1="1378.9" x2="1378.9" y1="1030.79" y2="1150.12"/>
 </g>
 <g id="Symbols">
  <g id="Black-L" transform="matrix(1 0 0 1 2845.28 1556)">
   <path class="SFSymbolsPreviewWireframe" d="M32.0814-100.716C29.6414-103.158 28.5144-106.031 28.5144-109.437C28.5144-116.444 34.2394-122.206 41.1284-122.206C44.6494-122.206 47.8764-120.732 50.5494-118.021L90.3774-76.906L86.1174-76.906L125.746-118.021C128.421-120.791 131.668-122.206 135.11-122.206C141.999-122.206 147.724-116.444 147.724-109.437C147.724-105.973 146.599-103.159 144.179-100.718L98.8064-54.386C95.5064-51.008 92.2384-49.587 88.1484-49.528C84.1164-49.528 80.8324-50.948 77.4914-54.385L32.0814-100.716ZM32.0814 30.235L77.4914-16.096C80.8904-19.495 84.1164-20.973 88.1484-20.973C92.2384-20.915 95.4484-19.436 98.8064-16.095L144.179 30.237C146.599 32.657 147.724 35.472 147.724 38.935C147.724 45.942 141.999 51.725 135.11 51.725C131.668 51.725 128.421 50.289 125.746 47.54L86.1174 6.404L90.3774 6.404L50.5494 47.54C47.8764 50.231 44.6494 51.725 41.1284 51.725C34.2394 51.725 28.5144 45.942 28.5144 38.935C28.5144 35.53 29.6994 32.715 32.0814 30.235Z"/>
  </g>
  <g id="Heavy-L" transform="matrix(1 0 0 1 2549.86 1556)">
   <path class="SFSymbolsPreviewWireframe" d="M31.6344-100.779C29.5224-102.897 28.5144-105.392 28.5144-108.351C28.5144-114.422 33.4444-119.366 39.4264-119.366C42.4634-119.366 45.2424-118.107 47.5274-115.802L89.3154-72.697L84.5544-72.697L126.167-115.802C128.457-118.152 131.267-119.366 134.229-119.366C140.21-119.366 145.141-114.422 145.141-108.351C145.141-105.347 144.138-102.903 142.056-100.785L95.9354-53.584C93.1684-50.741 90.3284-49.499 86.8474-49.454C83.4104-49.454 80.5924-50.691 77.7644-53.578L31.6344-100.779ZM31.6344 30.279L77.7644-16.922C80.6374-19.795 83.4104-21.077 86.8474-21.077C90.3284-21.032 93.1234-19.745 95.9354-16.917L142.056 30.285C144.138 32.372 145.141 34.822 145.141 37.82C145.141 43.891 140.21 48.866 134.229 48.866C131.267 48.866 128.457 47.621 126.167 45.302L84.5544 2.166L89.3154 2.166L47.5274 45.302C45.2424 47.576 42.4634 48.866 39.4264 48.866C33.4444 48.866 28.5144 43.891 28.5144 37.82C28.5144 34.866 29.5674 32.411 31.6344 30.279Z"/>
  </g>
  <g id="Bold-L" transform="matrix(1 0 0 1 2254.86 1556)">
   <path class="SFSymbolsPreviewWireframe" d="M31.0884-100.886C29.3764-102.611 28.5144-104.637 28.5144-107.05C28.5144-111.976 32.4834-115.936 37.3504-115.936C39.7954-115.936 42.0364-114.938 43.8524-113.118L87.7854-67.665L82.6104-67.665L126.391-113.118C128.22-114.968 130.499-115.936 132.877-115.936C137.744-115.936 141.713-111.976 141.713-107.05C141.713-104.608 140.864-102.624 139.19-100.899L92.3564-52.682C90.2044-50.463 87.8874-49.428 85.1224-49.399C82.3854-49.399 80.1294-50.42 77.9014-52.669L31.0884-100.886ZM31.0884 30.354L77.9014-17.863C80.1584-20.12 82.3854-21.17 85.1224-21.17C87.8874-21.141 90.1754-20.077 92.3564-17.85L139.19 30.368C140.864 32.055 141.713 34.052 141.713 36.481C141.713 41.407 137.744 45.405 132.877 45.405C130.499 45.405 128.22 44.398 126.391 42.587L82.6104-2.904L87.7854-2.904L43.8524 42.587C42.0364 44.369 39.7954 45.405 37.3504 45.405C32.4834 45.405 28.5144 41.407 28.5144 36.481C28.5144 34.081 29.4054 32.071 31.0884 30.354Z"/>
  </g>
  <g id="Semibold-L" transform="matrix(1 0 0 1 1959.33 1556)">
   <path class="SFSymbolsPreviewWireframe" d="M30.7114-100.954C29.2754-102.409 28.5144-104.112 28.5144-106.148C28.5144-110.285 31.8204-113.566 35.9194-113.566C37.9564-113.566 39.8264-112.749 41.3184-111.263L86.7304-64.191L81.2704-64.191L126.546-111.263C128.056-112.767 129.969-113.566 131.945-113.566C136.043-113.566 139.35-110.285 139.35-106.148C139.35-104.093 138.607-102.427 137.214-100.972L89.8874-52.054C88.1604-50.265 86.2044-49.374 83.9324-49.356C81.6784-49.356 79.8094-50.228 77.9954-52.036L30.7114-100.954ZM30.7114 30.413L77.9954-18.505C79.8274-20.337 81.6784-21.228 83.9324-21.228C86.2044-21.21 88.1424-20.3 89.8874-18.486L137.214 30.432C138.607 31.843 139.35 33.528 139.35 35.565C139.35 39.701 136.043 43.025 131.945 43.025C129.969 43.025 128.056 42.183 126.546 40.722L81.2704-6.392L86.7304-6.392L41.3184 40.722C39.8264 42.165 37.9564 43.025 35.9194 43.025C31.8204 43.025 28.5144 39.701 28.5144 35.565C28.5144 33.546 29.2944 31.843 30.7114 30.413Z"/>
  </g>
  <g id="Medium-L" transform="matrix(1 0 0 1 1663.52 1556)">
   <path class="SFSymbolsPreviewWireframe" d="M30.4264-101.002C29.1994-102.252 28.5144-103.71 28.5144-105.462C28.5144-108.999 31.3174-111.766 34.8344-111.766C36.5614-111.766 38.1504-111.085 39.3974-109.853L85.9304-61.554L80.2544-61.554L126.663-109.853C127.932-111.096 129.568-111.766 131.238-111.766C134.754-111.766 137.558-108.999 137.558-105.462C137.558-103.7 136.895-102.275 135.715-101.025L88.0164-51.576C86.6114-50.113 84.9274-49.33 83.0304-49.32C81.1434-49.32 79.5664-50.08 78.0664-51.553L30.4264-101.002ZM30.4264 30.46L78.0664-18.989C79.5774-20.499 81.1434-21.27 83.0304-21.27C84.9274-21.259 86.6004-20.466 88.0164-18.966L135.715 30.483C136.895 31.685 137.558 33.133 137.558 34.872C137.558 38.41 134.754 41.224 131.238 41.224C129.568 41.224 127.932 40.506 126.663 39.311L80.2544-9.035L85.9304-9.035L39.3974 39.311C38.1504 40.496 36.5614 41.224 34.8344 41.224C31.3174 41.224 28.5144 38.41 28.5144 34.872C28.5144 33.143 29.2094 31.673 30.4264 30.46Z"/>
  </g>
  <g id="Regular-L" transform="matrix(1 0 0 1 1367.98 1556)">
   <path class="SFSymbolsPreviewWireframe" d="M30.0544-101.074C29.0994-102.056 28.5144-103.194 28.5144-104.574C28.5144-107.33 30.6624-109.426 33.4194-109.426C34.7434-109.426 35.9644-108.923 36.8914-108.021L84.8874-58.123L78.9294-58.123L126.816-108.021C127.771-108.923 129.045-109.426 130.316-109.426C133.073-109.426 135.221-107.33 135.221-104.574C135.221-103.194 134.663-102.084 133.761-101.101L85.5754-50.959C84.5904-49.921 83.2634-49.281 81.8544-49.281C80.4444-49.281 79.2514-49.894 78.1604-50.932L30.0544-101.074ZM30.0544 30.514L78.1604-19.628C79.2514-20.719 80.4444-21.332 81.8544-21.332C83.2634-21.332 84.5904-20.691 85.5754-19.601L133.761 30.541C134.663 31.471 135.221 32.609 135.221 33.961C135.221 36.718 133.073 38.866 130.316 38.866C129.045 38.866 127.771 38.311 126.816 37.461L78.9294-12.49L84.8874-12.49L36.8914 37.461C35.9644 38.311 34.7434 38.866 33.4194 38.866C30.6624 38.866 28.5144 36.718 28.5144 33.961C28.5144 32.609 29.0994 31.444 30.0544 30.514Z"/>
  </g>
  <g id="Light-L" transform="matrix(1 0 0 1 1073.18 1556)">
   <path class="SFSymbolsPreviewWireframe" d="M29.7294-101.315C29.0044-102.087 28.5144-102.901 28.5144-103.956C28.5144-106.007 30.1474-107.606 32.1974-107.606C33.1584-107.606 34.1124-107.256 34.7924-106.564L82.4434-55.807L77.5354-55.807L125.06-106.564C125.786-107.256 126.773-107.606 127.701-107.606C129.752-107.606 131.385-106.007 131.385-103.956C131.385-102.901 130.941-102.134 130.249-101.362L82.9414-50.914C82.1094-50.048 81.0874-49.465 79.9264-49.465C78.7644-49.465 77.8574-50.001 76.9574-50.867L29.7294-101.315ZM29.7294 30.731L76.9574-19.716C77.8574-20.616 78.7644-21.153 79.9264-21.153C81.0874-21.153 82.1094-20.569 82.9414-19.669L130.249 30.778C130.941 31.517 131.385 32.331 131.385 33.339C131.385 35.389 129.752 37.022 127.701 37.022C126.773 37.022 125.786 36.639 125.06 35.98L77.5354-14.811L82.4434-14.811L34.7924 35.98C34.1124 36.639 33.1584 37.022 32.1974 37.022C30.1474 37.022 28.5144 35.389 28.5144 33.339C28.5144 32.331 29.0044 31.47 29.7294 30.731Z"/>
  </g>
  <g id="Thin-L" transform="matrix(1 0 0 1 779.009 1556)">
   <path class="SFSymbolsPreviewWireframe" d="M29.3014-101.631C28.8784-102.126 28.5144-102.511 28.5144-103.137C28.5144-104.253 29.4654-105.196 30.5824-105.196C31.0644-105.196 31.6644-105.048 32.0154-104.634L79.2134-52.74L75.6934-52.74L122.738-104.634C123.161-105.048 123.77-105.196 124.244-105.196C125.36-105.196 126.311-104.253 126.311-103.137C126.311-102.511 126.02-102.198 125.605-101.703L79.4584-50.852C78.8284-50.213 78.2104-49.705 77.3774-49.705C76.5434-49.705 76.0154-50.141 75.3674-50.78L29.3014-101.631ZM29.3014 31.02L75.3674-19.831C76.0154-20.478 76.5434-20.914 77.3774-20.914C78.2104-20.914 78.8284-20.406 79.4584-19.759L125.605 31.092C126.02 31.579 126.311 31.963 126.311 32.517C126.311 33.634 125.36 34.585 124.244 34.585C123.77 34.585 123.161 34.429 122.738 34.023L75.6934-17.879L79.2134-17.879L32.0154 34.023C31.6644 34.429 31.0644 34.585 30.5824 34.585C29.4654 34.585 28.5144 33.634 28.5144 32.517C28.5144 31.963 28.8784 31.507 29.3014 31.02Z"/>
  </g>
  <g id="Ultralight-L" transform="matrix(1 0 0 1 483.596 1556)">
   <path class="SFSymbolsPreviewWireframe" d="M29.0814-101.797C28.8134-102.15 28.5144-102.315 28.5144-102.721C28.5144-103.359 29.1164-103.966 29.7544-103.966C29.9904-103.966 30.4104-103.922 30.5934-103.649L77.5584-51.174L74.7494-51.174L121.548-103.649C121.816-103.922 122.231-103.966 122.472-103.966C123.11-103.966 123.713-103.359 123.713-102.721C123.713-102.315 123.498-102.235 123.226-101.882L77.6744-50.824C77.1474-50.302 76.7364-49.833 76.0714-49.833C75.4054-49.833 75.0714-50.217 74.5534-50.739L29.0814-101.797ZM29.0814 31.164L74.5534-19.894C75.0714-20.412 75.4054-20.796 76.0714-20.796C76.7364-20.796 77.1474-20.327 77.6744-19.809L123.226 31.249C123.498 31.607 123.713 31.771 123.713 32.093C123.713 32.731 123.11 33.333 122.472 33.333C122.231 33.333 121.816 33.293 121.548 33.016L74.7494-19.454L77.5584-19.454L30.5934 33.016C30.4104 33.293 29.9904 33.333 29.7544 33.333C29.1164 33.333 28.5144 32.731 28.5144 32.093C28.5144 31.771 28.8134 31.522 29.0814 31.164Z"/>
  </g>
  <g id="Black-M" transform="matrix(1 0 0 1 2857.86 1126)">
   <path class="SFSymbolsPreviewWireframe" d="M31.6184-85.945C29.4764-88.087 28.5144-90.594 28.5144-93.573C28.5144-99.709 33.5634-104.809 39.5854-104.809C42.6794-104.809 45.5284-103.504 47.8994-101.082L77.0234-70.823L74.2964-70.823L103.245-101.082C105.615-103.561 108.47-104.809 111.501-104.809C117.523-104.809 122.571-99.709 122.571-93.573C122.571-90.537 121.609-88.086 119.473-85.944L85.0824-50.756C82.0904-47.701 79.2304-46.455 75.5724-46.397C71.9714-46.397 69.0644-47.645 66.0614-50.757L31.6184-85.945ZM31.6184 15.481L66.0614-19.708C69.1224-22.768 71.9714-24.072 75.5724-24.072C79.2304-24.015 82.0334-22.711 85.0824-19.708L119.473 15.48C121.609 17.617 122.571 20.067 122.571 23.103C122.571 29.24 117.523 34.345 111.501 34.345C108.47 34.345 105.615 33.091 103.245 30.618L74.2964 0.353L77.0234 0.353L47.8994 30.618C45.5284 33.034 42.6794 34.345 39.5854 34.345C33.5634 34.345 28.5144 29.24 28.5144 23.103C28.5144 20.124 29.5334 17.674 31.6184 15.481Z"/>
  </g>
  <g id="Heavy-M" transform="matrix(1 0 0 1 2562.23 1126)">
   <path class="SFSymbolsPreviewWireframe" d="M31.2114-85.982C29.3694-87.827 28.5144-89.994 28.5144-92.566C28.5144-97.853 32.8334-102.199 38.0334-102.199C40.6884-102.199 43.1234-101.089 45.1384-99.046L76.2104-66.92L72.8974-66.92L103.818-99.046C105.834-101.133 108.286-102.199 110.881-102.199C116.081-102.199 120.4-97.853 120.4-92.566C120.4-89.95 119.547-87.829 117.722-85.985L82.5194-49.974C80.0324-47.427 77.5644-46.35 74.4784-46.306C71.4354-46.306 68.9584-47.381 66.4394-49.972L31.2114-85.982ZM31.2114 15.504L66.4394-20.506C69.0024-23.069 71.4354-24.188 74.4784-24.188C77.5644-24.145 79.9894-23.024 82.5194-20.504L117.722 15.507C119.547 17.335 120.4 19.458 120.4 22.072C120.4 27.358 116.081 31.721 110.881 31.721C108.286 31.721 105.834 30.639 103.818 28.568L72.8974-3.574L76.2104-3.574L45.1384 28.568C43.1234 30.595 40.6884 31.721 38.0334 31.721C32.8334 31.721 28.5144 27.358 28.5144 22.072C28.5144 19.502 29.4124 17.376 31.2114 15.504Z"/>
  </g>
  <g id="Bold-M" transform="matrix(1 0 0 1 2266.73 1126)">
   <path class="SFSymbolsPreviewWireframe" d="M30.7554-86.024C29.2484-87.535 28.5144-89.322 28.5144-91.439C28.5144-95.776 32.0174-99.279 36.2974-99.279C38.4604-99.279 40.4344-98.388 42.0494-96.768L75.3014-62.554L71.3314-62.554L104.458-96.768C106.079-98.417 108.081-99.279 110.187-99.279C114.467-99.279 117.97-95.776 117.97-91.439C117.97-89.294 117.241-87.541 115.763-86.029L79.6524-49.099C77.7304-47.12 75.7004-46.232 73.2544-46.204C70.8364-46.204 68.8394-47.086 66.8614-49.093L30.7554-86.024ZM30.7554 15.531L66.8614-21.4C68.8684-23.407 70.8364-24.318 73.2544-24.318C75.7004-24.29 77.7024-23.373 79.6524-21.395L115.763 15.536C117.241 17.019 117.97 18.777 117.97 20.917C117.97 25.254 114.467 28.786 110.187 28.786C108.081 28.786 106.079 27.895 104.458 26.275L71.3314-7.968L75.3014-7.968L42.0494 26.275C40.4344 27.867 38.4604 28.786 36.2974 28.786C32.0174 28.786 28.5144 25.254 28.5144 20.917C28.5144 18.806 29.2774 17.042 30.7554 15.531Z"/>
  </g>
  <g id="Semibold-M" transform="matrix(1 0 0 1 1970.86 1126)">
   <path class="SFSymbolsPreviewWireframe" d="M30.4414-86.056C29.1664-87.338 28.5144-88.863 28.5144-90.665C28.5144-94.347 31.4554-97.269 35.1014-97.269C36.9254-97.269 38.5804-96.529 39.9204-95.201L74.6754-59.547L70.2524-59.547L104.901-95.201C106.248-96.547 107.94-97.269 109.71-97.269C113.356-97.269 116.296-94.347 116.296-90.665C116.296-88.844 115.651-87.345 114.413-86.063L77.6764-48.498C76.1444-46.912 74.4154-46.154 72.4114-46.136C70.4244-46.136 68.7584-46.886 67.1534-48.491L30.4414-86.056ZM30.4414 15.547L67.1534-22.018C68.7764-23.641 70.4244-24.41 72.4114-24.41C74.4154-24.392 76.1264-23.616 77.6764-22.011L114.413 15.554C115.651 16.799 116.296 18.305 116.296 20.119C116.296 23.801 113.356 26.76 109.71 26.76C107.94 26.76 106.248 26.001 104.901 24.691L70.2524-10.999L74.6754-10.999L39.9204 24.691C38.5804 25.983 36.9254 26.76 35.1014 26.76C31.4554 26.76 28.5144 23.801 28.5144 20.119C28.5144 18.323 29.1844 16.81 30.4414 15.547Z"/>
  </g>
  <g id="Medium-M" transform="matrix(1 0 0 1 1674.78 1126)">
   <path class="SFSymbolsPreviewWireframe" d="M30.2034-86.074C29.1044-87.182 28.5144-88.508 28.5144-90.072C28.5144-93.258 31.0294-95.739 34.1944-95.739C35.7614-95.739 37.1754-95.114 38.3074-94.006L74.2014-57.261L69.4344-57.261L105.237-94.006C106.377-95.124 107.834-95.739 109.348-95.739C112.513-95.739 115.027-93.258 115.027-90.072C115.027-88.498 114.446-87.191 113.39-86.083L76.1784-48.037C74.9424-46.748 73.4424-46.089 71.7724-46.079C70.1124-46.079 68.6974-46.729 67.3744-48.028L30.2034-86.074ZM30.2034 15.564L67.3744-22.481C68.7074-23.814 70.1124-24.474 71.7724-24.474C73.4424-24.464 74.9324-23.795 76.1784-22.473L113.39 15.573C114.446 16.637 115.027 17.953 115.027 19.519C115.027 22.704 112.513 25.229 109.348 25.229C107.834 25.229 106.377 24.57 105.237 23.496L69.4344-13.292L74.2014-13.292L38.3074 23.496C37.1754 24.56 35.7614 25.229 34.1944 25.229C31.0294 25.229 28.5144 22.704 28.5144 19.519C28.5144 17.963 29.1144 16.639 30.2034 15.564Z"/>
  </g>
  <g id="Regular-M" transform="matrix(1 0 0 1 1378.9 1126)">
   <path class="SFSymbolsPreviewWireframe" d="M29.896-86.104C29.026-86.984 28.518-88.051 28.518-89.305C28.518-91.843 30.476-93.749 33.014-93.749C34.246-93.749 35.345-93.273 36.204-92.454L73.584-54.285L68.37-54.285L105.677-92.454C106.547-93.273 107.697-93.749 108.878-93.749C111.416-93.749 113.374-91.843 113.374-89.305C113.374-88.051 112.877-86.995 112.058-86.114L74.226-47.441C73.376-46.539 72.174-46.01 70.941-46.01C69.707-46.01 68.619-46.529 67.666-47.431L29.896-86.104ZM29.896 15.581L67.666-23.092C68.619-24.046 69.707-24.564 70.941-24.564C72.174-24.564 73.376-24.035 74.226-23.081L112.058 15.592C112.877 16.421 113.374 17.488 113.374 18.731C113.374 21.269 111.416 23.227 108.878 23.227C107.697 23.227 106.547 22.699 105.677 21.932L68.37-16.289L73.584-16.289L36.204 21.932C35.345 22.699 34.246 23.227 33.014 23.227C30.476 23.227 28.518 21.269 28.518 18.731C28.518 17.488 29.026 16.411 29.896 15.581ZM108.864-39.762C110.068-39.762 111.204-39.2891 112.052-38.4446C112.901-37.6001 113.371-36.4516 113.371-35.258C113.371-35.258 113.371-35.258 113.371-35.258C113.371-34.0644 112.901-32.9159 112.052-32.0714C111.204-31.2269 110.068-30.754 108.864-30.754L33.021-30.754C31.8169-30.754 30.6817-31.2269 29.8331-32.0714C28.9845-32.9159 28.5144-34.0644 28.5144-35.258C28.5144-35.258 28.5144-35.258 28.5144-35.258C28.5144-36.4516 28.9845-37.6001 29.8331-38.4446C30.6817-39.2891 31.8169-39.762 33.021-39.762C47.7103-39.762 94.175-39.762 108.864-39.762Z"/>
  </g>
  <g id="Light-M" transform="matrix(1 0 0 1 1083.91 1126)">
   <path class="SFSymbolsPreviewWireframe" d="M29.6014-86.322C28.9364-87.014 28.5144-87.79 28.5144-88.753C28.5144-90.658 30.0104-92.119 31.9154-92.119C32.8224-92.119 33.6814-91.78 34.3184-91.149L71.3904-52.21L67.1174-52.21L104.099-91.149C104.764-91.78 105.657-92.119 106.53-92.119C108.435-92.119 109.931-90.658 109.931-88.753C109.931-87.79 109.536-87.042 108.906-86.349L71.8614-47.402C71.1484-46.655 70.2204-46.177 69.2094-46.177C68.1984-46.177 67.3664-46.627 66.5844-47.375L29.6014-86.322ZM29.6014 15.775L66.5844-23.172C67.3664-23.955 68.1984-24.405 69.2094-24.405C70.2204-24.405 71.1484-23.927 71.8614-23.144L108.906 15.802C109.536 16.46 109.931 17.236 109.931 18.171C109.931 20.076 108.435 21.572 106.53 21.572C105.657 21.572 104.764 21.198 104.099 20.602L67.1174-18.371L71.3904-18.371L34.3184 20.602C33.6814 21.198 32.8224 21.572 31.9154 21.572C30.0104 21.572 28.5144 20.076 28.5144 18.171C28.5144 17.236 28.9364 16.432 29.6014 15.775Z"/>
  </g>
  <g id="Thin-M" transform="matrix(1 0 0 1 789.473 1126)">
   <path class="SFSymbolsPreviewWireframe" d="M29.2164-86.606C28.8234-87.049 28.5144-87.44 28.5144-88.018C28.5144-89.086 29.3994-89.959 30.4664-89.959C30.9444-89.959 31.4864-89.801 31.8294-89.419L68.4934-49.462L65.4654-49.462L102.017-89.419C102.41-89.801 102.964-89.959 103.43-89.959C104.497-89.959 105.382-89.086 105.382-88.018C105.382-87.44 105.123-87.1 104.742-86.656L68.7384-47.347C68.2064-46.803 67.6404-46.393 66.9234-46.393C66.2064-46.393 65.7144-46.752 65.1584-47.297L29.2164-86.606ZM29.2164 16.034L65.1584-23.276C65.7144-23.832 66.2064-24.192 66.9234-24.192C67.6404-24.192 68.2064-23.782 68.7384-23.226L104.742 16.084C105.123 16.515 105.382 16.907 105.382 17.434C105.382 18.502 104.497 19.387 103.43 19.387C102.964 19.387 102.41 19.216 102.017 18.847L65.4654-21.123L68.4934-21.123L31.8294 18.847C31.4864 19.216 30.9444 19.387 30.4664 19.387C29.3994 19.387 28.5144 18.502 28.5144 17.434C28.5144 16.907 28.8234 16.465 29.2164 16.034Z"/>
  </g>
  <g id="Ultralight-M" transform="matrix(1 0 0 1 493.926 1126)">
   <path class="SFSymbolsPreviewWireframe" d="M29.0204-86.748C28.7664-87.064 28.5144-87.258 28.5144-87.639C28.5144-88.277 29.0864-88.849 29.7254-88.849C29.9824-88.849 30.3624-88.783 30.5544-88.53L67.0104-48.05L64.6194-48.05L100.951-88.53C101.205-88.783 101.585-88.849 101.842-88.849C102.481-88.849 103.053-88.277 103.053-87.639C103.053-87.258 102.864-87.126 102.61-86.809L67.1394-47.315C66.6994-46.875 66.3194-46.5 65.7534-46.5C65.1864-46.5 64.8694-46.813 64.4284-47.253L29.0204-86.748ZM29.0204 16.17L64.4284-23.325C64.8694-23.765 65.1864-24.078 65.7534-24.078C66.3194-24.078 66.6994-23.703 67.1394-23.263L102.61 16.231C102.864 16.547 103.053 16.741 103.053 17.06C103.053 17.699 102.481 18.271 101.842 18.271C101.585 18.271 101.205 18.205 100.951 17.952L64.6194-22.528L67.0104-22.528L30.5544 17.952C30.3624 18.205 29.9824 18.271 29.7254 18.271C29.0864 18.271 28.5144 17.699 28.5144 17.06C28.5144 16.741 28.7664 16.485 29.0204 16.17Z"/>
  </g>
  <g id="Black-S" transform="matrix(1 0 0 1 2867.8 696)">
   <path class="SFSymbolsPreviewWireframe" d="M31.0534-74.976C29.2954-76.734 28.5144-78.784 28.5144-81.226C28.5144-86.255 32.6644-90.454 37.5964-90.454C40.1354-90.454 42.4784-89.38 44.4324-87.378L66.6484-64.185L64.7444-64.185L86.8144-87.378C88.7674-89.429 91.1114-90.454 93.6014-90.454C98.5334-90.454 102.684-86.255 102.684-81.226C102.684-78.736 101.902-76.734 100.144-74.976L73.4844-47.632C70.9944-45.093 68.6504-44.068 65.6234-44.019C62.6444-44.019 60.2524-45.044 57.7624-47.632L31.0534-74.976ZM31.0534 4.517L57.7624-22.828C60.3014-25.367 62.6444-26.441 65.6234-26.441C68.6504-26.392 70.9454-25.318 73.4844-22.828L100.144 4.517C101.902 6.274 102.684 8.276 102.684 10.767C102.684 15.796 98.5334 19.995 93.6014 19.995C91.1114 19.995 88.7674 18.97 86.8144 16.919L64.7444-6.275L66.6484-6.275L44.4324 16.919C42.4784 18.921 40.1354 19.995 37.5964 19.995C32.6644 19.995 28.5144 15.796 28.5144 10.767C28.5144 8.325 29.3444 6.323 31.0534 4.517Z"/>
  </g>
  <g id="Heavy-S" transform="matrix(1 0 0 1 2571.8 696)">
   <path class="SFSymbolsPreviewWireframe" d="M30.7424-74.981C29.2154-76.508 28.5144-78.306 28.5144-80.436C28.5144-84.82 32.1004-88.431 36.4094-88.431C38.6144-88.431 40.6354-87.507 42.3124-85.805L66.2344-61.113L63.7074-61.113L87.5064-85.805C89.1834-87.544 91.2154-88.431 93.3714-88.431C97.6814-88.431 101.267-84.82 101.267-80.436C101.267-78.268 100.566-76.508 99.0504-74.981L71.5954-46.969C69.5194-44.845 67.4754-43.958 64.9094-43.92C62.3804-43.92 60.3224-44.807 58.2234-46.969L30.7424-74.981ZM30.7424 4.511L58.2234-23.501C60.3594-25.637 62.3804-26.561 64.9094-26.561C67.4754-26.524 69.4824-25.6 71.5954-23.501L99.0504 4.511C100.566 6.026 101.267 7.786 101.267 9.954C101.267 14.338 97.6814 17.961 93.3714 17.961C91.2154 17.961 89.1834 17.062 87.5064 15.334L63.7074-9.369L66.2344-9.369L42.3124 15.334C40.6354 17.025 38.6144 17.961 36.4094 17.961C32.1004 17.961 28.5144 14.338 28.5144 9.954C28.5144 7.824 29.2524 6.064 30.7424 4.511Z"/>
  </g>
  <g id="Bold-S" transform="matrix(1 0 0 1 2275.88 696)">
   <path class="SFSymbolsPreviewWireframe" d="M30.3944-74.988C29.1254-76.257 28.5144-77.771 28.5144-79.553C28.5144-83.215 31.4684-86.169 35.0824-86.169C36.9134-86.169 38.5734-85.413 39.9404-84.045L65.7704-57.678L62.5474-57.678L88.2804-84.045C89.6474-85.437 91.3324-86.169 93.1144-86.169C96.7274-86.169 99.6814-83.215 99.6814-79.553C99.6814-77.747 99.0714-76.257 97.8264-74.988L69.4814-46.228C67.8704-44.568 66.1614-43.835 64.1104-43.811C62.0844-43.811 60.3994-44.543 58.7394-46.228L30.3944-74.988ZM30.3944 4.504L58.7394-24.256C60.4234-25.94 62.0844-26.697 64.1104-26.697C66.1614-26.673 67.8454-25.916 69.4814-24.256L97.8264 4.504C99.0714 5.75 99.6814 7.239 99.6814 9.045C99.6814 12.708 96.7274 15.686 93.1144 15.686C91.3324 15.686 89.6474 14.929 88.2804 13.562L62.5474-12.83L65.7704-12.83L39.9404 13.562C38.5734 14.905 36.9134 15.686 35.0824 15.686C31.4684 15.686 28.5144 12.708 28.5144 9.045C28.5144 7.263 29.1494 5.774 30.3944 4.504Z"/>
  </g>
  <g id="Semibold-S" transform="matrix(1 0 0 1 1979.71 696)">
   <path class="SFSymbolsPreviewWireframe" d="M30.1544-74.992C29.0624-76.084 28.5144-77.402 28.5144-78.944C28.5144-82.109 31.0334-84.609 34.1664-84.609C35.7404-84.609 37.1514-83.968 38.3054-82.832L65.4504-55.309L61.7484-55.309L88.8134-82.832C89.9674-83.984 91.4114-84.609 92.9364-84.609C96.0704-84.609 98.5884-82.109 98.5884-78.944C98.5884-77.386 98.0404-76.084 96.9824-74.992L68.0244-45.717C66.7324-44.376 65.2544-43.751 63.5594-43.735C61.8794-43.735 60.4524-44.361 59.0944-45.717L30.1544-74.992ZM30.1544 4.501L59.0944-24.775C60.4684-26.149 61.8794-26.79 63.5594-26.79C65.2544-26.774 66.7174-26.133 68.0244-24.775L96.9824 4.501C98.0404 5.559 98.5884 6.862 98.5884 8.419C98.5884 11.584 96.0704 14.118 92.9364 14.118C91.4114 14.118 89.9674 13.459 88.8134 12.341L61.7484-15.215L65.4504-15.215L38.3054 12.341C37.1514 13.443 35.7404 14.118 34.1664 14.118C31.0334 14.118 28.5144 11.584 28.5144 8.419C28.5144 6.877 29.0784 5.575 30.1544 4.501Z"/>
  </g>
  <g id="Medium-S" transform="matrix(1 0 0 1 1683.42 696)">
   <path class="SFSymbolsPreviewWireframe" d="M29.9724-74.996C29.0154-75.953 28.5144-77.123 28.5144-78.483C28.5144-81.27 30.7024-83.427 33.4724-83.427C34.8504-83.427 36.0734-82.874 37.0654-81.913L65.2074-53.514L61.1414-53.514L89.2174-81.913C90.2094-82.882 91.4724-83.427 92.8014-83.427C95.5714-83.427 97.7594-81.27 97.7594-78.483C97.7594-77.114 97.2584-75.953 96.3414-74.996L66.9184-45.33C65.8694-44.232 64.5674-43.687 63.1414-43.678C61.7244-43.678 60.4934-44.223 59.3644-45.33L29.9724-74.996ZM29.9724 4.496L59.3644-25.17C60.5014-26.307 61.7244-26.861 63.1414-26.861C64.5674-26.852 65.8614-26.299 66.9184-25.17L96.3414 4.496C97.2584 5.413 97.7594 6.574 97.7594 7.944C97.7594 10.731 95.5714 12.928 92.8014 12.928C91.4724 12.928 90.2094 12.343 89.2174 11.413L61.1414-17.025L65.2074-17.025L37.0654 11.413C36.0734 12.334 34.8504 12.928 33.4724 12.928C30.7024 12.928 28.5144 10.731 28.5144 7.944C28.5144 6.583 29.0244 5.422 29.9724 4.496Z"/>
  </g>
  <g id="Regular-S" transform="matrix(1 0 0 1 1387.25 696)">
   <path class="SFSymbolsPreviewWireframe" d="M29.7354-75C28.9534-75.781 28.5144-76.757 28.5144-77.88C28.5144-80.175 30.2724-81.884 32.5674-81.884C33.6904-81.884 34.6664-81.445 35.4474-80.712L64.8914-51.171L60.3504-51.171L89.7444-80.712C90.5264-81.445 91.5514-81.884 92.6254-81.884C94.9204-81.884 96.6784-80.175 96.6784-77.88C96.6784-76.757 96.2394-75.781 95.5064-75L65.4774-44.824C64.7444-44.043 63.6704-43.603 62.5964-43.603C61.5224-43.603 60.5454-44.043 59.7154-44.824L29.7354-75ZM29.7354 4.492L59.7154-25.684C60.5454-26.514 61.5224-26.953 62.5964-26.953C63.6704-26.953 64.7444-26.514 65.4774-25.684L95.5064 4.492C96.2394 5.225 96.6784 6.201 96.6784 7.324C96.6784 9.619 94.9204 11.377 92.6254 11.377C91.5514 11.377 90.5264 10.889 89.7444 10.205L60.3504-19.385L64.8914-19.385L35.4474 10.205C34.6664 10.889 33.6904 11.377 32.5674 11.377C30.2724 11.377 28.5144 9.619 28.5144 7.324C28.5144 6.201 28.9534 5.225 29.7354 4.492Z"/>
  </g>
  <g id="Light-S" transform="matrix(1 0 0 1 1092.06 696)">
   <path class="SFSymbolsPreviewWireframe" d="M29.4774-75.189C28.8774-75.804 28.5144-76.523 28.5144-77.389C28.5144-79.124 29.8634-80.439 31.5984-80.439C32.4334-80.439 33.1984-80.121 33.7824-79.555L62.9534-49.333L59.2454-49.333L88.3524-79.555C88.9514-80.121 89.7504-80.439 90.5514-80.439C92.2864-80.439 93.6354-79.124 93.6354-77.389C93.6354-76.523 93.2874-75.819 92.7214-75.205L63.3884-44.787C62.7764-44.142 61.9444-43.748 61.0674-43.748C60.1904-43.748 59.4404-44.126 58.7614-44.771L29.4774-75.189ZM29.4774 4.666L58.7614-25.752C59.4404-26.431 60.1904-26.809 61.0674-26.809C61.9444-26.809 62.7764-26.416 63.3884-25.737L92.7214 4.681C93.2874 5.262 93.6354 5.981 93.6354 6.832C93.6354 8.567 92.2864 9.916 90.5514 9.916C89.7504 9.916 88.9514 9.564 88.3524 9.032L59.2454-21.224L62.9534-21.224L33.7824 9.032C33.1984 9.564 32.4334 9.916 31.5984 9.916C29.8634 9.916 28.5144 8.567 28.5144 6.832C28.5144 5.981 28.8774 5.247 29.4774 4.666Z"/>
  </g>
  <g id="Thin-S" transform="matrix(1 0 0 1 797.359 696)">
   <path class="SFSymbolsPreviewWireframe" d="M29.1374-75.439C28.7774-75.834 28.5144-76.213 28.5144-76.738C28.5144-77.732 29.3224-78.527 30.3164-78.527C30.7714-78.527 31.2564-78.369 31.5804-78.023L60.3914-46.9L57.7834-46.9L86.5104-78.023C86.8694-78.369 87.3674-78.527 87.8094-78.527C88.8034-78.527 89.6114-77.732 89.6114-76.738C89.6114-76.213 89.3834-75.869 89.0374-75.475L60.6254-44.736C60.1744-44.271 59.6624-43.937 59.0454-43.937C58.4284-43.937 57.9794-44.236 57.5004-44.701L29.1374-75.439ZM29.1374 4.896L57.5004-25.842C57.9794-26.32 58.4284-26.619 59.0454-26.619C59.6624-26.619 60.1744-26.285 60.6254-25.807L89.0374 4.932C89.3834 5.312 89.6114 5.691 89.6114 6.182C89.6114 7.176 88.8034 7.984 87.8094 7.984C87.3674 7.984 86.8694 7.813 86.5104 7.48L57.7834-23.656L60.3914-23.656L31.5804 7.48C31.2564 7.813 30.7714 7.984 30.3164 7.984C29.3224 7.984 28.5144 7.176 28.5144 6.182C28.5144 5.691 28.7774 5.277 29.1374 4.896Z"/>
  </g>
  <g id="Ultralight-S" transform="matrix(1 0 0 1 501.677 696)">
   <path class="SFSymbolsPreviewWireframe" d="M28.9634-75.568C28.7274-75.85 28.5144-76.054 28.5144-76.405C28.5144-77.02 29.0464-77.548 29.6614-77.548C29.9214-77.548 30.2624-77.472 30.4534-77.239L59.0794-45.655L57.0354-45.655L85.5674-77.239C85.8034-77.472 86.1484-77.548 86.4054-77.548C87.0194-77.548 87.5514-77.02 87.5514-76.405C87.5514-76.054 87.3844-75.895 87.1514-75.613L59.2114-44.711C58.8424-44.338 58.4944-44.035 58.0104-44.035C57.5264-44.035 57.2314-44.293 56.8554-44.666L28.9634-75.568ZM28.9634 5.014L56.8554-25.888C57.2314-26.264 57.5264-26.522 58.0104-26.522C58.4944-26.522 58.8424-26.219 59.2114-25.843L87.1514 5.06C87.3844 5.338 87.5514 5.542 87.5514 5.848C87.5514 6.463 87.0194 6.995 86.4054 6.995C86.1484 6.995 85.8034 6.915 85.5674 6.686L57.0354-24.902L59.0794-24.902L30.4534 6.686C30.2624 6.915 29.9214 6.995 29.6614 6.995C29.0464 6.995 28.5144 6.463 28.5144 5.848C28.5144 5.542 28.7274 5.292 28.9634 5.014Z"/>
  </g>
 </g>
</svg>
