<?xml version="1.0" encoding="UTF-8"?>
<!--Generator: Apple Native CoreSVG 341-->
<!DOCTYPE svg
PUBLIC "-//W3C//DTD SVG 1.1//EN"
       "http://www.w3.org/Graphics/SVG/1.1/DTD/svg11.dtd">
<svg version="1.1" xmlns="http://www.w3.org/2000/svg" xmlns:xlink="http://www.w3.org/1999/xlink" viewBox="0 0 3300 2200">
 <!--glyph: "", point size: 100.0, font version: "21.1d1e1", template writer version: "138.0.0"-->
 <style>.defaults {-sfsymbols-variable-value-mode:color;-sfsymbols-draw-reverses-motion-groups:true}

.monochrome-0 {-sfsymbols-motion-group:0;-sfsymbols-layer-tags:-5703f8304684077b}

.multicolor-0:tintColor {-sfsymbols-motion-group:0;-sfsymbols-layer-tags:-5703f8304684077b}

.hierarchical-0:primary {-sfsymbols-motion-group:0;-sfsymbols-layer-tags:-5703f8304684077b}

.SFSymbolsPreviewWireframe {fill:none;opacity:1.0;stroke:black;stroke-width:0.5}
</style>
 <g id="Notes">
  <rect height="2200" id="artboard" style="fill:white;opacity:1" width="3300" x="0" y="0"/>
  <line style="fill:none;stroke:black;opacity:1;stroke-width:0.5;" x1="263" x2="3036" y1="292" y2="292"/>
  <text style="stroke:none;fill:black;font-family:sans-serif;font-size:13;font-weight:bold;" transform="matrix(1 0 0 1 263 322)">Weight/Scale Variations</text>
  <text style="stroke:none;fill:black;font-family:sans-serif;font-size:13;text-anchor:middle;" transform="matrix(1 0 0 1 559.711 322)">Ultralight</text>
  <text style="stroke:none;fill:black;font-family:sans-serif;font-size:13;text-anchor:middle;" transform="matrix(1 0 0 1 856.422 322)">Thin</text>
  <text style="stroke:none;fill:black;font-family:sans-serif;font-size:13;text-anchor:middle;" transform="matrix(1 0 0 1 1153.13 322)">Light</text>
  <text style="stroke:none;fill:black;font-family:sans-serif;font-size:13;text-anchor:middle;" transform="matrix(1 0 0 1 1449.84 322)">Regular</text>
  <text style="stroke:none;fill:black;font-family:sans-serif;font-size:13;text-anchor:middle;" transform="matrix(1 0 0 1 1746.56 322)">Medium</text>
  <text style="stroke:none;fill:black;font-family:sans-serif;font-size:13;text-anchor:middle;" transform="matrix(1 0 0 1 2043.27 322)">Semibold</text>
  <text style="stroke:none;fill:black;font-family:sans-serif;font-size:13;text-anchor:middle;" transform="matrix(1 0 0 1 2339.98 322)">Bold</text>
  <text style="stroke:none;fill:black;font-family:sans-serif;font-size:13;text-anchor:middle;" transform="matrix(1 0 0 1 2636.69 322)">Heavy</text>
  <text style="stroke:none;fill:black;font-family:sans-serif;font-size:13;text-anchor:middle;" transform="matrix(1 0 0 1 2933.4 322)">Black</text>
  <line style="fill:none;stroke:black;opacity:1;stroke-width:0.5;" x1="263" x2="3036" y1="1903" y2="1903"/>
  <g transform="matrix(0.2 0 0 0.2 263 1933)">
   <path d="m46.2402 4.15039c21.7773 0 39.4531-17.627 39.4531-39.4043s-17.6758-39.4043-39.4531-39.4043c-21.7285 0-39.4043 17.627-39.4043 39.4043s17.6758 39.4043 39.4043 39.4043Zm0-7.42188c-17.6758 0-31.9336-14.3066-31.9336-31.9824s14.2578-31.9824 31.9336-31.9824 31.9824 14.3066 31.9824 31.9824-14.3066 31.9824-31.9824 31.9824Zm3.61328-17.7734v-28.4668c0-2.24609-1.46484-3.75977-3.71094-3.75977-2.14844 0-3.61328 1.51367-3.61328 3.75977v28.4668c0 2.19727 1.46484 3.71094 3.61328 3.71094 2.24609 0 3.71094-1.51367 3.71094-3.71094Zm-17.8223-10.5957h28.418c2.19727 0 3.71094-1.46484 3.71094-3.61328 0-2.19727-1.51367-3.71094-3.71094-3.71094h-28.418c-2.24609 0-3.75977 1.51367-3.75977 3.71094 0 2.14844 1.51367 3.61328 3.75977 3.61328Z"/>
  </g>
  <g transform="matrix(0.2 0 0 0.2 281.506 1933)">
   <path d="m58.5449 14.5508c27.4902 0 49.8047-22.3145 49.8047-49.8047s-22.3145-49.8047-49.8047-49.8047-49.8047 22.3145-49.8047 49.8047 22.3145 49.8047 49.8047 49.8047Zm0-8.30078c-22.9492 0-41.5039-18.5547-41.5039-41.5039s18.5547-41.5039 41.5039-41.5039 41.5039 18.5547 41.5039 41.5039-18.5547 41.5039-41.5039 41.5039Zm4.05273-23.0957v-36.9141c0-2.49023-1.70898-4.19922-4.15039-4.19922-2.39258 0-4.05273 1.70898-4.05273 4.19922v36.9141c0 2.44141 1.66016 4.15039 4.05273 4.15039 2.44141 0 4.15039-1.66016 4.15039-4.15039Zm-22.5586-14.4043h36.9629c2.44141 0 4.15039-1.61133 4.15039-4.00391 0-2.44141-1.70898-4.15039-4.15039-4.15039h-36.9629c-2.49023 0-4.15039 1.70898-4.15039 4.15039 0 2.39258 1.66016 4.00391 4.15039 4.00391Z"/>
  </g>
  <g transform="matrix(0.2 0 0 0.2 304.924 1933)">
   <path d="m74.8535 28.3203c35.1074 0 63.623-28.4668 63.623-63.5742s-28.5156-63.623-63.623-63.623-63.5742 28.5156-63.5742 63.623 28.4668 63.5742 63.5742 63.5742Zm0-9.08203c-30.127 0-54.4922-24.3652-54.4922-54.4922s24.3652-54.4922 54.4922-54.4922 54.4922 24.3652 54.4922 54.4922-24.3652 54.4922-54.4922 54.4922Zm4.44336-30.3223v-48.4863c0-2.73438-1.85547-4.63867-4.54102-4.63867-2.58789 0-4.44336 1.9043-4.44336 4.63867v48.4863c0 2.68555 1.85547 4.58984 4.44336 4.58984 2.68555 0 4.54102-1.85547 4.54102-4.58984Zm-28.7109-19.7754h48.4863c2.68555 0 4.58984-1.80664 4.58984-4.39453 0-2.73438-1.85547-4.58984-4.58984-4.58984h-48.4863c-2.73438 0-4.58984 1.85547-4.58984 4.58984 0 2.58789 1.85547 4.39453 4.58984 4.39453Z"/>
  </g>
  <text style="stroke:none;fill:black;font-family:sans-serif;font-size:13;font-weight:bold;" transform="matrix(1 0 0 1 263 1953)">Design Variations</text>
  <text style="stroke:none;fill:black;font-family:sans-serif;font-size:13;" transform="matrix(1 0 0 1 263 1971)">Symbols are supported in up to nine weights and three scales.</text>
  <text style="stroke:none;fill:black;font-family:sans-serif;font-size:13;" transform="matrix(1 0 0 1 263 1989)">For optimal layout with text and other symbols, vertically align</text>
  <text style="stroke:none;fill:black;font-family:sans-serif;font-size:13;" transform="matrix(1 0 0 1 263 2007)">symbols with the adjacent text.</text>
  <line style="fill:none;stroke:#00AEEF;stroke-width:0.5;opacity:1.0;" x1="776" x2="776" y1="1919" y2="1933"/>
  <g transform="matrix(0.2 0 0 0.2 776 1933)">
   <path d="m16.5527 0.78125c2.58789 0 3.85742-0.976562 4.78516-3.71094l20.5566-57.5195h0.244141l20.6055 57.5195c0.927734 2.73438 2.19727 3.71094 4.73633 3.71094 2.58789 0 4.24805-1.5625 4.24805-4.00391 0-0.830078-0.146484-1.61133-0.537109-2.63672l-22.9004-60.9863c-1.12305-2.97852-3.125-4.49219-6.25-4.49219-3.02734 0-5.07812 1.46484-6.15234 4.44336l-22.9004 61.084c-0.390625 1.02539-0.537109 1.80664-0.537109 2.63672 0 2.44141 1.5625 3.95508 4.10156 3.95508Zm10.2051-20.9473h30.6641c2.00195 0 3.66211-1.66016 3.66211-3.66211 0-2.05078-1.66016-3.66211-3.66211-3.66211h-30.6641c-2.00195 0-3.66211 1.61133-3.66211 3.66211 0 2.00195 1.66016 3.66211 3.66211 3.66211Z"/>
  </g>
  <line style="fill:none;stroke:#00AEEF;stroke-width:0.5;opacity:1.0;" x1="792.836" x2="792.836" y1="1919" y2="1933"/>
  <text style="stroke:none;fill:black;font-family:sans-serif;font-size:13;font-weight:bold;" transform="matrix(1 0 0 1 776 1953)">Margins</text>
  <text style="stroke:none;fill:black;font-family:sans-serif;font-size:13;" transform="matrix(1 0 0 1 776 1971)">Leading and trailing margins on the left and right side of each symbol</text>
  <text style="stroke:none;fill:black;font-family:sans-serif;font-size:13;" transform="matrix(1 0 0 1 776 1989)">can be adjusted by modifying the x-location of the margin guidelines.</text>
  <text style="stroke:none;fill:black;font-family:sans-serif;font-size:13;" transform="matrix(1 0 0 1 776 2007)">Modifications are automatically applied proportionally to all</text>
  <text style="stroke:none;fill:black;font-family:sans-serif;font-size:13;" transform="matrix(1 0 0 1 776 2025)">scales and weights.</text>
  <g transform="matrix(0.2 0 0 0.2 1289 1933)">
   <path d="m14.209 13.1348 7.86133 7.86133c4.29688 4.39453 9.32617 4.10156 13.8672-1.02539l60.6934-68.2129-4.88281-4.88281-60.2539 67.6758c-1.80664 1.95312-3.4668 2.44141-5.81055 0.0976562l-5.17578-5.12695c-2.29492-2.29492-1.80664-3.95508 0.195312-5.81055l67.4805-62.1582-4.88281-4.83398-68.0664 62.5977c-4.98047 4.58984-5.32227 9.47266-1.02539 13.8184Zm44.873-97.4609c-2.05078 2.00195-2.24609 4.88281-1.07422 6.78711 1.12305 1.80664 3.4668 3.02734 6.5918 2.24609 5.85938-1.66016 12.5977-2.39258 18.8965 0.927734l-2.68555 7.12891c-1.61133 4.00391-0.732422 6.88477 1.70898 9.42383l10.2539 10.3027c2.34375 2.39258 4.54102 2.44141 7.08008 1.95312l4.44336-0.732422 2.58789 2.53906-0.195312 2.24609c-0.0976562 2.29492 0.537109 4.29688 2.7832 6.49414l3.36914 3.32031c2.29492 2.29492 5.51758 2.49023 7.8125 0.195312l12.9883-13.0371c2.29492-2.34375 2.14844-5.37109-0.195312-7.66602l-3.41797-3.41797c-2.19727-2.19727-4.05273-3.02734-6.34766-2.88086l-2.34375 0.244141-2.44141-2.44141 1.02539-4.6875c0.634766-2.73438-0.244141-4.98047-2.88086-7.61719l-11.2793-11.1816c-12.9395-12.8418-35.5957-11.0352-46.6797-0.146484Zm7.08008 2.05078c8.78906-6.39648 25.9766-5.66406 33.6914 1.95312l12.3047 12.207c1.02539 1.02539 1.2207 1.80664 0.927734 3.32031l-1.46484 6.64062 6.73828 6.68945 4.39453-0.244141c1.12305-0.0488281 1.51367 0.0488281 2.34375 0.878906l2.53906 2.49023-10.8398 10.8398-2.49023-2.49023c-0.830078-0.878906-0.976562-1.2207-0.927734-2.39258l0.292969-4.3457-6.68945-6.73828-6.83594 1.17188c-1.41602 0.292969-2.05078 0.195312-3.17383-0.878906l-8.93555-8.88672c-1.07422-1.02539-1.17188-1.70898-0.488281-3.36914l4.58984-11.4746c-6.10352-6.34766-17.041-7.51953-25.5859-4.58984-0.683594 0.244141-0.927734-0.390625-0.390625-0.78125Z"/>
  </g>
  <text style="stroke:none;fill:black;font-family:sans-serif;font-size:13;font-weight:bold;" transform="matrix(1 0 0 1 1289 1953)">Exporting</text>
  <text style="stroke:none;fill:black;font-family:sans-serif;font-size:13;" transform="matrix(1 0 0 1 1289 1971)">Symbols should be outlined when exporting to ensure the</text>
  <text style="stroke:none;fill:black;font-family:sans-serif;font-size:13;" transform="matrix(1 0 0 1 1289 1989)">design is preserved when submitting to Xcode.</text>
  <text id="template-version" style="stroke:none;fill:black;font-family:sans-serif;font-size:13;text-anchor:end;" transform="matrix(1 0 0 1 3036 1933)">Template v.6.0</text>
  <text style="stroke:none;fill:black;font-family:sans-serif;font-size:13;text-anchor:end;" transform="matrix(1 0 0 1 3036 1951)">Requires Xcode 16 or greater</text>
  <text id="descriptive-name" style="stroke:none;fill:black;font-family:sans-serif;font-size:13;text-anchor:end;" transform="matrix(1 0 0 1 3036 1969)">Generated from chevron.left.chevron.right.wide</text>
  <text style="stroke:none;fill:black;font-family:sans-serif;font-size:13;text-anchor:end;" transform="matrix(1 0 0 1 3036 1987)">Typeset at 100.0 points</text>
  <text style="stroke:none;fill:black;font-family:sans-serif;font-size:13;" transform="matrix(1 0 0 1 263 726)">Small</text>
  <text style="stroke:none;fill:black;font-family:sans-serif;font-size:13;" transform="matrix(1 0 0 1 263 1156)">Medium</text>
  <text style="stroke:none;fill:black;font-family:sans-serif;font-size:13;" transform="matrix(1 0 0 1 263 1586)">Large</text>
 </g>
 <g id="Guides">
  <g id="H-reference" style="fill:#27AAE1;stroke:none;" transform="matrix(1 0 0 1 339 696)">
   <path d="M0.993654 0L3.63775 0L29.3281-67.1323L30.0303-67.1323L30.0303-70.459L28.1226-70.459ZM11.6885-24.4799L46.9815-24.4799L46.2315-26.7285L12.4385-26.7285ZM55.1196 0L57.7637 0L30.6382-70.459L29.4326-70.459L29.4326-67.1323Z"/>
  </g>
  <line id="Baseline-S" style="fill:none;stroke:#27AAE1;opacity:1;stroke-width:0.5;" x1="263" x2="3036" y1="696" y2="696"/>
  <line id="Capline-S" style="fill:none;stroke:#27AAE1;opacity:1;stroke-width:0.5;" x1="263" x2="3036" y1="625.541" y2="625.541"/>
  <g id="H-reference" style="fill:#27AAE1;stroke:none;" transform="matrix(1 0 0 1 339 1126)">
   <path d="M0.993654 0L3.63775 0L29.3281-67.1323L30.0303-67.1323L30.0303-70.459L28.1226-70.459ZM11.6885-24.4799L46.9815-24.4799L46.2315-26.7285L12.4385-26.7285ZM55.1196 0L57.7637 0L30.6382-70.459L29.4326-70.459L29.4326-67.1323Z"/>
  </g>
  <line id="Baseline-M" style="fill:none;stroke:#27AAE1;opacity:1;stroke-width:0.5;" x1="263" x2="3036" y1="1126" y2="1126"/>
  <line id="Capline-M" style="fill:none;stroke:#27AAE1;opacity:1;stroke-width:0.5;" x1="263" x2="3036" y1="1055.54" y2="1055.54"/>
  <g id="H-reference" style="fill:#27AAE1;stroke:none;" transform="matrix(1 0 0 1 339 1556)">
   <path d="M0.993654 0L3.63775 0L29.3281-67.1323L30.0303-67.1323L30.0303-70.459L28.1226-70.459ZM11.6885-24.4799L46.9815-24.4799L46.2315-26.7285L12.4385-26.7285ZM55.1196 0L57.7637 0L30.6382-70.459L29.4326-70.459L29.4326-67.1323Z"/>
  </g>
  <line id="Baseline-L" style="fill:none;stroke:#27AAE1;opacity:1;stroke-width:0.5;" x1="263" x2="3036" y1="1556" y2="1556"/>
  <line id="Capline-L" style="fill:none;stroke:#27AAE1;opacity:1;stroke-width:0.5;" x1="263" x2="3036" y1="1485.54" y2="1485.54"/>
  <line id="right-margin-Regular-M" style="fill:none;stroke:#FF3B30;stroke-width:0.5;opacity:1.0;" x1="1520.79" x2="1520.79" y1="1030.79" y2="1150.12"/>
  <line id="left-margin-Regular-M" style="fill:none;stroke:#FF3B30;stroke-width:0.5;opacity:1.0;" x1="1378.9" x2="1378.9" y1="1030.79" y2="1150.12"/>
 </g>
 <g id="Symbols">
  <g id="Black-L" transform="matrix(1 0 0 1 2833.98 1556)">
   <path class="monochrome-0 multicolor-0:tintColor hierarchical-0:primary SFSymbolsPreviewWireframe" d="M43.649 20.797C46.091 23.237 48.964 24.364 52.37 24.364C59.376 24.364 65.139 18.639 65.139 11.75C65.139 8.229 63.665 5.002 60.953 2.329L19.838-37.499L19.838-33.239L60.953-72.868C63.723-75.543 65.139-78.79 65.139-82.232C65.139-89.121 59.376-94.846 52.37-94.846C48.905-94.846 46.092-93.721 43.65-91.301L-2.681-45.928C-6.059-42.628-7.481-39.36-7.539-35.27C-7.539-31.238-6.119-27.954-2.682-24.613L43.649 20.797ZM155.184 20.797L201.515-24.613C204.914-28.012 206.392-31.238 206.392-35.27C206.334-39.36 204.855-42.57 201.514-45.928L155.182-91.301C152.762-93.721 149.947-94.846 146.484-94.846C139.477-94.846 133.694-89.121 133.694-82.232C133.694-78.79 135.13-75.543 137.879-72.868L179.015-33.239L179.015-37.499L137.879 2.329C135.188 5.002 133.694 8.229 133.694 11.75C133.694 18.639 139.477 24.364 146.484 24.364C149.889 24.364 152.704 23.179 155.184 20.797Z"/>
  </g>
  <g id="Heavy-L" transform="matrix(1 0 0 1 2540.12 1556)">
   <path class="monochrome-0 multicolor-0:tintColor hierarchical-0:primary SFSymbolsPreviewWireframe" d="M43.786 19.943C45.904 22.055 48.398 23.063 51.357 23.063C57.428 23.063 62.373 18.133 62.373 12.151C62.373 9.114 61.114 6.335 58.809 4.05L15.703-37.738L15.703-32.977L58.809-74.59C61.158-76.88 62.373-79.69 62.373-82.652C62.373-88.633 57.428-93.564 51.357-93.564C48.354-93.564 45.909-92.561 43.792-90.479L-3.409-44.358C-6.252-41.591-7.494-38.751-7.539-35.27C-7.539-31.833-6.302-29.015-3.415-26.187L43.786 19.943ZM149.337 19.943L196.538-26.187C199.411-29.06 200.693-31.833 200.693-35.27C200.648-38.751 199.361-41.546 196.533-44.358L149.331-90.479C147.244-92.561 144.794-93.564 141.796-93.564C135.725-93.564 130.75-88.633 130.75-82.652C130.75-79.69 131.995-76.88 134.314-74.59L177.45-32.977L177.45-37.738L134.314 4.05C132.04 6.335 130.75 9.114 130.75 12.151C130.75 18.133 135.725 23.063 141.796 23.063C144.75 23.063 147.205 22.01 149.337 19.943Z"/>
  </g>
  <g id="Bold-L" transform="matrix(1 0 0 1 2246.85 1556)">
   <path class="monochrome-0 multicolor-0:tintColor hierarchical-0:primary SFSymbolsPreviewWireframe" d="M43.948 18.764C45.673 20.476 47.699 21.338 50.112 21.338C55.038 21.338 58.998 17.369 58.998 12.502C58.998 10.057 58 7.816 56.18 6L10.727-37.933L10.727-32.758L56.18-76.539C58.03-78.368 58.998-80.647 58.998-83.025C58.998-87.892 55.038-91.861 50.112-91.861C47.67-91.861 45.686-91.012 43.961-89.338L-4.256-42.504C-6.475-40.352-7.51-38.035-7.539-35.27C-7.539-32.533-6.518-30.277-4.269-28.049L43.948 18.764ZM142.278 18.764L190.495-28.049C192.752-30.306 193.802-32.533 193.802-35.27C193.773-38.035 192.709-40.323 190.482-42.504L142.264-89.338C140.577-91.012 138.58-91.861 136.151-91.861C131.225-91.861 127.227-87.892 127.227-83.025C127.227-80.647 128.234-78.368 130.045-76.539L175.536-32.758L175.536-37.933L130.045 6C128.263 7.816 127.227 10.057 127.227 12.502C127.227 17.369 131.225 21.338 136.151 21.338C138.551 21.338 140.561 20.447 142.278 18.764Z"/>
  </g>
  <g id="Semibold-L" transform="matrix(1 0 0 1 1952.51 1556)">
   <path class="monochrome-0 multicolor-0:tintColor hierarchical-0:primary SFSymbolsPreviewWireframe" d="M44.059 17.951C45.514 19.387 47.217 20.148 49.254 20.148C53.39 20.148 56.671 16.842 56.671 12.743C56.671 10.706 55.854 8.836 54.368 7.344L7.297-38.068L7.297-32.608L54.368-77.884C55.873-79.394 56.671-81.307 56.671-83.283C56.671-87.381 53.39-90.688 49.254-90.688C47.198-90.688 45.533-89.945 44.078-88.552L-4.84-41.225C-6.629-39.498-7.52-37.542-7.539-35.27C-7.539-33.016-6.666-31.147-4.859-29.333L44.059 17.951ZM137.411 17.951L186.329-29.333C188.161-31.165 189.052-33.016 189.052-35.27C189.034-37.542 188.124-39.48 186.31-41.225L137.392-88.552C135.981-89.945 134.296-90.688 132.259-90.688C128.123-90.688 124.799-87.381 124.799-83.283C124.799-81.307 125.641-79.394 127.102-77.884L174.216-32.608L174.216-38.068L127.102 7.344C125.659 8.836 124.799 10.706 124.799 12.743C124.799 16.842 128.123 20.148 132.259 20.148C134.278 20.148 135.981 19.368 137.411 17.951Z"/>
  </g>
  <g id="Medium-L" transform="matrix(1 0 0 1 1657.6 1556)">
   <path class="monochrome-0 multicolor-0:tintColor hierarchical-0:primary SFSymbolsPreviewWireframe" d="M44.144 17.334C45.394 18.561 46.852 19.246 48.603 19.246C52.14 19.246 54.907 16.443 54.907 12.926C54.907 11.199 54.227 9.61 52.994 8.363L4.696-38.17L4.696-32.494L52.994-78.903C54.237-80.172 54.907-81.808 54.907-83.478C54.907-86.994 52.14-89.798 48.603-89.798C46.841-89.798 45.416-89.135 44.166-87.955L-5.283-40.256C-6.746-38.851-7.529-37.167-7.539-35.27C-7.539-33.383-6.779-31.806-5.305-30.306L44.144 17.334ZM133.721 17.334L183.17-30.306C184.68-31.817 185.451-33.383 185.451-35.27C185.44-37.167 184.647-38.84 183.147-40.256L133.698-87.955C132.496-89.135 131.048-89.798 129.309-89.798C125.771-89.798 122.957-86.994 122.957-83.478C122.957-81.808 123.675-80.172 124.87-78.903L173.216-32.494L173.216-38.17L124.87 8.363C123.685 9.61 122.957 11.199 122.957 12.926C122.957 16.443 125.771 19.246 129.309 19.246C131.038 19.246 132.508 18.551 133.721 17.334Z"/>
  </g>
  <g id="Regular-L" transform="matrix(1 0 0 1 1363.24 1556)">
   <path class="monochrome-0 multicolor-0:tintColor hierarchical-0:primary SFSymbolsPreviewWireframe" d="M44.254 16.53C45.236 17.485 46.375 18.07 47.754 18.07C50.511 18.07 52.606 15.922 52.606 13.165C52.606 11.841 52.104 10.62 51.202 9.693L1.303-38.303L1.303-32.345L51.202-80.232C52.104-81.187 52.606-82.461 52.606-83.732C52.606-86.489 50.511-88.637 47.754-88.637C46.375-88.637 45.264-88.079 44.282-87.177L-5.86-38.991C-6.898-38.006-7.539-36.679-7.539-35.27C-7.539-33.86-6.926-32.667-5.888-31.576L44.254 16.53ZM128.907 16.53L179.049-31.576C180.14-32.667 180.753-33.86 180.753-35.27C180.753-36.679 180.112-38.006 179.022-38.991L128.88-87.177C127.95-88.079 126.812-88.637 125.46-88.637C122.703-88.637 120.555-86.489 120.555-83.732C120.555-82.461 121.11-81.187 121.96-80.232L171.911-32.345L171.911-38.303L121.96 9.693C121.11 10.62 120.555 11.841 120.555 13.165C120.555 15.922 122.703 18.07 125.46 18.07C126.812 18.07 127.977 17.485 128.907 16.53Z"/>
  </g>
  <g id="Light-L" transform="matrix(1 0 0 1 1068.36 1556)">
   <path class="monochrome-0 multicolor-0:tintColor hierarchical-0:primary SFSymbolsPreviewWireframe" d="M44.311 14.927C45.084 15.652 45.898 16.142 46.953 16.142C49.003 16.142 50.602 14.509 50.602 12.459C50.602 11.498 50.253 10.544 49.56 9.864L-1.197-37.787L-1.197-32.879L49.56-80.404C50.253-81.13 50.602-82.117 50.602-83.045C50.602-85.096 49.003-86.729 46.953-86.729C45.898-86.729 45.131-86.285 44.358-85.593L-6.089-38.285C-6.955-37.453-7.539-36.431-7.539-35.27C-7.539-34.108-7.002-33.201-6.136-32.301L44.311 14.927ZM125.205 14.927L175.652-32.301C176.552-33.201 177.089-34.108 177.089-35.27C177.089-36.431 176.505-37.453 175.605-38.285L125.158-85.593C124.419-86.285 123.605-86.729 122.597-86.729C120.547-86.729 118.914-85.096 118.914-83.045C118.914-82.117 119.297-81.13 119.956-80.404L170.747-32.879L170.747-37.787L119.956 9.864C119.297 10.544 118.914 11.498 118.914 12.459C118.914 14.509 120.547 16.142 122.597 16.142C123.605 16.142 124.466 15.652 125.205 14.927Z"/>
  </g>
  <g id="Thin-L" transform="matrix(1 0 0 1 774.075 1556)">
   <path class="monochrome-0 multicolor-0:tintColor hierarchical-0:primary SFSymbolsPreviewWireframe" d="M44.387 12.806C44.882 13.229 45.267 13.593 45.893 13.593C47.009 13.593 47.952 12.642 47.952 11.525C47.952 11.043 47.804 10.443 47.39 10.092L-4.504-37.106L-4.504-33.586L47.39-80.631C47.804-81.054 47.952-81.663 47.952-82.137C47.952-83.253 47.009-84.204 45.893-84.204C45.267-84.204 44.954-83.913 44.459-83.498L-6.392-37.351C-7.031-36.721-7.539-36.103-7.539-35.27C-7.539-34.436-7.103-33.908-6.464-33.26L44.387 12.806ZM120.308 12.806L171.159-33.26C171.806-33.908 172.242-34.436 172.242-35.27C172.242-36.103 171.734-36.721 171.087-37.351L120.236-83.498C119.749-83.913 119.365-84.204 118.811-84.204C117.694-84.204 116.743-83.253 116.743-82.137C116.743-81.663 116.899-81.054 117.305-80.631L169.207-33.586L169.207-37.106L117.305 10.092C116.899 10.443 116.743 11.043 116.743 11.525C116.743 12.642 117.694 13.593 118.811 13.593C119.365 13.593 119.821 13.229 120.308 12.806Z"/>
  </g>
  <g id="Ultralight-L" transform="matrix(1 0 0 1 478.605 1556)">
   <path class="monochrome-0 multicolor-0:tintColor hierarchical-0:primary SFSymbolsPreviewWireframe" d="M44.426 11.72C44.778 11.988 44.943 12.287 45.349 12.287C45.987 12.287 46.594 11.685 46.594 11.047C46.594 10.811 46.55 10.391 46.278 10.208L-6.198-36.757L-6.198-33.948L46.278-80.747C46.55-81.015 46.594-81.43 46.594-81.671C46.594-82.309 45.987-82.912 45.349-82.912C44.943-82.912 44.863-82.697 44.511-82.425L-6.547-36.873C-7.07-36.346-7.539-35.935-7.539-35.27C-7.539-34.604-7.155-34.27-6.632-33.752L44.426 11.72ZM117.8 11.72L168.858-33.752C169.376-34.27 169.76-34.604 169.76-35.27C169.76-35.935 169.291-36.346 168.773-36.873L117.715-82.425C117.357-82.697 117.193-82.912 116.871-82.912C116.233-82.912 115.631-82.309 115.631-81.671C115.631-81.43 115.671-81.015 115.948-80.747L168.418-33.948L168.418-36.757L115.948 10.208C115.671 10.391 115.631 10.811 115.631 11.047C115.631 11.685 116.233 12.287 116.871 12.287C117.193 12.287 117.442 11.988 117.8 11.72Z"/>
  </g>
  <g id="Black-M" transform="matrix(1 0 0 1 2851.37 1126)">
   <path class="monochrome-0 multicolor-0:tintColor hierarchical-0:primary SFSymbolsPreviewWireframe" d="M32.008 8.693C34.15 10.835 36.657 11.797 39.637 11.797C45.773 11.797 50.873 6.748 50.873 0.726C50.873-2.368 49.567-5.217 47.145-7.588L16.886-36.712L16.886-33.985L47.145-62.934C49.625-65.304 50.873-68.159 50.873-71.19C50.873-77.212 45.773-82.26 39.637-82.26C36.6-82.26 34.15-81.298 32.008-79.162L-3.18-44.771C-6.235-41.779-7.482-38.919-7.539-35.261C-7.539-31.66-6.292-28.753-3.18-25.75L32.008 8.693ZM132.062 8.693L167.251-25.75C170.311-28.811 171.615-31.66 171.615-35.261C171.558-38.919 170.254-41.722 167.251-44.771L132.063-79.162C129.926-81.298 127.476-82.26 124.44-82.26C118.303-82.26 113.198-77.212 113.198-71.19C113.198-68.159 114.452-65.304 116.925-62.934L147.19-33.985L147.19-36.712L116.925-7.588C114.509-5.217 113.198-2.368 113.198 0.726C113.198 6.748 118.303 11.797 124.44 11.797C127.419 11.797 129.869 10.778 132.062 8.693Z"/>
  </g>
  <g id="Heavy-M" transform="matrix(1 0 0 1 2557.27 1126)">
   <path class="monochrome-0 multicolor-0:tintColor hierarchical-0:primary SFSymbolsPreviewWireframe" d="M32.137 8.006C33.981 9.848 36.149 10.703 38.721 10.703C44.008 10.703 48.354 6.384 48.354 1.184C48.354-1.471 47.244-3.906 45.201-5.921L13.075-36.993L13.075-33.68L45.201-64.601C47.288-66.617 48.354-69.069 48.354-71.664C48.354-76.864 44.008-81.183 38.721-81.183C36.105-81.183 33.984-80.33 32.139-78.505L-3.871-43.302C-6.418-40.815-7.495-38.347-7.539-35.261C-7.539-32.218-6.464-29.741-3.874-27.222L32.137 8.006ZM126.689 8.006L162.699-27.222C165.262-29.785 166.381-32.218 166.381-35.261C166.338-38.347 165.217-40.772 162.697-43.302L126.686-78.505C124.858-80.33 122.735-81.183 120.121-81.183C114.834-81.183 110.472-76.864 110.472-71.664C110.472-69.069 111.554-66.617 113.625-64.601L145.767-33.68L145.767-36.993L113.625-5.921C111.598-3.906 110.472-1.471 110.472 1.184C110.472 6.384 114.834 10.703 120.121 10.703C122.691 10.703 124.817 9.805 126.689 8.006Z"/>
  </g>
  <g id="Bold-M" transform="matrix(1 0 0 1 2263.49 1126)">
   <path class="monochrome-0 multicolor-0:tintColor hierarchical-0:primary SFSymbolsPreviewWireframe" d="M32.281 7.238C33.793 8.745 35.58 9.479 37.696 9.479C42.033 9.479 45.536 5.976 45.536 1.696C45.536-0.467 44.646-2.441 43.025-4.056L8.811-37.308L8.811-33.338L43.025-66.465C44.674-68.086 45.536-70.088 45.536-72.194C45.536-76.474 42.033-79.977 37.696-79.977C35.551-79.977 33.798-79.248 32.286-77.77L-4.644-41.659C-6.623-39.737-7.511-37.707-7.539-35.261C-7.539-32.843-6.656-30.846-4.649-28.868L32.281 7.238ZM120.677 7.238L157.608-28.868C159.615-30.875 160.526-32.843 160.526-35.261C160.498-37.707 159.581-39.709 157.603-41.659L120.672-77.77C119.189-79.248 117.431-79.977 115.291-79.977C110.954-79.977 107.422-76.474 107.422-72.194C107.422-70.088 108.313-68.086 109.933-66.465L144.176-33.338L144.176-37.308L109.933-4.056C108.342-2.441 107.422-0.467 107.422 1.696C107.422 5.976 110.954 9.479 115.291 9.479C117.402 9.479 119.166 8.716 120.677 7.238Z"/>
  </g>
  <g id="Semibold-M" transform="matrix(1 0 0 1 1968.8 1126)">
   <path class="monochrome-0 multicolor-0:tintColor hierarchical-0:primary SFSymbolsPreviewWireframe" d="M32.381 6.709C33.663 7.984 35.187 8.636 36.99 8.636C40.672 8.636 43.594 5.695 43.594 2.049C43.594 0.225 42.854-1.43 41.526-2.77L5.872-37.525L5.872-33.102L41.526-67.751C42.872-69.098 43.594-70.79 43.594-72.56C43.594-76.206 40.672-79.146 36.99-79.146C35.169-79.146 33.67-78.501 32.388-77.263L-5.177-40.526C-6.764-38.994-7.521-37.265-7.539-35.261C-7.539-33.274-6.789-31.608-5.184-30.003L32.381 6.709ZM116.533 6.709L154.098-30.003C155.721-31.626 156.49-33.274 156.49-35.261C156.472-37.265 155.696-38.976 154.091-40.526L116.526-77.263C115.281-78.501 113.774-79.146 111.961-79.146C108.279-79.146 105.32-76.206 105.32-72.56C105.32-70.79 106.079-69.098 107.388-67.751L143.079-33.102L143.079-37.525L107.388-2.77C106.097-1.43 105.32 0.225 105.32 2.049C105.32 5.695 108.279 8.636 111.961 8.636C113.756 8.636 115.27 7.966 116.533 6.709Z"/>
  </g>
  <g id="Medium-M" transform="matrix(1 0 0 1 1673.61 1126)">
   <path class="monochrome-0 multicolor-0:tintColor hierarchical-0:primary SFSymbolsPreviewWireframe" d="M32.456 6.308C33.564 7.407 34.89 7.997 36.454 7.997C39.64 7.997 42.121 5.482 42.121 2.317C42.121 0.75 41.496-0.664 40.388-1.796L3.643-37.69L3.643-32.923L40.388-68.726C41.506-69.866 42.121-71.323 42.121-72.837C42.121-76.002 39.64-78.516 36.454-78.516C34.88-78.516 33.573-77.935 32.465-76.879L-5.581-39.667C-6.871-38.431-7.529-36.931-7.539-35.261C-7.539-33.601-6.889-32.186-5.59-30.863L32.456 6.308ZM113.391 6.308L151.436-30.863C152.769-32.196 153.429-33.601 153.429-35.261C153.419-36.931 152.75-38.421 151.428-39.667L113.382-76.879C112.318-77.935 111.002-78.516 109.436-78.516C106.25-78.516 103.726-76.002 103.726-72.837C103.726-71.323 104.384-69.866 105.458-68.726L142.247-32.923L142.247-37.69L105.458-1.796C104.395-0.664 103.726 0.75 103.726 2.317C103.726 5.482 106.25 7.997 109.436 7.997C110.992 7.997 112.316 7.397 113.391 6.308Z"/>
  </g>
  <g id="Regular-M" transform="matrix(1 0 0 1 1378.9 1126)">
   <path class="monochrome-0 multicolor-0:tintColor hierarchical-0:primary SFSymbolsPreviewWireframe" d="M32.554 5.784C33.435 6.654 34.502 7.162 35.756 7.162C38.294 7.162 40.2 5.204 40.2 2.666C40.2 1.434 39.724 0.335 38.905-0.524L0.736-37.904L0.736-32.69L38.905-69.997C39.724-70.867 40.2-72.017 40.2-73.198C40.2-75.736 38.294-77.694 35.756-77.694C34.502-77.694 33.446-77.197 32.565-76.378L-6.108-38.546C-7.01-37.696-7.539-36.494-7.539-35.261C-7.539-34.027-7.021-32.939-6.119-31.986L32.554 5.784ZM109.292 5.784L147.965-31.986C148.919-32.939 149.437-34.027 149.437-35.261C149.437-36.494 148.908-37.696 147.954-38.546L109.281-76.378C108.452-77.197 107.385-77.694 106.142-77.694C103.604-77.694 101.646-75.736 101.646-73.198C101.646-72.017 102.174-70.867 102.941-69.997L141.162-32.69L141.162-37.904L102.941-0.524C102.174 0.335 101.646 1.434 101.646 2.666C101.646 5.204 103.604 7.162 106.142 7.162C107.385 7.162 108.463 6.654 109.292 5.784Z"/>
  </g>
  <g id="Light-M" transform="matrix(1 0 0 1 1083.83 1126)">
   <path class="monochrome-0 multicolor-0:tintColor hierarchical-0:primary SFSymbolsPreviewWireframe" d="M32.606 4.347C33.298 5.012 34.074 5.434 35.037 5.434C36.942 5.434 38.403 3.938 38.403 2.033C38.403 1.126 38.064 0.267 37.434-0.37L-1.506-37.442L-1.506-33.169L37.434-70.151C38.064-70.816 38.403-71.709 38.403-72.582C38.403-74.487 36.942-75.983 35.037-75.983C34.074-75.983 33.326-75.588 32.633-74.958L-6.313-37.913C-7.061-37.2-7.539-36.272-7.539-35.261C-7.539-34.25-7.089-33.418-6.341-32.636L32.606 4.347ZM105.972 4.347L144.919-32.636C145.702-33.418 146.152-34.25 146.152-35.261C146.152-36.272 145.674-37.2 144.891-37.913L105.945-74.958C105.287-75.588 104.511-75.983 103.576-75.983C101.671-75.983 100.175-74.487 100.175-72.582C100.175-71.709 100.549-70.816 101.144-70.151L140.118-33.169L140.118-37.442L101.144-0.37C100.549 0.267 100.175 1.126 100.175 2.033C100.175 3.938 101.671 5.434 103.576 5.434C104.511 5.434 105.314 5.012 105.972 4.347Z"/>
  </g>
  <g id="Thin-M" transform="matrix(1 0 0 1 789.292 1126)">
   <path class="monochrome-0 multicolor-0:tintColor hierarchical-0:primary SFSymbolsPreviewWireframe" d="M32.674 2.446C33.117 2.839 33.509 3.148 34.087 3.148C35.154 3.148 36.027 2.263 36.027 1.196C36.027 0.718 35.869 0.176 35.487-0.167L-4.47-36.831L-4.47-33.803L35.487-70.355C35.869-70.748 36.027-71.302 36.027-71.768C36.027-72.835 35.154-73.72 34.087-73.72C33.509-73.72 33.168-73.461 32.724-73.08L-6.585-37.076C-7.129-36.544-7.539-35.978-7.539-35.261C-7.539-34.544-7.18-34.052-6.635-33.496L32.674 2.446ZM101.582 2.446L140.891-33.496C141.447-34.052 141.807-34.544 141.807-35.261C141.807-35.978 141.397-36.544 140.841-37.076L101.532-73.08C101.1-73.461 100.709-73.72 100.181-73.72C99.114-73.72 98.229-72.835 98.229-71.768C98.229-71.302 98.399-70.748 98.768-70.355L138.738-33.803L138.738-36.831L98.768-0.167C98.399 0.176 98.229 0.718 98.229 1.196C98.229 2.263 99.114 3.148 100.181 3.148C100.709 3.148 101.15 2.839 101.582 2.446Z"/>
  </g>
  <g id="Ultralight-M" transform="matrix(1 0 0 1 493.694 1126)">
   <path class="monochrome-0 multicolor-0:tintColor hierarchical-0:primary SFSymbolsPreviewWireframe" d="M32.709 1.472C33.025 1.726 33.219 1.978 33.6 1.978C34.238 1.978 34.81 1.406 34.81 0.767C34.81 0.51 34.744 0.13 34.491-0.062L-5.989-36.518L-5.989-34.127L34.491-70.459C34.744-70.713 34.81-71.093 34.81-71.35C34.81-71.989 34.238-72.561 33.6-72.561C33.219-72.561 33.087-72.372 32.77-72.118L-6.724-36.647C-7.164-36.207-7.539-35.827-7.539-35.261C-7.539-34.694-7.226-34.377-6.786-33.936L32.709 1.472ZM99.333 1.472L138.828-33.936C139.268-34.377 139.581-34.694 139.581-35.261C139.581-35.827 139.206-36.207 138.766-36.647L99.271-72.118C98.956-72.372 98.762-72.561 98.442-72.561C97.804-72.561 97.232-71.989 97.232-71.35C97.232-71.093 97.298-70.713 97.551-70.459L138.031-34.127L138.031-36.518L97.551-0.062C97.298 0.13 97.232 0.51 97.232 0.767C97.232 1.406 97.804 1.978 98.442 1.978C98.762 1.978 99.018 1.726 99.333 1.472Z"/>
  </g>
  <g id="Black-S" transform="matrix(1 0 0 1 2865.72 696)">
   <path class="monochrome-0 multicolor-0:tintColor hierarchical-0:primary SFSymbolsPreviewWireframe" d="M23.418-0.684C25.176 1.074 27.226 1.855 29.668 1.855C34.697 1.855 38.896-2.295 38.896-7.227C38.896-9.766 37.822-12.109 35.82-14.063L12.627-36.279L12.627-34.375L35.82-56.445C37.871-58.398 38.896-60.742 38.896-63.232C38.896-68.164 34.697-72.315 29.668-72.315C27.177-72.315 25.176-71.533 23.418-69.775L-3.926-43.115C-6.465-40.625-7.491-38.281-7.539-35.254C-7.539-32.275-6.514-29.883-3.926-27.393L23.418-0.684ZM111.953-0.684L139.297-27.393C141.836-29.932 142.91-32.275 142.91-35.254C142.861-38.281 141.787-40.576 139.297-43.115L111.953-69.775C110.195-71.533 108.193-72.315 105.703-72.315C100.674-72.315 96.474-68.164 96.474-63.232C96.474-60.742 97.5-58.398 99.551-56.445L122.744-34.375L122.744-36.279L99.551-14.063C97.549-12.109 96.474-9.766 96.474-7.227C96.474-2.295 100.674 1.855 105.703 1.855C108.144 1.855 110.146 1.025 111.953-0.684Z"/>
  </g>
  <g id="Heavy-S" transform="matrix(1 0 0 1 2571.04 696)">
   <path class="monochrome-0 multicolor-0:tintColor hierarchical-0:primary SFSymbolsPreviewWireframe" d="M23.521-1.087C25.049 0.44 26.846 1.141 28.976 1.141C33.36 1.141 36.972-2.445 36.972-6.754C36.972-8.959 36.047-10.98 34.345-12.657L9.653-36.579L9.653-34.052L34.345-57.851C36.085-59.528 36.972-61.56 36.972-63.716C36.972-68.026 33.36-71.612 28.976-71.612C26.809-71.612 25.049-70.911 23.521-69.395L-4.491-41.94C-6.615-39.864-7.502-37.82-7.539-35.254C-7.539-32.725-6.652-30.667-4.491-28.568L23.521-1.087ZM107.781-1.087L135.793-28.568C137.929-30.704 138.853-32.725 138.853-35.254C138.816-37.82 137.892-39.827 135.793-41.94L107.781-69.395C106.265-70.911 104.505-71.612 102.338-71.612C97.954-71.612 94.331-68.026 94.331-63.716C94.331-61.56 95.229-59.528 96.958-57.851L121.661-34.052L121.661-36.579L96.958-12.657C95.267-10.98 94.331-8.959 94.331-6.754C94.331-2.445 97.954 1.141 102.338 1.141C104.468 1.141 106.228 0.403 107.781-1.087Z"/>
  </g>
  <g id="Bold-S" transform="matrix(1 0 0 1 2276.59 696)">
   <path class="monochrome-0 multicolor-0:tintColor hierarchical-0:primary SFSymbolsPreviewWireframe" d="M23.637-1.538C24.907-0.269 26.421 0.342 28.203 0.342C31.865 0.342 34.819-2.612 34.819-6.226C34.819-8.057 34.062-9.717 32.695-11.084L6.328-36.914L6.328-33.691L32.695-59.424C34.087-60.791 34.819-62.476 34.819-64.258C34.819-67.871 31.865-70.825 28.203-70.825C26.396-70.825 24.907-70.215 23.637-68.97L-5.122-40.625C-6.782-39.014-7.515-37.305-7.539-35.254C-7.539-33.228-6.807-31.543-5.122-29.883L23.637-1.538ZM103.115-1.538L131.875-29.883C133.559-31.567 134.316-33.228 134.316-35.254C134.292-37.305 133.535-38.989 131.875-40.625L103.115-68.97C101.87-70.215 100.381-70.825 98.574-70.825C94.912-70.825 91.933-67.871 91.933-64.258C91.933-62.476 92.69-60.791 94.057-59.424L120.449-33.691L120.449-36.914L94.057-11.084C92.714-9.717 91.933-8.057 91.933-6.226C91.933-2.612 94.912 0.342 98.574 0.342C100.356 0.342 101.845-0.293 103.115-1.538Z"/>
  </g>
  <g id="Semibold-S" transform="matrix(1 0 0 1 1981.45 696)">
   <path class="monochrome-0 multicolor-0:tintColor hierarchical-0:primary SFSymbolsPreviewWireframe" d="M23.717-1.849C24.809-0.757 26.127-0.209 27.67-0.209C30.834-0.209 33.335-2.728 33.335-5.861C33.335-7.435 32.694-8.846 31.557-10L4.035-37.145L4.035-33.443L31.557-60.508C32.709-61.662 33.335-63.106 33.335-64.631C33.335-67.765 30.834-70.283 27.67-70.283C26.112-70.283 24.809-69.735 23.717-68.677L-5.558-39.719C-6.898-38.427-7.524-36.949-7.539-35.254C-7.539-33.574-6.914-32.147-5.558-30.789L23.717-1.849ZM99.898-1.849L129.173-30.789C130.547-32.163 131.188-33.574 131.188-35.254C131.172-36.949 130.531-38.412 129.173-39.719L99.898-68.677C98.839-69.735 97.537-70.283 95.979-70.283C92.815-70.283 90.28-67.765 90.28-64.631C90.28-63.106 90.939-61.662 92.058-60.508L119.614-33.443L119.614-37.145L92.058-10C90.955-8.846 90.28-7.435 90.28-5.861C90.28-2.728 92.815-0.209 95.979-0.209C97.521-0.209 98.824-0.773 99.898-1.849Z"/>
  </g>
  <g id="Medium-S" transform="matrix(1 0 0 1 1685.92 696)">
   <path class="monochrome-0 multicolor-0:tintColor hierarchical-0:primary SFSymbolsPreviewWireframe" d="M23.778-2.085C24.735-1.128 25.905-0.627 27.265-0.627C30.052-0.627 32.21-2.815 32.21-5.585C32.21-6.963 31.656-8.186 30.695-9.178L2.297-37.32L2.297-33.254L30.695-61.33C31.665-62.322 32.21-63.585 32.21-64.914C32.21-67.684 30.052-69.872 27.265-69.872C25.896-69.872 24.735-69.371 23.778-68.454L-5.888-39.031C-6.986-37.982-7.531-36.68-7.539-35.254C-7.539-33.837-6.995-32.606-5.888-31.477L23.778-2.085ZM97.459-2.085L127.125-31.477C128.262-32.614 128.816-33.837 128.816-35.254C128.807-36.68 128.254-37.974 127.125-39.031L97.459-68.454C96.542-69.371 95.381-69.872 94.011-69.872C91.224-69.872 89.027-67.684 89.027-64.914C89.027-63.585 89.612-62.322 90.542-61.33L118.98-33.254L118.98-37.32L90.542-9.178C89.621-8.186 89.027-6.963 89.027-5.585C89.027-2.815 91.224-0.627 94.011-0.627C95.372-0.627 96.533-1.137 97.459-2.085Z"/>
  </g>
  <g id="Regular-S" transform="matrix(1 0 0 1 1390.76 696)">
   <path class="monochrome-0 multicolor-0:tintColor hierarchical-0:primary SFSymbolsPreviewWireframe" d="M23.857-2.393C24.638-1.611 25.615-1.172 26.738-1.172C29.033-1.172 30.742-2.93 30.742-5.225C30.742-6.348 30.302-7.324 29.57-8.105L0.029-37.549L0.029-33.008L29.57-62.402C30.302-63.184 30.742-64.209 30.742-65.283C30.742-67.578 29.033-69.336 26.738-69.336C25.615-69.336 24.638-68.897 23.857-68.164L-6.319-38.135C-7.1-37.402-7.539-36.328-7.539-35.254C-7.539-34.18-7.1-33.203-6.319-32.373L23.857-2.393ZM94.277-2.393L124.453-32.373C125.283-33.203 125.722-34.18 125.722-35.254C125.722-36.328 125.283-37.402 124.453-38.135L94.277-68.164C93.545-68.897 92.568-69.336 91.445-69.336C89.15-69.336 87.392-67.578 87.392-65.283C87.392-64.209 87.881-63.184 88.564-62.402L118.154-33.008L118.154-37.549L88.564-8.105C87.881-7.324 87.392-6.348 87.392-5.225C87.392-2.93 89.15-1.172 91.445-1.172C92.568-1.172 93.545-1.611 94.277-2.393Z"/>
  </g>
  <g id="Light-S" transform="matrix(1 0 0 1 1095.5 696)">
   <path class="monochrome-0 multicolor-0:tintColor hierarchical-0:primary SFSymbolsPreviewWireframe" d="M23.903-3.664C24.517-3.064 25.237-2.701 26.102-2.701C27.837-2.701 29.153-4.05 29.153-5.785C29.153-6.62 28.834-7.385 28.268-7.969L-1.954-37.14L-1.954-33.432L28.268-62.539C28.834-63.138 29.153-63.937 29.153-64.738C29.153-66.473 27.837-67.822 26.102-67.822C25.237-67.822 24.532-67.474 23.918-66.908L-6.5-37.575C-7.145-36.963-7.539-36.131-7.539-35.254C-7.539-34.377-7.16-33.627-6.515-32.948L23.903-3.664ZM91.341-3.664L121.759-32.948C122.437-33.627 122.816-34.377 122.816-35.254C122.816-36.131 122.422-36.963 121.743-37.575L91.325-66.908C90.744-67.474 90.025-67.822 89.175-67.822C87.44-67.822 86.091-66.473 86.091-64.738C86.091-63.937 86.443-63.138 86.975-62.539L117.231-33.432L117.231-37.14L86.975-7.969C86.443-7.385 86.091-6.62 86.091-5.785C86.091-4.05 87.44-2.701 89.175-2.701C90.025-2.701 90.76-3.064 91.341-3.664Z"/>
  </g>
  <g id="Thin-S" transform="matrix(1 0 0 1 800.71 696)">
   <path class="monochrome-0 multicolor-0:tintColor hierarchical-0:primary SFSymbolsPreviewWireframe" d="M23.963-5.346C24.357-4.986 24.736-4.723 25.261-4.723C26.256-4.723 27.051-5.531 27.051-6.525C27.051-6.98 26.892-7.465 26.547-7.789L-4.576-36.6L-4.576-33.992L26.547-62.719C26.892-63.078 27.051-63.576 27.051-64.018C27.051-65.012 26.256-65.82 25.261-65.82C24.736-65.82 24.392-65.592 23.998-65.246L-6.741-36.834C-7.205-36.383-7.539-35.871-7.539-35.254C-7.539-34.637-7.241-34.188-6.776-33.709L23.963-5.346ZM87.457-5.346L118.195-33.709C118.674-34.188 118.972-34.637 118.972-35.254C118.972-35.871 118.638-36.383 118.16-36.834L87.422-65.246C87.041-65.592 86.662-65.82 86.172-65.82C85.178-65.82 84.369-65.012 84.369-64.018C84.369-63.576 84.541-63.078 84.873-62.719L116.01-33.992L116.01-36.6L84.873-7.789C84.541-7.465 84.369-6.98 84.369-6.525C84.369-5.531 85.178-4.723 86.172-4.723C86.662-4.723 87.076-4.986 87.457-5.346Z"/>
  </g>
  <g id="Ultralight-S" transform="matrix(1 0 0 1 499.983 696)">
   <path class="monochrome-0 multicolor-0:tintColor hierarchical-0:primary SFSymbolsPreviewWireframe" d="M23.993-6.207C24.275-5.971 24.48-5.758 24.831-5.758C25.446-5.758 25.974-6.29 25.974-6.905C25.974-7.165 25.898-7.506 25.665-7.697L-5.92-36.323L-5.92-34.279L25.665-62.811C25.898-63.047 25.974-63.392 25.974-63.649C25.974-64.263 25.446-64.795 24.831-64.795C24.48-64.795 24.321-64.628 24.039-64.395L-6.864-36.455C-7.236-36.086-7.539-35.738-7.539-35.254C-7.539-34.77-7.282-34.475-6.909-34.099L23.993-6.207ZM95.468-6.207L126.37-34.099C126.746-34.475 127.004-34.77 127.004-35.254C127.004-35.738 126.7-36.086 126.324-36.455L95.422-64.395C95.144-64.628 94.939-64.795 94.634-64.795C94.019-64.795 93.487-64.263 93.487-63.649C93.487-63.392 93.567-63.047 93.796-62.811L125.384-34.279L125.384-36.323L93.796-7.697C93.567-7.506 93.487-7.165 93.487-6.905C93.487-6.29 94.019-5.758 94.634-5.758C94.939-5.758 95.189-5.971 95.468-6.207Z"/>
  </g>
 </g>
</svg>
