<?xml version="1.0" encoding="UTF-8"?>
<!--Generator: Apple Native CoreSVG 341-->
<!DOCTYPE svg
PUBLIC "-//W3C//DTD SVG 1.1//EN"
       "http://www.w3.org/Graphics/SVG/1.1/DTD/svg11.dtd">
<svg version="1.1" xmlns="http://www.w3.org/2000/svg" xmlns:xlink="http://www.w3.org/1999/xlink" viewBox="0 0 3300 2200">
 <!--glyph: "", point size: 100.0, font version: "21.1d1e1", template writer version: "138.0.0"-->
 <style>.defaults {-sfsymbols-variable-value-mode:color;-sfsymbols-draw-reverses-motion-groups:false}

.SFSymbolsPreviewWireframe {fill:none;opacity:1.0;stroke:black;stroke-width:0.5}
</style>
 <g id="Notes">
  <rect height="2200" id="artboard" style="fill:white;opacity:1" width="3300" x="0" y="0"/>
  <line style="fill:none;stroke:black;opacity:1;stroke-width:0.5;" x1="263" x2="3036" y1="292" y2="292"/>
  <text style="stroke:none;fill:black;font-family:sans-serif;font-size:13;font-weight:bold;" transform="matrix(1 0 0 1 263 322)">Weight/Scale Variations</text>
  <text style="stroke:none;fill:black;font-family:sans-serif;font-size:13;text-anchor:middle;" transform="matrix(1 0 0 1 559.711 322)">Ultralight</text>
  <text style="stroke:none;fill:black;font-family:sans-serif;font-size:13;text-anchor:middle;" transform="matrix(1 0 0 1 856.422 322)">Thin</text>
  <text style="stroke:none;fill:black;font-family:sans-serif;font-size:13;text-anchor:middle;" transform="matrix(1 0 0 1 1153.13 322)">Light</text>
  <text style="stroke:none;fill:black;font-family:sans-serif;font-size:13;text-anchor:middle;" transform="matrix(1 0 0 1 1449.84 322)">Regular</text>
  <text style="stroke:none;fill:black;font-family:sans-serif;font-size:13;text-anchor:middle;" transform="matrix(1 0 0 1 1746.56 322)">Medium</text>
  <text style="stroke:none;fill:black;font-family:sans-serif;font-size:13;text-anchor:middle;" transform="matrix(1 0 0 1 2043.27 322)">Semibold</text>
  <text style="stroke:none;fill:black;font-family:sans-serif;font-size:13;text-anchor:middle;" transform="matrix(1 0 0 1 2339.98 322)">Bold</text>
  <text style="stroke:none;fill:black;font-family:sans-serif;font-size:13;text-anchor:middle;" transform="matrix(1 0 0 1 2636.69 322)">Heavy</text>
  <text style="stroke:none;fill:black;font-family:sans-serif;font-size:13;text-anchor:middle;" transform="matrix(1 0 0 1 2933.4 322)">Black</text>
  <line style="fill:none;stroke:black;opacity:1;stroke-width:0.5;" x1="263" x2="3036" y1="1903" y2="1903"/>
  <g transform="matrix(0.2 0 0 0.2 263 1933)">
   <path d="m46.2402 4.15039c21.7773 0 39.4531-17.627 39.4531-39.4043s-17.6758-39.4043-39.4531-39.4043c-21.7285 0-39.4043 17.627-39.4043 39.4043s17.6758 39.4043 39.4043 39.4043Zm0-7.42188c-17.6758 0-31.9336-14.3066-31.9336-31.9824s14.2578-31.9824 31.9336-31.9824 31.9824 14.3066 31.9824 31.9824-14.3066 31.9824-31.9824 31.9824Zm3.61328-17.7734v-28.4668c0-2.24609-1.46484-3.75977-3.71094-3.75977-2.14844 0-3.61328 1.51367-3.61328 3.75977v28.4668c0 2.19727 1.46484 3.71094 3.61328 3.71094 2.24609 0 3.71094-1.51367 3.71094-3.71094Zm-17.8223-10.5957h28.418c2.19727 0 3.71094-1.46484 3.71094-3.61328 0-2.19727-1.51367-3.71094-3.71094-3.71094h-28.418c-2.24609 0-3.75977 1.51367-3.75977 3.71094 0 2.14844 1.51367 3.61328 3.75977 3.61328Z"/>
  </g>
  <g transform="matrix(0.2 0 0 0.2 281.506 1933)">
   <path d="m58.5449 14.5508c27.4902 0 49.8047-22.3145 49.8047-49.8047s-22.3145-49.8047-49.8047-49.8047-49.8047 22.3145-49.8047 49.8047 22.3145 49.8047 49.8047 49.8047Zm0-8.30078c-22.9492 0-41.5039-18.5547-41.5039-41.5039s18.5547-41.5039 41.5039-41.5039 41.5039 18.5547 41.5039 41.5039-18.5547 41.5039-41.5039 41.5039Zm4.05273-23.0957v-36.9141c0-2.49023-1.70898-4.19922-4.15039-4.19922-2.39258 0-4.05273 1.70898-4.05273 4.19922v36.9141c0 2.44141 1.66016 4.15039 4.05273 4.15039 2.44141 0 4.15039-1.66016 4.15039-4.15039Zm-22.5586-14.4043h36.9629c2.44141 0 4.15039-1.61133 4.15039-4.00391 0-2.44141-1.70898-4.15039-4.15039-4.15039h-36.9629c-2.49023 0-4.15039 1.70898-4.15039 4.15039 0 2.39258 1.66016 4.00391 4.15039 4.00391Z"/>
  </g>
  <g transform="matrix(0.2 0 0 0.2 304.924 1933)">
   <path d="m74.8535 28.3203c35.1074 0 63.623-28.4668 63.623-63.5742s-28.5156-63.623-63.623-63.623-63.5742 28.5156-63.5742 63.623 28.4668 63.5742 63.5742 63.5742Zm0-9.08203c-30.127 0-54.4922-24.3652-54.4922-54.4922s24.3652-54.4922 54.4922-54.4922 54.4922 24.3652 54.4922 54.4922-24.3652 54.4922-54.4922 54.4922Zm4.44336-30.3223v-48.4863c0-2.73438-1.85547-4.63867-4.54102-4.63867-2.58789 0-4.44336 1.9043-4.44336 4.63867v48.4863c0 2.68555 1.85547 4.58984 4.44336 4.58984 2.68555 0 4.54102-1.85547 4.54102-4.58984Zm-28.7109-19.7754h48.4863c2.68555 0 4.58984-1.80664 4.58984-4.39453 0-2.73438-1.85547-4.58984-4.58984-4.58984h-48.4863c-2.73438 0-4.58984 1.85547-4.58984 4.58984 0 2.58789 1.85547 4.39453 4.58984 4.39453Z"/>
  </g>
  <text style="stroke:none;fill:black;font-family:sans-serif;font-size:13;font-weight:bold;" transform="matrix(1 0 0 1 263 1953)">Design Variations</text>
  <text style="stroke:none;fill:black;font-family:sans-serif;font-size:13;" transform="matrix(1 0 0 1 263 1971)">Symbols are supported in up to nine weights and three scales.</text>
  <text style="stroke:none;fill:black;font-family:sans-serif;font-size:13;" transform="matrix(1 0 0 1 263 1989)">For optimal layout with text and other symbols, vertically align</text>
  <text style="stroke:none;fill:black;font-family:sans-serif;font-size:13;" transform="matrix(1 0 0 1 263 2007)">symbols with the adjacent text.</text>
  <line style="fill:none;stroke:#00AEEF;stroke-width:0.5;opacity:1.0;" x1="776" x2="776" y1="1919" y2="1933"/>
  <g transform="matrix(0.2 0 0 0.2 776 1933)">
   <path d="m16.5527 0.78125c2.58789 0 3.85742-0.976562 4.78516-3.71094l20.5566-57.5195h0.244141l20.6055 57.5195c0.927734 2.73438 2.19727 3.71094 4.73633 3.71094 2.58789 0 4.24805-1.5625 4.24805-4.00391 0-0.830078-0.146484-1.61133-0.537109-2.63672l-22.9004-60.9863c-1.12305-2.97852-3.125-4.49219-6.25-4.49219-3.02734 0-5.07812 1.46484-6.15234 4.44336l-22.9004 61.084c-0.390625 1.02539-0.537109 1.80664-0.537109 2.63672 0 2.44141 1.5625 3.95508 4.10156 3.95508Zm10.2051-20.9473h30.6641c2.00195 0 3.66211-1.66016 3.66211-3.66211 0-2.05078-1.66016-3.66211-3.66211-3.66211h-30.6641c-2.00195 0-3.66211 1.61133-3.66211 3.66211 0 2.00195 1.66016 3.66211 3.66211 3.66211Z"/>
  </g>
  <line style="fill:none;stroke:#00AEEF;stroke-width:0.5;opacity:1.0;" x1="792.836" x2="792.836" y1="1919" y2="1933"/>
  <text style="stroke:none;fill:black;font-family:sans-serif;font-size:13;font-weight:bold;" transform="matrix(1 0 0 1 776 1953)">Margins</text>
  <text style="stroke:none;fill:black;font-family:sans-serif;font-size:13;" transform="matrix(1 0 0 1 776 1971)">Leading and trailing margins on the left and right side of each symbol</text>
  <text style="stroke:none;fill:black;font-family:sans-serif;font-size:13;" transform="matrix(1 0 0 1 776 1989)">can be adjusted by modifying the x-location of the margin guidelines.</text>
  <text style="stroke:none;fill:black;font-family:sans-serif;font-size:13;" transform="matrix(1 0 0 1 776 2007)">Modifications are automatically applied proportionally to all</text>
  <text style="stroke:none;fill:black;font-family:sans-serif;font-size:13;" transform="matrix(1 0 0 1 776 2025)">scales and weights.</text>
  <g transform="matrix(0.2 0 0 0.2 1289 1933)">
   <path d="m14.209 13.1348 7.86133 7.86133c4.29688 4.39453 9.32617 4.10156 13.8672-1.02539l60.6934-68.2129-4.88281-4.88281-60.2539 67.6758c-1.80664 1.95312-3.4668 2.44141-5.81055 0.0976562l-5.17578-5.12695c-2.29492-2.29492-1.80664-3.95508 0.195312-5.81055l67.4805-62.1582-4.88281-4.83398-68.0664 62.5977c-4.98047 4.58984-5.32227 9.47266-1.02539 13.8184Zm44.873-97.4609c-2.05078 2.00195-2.24609 4.88281-1.07422 6.78711 1.12305 1.80664 3.4668 3.02734 6.5918 2.24609 5.85938-1.66016 12.5977-2.39258 18.8965 0.927734l-2.68555 7.12891c-1.61133 4.00391-0.732422 6.88477 1.70898 9.42383l10.2539 10.3027c2.34375 2.39258 4.54102 2.44141 7.08008 1.95312l4.44336-0.732422 2.58789 2.53906-0.195312 2.24609c-0.0976562 2.29492 0.537109 4.29688 2.7832 6.49414l3.36914 3.32031c2.29492 2.29492 5.51758 2.49023 7.8125 0.195312l12.9883-13.0371c2.29492-2.34375 2.14844-5.37109-0.195312-7.66602l-3.41797-3.41797c-2.19727-2.19727-4.05273-3.02734-6.34766-2.88086l-2.34375 0.244141-2.44141-2.44141 1.02539-4.6875c0.634766-2.73438-0.244141-4.98047-2.88086-7.61719l-11.2793-11.1816c-12.9395-12.8418-35.5957-11.0352-46.6797-0.146484Zm7.08008 2.05078c8.78906-6.39648 25.9766-5.66406 33.6914 1.95312l12.3047 12.207c1.02539 1.02539 1.2207 1.80664 0.927734 3.32031l-1.46484 6.64062 6.73828 6.68945 4.39453-0.244141c1.12305-0.0488281 1.51367 0.0488281 2.34375 0.878906l2.53906 2.49023-10.8398 10.8398-2.49023-2.49023c-0.830078-0.878906-0.976562-1.2207-0.927734-2.39258l0.292969-4.3457-6.68945-6.73828-6.83594 1.17188c-1.41602 0.292969-2.05078 0.195312-3.17383-0.878906l-8.93555-8.88672c-1.07422-1.02539-1.17188-1.70898-0.488281-3.36914l4.58984-11.4746c-6.10352-6.34766-17.041-7.51953-25.5859-4.58984-0.683594 0.244141-0.927734-0.390625-0.390625-0.78125Z"/>
  </g>
  <text style="stroke:none;fill:black;font-family:sans-serif;font-size:13;font-weight:bold;" transform="matrix(1 0 0 1 1289 1953)">Exporting</text>
  <text style="stroke:none;fill:black;font-family:sans-serif;font-size:13;" transform="matrix(1 0 0 1 1289 1971)">Symbols should be outlined when exporting to ensure the</text>
  <text style="stroke:none;fill:black;font-family:sans-serif;font-size:13;" transform="matrix(1 0 0 1 1289 1989)">design is preserved when submitting to Xcode.</text>
  <text id="template-version" style="stroke:none;fill:black;font-family:sans-serif;font-size:13;text-anchor:end;" transform="matrix(1 0 0 1 3036 1933)">Template v.6.0</text>
  <text style="stroke:none;fill:black;font-family:sans-serif;font-size:13;text-anchor:end;" transform="matrix(1 0 0 1 3036 1951)">Requires Xcode 16 or greater</text>
  <text id="descriptive-name" style="stroke:none;fill:black;font-family:sans-serif;font-size:13;text-anchor:end;" transform="matrix(1 0 0 1 3036 1969)">Generated from design.icon.curve.compass.ruler</text>
  <text style="stroke:none;fill:black;font-family:sans-serif;font-size:13;text-anchor:end;" transform="matrix(1 0 0 1 3036 1987)">Typeset at 100.0 points</text>
  <text style="stroke:none;fill:black;font-family:sans-serif;font-size:13;" transform="matrix(1 0 0 1 263 726)">Small</text>
  <text style="stroke:none;fill:black;font-family:sans-serif;font-size:13;" transform="matrix(1 0 0 1 263 1156)">Medium</text>
  <text style="stroke:none;fill:black;font-family:sans-serif;font-size:13;" transform="matrix(1 0 0 1 263 1586)">Large</text>
 </g>
 <g id="Guides">
  <g id="H-reference" style="fill:#27AAE1;stroke:none;" transform="matrix(1 0 0 1 339 696)">
   <path d="M0.993654 0L3.63775 0L29.3281-67.1323L30.0303-67.1323L30.0303-70.459L28.1226-70.459ZM11.6885-24.4799L46.9815-24.4799L46.2315-26.7285L12.4385-26.7285ZM55.1196 0L57.7637 0L30.6382-70.459L29.4326-70.459L29.4326-67.1323Z"/>
  </g>
  <line id="Baseline-S" style="fill:none;stroke:#27AAE1;opacity:1;stroke-width:0.5;" x1="263" x2="3036" y1="696" y2="696"/>
  <line id="Capline-S" style="fill:none;stroke:#27AAE1;opacity:1;stroke-width:0.5;" x1="263" x2="3036" y1="625.541" y2="625.541"/>
  <g id="H-reference" style="fill:#27AAE1;stroke:none;" transform="matrix(1 0 0 1 339 1126)">
   <path d="M0.993654 0L3.63775 0L29.3281-67.1323L30.0303-67.1323L30.0303-70.459L28.1226-70.459ZM11.6885-24.4799L46.9815-24.4799L46.2315-26.7285L12.4385-26.7285ZM55.1196 0L57.7637 0L30.6382-70.459L29.4326-70.459L29.4326-67.1323Z"/>
  </g>
  <line id="Baseline-M" style="fill:none;stroke:#27AAE1;opacity:1;stroke-width:0.5;" x1="263" x2="3036" y1="1126" y2="1126"/>
  <line id="Capline-M" style="fill:none;stroke:#27AAE1;opacity:1;stroke-width:0.5;" x1="263" x2="3036" y1="1055.54" y2="1055.54"/>
  <g id="H-reference" style="fill:#27AAE1;stroke:none;" transform="matrix(1 0 0 1 339 1556)">
   <path d="M0.993654 0L3.63775 0L29.3281-67.1323L30.0303-67.1323L30.0303-70.459L28.1226-70.459ZM11.6885-24.4799L46.9815-24.4799L46.2315-26.7285L12.4385-26.7285ZM55.1196 0L57.7637 0L30.6382-70.459L29.4326-70.459L29.4326-67.1323Z"/>
  </g>
  <line id="Baseline-L" style="fill:none;stroke:#27AAE1;opacity:1;stroke-width:0.5;" x1="263" x2="3036" y1="1556" y2="1556"/>
  <line id="Capline-L" style="fill:none;stroke:#27AAE1;opacity:1;stroke-width:0.5;" x1="263" x2="3036" y1="1485.54" y2="1485.54"/>
  <line id="right-margin-Regular-M" style="fill:none;stroke:#FF3B30;stroke-width:0.5;opacity:1.0;" x1="1518.9" x2="1518.9" y1="1030.79" y2="1150.12"/>
  <line id="left-margin-Regular-M" style="fill:none;stroke:#FF3B30;stroke-width:0.5;opacity:1.0;" x1="1380.79" x2="1380.79" y1="1030.79" y2="1150.12"/>
 </g>
 <g id="Symbols">
  <g id="Black-L" transform="matrix(1 0 0 1 2924 1556)">
   <path class="SFSymbolsPreviewWireframe" d="M-55.4601 35.991L89.6508 35.991C94.7719 35.991 98.9659 31.735 98.9659 26.614C98.9659 21.435 94.7719 17.178 89.6508 17.178L-55.4601 17.178C-60.6402 17.178-64.8342 21.435-64.8342 26.614C-64.8342 31.735-60.6402 35.991-55.4601 35.991ZM-30.3821 47.398L-5.95415 47.398C5.07185 47.398 12.1218 40.29 12.1218 29.084L12.1218-70.644C12.1218-81.848 5.07185-88.978-5.95415-88.978L-30.3821-88.978C-41.4862-88.978-48.5161-81.848-48.5161-70.644L-48.5161 29.084C-48.5161 40.29-41.4862 47.398-30.3821 47.398ZM40.4399 5.873L64.8679 5.873C75.9149 5.873 82.9428-1.235 82.9428-12.46L82.9428-70.644C82.9428-81.848 75.9149-88.978 64.8679-88.978L40.4399-88.978C29.3569-88.978 22.3059-81.848 22.3059-70.644L22.3059-12.46C22.3059-1.235 29.3569 5.873 40.4399 5.873Z"/>
  </g>
  <g id="Heavy-L" transform="matrix(1 0 0 1 2629.53 1556)">
   <path class="SFSymbolsPreviewWireframe" d="M-56.6982 9.413L86.3938 9.413C90.8538 9.413 94.4859 5.691 94.4859 1.232C94.4859-3.272 90.8538-6.995 86.3938-6.995L-56.6982-6.995C-61.2022-6.995-64.8342-3.272-64.8342 1.232C-64.8342 5.691-61.2022 9.413-56.6982 9.413ZM-31.3951 44.468L-7.44515 44.468C3.04585 44.468 9.57585 37.893 9.57585 27.222L9.57585-70.711C9.57585-81.376 3.04585-87.987-7.44515-87.987L-31.3951-87.987C-41.9551-87.987-48.4612-81.376-48.4612-70.711L-48.4612 27.222C-48.4612 37.893-41.9551 44.468-31.3951 44.468ZM37.3809 2.316L61.3308 2.316C71.8519 2.316 78.3519-4.259 78.3519-14.954L78.3519-70.711C78.3519-81.376 71.8519-87.987 61.3308-87.987L37.3809-87.987C26.8519-87.987 20.3149-81.376 20.3149-70.711L20.3149-14.954C20.3149-4.259 26.8519 2.316 37.3809 2.316Z"/>
  </g>
  <g id="Bold-L" transform="matrix(1 0 0 1 2335.59 1556)">
   <path class="SFSymbolsPreviewWireframe" d="M-58.1971-39.865L82.3229-39.865C85.9749-39.865 88.9298-42.935 88.9298-46.587C88.9298-50.268 85.9749-53.337 82.3229-53.337L-58.1971-53.337C-61.8791-53.337-64.8342-50.268-64.8342-46.587C-64.8342-42.935-61.8791-39.865-58.1971-39.865ZM-32.8411 40.819L-9.21515 40.819C0.50285 40.819 6.38085 34.912 6.38085 25.021L6.38085-70.877C6.38085-80.755 0.50285-86.713-9.21515-86.713L-32.8411-86.713C-42.6132-86.713-48.4661-80.755-48.4661-70.877L-48.4661 25.021C-48.4661 34.912-42.6132 40.819-32.8411 40.819ZM33.5258-1.856L57.1519-1.856C66.9079-1.856 72.7479-7.763 72.7479-17.678L72.7479-70.877C72.7479-80.755 66.9079-86.713 57.1519-86.713L33.5258-86.713C23.7919-86.713 17.9008-80.755 17.9008-70.877L17.9008-17.678C17.9008-7.763 23.7919-1.856 33.5258-1.856Z"/>
  </g>
  <g id="Semibold-L" transform="matrix(1 0 0 1 2040.8 1556)">
   <path class="SFSymbolsPreviewWireframe" d="M-59.2312-77.647L79.5158-77.647C82.6118-77.647 85.1008-80.266 85.1008-83.361C85.1008-86.476 82.6118-89.094 79.5158-89.094L-59.2312-89.094C-62.3452-89.094-64.8342-86.476-64.8342-83.361C-64.8342-80.266-62.3452-77.647-59.2312-77.647ZM-33.8382 38.303L-10.4352 38.303C-1.24915 38.303 4.17785 32.857 4.17785 23.504L4.17785-70.992C4.17785-80.327-1.24915-85.835-10.4352-85.835L-33.8382-85.835C-43.0672-85.835-48.4702-80.327-48.4702-70.992L-48.4702 23.504C-48.4702 32.857-43.0672 38.303-33.8382 38.303ZM30.8678-4.732L54.2718-4.732C63.4998-4.732 68.8848-10.178 68.8848-19.556L68.8848-70.992C68.8848-80.327 63.4998-85.835 54.2718-85.835L30.8678-85.835C21.6828-85.835 16.2368-80.327 16.2368-70.992L16.2368-19.556C16.2368-10.178 21.6828-4.732 30.8678-4.732Z"/>
  </g>
  <g id="Medium-L" transform="matrix(1 0 0 1 1677.5 1556)">
   <path class="SFSymbolsPreviewWireframe" d="M-52.9181 18.52C-59.9771 18.52-64.8342 13.653-64.8342 6.48996L-64.8342-77.866C-64.8342-85.04-59.9771-89.897-52.9181-89.897L-28.6912-89.897C-21.5692-89.897-16.7122-84.988-16.7122-77.815L-16.7122 6.54197C-16.7122 13.653-21.5692 18.52-28.6912 18.52L-52.9181 18.52ZM-23.8932 5.22697L-44.7432 5.22697C-45.7602 5.22697-46.4651 4.37697-46.4651 3.36997C-46.4651 2.32297-45.7081 1.55497-44.6912 1.55497L-23.8932 1.55497L-23.8932-2.64504L-36.9661-2.64504C-38.0341-2.64504-38.6771-3.39103-38.6771-4.46003C-38.6771-5.55903-37.9832-6.21303-36.9142-6.21303L-23.8932-6.21303L-23.8932-10.423L-36.9661-10.423C-38.0341-10.423-38.6771-11.284-38.6771-12.239C-38.6771-13.297-37.9832-14.043-36.9142-14.043L-23.8932-14.043L-23.8932-18.202L-36.9661-18.202C-38.0341-18.202-38.6771-19.011-38.6771-20.017C-38.6771-21.127-37.9832-21.832-36.9142-21.832L-23.8932-21.832L-23.8932-25.98L-36.9661-25.98C-38.0341-25.98-38.6771-26.841-38.6771-27.899C-38.6771-28.905-37.9832-29.663-36.9142-29.663L-23.8932-29.663L-23.8932-33.925L-44.7432-33.925C-45.7602-33.925-46.4651-34.62-46.4651-35.678C-46.4651-36.788-45.7081-37.452-44.6912-37.452L-23.8932-37.452L-23.8932-41.662L-36.9661-41.662C-38.0341-41.662-38.6771-42.512-38.6771-43.415C-38.6771-44.577-37.9832-45.344-36.9142-45.344L-23.8932-45.344L-23.8932-49.492L-36.9661-49.492C-38.0341-49.492-38.6771-50.291-38.6771-51.349C-38.6771-52.407-37.9832-53.123-36.9142-53.123L-23.8932-53.123L-23.8932-57.281L-36.9661-57.281C-38.0341-57.281-38.6771-58.069-38.6771-59.076C-38.6771-60.134-37.9832-60.902-36.9142-60.902L-23.8932-60.902L-23.8932-65.163L-36.9661-65.163C-38.0341-65.163-38.6771-65.91-38.6771-66.916C-38.6771-68.026-37.9832-68.732-36.9142-68.732L-23.8932-68.732L-23.8932-72.942L-44.7432-72.942C-45.7602-72.942-46.4651-73.803-46.4651-74.757C-46.4651-75.857-45.7081-76.614-44.6912-76.614L-23.8932-76.614L-23.8932-76.759C-23.8932-80.336-26.3141-82.716-29.9951-82.716L-51.6031-82.716C-55.2941-82.716-57.6532-80.336-57.6532-76.759L-57.6532 5.43397C-57.6532 9.01097-55.2941 11.392-51.6031 11.392L-29.9951 11.392C-26.3141 11.392-23.8932 8.95997-23.8932 5.38197L-23.8932 5.22697ZM26.1331-0.861197C28.961-0.861197 31.245 1.42285 31.245 4.25071L31.245 8.11183C31.245 10.9397 28.961 13.2237 26.1331 13.2237L22.272 13.2237C19.4441 13.2237 17.1601 10.9397 17.1601 8.11183L17.1601 4.25071C17.1601 1.42285 19.4441-0.861197 22.272-0.861197L26.1331-0.861197ZM41.2441-5.9332C44.072-5.9332 46.356-3.64915 46.356-0.821289L46.356 3.03983C46.356 5.8677 44.072 8.15174 41.2441 8.15174L37.383 8.15174C34.5551 8.15174 32.2711 5.8677 32.2711 3.03983L32.2711-0.821289C32.2711-3.64915 34.5551-5.9332 37.383-5.9332L41.2441-5.9332ZM69.8601-61.4932C72.688-61.4932 74.972-59.2092 74.972-56.3813L74.972-52.5202C74.972-49.6923 72.688-47.4083 69.8601-47.4083L65.999-47.4083C63.1711-47.4083 60.8871-49.6923 60.8871-52.5202L60.8871-56.3813C60.8871-59.2092 63.1711-61.4932 65.999-61.4932L69.8601-61.4932ZM56.3561-23.5312C59.184-23.5312 61.468-21.2472 61.468-18.4193L61.468-14.5582C61.468-11.7303 59.184-9.44626 56.3561-9.44626L52.495-9.44626C49.6671-9.44626 47.3831-11.7303 47.3831-14.5582L47.3831-18.4193C47.3831-21.2472 49.6671-23.5312 52.495-23.5312L56.3561-23.5312ZM85.0653-78.2282C87.8932-78.2282 90.1772-75.9442 90.1772-73.1163L90.1772-69.2552C90.1772-66.4273 87.8932-64.1433 85.0653-64.1433L81.2042-64.1433C78.3763-64.1433 76.0923-66.4273 76.0923-69.2552L76.0923-73.1163C76.0923-75.9442 78.3763-78.2282 81.2042-78.2282L85.0653-78.2282ZM100.959-82.5142C103.787-82.5142 106.071-80.2302 106.071-77.4023L106.071-73.5412C106.071-70.7133 103.787-68.4293 100.959-68.4293L97.0977-68.4293C94.2698-68.4293 91.9858-70.7133 91.9858-73.5412L91.9858-77.4023C91.9858-80.2302 94.2698-82.5142 97.0977-82.5142L100.959-82.5142ZM116.802-84.4812C119.63-84.4812 121.914-82.1972 121.914-79.3693L121.914-75.5082C121.914-72.6803 119.63-70.3963 116.802-70.3963L112.941-70.3963C110.113-70.3963 107.829-72.6803 107.829-75.5082L107.829-79.3693C107.829-82.1972 110.113-84.4812 112.941-84.4812L116.802-84.4812ZM15.3439 10.771C13.1932 10.6246 11.5627 8.76536 11.7127 6.61319C11.8628 4.47229 13.7134 2.84972 15.864 2.98493C15.864 2.98493 31.309 4.01031 43.4329-6.73927C46.4538-9.42103 48.8246-13.838 50.9253-18.7734C54.4264-26.999 57.0072-36.633 59.468-43.4726C62.0288-50.5939 64.8697-58.2336 68.911-64.3182C71.902-68.7916 75.5331-72.4537 80.0746-74.7072C96.8099-82.9891 122.698-81.9976 122.698-81.9976C124.849-81.9187 126.519-80.0933 126.429-77.9411C126.349-75.789 124.529-74.1213 122.378-74.2115C122.378-74.2115 98.7806-75.2594 83.5357-67.7099C79.2943-65.614 76.2434-61.7266 73.7226-57.2195C70.9016-52.1714 68.781-46.3234 66.8003-40.8247C64.2995-33.8724 61.6587-24.0806 58.1076-15.7198C55.4967-9.60131 52.3657-4.22653 48.6045-0.902495C33.9898 12.0556 15.3439 10.771 15.3439 10.771ZM6.22-61.19C6.22-59.26 4.65-57.69 2.72-57.69C0.78-57.69-0.78-59.26-0.78-61.19L-0.78-78.51C-0.78-83.65 1.26-88.59 4.9-92.22C8.54-95.86 13.47-97.9 18.61-97.9L35.93-97.9C37.86-97.9 39.43-96.34 39.43-94.4C39.43-92.47 37.86-90.9 35.93-90.9L18.61-90.9C15.33-90.9 12.17-89.6 9.85-87.27C7.52-84.95 6.22-81.8 6.22-78.51L6.22-61.19ZM-0.78-10.09C-0.78-12.02 0.78-13.59 2.72-13.59C4.65-13.59 6.22-12.02 6.22-10.09L6.22 7.23C6.22 10.52 7.52 13.67 9.85 15.99C12.17 18.32 15.33 19.62 18.61 19.62L35.93 19.62C37.86 19.62 39.43 21.19 39.43 23.12C39.43 25.06 37.86 26.62 35.93 26.62L18.61 26.62C13.47 26.62 8.54 24.58 4.9 20.94C1.26 17.31-0.78 12.37-0.78 7.23L-0.78-10.09ZM138.82-61.19C138.82-59.26 137.26-57.69 135.32-57.69C133.39-57.69 131.82-59.26 131.82-61.19L131.82-78.51C131.82-81.8 130.52-84.95 128.19-87.27C125.87-89.6 122.71-90.9 119.43-90.9L102.11-90.9C100.18-90.9 98.61-92.47 98.61-94.4C98.61-96.34 100.18-97.9 102.11-97.9L119.43-97.9C124.57-97.9 129.5-95.86 133.14-92.22C136.78-88.59 138.82-83.65 138.82-78.51L138.82-61.19ZM131.82-10.09C131.82-12.02 133.39-13.59 135.32-13.59C137.26-13.59 138.82-12.02 138.82-10.09L138.82 7.23C138.82 12.37 136.78 17.31 133.14 20.94C129.5 24.58 124.57 26.62 119.43 26.62L102.11 26.62C100.18 26.62 98.61 25.06 98.61 23.12C98.61 21.19 100.18 19.62 102.11 19.62L119.43 19.62C122.71 19.62 125.87 18.32 128.19 15.99C130.52 13.67 131.82 10.52 131.82 7.23L131.82-10.09ZM179.002-76.2268L184.433-76.2268L184.433-88.8588C184.433-90.3618 183.252-91.5438 181.738-91.5438C180.235-91.5438 179.002-90.3108 179.002-88.8078L179.002-76.2268ZM181.738-51.3728C190.072-51.3728 196.683-57.9938 196.683-66.3178C196.683-74.6408 190.072-81.2628 181.738-81.2628C173.414-81.2628 166.793-74.6408 166.793-66.3178C166.793-57.9938 173.414-51.3728 181.738-51.3728ZM181.738-58.7078C177.373-58.7078 174.129-61.9418 174.129-66.3178C174.129-70.6938 177.373-73.9268 181.738-73.9268C186.114-73.9268 189.347-70.6938 189.347-66.3178C189.347-61.9418 186.114-58.7078 181.738-58.7078ZM179.707-55.2608L172.03-57.1368L153.227 6.19421C152.574 8.21521 153.869 10.4422 156.003 10.9402C158.065 11.5512 160.199 10.3392 160.79 8.17421L179.707-55.2608ZM155.331 3.43921L151.733 16.9442C151.35 18.3012 152.096 19.6892 153.494 20.0722C154.903 20.4552 156.291 19.6472 156.674 18.2492L160.323 4.79621L155.331 3.43921ZM183.77-55.2608L202.635 8.17421C203.288 10.3392 205.36 11.5512 207.484 10.9402C209.556 10.4422 210.861 8.21521 210.26 6.19421L191.405-57.1368L183.77-55.2608ZM208.146 3.43921L203.153 4.79621L206.802 18.2492C207.186 19.6472 208.584 20.4552 209.982 20.0722C211.391 19.6892 212.116 18.3012 211.743 16.9442L208.146 3.43921ZM148.405-28.1678C146.644-28.1678 145.203-26.7378 145.203-25.0178C145.203-23.2448 146.644-21.8148 148.405-21.8148L215.071-21.8148C216.843-21.8148 218.273-23.2448 218.273-25.0178C218.273-26.7378 216.843-28.1678 215.071-28.1678L148.405-28.1678ZM184.94-33.4288C184.94-35.1488 183.51-36.5788 181.738-36.5788C179.976-36.5788 178.536-35.1488 178.536-33.4288L178.536-16.6058C178.536-14.8338 179.976-13.4038 181.738-13.4038C183.51-13.4038 184.94-14.8338 184.94-16.6058L184.94-33.4288Z"/>
  </g>
  <g id="Regular-L" transform="matrix(1 0 0 1 1450.72 1556)">
   <path class="SFSymbolsPreviewWireframe" d="M-61.0372-96.323L74.6118-96.323C76.7348-96.323 78.4088-98.155 78.4088-100.278C78.4088-102.401 76.7348-104.233 74.6118-104.233L-61.0372-104.233C-63.1602-104.233-64.8342-102.401-64.8342-100.278C-64.8342-98.155-63.1602-96.323-61.0372-96.323ZM-35.5802 33.907L-12.5672 33.907C-4.31215 33.907 0.32985 29.266 0.32985 20.853L0.32985-71.193C0.32985-79.578-4.31215-84.3-12.5672-84.3L-35.5802-84.3C-43.8602-84.3-48.4762-79.578-48.4762-71.193L-48.4762 20.853C-48.4762 29.266-43.8602 33.907-35.5802 33.907ZM26.2238-9.757L49.2378-9.757C57.5458-9.757 62.1338-14.399 62.1338-22.837L62.1338-26.646C62.1338-35.031 57.5458-39.753 49.2378-39.753L26.2238-39.753C17.9968-39.753 13.3278-35.031 13.3278-26.646L13.3278-22.837C13.3278-14.399 17.9968-9.757 26.2238-9.757Z"/>
  </g>
  <g id="Light-L" transform="matrix(1 0 0 1 1163.89 1556)">
   <path class="SFSymbolsPreviewWireframe" d="M-8.51515-95.445L55.6779-95.445C57.3238-95.445 58.6538-96.876 58.6538-98.522C58.6538-100.168 57.3238-101.599 55.6779-101.599L-8.51515-101.599C-10.1612-101.599-11.4912-100.168-11.4912-98.522C-11.4912-96.876-10.1612-95.445-8.51515-95.445ZM-53.6942 31.255L-29.1732 31.255C-22.1581 31.255-18.0322 27.128-18.0322 20.013L-18.0322-71.842C-18.0322-78.91-22.1581-83.117-29.1732-83.117L-53.6942-83.117C-60.6952-83.117-64.8342-78.91-64.8342-71.842L-64.8342 20.013C-64.8342 27.128-60.6952 31.255-53.6942 31.255ZM7.25185-11.132L31.7729-11.132C38.8208-11.132 42.9128-15.258 42.9128-22.36L42.9128-71.842C42.9128-78.91 38.8208-83.117 31.7729-83.117L7.25185-83.117C0.28385-83.117-3.88915-78.91-3.88915-71.842L-3.88915-22.36C-3.88915-15.258 0.28385-11.132 7.25185-11.132Z"/>
  </g>
  <g id="Thin-L" transform="matrix(1 0 0 1 861.798 1556)">
   <path class="SFSymbolsPreviewWireframe" d="M-62.9432-94.284L67.5198-94.284C68.5348-94.284 69.4108-95.185 69.4108-96.2C69.4108-97.215 68.5348-98.116 67.5198-98.116L-62.9432-98.116C-63.9582-98.116-64.8342-97.215-64.8342-96.2C-64.8342-95.185-63.9582-94.284-62.9432-94.284ZM-40.7662 27.746L-14.2512 27.746C-8.87715 27.746-5.43315 24.301-5.43315 18.902L-5.43315-72.7C-5.43315-78.027-8.87715-81.552-14.2512-81.552L-40.7662-81.552C-46.0762-81.552-49.5852-78.027-49.5852-72.7L-49.5852 18.902C-49.5852 24.301-46.0762 27.746-40.7662 27.746ZM19.0438-12.949L45.5588-12.949C50.9408-12.949 54.3768-16.394 54.3768-21.729L54.3768-72.7C54.3768-78.027 50.9408-81.552 45.5588-81.552L19.0438-81.552C13.7418-81.552 10.2248-78.027 10.2248-72.7L10.2248-21.729C10.2248-16.394 13.7418-12.949 19.0438-12.949Z"/>
  </g>
  <g id="Ultralight-L" transform="matrix(1 0 0 1 566.4 1556)">
   <path class="SFSymbolsPreviewWireframe" d="M-63.4992-93.689L65.4508-93.689C66.1428-93.689 66.7858-94.319 66.7858-95.01C66.7858-95.702 66.1428-96.332 65.4508-96.332L-63.4992-96.332C-64.1912-96.332-64.8342-95.702-64.8342-95.01C-64.8342-94.319-64.1912-93.689-63.4992-93.689ZM-42.2792 25.949L-14.7422 25.949C-10.2092 25.949-7.11415 22.853-7.11415 18.334L-7.11415-73.139C-7.11415-77.574-10.2092-80.75-14.7422-80.75L-42.2792-80.75C-46.7232-80.75-49.9082-77.574-49.9082-73.139L-49.9082 18.334C-49.9082 22.853-46.7232 25.949-42.2792 25.949ZM16.9488-13.88L44.4858-13.88C49.0148-13.88 52.1148-16.975 52.1148-21.406L52.1148-73.139C52.1148-77.574 49.0148-80.75 44.4858-80.75L16.9488-80.75C12.5008-80.75 9.31985-77.574 9.31985-73.139L9.31985-21.406C9.31985-16.975 12.5008-13.88 16.9488-13.88Z"/>
  </g>
  <g id="Black-M" transform="matrix(1 0 0 1 2940.78 1126)">
   <path class="SFSymbolsPreviewWireframe" d="M-56.6201 52.061L57.2369 52.061C61.7088 52.061 65.3938 48.359 65.3938 43.887C65.3938 39.359 61.7088 35.657 57.2369 35.657L-56.6201 35.657C-61.1481 35.657-64.8342 39.359-64.8342 43.887C-64.8342 48.359-61.1481 52.061-56.6201 52.061ZM-37.5741 30.944L-18.0341 30.944C-9.20015 30.944-3.36215 25.049-3.36215 16.084L-3.36215-62.696C-3.36215-71.661-9.20015-77.562-18.0341-77.562L-37.5741-77.562C-46.4711-77.562-52.3041-71.661-52.3041-62.696L-52.3041 16.084C-52.3041 25.049-46.4711 30.944-37.5741 30.944ZM18.9359-0.514L38.4759-0.514C47.3158-0.514 53.1489-6.409 53.1489-15.38L53.1489-62.696C53.1489-71.661 47.3158-77.562 38.4759-77.562L18.9359-77.562C10.0449-77.562 4.20685-71.661 4.20685-62.696L4.20685-15.38C4.20685-6.409 10.0449-0.514 18.9359-0.514Z"/>
  </g>
  <g id="Heavy-M" transform="matrix(1 0 0 1 2646.08 1126)">
   <path class="SFSymbolsPreviewWireframe" d="M-57.7541-84.664L54.3349-84.664C58.2038-84.664 61.3718-87.881 61.3718-91.75C61.3718-95.662 58.2038-98.879 54.3349-98.879L-57.7541-98.879C-61.6662-98.879-64.8342-95.662-64.8342-91.75C-64.8342-87.881-61.6662-84.664-57.7541-84.664ZM-19.4252 28.324C-10.9992 28.324-5.62115 22.903-5.62115 14.341L-5.62115-62.702C-5.62115-71.262-10.9992-76.702-19.4252-76.702C-27.9081-76.702-33.2721-71.262-33.2721-62.702L-33.2721 14.341C-33.2721 22.903-27.9081 28.324-19.4252 28.324ZM16.2308-3.865L35.1649-3.865C43.6069-3.865 48.9689-9.287 48.9689-17.863L48.9689-62.702C48.9689-71.262 43.6069-76.702 35.1649-76.702L16.2308-76.702C7.76385-76.702 2.38385-71.262 2.38385-62.702L2.38385-17.863C2.38385-9.287 7.76385-3.865 16.2308-3.865Z"/>
  </g>
  <g id="Bold-M" transform="matrix(1 0 0 1 2351.62 1126)">
   <path class="SFSymbolsPreviewWireframe" d="M-59.0221-84.11L51.0889-84.11C54.2829-84.11 56.8718-86.785 56.8718-89.979C56.8718-93.202 54.2829-95.877 51.0889-95.877L-59.0221-95.877C-62.2451-95.877-64.8342-93.202-64.8342-89.979C-64.8342-86.785-62.2451-84.11-59.0221-84.11ZM-39.2361-28.911L-20.9801-28.911C-13.0122-28.911-8.14915-33.803-8.14915-41.914L-8.14915-62.709C-8.14915-70.815-13.0122-75.741-20.9801-75.741L-39.2361-75.741C-47.2561-75.741-52.0961-70.815-52.0961-62.709L-52.0961-41.914C-52.0961-33.803-47.2561-28.911-39.2361-28.911ZM13.2049-7.613L31.4608-7.613C39.4579-7.613 44.2929-12.506 44.2929-20.64L44.2929-62.709C44.2929-70.815 39.4579-75.741 31.4608-75.741L13.2049-75.741C5.21385-75.741 0.34485-70.815 0.34485-62.709L0.34485-20.64C0.34485-12.506 5.21385-7.613 13.2049-7.613Z"/>
  </g>
  <g id="Semibold-M" transform="matrix(1 0 0 1 2056.46 1126)">
   <path class="SFSymbolsPreviewWireframe" d="M-59.8972-83.728L48.8509-83.728C51.5798-83.728 53.7698-86.029 53.7698-88.759C53.7698-91.506 51.5798-93.807 48.8509-93.807L-59.8972-93.807C-62.6442-93.807-64.8342-91.506-64.8342-88.759C-64.8342-86.029-62.6442-83.728-59.8972-83.728ZM-39.8412 23.375L-22.0532 23.375C-14.4002 23.375-9.89115 18.847-9.89115 11.047L-9.89115-62.714C-9.89115-70.507-14.4002-75.079-22.0532-75.079L-39.8412-75.079C-47.5422-75.079-52.0212-70.507-52.0212-62.714L-52.0212 11.047C-52.0212 18.847-47.5422 23.375-39.8412 23.375ZM11.1189-10.197L14.2858-10.197C21.9759-10.197 26.4478-14.725 26.4478-22.555L26.4478-62.714C26.4478-70.507 21.9759-75.079 14.2858-75.079L11.1189-75.079C3.45485-75.079-1.06115-70.507-1.06115-62.714L-1.06115-22.555C-1.06115-14.725 3.45485-10.197 11.1189-10.197Z"/>
  </g>
  <g id="Medium-M" transform="matrix(1 0 0 1 1760.93 1126)">
   <path class="SFSymbolsPreviewWireframe" d="M-60.5602-83.439L47.1538-83.439C49.5308-83.439 51.4178-85.456 51.4178-87.833C51.4178-90.22 49.5308-92.237 47.1538-92.237L-60.5602-92.237C-62.9472-92.237-64.8342-90.22-64.8342-87.833C-64.8342-85.456-62.9472-83.439-60.5602-83.439ZM-40.2992 21.843L-22.8662 21.843C-15.4522 21.843-11.2122 17.593-11.2122 10.028L-11.2122-62.717C-11.2122-70.274-15.4522-74.576-22.8662-74.576L-40.2992-74.576C-47.7582-74.576-51.9642-70.274-51.9642-62.717L-51.9642 10.028C-51.9642 17.593-47.7582 21.843-40.2992 21.843ZM26.9708-12.157C34.4278-12.157 38.6248-16.407 38.6248-24.007L38.6248-62.717C38.6248-70.274 34.4278-74.576 26.9708-74.576C19.5548-74.576 15.3068-70.274 15.3068-62.717L15.3068-24.007C15.3068-16.407 19.5548-12.157 26.9708-12.157Z"/>
  </g>
  <g id="Regular-M" transform="matrix(1 0 0 1 1380.79 1126)">
   <path class="SFSymbolsPreviewWireframe" d="M-52.9181 18.77C-59.9771 18.77-64.8342 13.903-64.8342 6.73996L-64.8342-77.616C-64.8342-84.79-59.9771-89.647-52.9181-89.647L-28.6912-89.647C-21.5692-89.647-16.7122-84.738-16.7122-77.565L-16.7122 6.79197C-16.7122 13.903-21.5692 18.77-28.6912 18.77L-52.9181 18.77ZM-23.8932 5.47697L-44.7432 5.47697C-45.7602 5.47697-46.4651 4.62697-46.4651 3.61997C-46.4651 2.57297-45.7081 1.80497-44.6912 1.80497L-23.8932 1.80497L-23.8932-2.39504L-36.9661-2.39504C-38.0341-2.39504-38.6771-3.14103-38.6771-4.21003C-38.6771-5.30903-37.9832-5.96303-36.9142-5.96303L-23.8932-5.96303L-23.8932-10.173L-36.9661-10.173C-38.0341-10.173-38.6771-11.034-38.6771-11.989C-38.6771-13.047-37.9832-13.793-36.9142-13.793L-23.8932-13.793L-23.8932-17.952L-36.9661-17.952C-38.0341-17.952-38.6771-18.761-38.6771-19.767C-38.6771-20.877-37.9832-21.582-36.9142-21.582L-23.8932-21.582L-23.8932-25.73L-36.9661-25.73C-38.0341-25.73-38.6771-26.591-38.6771-27.649C-38.6771-28.655-37.9832-29.413-36.9142-29.413L-23.8932-29.413L-23.8932-33.675L-44.7432-33.675C-45.7602-33.675-46.4651-34.37-46.4651-35.428C-46.4651-36.538-45.7081-37.202-44.6912-37.202L-23.8932-37.202L-23.8932-41.412L-36.9661-41.412C-38.0341-41.412-38.6771-42.262-38.6771-43.165C-38.6771-44.327-37.9832-45.094-36.9142-45.094L-23.8932-45.094L-23.8932-49.242L-36.9661-49.242C-38.0341-49.242-38.6771-50.041-38.6771-51.099C-38.6771-52.157-37.9832-52.873-36.9142-52.873L-23.8932-52.873L-23.8932-57.031L-36.9661-57.031C-38.0341-57.031-38.6771-57.819-38.6771-58.826C-38.6771-59.884-37.9832-60.652-36.9142-60.652L-23.8932-60.652L-23.8932-64.913L-36.9661-64.913C-38.0341-64.913-38.6771-65.66-38.6771-66.666C-38.6771-67.776-37.9832-68.482-36.9142-68.482L-23.8932-68.482L-23.8932-72.692L-44.7432-72.692C-45.7602-72.692-46.4651-73.553-46.4651-74.507C-46.4651-75.607-45.7081-76.364-44.6912-76.364L-23.8932-76.364L-23.8932-76.509C-23.8932-80.086-26.3141-82.466-29.9951-82.466L-51.6031-82.466C-55.2941-82.466-57.6532-80.086-57.6532-76.509L-57.6532 5.68397C-57.6532 9.26097-55.2941 11.642-51.6031 11.642L-29.9951 11.642C-26.3141 11.642-23.8932 9.20997-23.8932 5.63197L-23.8932 5.47697ZM26.1331-0.611197C28.961-0.611197 31.245 1.67285 31.245 4.50071L31.245 8.36183C31.245 11.1897 28.961 13.4737 26.1331 13.4737L22.272 13.4737C19.4441 13.4737 17.1601 11.1897 17.1601 8.36183L17.1601 4.50071C17.1601 1.67285 19.4441-0.611197 22.272-0.611197L26.1331-0.611197ZM41.2441-5.6832C44.072-5.6832 46.356-3.39915 46.356-0.571289L46.356 3.28983C46.356 6.1177 44.072 8.40174 41.2441 8.40174L37.383 8.40174C34.5551 8.40174 32.2711 6.1177 32.2711 3.28983L32.2711-0.571289C32.2711-3.39915 34.5551-5.6832 37.383-5.6832L41.2441-5.6832ZM69.8601-61.2432C72.688-61.2432 74.972-58.9592 74.972-56.1313L74.972-52.2702C74.972-49.4423 72.688-47.1583 69.8601-47.1583L65.999-47.1583C63.1711-47.1583 60.8871-49.4423 60.8871-52.2702L60.8871-56.1313C60.8871-58.9592 63.1711-61.2432 65.999-61.2432L69.8601-61.2432ZM56.3561-23.2812C59.184-23.2812 61.468-20.9972 61.468-18.1693L61.468-14.3082C61.468-11.4803 59.184-9.19626 56.3561-9.19626L52.495-9.19626C49.6671-9.19626 47.3831-11.4803 47.3831-14.3082L47.3831-18.1693C47.3831-20.9972 49.6671-23.2812 52.495-23.2812L56.3561-23.2812ZM85.0653-77.9782C87.8932-77.9782 90.1772-75.6942 90.1772-72.8663L90.1772-69.0052C90.1772-66.1773 87.8932-63.8933 85.0653-63.8933L81.2042-63.8933C78.3763-63.8933 76.0923-66.1773 76.0923-69.0052L76.0923-72.8663C76.0923-75.6942 78.3763-77.9782 81.2042-77.9782L85.0653-77.9782ZM100.959-82.2642C103.787-82.2642 106.071-79.9802 106.071-77.1523L106.071-73.2912C106.071-70.4633 103.787-68.1793 100.959-68.1793L97.0977-68.1793C94.2698-68.1793 91.9858-70.4633 91.9858-73.2912L91.9858-77.1523C91.9858-79.9802 94.2698-82.2642 97.0977-82.2642L100.959-82.2642ZM116.802-84.2312C119.63-84.2312 121.914-81.9472 121.914-79.1193L121.914-75.2582C121.914-72.4303 119.63-70.1463 116.802-70.1463L112.941-70.1463C110.113-70.1463 107.829-72.4303 107.829-75.2582L107.829-79.1193C107.829-81.9472 110.113-84.2312 112.941-84.2312L116.802-84.2312ZM15.3439 11.021C13.1932 10.8746 11.5627 9.01536 11.7127 6.86319C11.8628 4.72229 13.7134 3.09972 15.864 3.23493C15.864 3.23493 31.309 4.26031 43.4329-6.48927C46.4538-9.17103 48.8246-13.588 50.9253-18.5234C54.4264-26.749 57.0072-36.383 59.468-43.2226C62.0288-50.3439 64.8697-57.9836 68.911-64.0682C71.902-68.5416 75.5331-72.2037 80.0746-74.4572C96.8099-82.7391 122.698-81.7476 122.698-81.7476C124.849-81.6687 126.519-79.8433 126.429-77.6911C126.349-75.539 124.529-73.8713 122.378-73.9615C122.378-73.9615 98.7806-75.0094 83.5357-67.4599C79.2943-65.364 76.2434-61.4766 73.7226-56.9695C70.9016-51.9214 68.781-46.0734 66.8003-40.5747C64.2995-33.6224 61.6587-23.8306 58.1076-15.4698C55.4967-9.35131 52.3657-3.97653 48.6045-0.652495C33.9898 12.3056 15.3439 11.021 15.3439 11.021ZM6.22-60.94C6.22-59.01 4.65-57.44 2.72-57.44C0.78-57.44-0.78-59.01-0.78-60.94L-0.78-78.26C-0.78-83.4 1.26-88.34 4.9-91.97C8.54-95.61 13.47-97.65 18.61-97.65L35.93-97.65C37.86-97.65 39.43-96.09 39.43-94.15C39.43-92.22 37.86-90.65 35.93-90.65L18.61-90.65C15.33-90.65 12.17-89.35 9.85-87.02C7.52-84.7 6.22-81.55 6.22-78.26L6.22-60.94ZM-0.78-9.84C-0.78-11.77 0.78-13.34 2.72-13.34C4.65-13.34 6.22-11.77 6.22-9.84L6.22 7.48C6.22 10.77 7.52 13.92 9.85 16.24C12.17 18.57 15.33 19.87 18.61 19.87L35.93 19.87C37.86 19.87 39.43 21.44 39.43 23.37C39.43 25.31 37.86 26.87 35.93 26.87L18.61 26.87C13.47 26.87 8.54 24.83 4.9 21.19C1.26 17.56-0.78 12.62-0.78 7.48L-0.78-9.84ZM138.82-60.94C138.82-59.01 137.26-57.44 135.32-57.44C133.39-57.44 131.82-59.01 131.82-60.94L131.82-78.26C131.82-81.55 130.52-84.7 128.19-87.02C125.87-89.35 122.71-90.65 119.43-90.65L102.11-90.65C100.18-90.65 98.61-92.22 98.61-94.15C98.61-96.09 100.18-97.65 102.11-97.65L119.43-97.65C124.57-97.65 129.5-95.61 133.14-91.97C136.78-88.34 138.82-83.4 138.82-78.26L138.82-60.94ZM131.82-9.84C131.82-11.77 133.39-13.34 135.32-13.34C137.26-13.34 138.82-11.77 138.82-9.84L138.82 7.48C138.82 12.62 136.78 17.56 133.14 21.19C129.5 24.83 124.57 26.87 119.43 26.87L102.11 26.87C100.18 26.87 98.61 25.31 98.61 23.37C98.61 21.44 100.18 19.87 102.11 19.87L119.43 19.87C122.71 19.87 125.87 18.57 128.19 16.24C130.52 13.92 131.82 10.77 131.82 7.48L131.82-9.84ZM179.002-75.9768L184.433-75.9768L184.433-88.6088C184.433-90.1118 183.252-91.2938 181.738-91.2938C180.235-91.2938 179.002-90.0608 179.002-88.5578L179.002-75.9768ZM181.738-51.1228C190.072-51.1228 196.683-57.7438 196.683-66.0678C196.683-74.3908 190.072-81.0128 181.738-81.0128C173.414-81.0128 166.793-74.3908 166.793-66.0678C166.793-57.7438 173.414-51.1228 181.738-51.1228ZM181.738-58.4578C177.373-58.4578 174.129-61.6918 174.129-66.0678C174.129-70.4438 177.373-73.6768 181.738-73.6768C186.114-73.6768 189.347-70.4438 189.347-66.0678C189.347-61.6918 186.114-58.4578 181.738-58.4578ZM179.707-55.0108L172.03-56.8868L153.227 6.44421C152.574 8.46521 153.869 10.6922 156.003 11.1902C158.065 11.8012 160.199 10.5892 160.79 8.42421L179.707-55.0108ZM155.331 3.68921L151.733 17.1942C151.35 18.5512 152.096 19.9392 153.494 20.3222C154.903 20.7052 156.291 19.8972 156.674 18.4992L160.323 5.04621L155.331 3.68921ZM183.77-55.0108L202.635 8.42421C203.288 10.5892 205.36 11.8012 207.484 11.1902C209.556 10.6922 210.861 8.46521 210.26 6.44421L191.405-56.8868L183.77-55.0108ZM208.146 3.68921L203.153 5.04621L206.802 18.4992C207.186 19.8972 208.584 20.7052 209.982 20.3222C211.391 19.9392 212.116 18.5512 211.743 17.1942L208.146 3.68921ZM148.405-27.9178C146.644-27.9178 145.203-26.4878 145.203-24.7678C145.203-22.9948 146.644-21.5648 148.405-21.5648L215.071-21.5648C216.843-21.5648 218.273-22.9948 218.273-24.7678C218.273-26.4878 216.843-27.9178 215.071-27.9178L148.405-27.9178ZM184.94-33.1788C184.94-34.8988 183.51-36.3288 181.738-36.3288C179.976-36.3288 178.536-34.8988 178.536-33.1788L178.536-16.3558C178.536-14.5838 179.976-13.1538 181.738-13.1538C183.51-13.1538 184.94-14.5838 184.94-16.3558L184.94-33.1788Z"/>
  </g>
  <g id="Light-M" transform="matrix(1 0 0 1 1170.78 1126)">
   <path class="SFSymbolsPreviewWireframe" d="M-62.1612-82.274L42.2028-82.274C43.6918-82.274 44.8768-83.563 44.8768-85.052C44.8768-86.541 43.6918-87.829 42.2028-87.829L-62.1612-87.829C-63.6502-87.829-64.8342-86.541-64.8342-85.052C-64.8342-83.563-63.6502-82.274-62.1612-82.274ZM-42.8992-41.028L-24.5772-41.028C-18.5872-41.028-15.1602-44.456-15.1602-50.55L-15.1602-63.304C-15.1602-69.37-18.5872-72.86-24.5772-72.86L-42.8992-72.86C-48.8972-72.86-52.3172-69.37-52.3172-63.304L-52.3172-50.55C-52.3172-44.456-48.8972-41.028-42.8992-41.028ZM4.70285-15.944L23.0248-15.944C29.0498-15.944 32.4418-19.372 32.4418-25.473L32.4418-63.304C32.4418-69.37 29.0498-72.86 23.0248-72.86L4.70285-72.86C-1.26015-72.86-4.71515-69.37-4.71515-63.304L-4.71515-25.473C-4.71515-19.372-1.26015-15.944 4.70285-15.944Z"/>
  </g>
  <g id="Thin-M" transform="matrix(1 0 0 1 876.362 1126)">
   <path class="SFSymbolsPreviewWireframe" d="M-63.1342-81.233L38.5818-81.233C39.5058-81.233 40.2828-82.046 40.2828-82.97C40.2828-83.893 39.5058-84.706 38.5818-84.706L-63.1342-84.706C-64.0572-84.706-64.8342-83.893-64.8342-82.97C-64.8342-82.046-64.0572-81.233-63.1342-81.233ZM-45.5472 14.321L-25.4372 14.321C-20.9182 14.321-18.1022 11.505-18.1022 6.95L-18.1022-64.073C-18.1022-68.578-20.9182-71.457-25.4372-71.457L-45.5472-71.457C-50.0282-71.457-52.8832-68.578-52.8832-64.073L-52.8832 6.95C-52.8832 11.505-50.0282 14.321-45.5472 14.321ZM1.03685-17.574L21.1468-17.574C25.6778-17.574 28.4818-20.39 28.4818-24.907L28.4818-64.073C28.4818-68.578 25.6778-71.457 21.1468-71.457L1.03685-71.457C-3.43215-71.457-6.29915-68.578-6.29915-64.073L-6.29915-24.907C-6.29915-20.39-3.43215-17.574 1.03685-17.574Z"/>
  </g>
  <g id="Ultralight-M" transform="matrix(1 0 0 1 580.828 1126)">
   <path class="SFSymbolsPreviewWireframe" d="M-63.6322-80.7L36.7278-80.7C37.3608-80.7 37.9288-81.27 37.9288-81.903C37.9288-82.537 37.3608-83.106 36.7278-83.106L-63.6322-83.106C-64.2662-83.106-64.8342-82.537-64.8342-81.903C-64.8342-81.27-64.2662-80.7-63.6322-80.7ZM-46.9032 12.71L-25.8782 12.71C-22.1122 12.71-19.6082 10.207-19.6082 6.44L-19.6082-64.467C-19.6082-68.172-22.1122-70.738-25.8782-70.738L-46.9032-70.738C-50.6082-70.738-53.1732-68.172-53.1732-64.467L-53.1732 6.44C-53.1732 10.207-50.6082 12.71-46.9032 12.71ZM-0.84115-18.408L20.1848-18.408C23.9508-18.408 26.4538-20.912 26.4538-24.617L26.4538-64.467C26.4538-68.172 23.9508-70.738 20.1848-70.738L-0.84115-70.738C-4.54515-70.738-7.11015-68.172-7.11015-64.467L-7.11015-24.617C-7.11015-20.912-4.54515-18.408-0.84115-18.408Z"/>
  </g>
  <g id="Black-S" transform="matrix(1 0 0 1 2954.36 696)">
   <path class="SFSymbolsPreviewWireframe" d="M-58.0962-74.463L31.5518-74.463C35.2138-74.463 38.2418-77.49 38.2418-81.152C38.2418-84.863 35.2138-87.891 31.5518-87.891L-58.0962-87.891C-61.8072-87.891-64.8342-84.863-64.8342-81.152C-64.8342-77.49-61.8072-74.463-58.0962-74.463ZM-43.3502 17.285L-27.7742 17.285C-20.7912 17.285-16.1042 12.549-16.1042 5.469L-16.1042-56.787C-16.1042-63.867-20.7912-68.604-27.7742-68.604L-43.3502-68.604C-50.3812-68.604-55.0692-63.867-55.0692-56.787L-55.0692 5.469C-55.0692 12.549-50.3812 17.285-43.3502 17.285ZM1.47385-7.08L17.0498-7.08C24.0328-7.08 28.7198-11.816 28.7198-18.897L28.7198-56.787C28.7198-63.867 24.0328-68.604 17.0498-68.604L1.47385-68.604C-5.55715-68.604-10.2441-63.867-10.2441-56.787L-10.2441-18.897C-10.2441-11.816-5.55715-7.08 1.47385-7.08Z"/>
  </g>
  <g id="Heavy-S" transform="matrix(1 0 0 1 2659.15 696)">
   <path class="SFSymbolsPreviewWireframe" d="M-58.9722-74.14L29.4198-74.14C32.6208-74.14 35.2448-76.799 35.2448-80C35.2448-83.238 32.6208-85.897 29.4198-85.897L-58.9722-85.897C-62.2102-85.897-64.8342-83.238-64.8342-80C-64.8342-76.799-62.2102-74.14-58.9722-74.14ZM-43.7652 15.349L-28.8802 15.349C-22.1052 15.349-17.7522 10.959-17.7522 4.074L-17.7522-56.718C-17.7522-63.602-22.1052-68.004-28.8802-68.004L-43.7652-68.004C-50.5892-68.004-54.9302-63.602-54.9302-56.718L-54.9302 4.074C-54.9302 10.959-50.5892 15.349-43.7652 15.349ZM-0.48515-9.788L14.3998-9.788C21.1858-9.788 25.5278-14.179 25.5278-21.075L25.5278-56.718C25.5278-63.602 21.1858-68.004 14.3998-68.004L-0.48515-68.004C-7.29715-68.004-11.6502-63.602-11.6502-56.718L-11.6502-21.075C-11.6502-14.179-7.29715-9.788-0.48515-9.788Z"/>
  </g>
  <g id="Bold-S" transform="matrix(1 0 0 1 2364.11 696)">
   <path class="SFSymbolsPreviewWireframe" d="M-59.9522-73.779L27.0358-73.779C29.7208-73.779 31.8938-76.025 31.8938-78.711C31.8938-81.421 29.7208-83.667 27.0358-83.667L-59.9522-83.667C-62.6612-83.667-64.8342-81.421-64.8342-78.711C-64.8342-76.025-62.6612-73.779-59.9522-73.779ZM-44.2292 13.184L-30.1182 13.184C-23.5752 13.184-19.5952 9.18-19.5952 2.515L-19.5952-56.641C-19.5952-63.306-23.5752-67.334-30.1182-67.334L-44.2292-67.334C-50.8212-67.334-54.7762-63.306-54.7762-56.641L-54.7762 2.515C-54.7762 9.18-50.8212 13.184-44.2292 13.184ZM-2.67615-12.817L11.4348-12.817C18.0028-12.817 21.9578-16.821 21.9578-23.511L21.9578-56.641C21.9578-63.306 18.0028-67.334 11.4348-67.334L-2.67615-67.334C-9.24415-67.334-13.2232-63.306-13.2232-56.641L-13.2232-23.511C-13.2232-16.821-9.24415-12.817-2.67615-12.817Z"/>
  </g>
  <g id="Semibold-S" transform="matrix(1 0 0 1 2068.56 696)">
   <path class="SFSymbolsPreviewWireframe" d="M-60.6272-73.531L25.3918-73.531C27.7218-73.531 29.5838-75.492 29.5838-77.822C29.5838-80.168 27.7218-82.13 25.3918-82.13L-60.6272-82.13C-62.9732-82.13-64.8342-80.168-64.8342-77.822C-64.8342-75.492-62.9732-73.531-60.6272-73.531ZM-44.5492 11.691L-30.9712 11.691C-24.5882 11.691-20.8662 7.953-20.8662 1.439L-20.8662-56.587C-20.8662-63.101-24.5882-66.872-30.9712-66.872L-44.5492-66.872C-50.9812-66.872-54.6692-63.101-54.6692-56.587L-54.6692 1.439C-54.6692 7.953-50.9812 11.691-44.5492 11.691ZM-4.18715-14.906L9.39085-14.906C15.8078-14.906 19.4958-18.643 19.4958-25.19L19.4958-56.587C19.4958-63.101 15.8078-66.872 9.39085-66.872L-4.18715-66.872C-10.5852-66.872-14.3072-63.101-14.3072-56.587L-14.3072-25.19C-14.3072-18.643-10.5852-14.906-4.18715-14.906Z"/>
  </g>
  <g id="Medium-S" transform="matrix(1 0 0 1 1772.72 696)">
   <path class="SFSymbolsPreviewWireframe" d="M-61.1392-73.342L24.1448-73.342C26.2058-73.342 27.8318-75.088 27.8318-77.148C27.8318-79.218 26.2058-80.964 24.1448-80.964L-61.1392-80.964C-63.2082-80.964-64.8342-79.218-64.8342-77.148C-64.8342-75.088-63.2082-73.342-61.1392-73.342ZM-44.7912 10.559L-31.6182 10.559C-25.3562 10.559-21.8292 7.023-21.8292 0.624L-21.8292-56.547C-21.8292-62.946-25.3562-66.522-31.6182-66.522L-44.7912-66.522C-51.1022-66.522-54.5882-62.946-54.5882-56.547L-54.5882 0.624C-54.5882 7.023-51.1022 10.559-44.7912 10.559ZM-5.33215-16.489L7.84085-16.489C14.1428-16.489 17.6298-20.024 17.6298-26.464L17.6298-56.547C17.6298-62.946 14.1428-66.522 7.84085-66.522L-5.33215-66.522C-11.6032-66.522-15.1292-62.946-15.1292-56.547L-15.1292-26.464C-15.1292-20.024-11.6032-16.489-5.33215-16.489Z"/>
  </g>
  <g id="Regular-S" transform="matrix(1 0 0 1 1477.15 696)">
   <path class="SFSymbolsPreviewWireframe" d="M-61.8072-73.096L22.5188-73.096C24.2278-73.096 25.5458-74.561 25.5458-76.269C25.5458-77.979 24.2278-79.443 22.5188-79.443L-61.8072-79.443C-63.5162-79.443-64.8342-77.979-64.8342-76.269C-64.8342-74.561-63.5162-73.096-61.8072-73.096ZM-45.1082 9.082L-32.4612 9.082C-26.3582 9.082-23.0862 5.811-23.0862-0.439L-23.0862-56.494C-23.0862-62.744-26.3582-66.065-32.4612-66.065L-45.1082-66.065C-51.2602-66.065-54.4832-62.744-54.4832-56.494L-54.4832-0.439C-54.4832 5.811-51.2602 9.082-45.1082 9.082ZM-6.82715-18.555L5.81985-18.555C11.9718-18.555 15.1948-21.826 15.1948-28.125L15.1948-56.494C15.1948-62.744 11.9718-66.065 5.81985-66.065L-6.82715-66.065C-12.9302-66.065-16.2022-62.744-16.2022-56.494L-16.2022-28.125C-16.2022-21.826-12.9302-18.555-6.82715-18.555Z"/>
  </g>
  <g id="Light-S" transform="matrix(1 0 0 1 1181.98 696)">
   <path class="SFSymbolsPreviewWireframe" d="M-62.4582-72.399L20.0968-72.399C21.4278-72.399 22.4738-73.546 22.4738-74.877C22.4738-76.208 21.4278-77.355 20.0968-77.355L-62.4582-77.355C-63.7882-77.355-64.8342-76.208-64.8342-74.877C-64.8342-73.546-63.7882-72.399-62.4582-72.399ZM-46.8792 6.978L-33.0362 6.978C-27.9172 6.978-25.0542 4.115-25.0542-1.105L-25.0542-57.009C-25.0542-62.214-27.9172-65.126-33.0362-65.126L-46.8792-65.126C-52.0172-65.126-54.8612-62.214-54.8612-57.009L-54.8612-1.105C-54.8612 4.115-52.0172 6.978-46.8792 6.978ZM-9.27915-19.645L4.56385-19.645C9.71685-19.645 12.5458-22.507 12.5458-27.747L12.5458-57.009C12.5458-62.214 9.71685-65.126 4.56385-65.126L-9.27915-65.126C-14.3832-65.126-17.2612-62.214-17.2612-57.009L-17.2612-27.747C-17.2612-22.507-14.3832-19.645-9.27915-19.645Z"/>
  </g>
  <g id="Thin-S" transform="matrix(1 0 0 1 887.299 696)">
   <path class="SFSymbolsPreviewWireframe" d="M-63.3192-71.479L16.8938-71.479C17.7238-71.479 18.4098-72.205 18.4098-73.035C18.4098-73.865 17.7238-74.592 16.8938-74.592L-63.3192-74.592C-64.1492-74.592-64.8342-73.865-64.8342-73.035C-64.8342-72.205-64.1492-71.479-63.3192-71.479ZM-49.2212 4.195L-33.7972 4.195C-29.9792 4.195-27.6572 1.873-27.6572-1.986L-27.6572-57.689C-27.6572-61.514-29.9792-63.885-33.7972-63.885L-49.2212-63.885C-53.0182-63.885-55.3622-61.514-55.3622-57.689L-55.3622-1.986C-55.3622 1.873-53.0182 4.195-49.2212 4.195ZM-12.5222-21.086L2.90185-21.086C6.73385-21.086 9.04285-23.408 9.04285-27.246L9.04285-57.689C9.04285-61.514 6.73385-63.885 2.90185-63.885L-12.5222-63.885C-16.3052-63.885-18.6622-61.514-18.6622-57.689L-18.6622-27.246C-18.6622-23.408-16.3052-21.086-12.5222-21.086Z"/>
  </g>
  <g id="Ultralight-S" transform="matrix(1 0 0 1 591.629 696)">
   <path class="SFSymbolsPreviewWireframe" d="M-63.7602-71.007L15.2538-71.007C15.8268-71.007 16.3278-71.518 16.3278-72.092C16.3278-72.666 15.8268-73.177 15.2538-73.177L-63.7602-73.177C-64.3332-73.177-64.8342-72.666-64.8342-72.092C-64.8342-71.518-64.3332-71.007-63.7602-71.007ZM-50.4212 2.77L-34.1872 2.77C-31.0352 2.77-28.9902 0.725-28.9902-2.437L-28.9902-58.038C-28.9902-61.155-31.0352-63.249-34.1872-63.249L-50.4212-63.249C-53.5312-63.249-55.6182-61.155-55.6182-58.038L-55.6182-2.437C-55.6182 0.725-53.5312 2.77-50.4212 2.77ZM-14.1832-21.824L2.05085-21.824C5.20585-21.824 7.24785-23.87 7.24785-26.99L7.24785-58.038C7.24785-61.155 5.20585-63.249 2.05085-63.249L-14.1832-63.249C-17.2892-63.249-19.3802-61.155-19.3802-58.038L-19.3802-26.99C-19.3802-23.87-17.2892-21.824-14.1832-21.824Z"/>
  </g>
 </g>
</svg>
