<?xml version="1.0" encoding="UTF-8"?>
<!--Generator: Apple Native CoreSVG 341-->
<!DOCTYPE svg
PUBLIC "-//W3C//DTD SVG 1.1//EN"
       "http://www.w3.org/Graphics/SVG/1.1/DTD/svg11.dtd">
<svg version="1.1" xmlns="http://www.w3.org/2000/svg" xmlns:xlink="http://www.w3.org/1999/xlink" viewBox="0 0 3300 2200">
 <!--glyph: "", point size: 100.0, font version: "21.1d1e1", template writer version: "138.0.0"-->
 <style>.defaults {-sfsymbols-variable-value-mode:color;-sfsymbols-draw-reverses-motion-groups:false}

.SFSymbolsPreviewWireframe {fill:none;opacity:1.0;stroke:black;stroke-width:0.5}
</style>
 <g id="Notes">
  <rect height="2200" id="artboard" style="fill:white;opacity:1" width="3300" x="0" y="0"/>
  <line style="fill:none;stroke:black;opacity:1;stroke-width:0.5;" x1="263" x2="3036" y1="292" y2="292"/>
  <text style="stroke:none;fill:black;font-family:sans-serif;font-size:13;font-weight:bold;" transform="matrix(1 0 0 1 263 322)">Weight/Scale Variations</text>
  <text style="stroke:none;fill:black;font-family:sans-serif;font-size:13;text-anchor:middle;" transform="matrix(1 0 0 1 559.711 322)">Ultralight</text>
  <text style="stroke:none;fill:black;font-family:sans-serif;font-size:13;text-anchor:middle;" transform="matrix(1 0 0 1 856.422 322)">Thin</text>
  <text style="stroke:none;fill:black;font-family:sans-serif;font-size:13;text-anchor:middle;" transform="matrix(1 0 0 1 1153.13 322)">Light</text>
  <text style="stroke:none;fill:black;font-family:sans-serif;font-size:13;text-anchor:middle;" transform="matrix(1 0 0 1 1449.84 322)">Regular</text>
  <text style="stroke:none;fill:black;font-family:sans-serif;font-size:13;text-anchor:middle;" transform="matrix(1 0 0 1 1746.56 322)">Medium</text>
  <text style="stroke:none;fill:black;font-family:sans-serif;font-size:13;text-anchor:middle;" transform="matrix(1 0 0 1 2043.27 322)">Semibold</text>
  <text style="stroke:none;fill:black;font-family:sans-serif;font-size:13;text-anchor:middle;" transform="matrix(1 0 0 1 2339.98 322)">Bold</text>
  <text style="stroke:none;fill:black;font-family:sans-serif;font-size:13;text-anchor:middle;" transform="matrix(1 0 0 1 2636.69 322)">Heavy</text>
  <text style="stroke:none;fill:black;font-family:sans-serif;font-size:13;text-anchor:middle;" transform="matrix(1 0 0 1 2933.4 322)">Black</text>
  <line style="fill:none;stroke:black;opacity:1;stroke-width:0.5;" x1="263" x2="3036" y1="1903" y2="1903"/>
  <g transform="matrix(0.2 0 0 0.2 263 1933)">
   <path d="m46.2402 4.15039c21.7773 0 39.4531-17.627 39.4531-39.4043s-17.6758-39.4043-39.4531-39.4043c-21.7285 0-39.4043 17.627-39.4043 39.4043s17.6758 39.4043 39.4043 39.4043Zm0-7.42188c-17.6758 0-31.9336-14.3066-31.9336-31.9824s14.2578-31.9824 31.9336-31.9824 31.9824 14.3066 31.9824 31.9824-14.3066 31.9824-31.9824 31.9824Zm3.61328-17.7734v-28.4668c0-2.24609-1.46484-3.75977-3.71094-3.75977-2.14844 0-3.61328 1.51367-3.61328 3.75977v28.4668c0 2.19727 1.46484 3.71094 3.61328 3.71094 2.24609 0 3.71094-1.51367 3.71094-3.71094Zm-17.8223-10.5957h28.418c2.19727 0 3.71094-1.46484 3.71094-3.61328 0-2.19727-1.51367-3.71094-3.71094-3.71094h-28.418c-2.24609 0-3.75977 1.51367-3.75977 3.71094 0 2.14844 1.51367 3.61328 3.75977 3.61328Z"/>
  </g>
  <g transform="matrix(0.2 0 0 0.2 281.506 1933)">
   <path d="m58.5449 14.5508c27.4902 0 49.8047-22.3145 49.8047-49.8047s-22.3145-49.8047-49.8047-49.8047-49.8047 22.3145-49.8047 49.8047 22.3145 49.8047 49.8047 49.8047Zm0-8.30078c-22.9492 0-41.5039-18.5547-41.5039-41.5039s18.5547-41.5039 41.5039-41.5039 41.5039 18.5547 41.5039 41.5039-18.5547 41.5039-41.5039 41.5039Zm4.05273-23.0957v-36.9141c0-2.49023-1.70898-4.19922-4.15039-4.19922-2.39258 0-4.05273 1.70898-4.05273 4.19922v36.9141c0 2.44141 1.66016 4.15039 4.05273 4.15039 2.44141 0 4.15039-1.66016 4.15039-4.15039Zm-22.5586-14.4043h36.9629c2.44141 0 4.15039-1.61133 4.15039-4.00391 0-2.44141-1.70898-4.15039-4.15039-4.15039h-36.9629c-2.49023 0-4.15039 1.70898-4.15039 4.15039 0 2.39258 1.66016 4.00391 4.15039 4.00391Z"/>
  </g>
  <g transform="matrix(0.2 0 0 0.2 304.924 1933)">
   <path d="m74.8535 28.3203c35.1074 0 63.623-28.4668 63.623-63.5742s-28.5156-63.623-63.623-63.623-63.5742 28.5156-63.5742 63.623 28.4668 63.5742 63.5742 63.5742Zm0-9.08203c-30.127 0-54.4922-24.3652-54.4922-54.4922s24.3652-54.4922 54.4922-54.4922 54.4922 24.3652 54.4922 54.4922-24.3652 54.4922-54.4922 54.4922Zm4.44336-30.3223v-48.4863c0-2.73438-1.85547-4.63867-4.54102-4.63867-2.58789 0-4.44336 1.9043-4.44336 4.63867v48.4863c0 2.68555 1.85547 4.58984 4.44336 4.58984 2.68555 0 4.54102-1.85547 4.54102-4.58984Zm-28.7109-19.7754h48.4863c2.68555 0 4.58984-1.80664 4.58984-4.39453 0-2.73438-1.85547-4.58984-4.58984-4.58984h-48.4863c-2.73438 0-4.58984 1.85547-4.58984 4.58984 0 2.58789 1.85547 4.39453 4.58984 4.39453Z"/>
  </g>
  <text style="stroke:none;fill:black;font-family:sans-serif;font-size:13;font-weight:bold;" transform="matrix(1 0 0 1 263 1953)">Design Variations</text>
  <text style="stroke:none;fill:black;font-family:sans-serif;font-size:13;" transform="matrix(1 0 0 1 263 1971)">Symbols are supported in up to nine weights and three scales.</text>
  <text style="stroke:none;fill:black;font-family:sans-serif;font-size:13;" transform="matrix(1 0 0 1 263 1989)">For optimal layout with text and other symbols, vertically align</text>
  <text style="stroke:none;fill:black;font-family:sans-serif;font-size:13;" transform="matrix(1 0 0 1 263 2007)">symbols with the adjacent text.</text>
  <line style="fill:none;stroke:#00AEEF;stroke-width:0.5;opacity:1.0;" x1="776" x2="776" y1="1919" y2="1933"/>
  <g transform="matrix(0.2 0 0 0.2 776 1933)">
   <path d="m16.5527 0.78125c2.58789 0 3.85742-0.976562 4.78516-3.71094l20.5566-57.5195h0.244141l20.6055 57.5195c0.927734 2.73438 2.19727 3.71094 4.73633 3.71094 2.58789 0 4.24805-1.5625 4.24805-4.00391 0-0.830078-0.146484-1.61133-0.537109-2.63672l-22.9004-60.9863c-1.12305-2.97852-3.125-4.49219-6.25-4.49219-3.02734 0-5.07812 1.46484-6.15234 4.44336l-22.9004 61.084c-0.390625 1.02539-0.537109 1.80664-0.537109 2.63672 0 2.44141 1.5625 3.95508 4.10156 3.95508Zm10.2051-20.9473h30.6641c2.00195 0 3.66211-1.66016 3.66211-3.66211 0-2.05078-1.66016-3.66211-3.66211-3.66211h-30.6641c-2.00195 0-3.66211 1.61133-3.66211 3.66211 0 2.00195 1.66016 3.66211 3.66211 3.66211Z"/>
  </g>
  <line style="fill:none;stroke:#00AEEF;stroke-width:0.5;opacity:1.0;" x1="792.836" x2="792.836" y1="1919" y2="1933"/>
  <text style="stroke:none;fill:black;font-family:sans-serif;font-size:13;font-weight:bold;" transform="matrix(1 0 0 1 776 1953)">Margins</text>
  <text style="stroke:none;fill:black;font-family:sans-serif;font-size:13;" transform="matrix(1 0 0 1 776 1971)">Leading and trailing margins on the left and right side of each symbol</text>
  <text style="stroke:none;fill:black;font-family:sans-serif;font-size:13;" transform="matrix(1 0 0 1 776 1989)">can be adjusted by modifying the x-location of the margin guidelines.</text>
  <text style="stroke:none;fill:black;font-family:sans-serif;font-size:13;" transform="matrix(1 0 0 1 776 2007)">Modifications are automatically applied proportionally to all</text>
  <text style="stroke:none;fill:black;font-family:sans-serif;font-size:13;" transform="matrix(1 0 0 1 776 2025)">scales and weights.</text>
  <g transform="matrix(0.2 0 0 0.2 1289 1933)">
   <path d="m14.209 13.1348 7.86133 7.86133c4.29688 4.39453 9.32617 4.10156 13.8672-1.02539l60.6934-68.2129-4.88281-4.88281-60.2539 67.6758c-1.80664 1.95312-3.4668 2.44141-5.81055 0.0976562l-5.17578-5.12695c-2.29492-2.29492-1.80664-3.95508 0.195312-5.81055l67.4805-62.1582-4.88281-4.83398-68.0664 62.5977c-4.98047 4.58984-5.32227 9.47266-1.02539 13.8184Zm44.873-97.4609c-2.05078 2.00195-2.24609 4.88281-1.07422 6.78711 1.12305 1.80664 3.4668 3.02734 6.5918 2.24609 5.85938-1.66016 12.5977-2.39258 18.8965 0.927734l-2.68555 7.12891c-1.61133 4.00391-0.732422 6.88477 1.70898 9.42383l10.2539 10.3027c2.34375 2.39258 4.54102 2.44141 7.08008 1.95312l4.44336-0.732422 2.58789 2.53906-0.195312 2.24609c-0.0976562 2.29492 0.537109 4.29688 2.7832 6.49414l3.36914 3.32031c2.29492 2.29492 5.51758 2.49023 7.8125 0.195312l12.9883-13.0371c2.29492-2.34375 2.14844-5.37109-0.195312-7.66602l-3.41797-3.41797c-2.19727-2.19727-4.05273-3.02734-6.34766-2.88086l-2.34375 0.244141-2.44141-2.44141 1.02539-4.6875c0.634766-2.73438-0.244141-4.98047-2.88086-7.61719l-11.2793-11.1816c-12.9395-12.8418-35.5957-11.0352-46.6797-0.146484Zm7.08008 2.05078c8.78906-6.39648 25.9766-5.66406 33.6914 1.95312l12.3047 12.207c1.02539 1.02539 1.2207 1.80664 0.927734 3.32031l-1.46484 6.64062 6.73828 6.68945 4.39453-0.244141c1.12305-0.0488281 1.51367 0.0488281 2.34375 0.878906l2.53906 2.49023-10.8398 10.8398-2.49023-2.49023c-0.830078-0.878906-0.976562-1.2207-0.927734-2.39258l0.292969-4.3457-6.68945-6.73828-6.83594 1.17188c-1.41602 0.292969-2.05078 0.195312-3.17383-0.878906l-8.93555-8.88672c-1.07422-1.02539-1.17188-1.70898-0.488281-3.36914l4.58984-11.4746c-6.10352-6.34766-17.041-7.51953-25.5859-4.58984-0.683594 0.244141-0.927734-0.390625-0.390625-0.78125Z"/>
  </g>
  <text style="stroke:none;fill:black;font-family:sans-serif;font-size:13;font-weight:bold;" transform="matrix(1 0 0 1 1289 1953)">Exporting</text>
  <text style="stroke:none;fill:black;font-family:sans-serif;font-size:13;" transform="matrix(1 0 0 1 1289 1971)">Symbols should be outlined when exporting to ensure the</text>
  <text style="stroke:none;fill:black;font-family:sans-serif;font-size:13;" transform="matrix(1 0 0 1 1289 1989)">design is preserved when submitting to Xcode.</text>
  <text id="template-version" style="stroke:none;fill:black;font-family:sans-serif;font-size:13;text-anchor:end;" transform="matrix(1 0 0 1 3036 1933)">Template v.6.0</text>
  <text style="stroke:none;fill:black;font-family:sans-serif;font-size:13;text-anchor:end;" transform="matrix(1 0 0 1 3036 1951)">Requires Xcode 16 or greater</text>
  <text id="descriptive-name" style="stroke:none;fill:black;font-family:sans-serif;font-size:13;text-anchor:end;" transform="matrix(1 0 0 1 3036 1969)">Generated from chevron.up.chevron.down.wide.bars</text>
  <text style="stroke:none;fill:black;font-family:sans-serif;font-size:13;text-anchor:end;" transform="matrix(1 0 0 1 3036 1987)">Typeset at 100.0 points</text>
  <text style="stroke:none;fill:black;font-family:sans-serif;font-size:13;" transform="matrix(1 0 0 1 263 726)">Small</text>
  <text style="stroke:none;fill:black;font-family:sans-serif;font-size:13;" transform="matrix(1 0 0 1 263 1156)">Medium</text>
  <text style="stroke:none;fill:black;font-family:sans-serif;font-size:13;" transform="matrix(1 0 0 1 263 1586)">Large</text>
 </g>
 <g id="Guides">
  <g id="H-reference" style="fill:#27AAE1;stroke:none;" transform="matrix(1 0 0 1 339 696)">
   <path d="M0.993654 0L3.63775 0L29.3281-67.1323L30.0303-67.1323L30.0303-70.459L28.1226-70.459ZM11.6885-24.4799L46.9815-24.4799L46.2315-26.7285L12.4385-26.7285ZM55.1196 0L57.7637 0L30.6382-70.459L29.4326-70.459L29.4326-67.1323Z"/>
  </g>
  <line id="Baseline-S" style="fill:none;stroke:#27AAE1;opacity:1;stroke-width:0.5;" x1="263" x2="3036" y1="696" y2="696"/>
  <line id="Capline-S" style="fill:none;stroke:#27AAE1;opacity:1;stroke-width:0.5;" x1="263" x2="3036" y1="625.541" y2="625.541"/>
  <g id="H-reference" style="fill:#27AAE1;stroke:none;" transform="matrix(1 0 0 1 339 1126)">
   <path d="M0.993654 0L3.63775 0L29.3281-67.1323L30.0303-67.1323L30.0303-70.459L28.1226-70.459ZM11.6885-24.4799L46.9815-24.4799L46.2315-26.7285L12.4385-26.7285ZM55.1196 0L57.7637 0L30.6382-70.459L29.4326-70.459L29.4326-67.1323Z"/>
  </g>
  <line id="Baseline-M" style="fill:none;stroke:#27AAE1;opacity:1;stroke-width:0.5;" x1="263" x2="3036" y1="1126" y2="1126"/>
  <line id="Capline-M" style="fill:none;stroke:#27AAE1;opacity:1;stroke-width:0.5;" x1="263" x2="3036" y1="1055.54" y2="1055.54"/>
  <g id="H-reference" style="fill:#27AAE1;stroke:none;" transform="matrix(1 0 0 1 339 1556)">
   <path d="M0.993654 0L3.63775 0L29.3281-67.1323L30.0303-67.1323L30.0303-70.459L28.1226-70.459ZM11.6885-24.4799L46.9815-24.4799L46.2315-26.7285L12.4385-26.7285ZM55.1196 0L57.7637 0L30.6382-70.459L29.4326-70.459L29.4326-67.1323Z"/>
  </g>
  <line id="Baseline-L" style="fill:none;stroke:#27AAE1;opacity:1;stroke-width:0.5;" x1="263" x2="3036" y1="1556" y2="1556"/>
  <line id="Capline-L" style="fill:none;stroke:#27AAE1;opacity:1;stroke-width:0.5;" x1="263" x2="3036" y1="1485.54" y2="1485.54"/>
  <line id="right-margin-Regular-M" style="fill:none;stroke:#00AEEF;stroke-width:0.5;opacity:1.0;" x1="1520.79" x2="1520.79" y1="1030.79" y2="1150.12"/>
  <line id="left-margin-Regular-M" style="fill:none;stroke:#00AEEF;stroke-width:0.5;opacity:1.0;" x1="1378.9" x2="1378.9" y1="1030.79" y2="1150.12"/>
 </g>
 <g id="Symbols">
  <g id="Black-L" transform="matrix(1 0 0 1 2845.28 1556)">
   <path class="SFSymbolsPreviewWireframe" d="M32.085-91.018C29.645-88.576 28.518-85.703 28.518-82.297C28.518-75.291 34.243-69.528 41.132-69.528C44.653-69.528 47.88-71.002 50.553-73.714L90.381-114.829L86.121-114.829L125.75-73.714C128.425-70.944 131.672-69.528 135.114-69.528C142.003-69.528 147.728-75.291 147.728-82.297C147.728-85.762 146.603-88.575 144.183-91.017L98.81-137.348C95.51-140.726 92.242-142.148 88.152-142.206C84.12-142.206 80.836-140.786 77.495-137.349L32.085-91.018ZM32.085 20.517L77.495 66.848C80.894 70.247 84.12 71.725 88.152 71.725C92.242 71.667 95.452 70.188 98.81 66.847L144.183 20.515C146.603 18.095 147.728 15.28 147.728 11.817C147.728 4.81 142.003-0.973 135.114-0.973C131.672-0.973 128.425 0.463 125.75 3.212L86.121 44.348L90.381 44.348L50.553 3.212C47.88 0.521 44.653-0.973 41.132-0.973C34.243-0.973 28.518 4.81 28.518 11.817C28.518 15.222 29.703 18.037 32.085 20.517Z"/>
  </g>
  <g id="Heavy-L" transform="matrix(1 0 0 1 2549.86 1556)">
   <path class="SFSymbolsPreviewWireframe" d="M31.638-88.041C29.526-85.923 28.518-83.429 28.518-80.47C28.518-74.399 33.448-69.454 39.43-69.454C42.467-69.454 45.246-70.713 47.531-73.018L89.319-116.124L84.558-116.124L126.171-73.018C128.461-70.669 131.271-69.454 134.233-69.454C140.214-69.454 145.145-74.399 145.145-80.47C145.145-83.473 144.142-85.918 142.06-88.035L95.939-135.236C93.172-138.079 90.332-139.321 86.851-139.366C83.414-139.366 80.596-138.129 77.768-135.242L31.638-88.041ZM31.638 17.51L77.768 64.711C80.641 67.584 83.414 68.866 86.851 68.866C90.332 68.821 93.127 67.534 95.939 64.706L142.06 17.504C144.142 15.417 145.145 12.967 145.145 9.969C145.145 3.898 140.214-1.077 134.233-1.077C131.271-1.077 128.461 0.168 126.171 2.487L84.558 45.623L89.319 45.623L47.531 2.487C45.246 0.213 42.467-1.077 39.43-1.077C33.448-1.077 28.518 3.898 28.518 9.969C28.518 12.923 29.571 15.378 31.638 17.51Z"/>
  </g>
  <g id="Bold-L" transform="matrix(1 0 0 1 2254.86 1556)">
   <path class="SFSymbolsPreviewWireframe" d="M31.092-84.449C29.38-82.724 28.518-80.698 28.518-78.285C28.518-73.359 32.487-69.399 37.354-69.399C39.799-69.399 42.04-70.397 43.856-72.217L87.789-117.67L82.614-117.67L126.395-72.217C128.224-70.367 130.503-69.399 132.881-69.399C137.748-69.399 141.717-73.359 141.717-78.285C141.717-80.727 140.868-82.711 139.194-84.436L92.36-132.653C90.208-134.872 87.891-135.907 85.126-135.936C82.389-135.936 80.133-134.915 77.905-132.666L31.092-84.449ZM31.092 13.881L77.905 62.098C80.162 64.355 82.389 65.405 85.126 65.405C87.891 65.376 90.179 64.312 92.36 62.085L139.194 13.867C140.868 12.18 141.717 10.183 141.717 7.754C141.717 2.828 137.748-1.17 132.881-1.17C130.503-1.17 128.224-0.163 126.395 1.648L82.614 47.139L87.789 47.139L43.856 1.648C42.04-0.134 39.799-1.17 37.354-1.17C32.487-1.17 28.518 2.828 28.518 7.754C28.518 10.154 29.409 12.164 31.092 13.881Z"/>
  </g>
  <g id="Semibold-L" transform="matrix(1 0 0 1 1959.33 1556)">
   <path class="SFSymbolsPreviewWireframe" d="M30.715-81.968C29.279-80.513 28.518-78.81 28.518-76.773C28.518-72.637 31.824-69.356 35.923-69.356C37.96-69.356 39.83-70.173 41.322-71.659L86.734-118.73L81.274-118.73L126.55-71.659C128.06-70.154 129.973-69.356 131.949-69.356C136.047-69.356 139.354-72.637 139.354-76.773C139.354-78.829 138.611-80.494 137.218-81.949L89.891-130.867C88.164-132.656 86.208-133.547 83.936-133.566C81.682-133.566 79.813-132.693 77.999-130.886L30.715-81.968ZM30.715 11.384L77.999 60.302C79.831 62.134 81.682 63.025 83.936 63.025C86.208 63.007 88.146 62.097 89.891 60.283L137.218 11.365C138.611 9.954 139.354 8.269 139.354 6.232C139.354 2.096 136.047-1.228 131.949-1.228C129.973-1.228 128.06-0.386 126.55 1.075L81.274 48.189L86.734 48.189L41.322 1.075C39.83-0.368 37.96-1.228 35.923-1.228C31.824-1.228 28.518 2.096 28.518 6.232C28.518 8.251 29.298 9.954 30.715 11.384Z"/>
  </g>
  <g id="Medium-L" transform="matrix(1 0 0 1 1663.52 1556)">
   <path class="SFSymbolsPreviewWireframe" d="M30.43-80.083C29.203-78.833 28.518-77.375 28.518-75.624C28.518-72.087 31.321-69.32 34.838-69.32C36.565-69.32 38.154-70 39.401-71.233L85.934-119.531L80.258-119.531L126.667-71.233C127.936-69.99 129.572-69.32 131.242-69.32C134.758-69.32 137.562-72.087 137.562-75.624C137.562-77.386 136.899-78.811 135.719-80.061L88.02-129.51C86.615-130.973 84.931-131.756 83.034-131.766C81.147-131.766 79.57-131.006 78.07-129.532L30.43-80.083ZM30.43 9.494L78.07 58.943C79.581 60.453 81.147 61.224 83.034 61.224C84.931 61.213 86.604 60.42 88.02 58.92L135.719 9.471C136.899 8.269 137.562 6.821 137.562 5.082C137.562 1.544 134.758-1.27 131.242-1.27C129.572-1.27 127.936-0.552 126.667 0.643L80.258 48.989L85.934 48.989L39.401 0.643C38.154-0.542 36.565-1.27 34.838-1.27C31.321-1.27 28.518 1.544 28.518 5.082C28.518 6.811 29.213 8.281 30.43 9.494Z"/>
  </g>
  <g id="Regular-L" transform="matrix(1 0 0 1 1367.97 1556)">
   <path class="SFSymbolsPreviewWireframe" d="M30.058-77.633C29.103-76.651 28.518-75.512 28.518-74.133C28.518-71.376 30.666-69.281 33.423-69.281C34.747-69.281 35.968-69.783 36.895-70.685L84.891-120.584L78.933-120.584L126.82-70.685C127.775-69.783 129.049-69.281 130.32-69.281C133.077-69.281 135.225-71.376 135.225-74.133C135.225-75.512 134.667-76.623 133.765-77.605L85.579-127.747C84.594-128.785 83.267-129.426 81.858-129.426C80.448-129.426 79.255-128.813 78.164-127.775L30.058-77.633ZM30.058 7.02L78.164 57.162C79.255 58.253 80.448 58.866 81.858 58.866C83.267 58.866 84.594 58.225 85.579 57.135L133.765 6.993C134.667 6.063 135.225 4.925 135.225 3.573C135.225 0.816 133.077-1.332 130.32-1.332C129.049-1.332 127.775-0.777 126.82 0.073L78.933 50.024L84.891 50.024L36.895 0.073C35.968-0.777 34.747-1.332 33.423-1.332C30.666-1.332 28.518 0.816 28.518 3.573C28.518 4.925 29.103 6.09 30.058 7.02Z"/>
  </g>
  <g id="Light-L" transform="matrix(1 0 0 1 1073.18 1556)">
   <path class="SFSymbolsPreviewWireframe" d="M29.733-75.756C29.008-74.983 28.518-74.169 28.518-73.114C28.518-71.064 30.151-69.465 32.201-69.465C33.162-69.465 34.116-69.814 34.796-70.507L82.447-121.264L77.539-121.264L125.064-70.507C125.79-69.814 126.777-69.465 127.705-69.465C129.756-69.465 131.389-71.064 131.389-73.114C131.389-74.169 130.945-74.936 130.253-75.709L82.945-126.156C82.113-127.022 81.091-127.606 79.93-127.606C78.768-127.606 77.861-127.069 76.961-126.203L29.733-75.756ZM29.733 5.138L76.961 55.585C77.861 56.485 78.768 57.022 79.93 57.022C81.091 57.022 82.113 56.438 82.945 55.538L130.253 5.091C130.945 4.352 131.389 3.538 131.389 2.53C131.389 0.48 129.756-1.153 127.705-1.153C126.777-1.153 125.79-0.77 125.064-0.111L77.539 50.68L82.447 50.68L34.796-0.111C34.116-0.77 33.162-1.153 32.201-1.153C30.151-1.153 28.518 0.48 28.518 2.53C28.518 3.538 29.008 4.399 29.733 5.138Z"/>
  </g>
  <g id="Thin-L" transform="matrix(1 0 0 1 779.007 1556)">
   <path class="SFSymbolsPreviewWireframe" d="M29.305-73.27C28.882-72.775 28.518-72.39 28.518-71.764C28.518-70.648 29.469-69.705 30.586-69.705C31.068-69.705 31.668-69.853 32.019-70.267L79.217-122.161L75.697-122.161L122.742-70.267C123.165-69.853 123.774-69.705 124.248-69.705C125.364-69.705 126.315-70.648 126.315-71.764C126.315-72.39 126.024-72.703 125.609-73.198L79.462-124.049C78.832-124.688 78.214-125.196 77.381-125.196C76.547-125.196 76.019-124.76 75.371-124.121L29.305-73.27ZM29.305 2.651L75.371 53.502C76.019 54.149 76.547 54.585 77.381 54.585C78.214 54.585 78.832 54.077 79.462 53.43L125.609 2.579C126.024 2.092 126.315 1.708 126.315 1.154C126.315 0.037 125.364-0.914 124.248-0.914C123.774-0.914 123.165-0.758 122.742-0.352L75.697 51.55L79.217 51.55L32.019-0.352C31.668-0.758 31.068-0.914 30.586-0.914C29.469-0.914 28.518 0.037 28.518 1.154C28.518 1.708 28.882 2.164 29.305 2.651Z"/>
  </g>
  <g id="Ultralight-L" transform="matrix(1 0 0 1 483.595 1556)">
   <path class="SFSymbolsPreviewWireframe" d="M29.085-72.001C28.817-71.649 28.518-71.484 28.518-71.078C28.518-70.44 29.12-69.833 29.758-69.833C29.994-69.833 30.414-69.877 30.597-70.149L77.562-122.625L74.753-122.625L121.552-70.149C121.82-69.877 122.235-69.833 122.476-69.833C123.114-69.833 123.717-70.44 123.717-71.078C123.717-71.484 123.502-71.564 123.23-71.916L77.678-122.974C77.151-123.497 76.74-123.966 76.075-123.966C75.409-123.966 75.075-123.582 74.557-123.059L29.085-72.001ZM29.085 1.373L74.557 52.431C75.075 52.949 75.409 53.333 76.075 53.333C76.74 53.333 77.151 52.864 77.678 52.346L123.23 1.288C123.502 0.93 123.717 0.766 123.717 0.444C123.717-0.194 123.114-0.796 122.476-0.796C122.235-0.796 121.82-0.756 121.552-0.479L74.753 51.991L77.562 51.991L30.597-0.479C30.414-0.756 29.994-0.796 29.758-0.796C29.12-0.796 28.518-0.194 28.518 0.444C28.518 0.766 28.817 1.015 29.085 1.373Z"/>
  </g>
  <g id="Black-M" transform="matrix(1 0 0 1 2857.85 1126)">
   <path class="SFSymbolsPreviewWireframe" d="M31.622-85.262C29.48-83.12 28.518-80.613 28.518-77.633C28.518-71.497 33.567-66.397 39.589-66.397C42.683-66.397 45.532-67.703 47.903-70.125L77.027-100.384L74.3-100.384L103.249-70.125C105.619-67.645 108.474-66.397 111.505-66.397C117.527-66.397 122.575-71.497 122.575-77.633C122.575-80.67 121.613-83.12 119.477-85.262L85.086-120.45C82.094-123.505 79.234-124.752 75.576-124.809C71.975-124.809 69.068-123.562 66.065-120.45L31.622-85.262ZM31.622 14.792L66.065 49.981C69.126 53.041 71.975 54.345 75.576 54.345C79.234 54.288 82.037 52.984 85.086 49.981L119.477 14.793C121.613 12.656 122.575 10.206 122.575 7.17C122.575 1.033 117.527-4.072 111.505-4.072C108.474-4.072 105.619-2.818 103.249-0.345L74.3 29.92L77.027 29.92L47.903-0.345C45.532-2.761 42.683-4.072 39.589-4.072C33.567-4.072 28.518 1.033 28.518 7.17C28.518 10.149 29.537 12.599 31.622 14.792Z"/>
  </g>
  <g id="Heavy-M" transform="matrix(1 0 0 1 2562.23 1126)">
   <path class="SFSymbolsPreviewWireframe" d="M31.215-82.523C29.373-80.679 28.518-78.511 28.518-75.939C28.518-70.652 32.837-66.306 38.037-66.306C40.692-66.306 43.127-67.416 45.142-69.459L76.214-101.585L72.901-101.585L103.822-69.459C105.838-67.372 108.29-66.306 110.885-66.306C116.085-66.306 120.404-70.652 120.404-75.939C120.404-78.555 119.551-80.676 117.726-82.521L82.523-118.531C80.036-121.078 77.568-122.155 74.482-122.199C71.439-122.199 68.962-121.124 66.443-118.534L31.215-82.523ZM31.215 12.029L66.443 48.039C69.006 50.602 71.439 51.721 74.482 51.721C77.568 51.678 79.993 50.557 82.523 48.037L117.726 12.026C119.551 10.198 120.404 8.075 120.404 5.461C120.404 0.174 116.085-4.188 110.885-4.188C108.29-4.188 105.838-3.106 103.822-1.035L72.901 31.107L76.214 31.107L45.142-1.035C43.127-3.062 40.692-4.188 38.037-4.188C32.837-4.188 28.518 0.174 28.518 5.461C28.518 8.031 29.416 10.157 31.215 12.029Z"/>
  </g>
  <g id="Bold-M" transform="matrix(1 0 0 1 2266.73 1126)">
   <path class="SFSymbolsPreviewWireframe" d="M30.759-79.459C29.252-77.947 28.518-76.16 28.518-74.044C28.518-69.707 32.021-66.204 36.301-66.204C38.464-66.204 40.438-67.094 42.053-68.715L75.305-102.929L71.335-102.929L104.462-68.715C106.083-67.066 108.085-66.204 110.191-66.204C114.471-66.204 117.974-69.707 117.974-74.044C117.974-76.189 117.245-77.942 115.767-79.454L79.656-116.384C77.734-118.363 75.704-119.251 73.258-119.279C70.84-119.279 68.843-118.396 66.865-116.389L30.759-79.459ZM30.759 8.937L66.865 45.868C68.872 47.875 70.84 48.786 73.258 48.786C75.704 48.758 77.706 47.841 79.656 45.863L115.767 8.932C117.245 7.449 117.974 5.691 117.974 3.551C117.974-0.786 114.471-4.318 110.191-4.318C108.085-4.318 106.083-3.427 104.462-1.807L71.335 32.436L75.305 32.436L42.053-1.807C40.438-3.398 38.464-4.318 36.301-4.318C32.021-4.318 28.518-0.786 28.518 3.551C28.518 5.662 29.281 7.426 30.759 8.937Z"/>
  </g>
  <g id="Semibold-M" transform="matrix(1 0 0 1 1970.86 1126)">
   <path class="SFSymbolsPreviewWireframe" d="M30.445-77.349C29.17-76.067 28.518-74.543 28.518-72.74C28.518-69.058 31.459-66.136 35.105-66.136C36.929-66.136 38.584-66.876 39.924-68.204L74.679-103.858L70.256-103.858L104.905-68.204C106.252-66.858 107.944-66.136 109.714-66.136C113.36-66.136 116.3-69.058 116.3-72.74C116.3-74.561 115.655-76.06 114.417-77.342L77.68-114.907C76.148-116.494 74.419-117.251 72.415-117.269C70.428-117.269 68.762-116.519 67.157-114.914L30.445-77.349ZM30.445 6.803L67.157 44.368C68.78 45.991 70.428 46.76 72.415 46.76C74.419 46.742 76.13 45.966 77.68 44.361L114.417 6.796C115.655 5.551 116.3 4.044 116.3 2.231C116.3-1.451 113.36-4.41 109.714-4.41C107.944-4.41 106.252-3.651 104.905-2.342L70.256 33.349L74.679 33.349L39.924-2.342C38.584-3.633 36.929-4.41 35.105-4.41C31.459-4.41 28.518-1.451 28.518 2.231C28.518 4.026 29.188 5.54 30.445 6.803Z"/>
  </g>
  <g id="Medium-M" transform="matrix(1 0 0 1 1674.78 1126)">
   <path class="SFSymbolsPreviewWireframe" d="M30.207-75.744C29.108-74.636 28.518-73.31 28.518-71.746C28.518-68.56 31.033-66.079 34.198-66.079C35.765-66.079 37.179-66.704 38.311-67.812L74.205-104.557L69.438-104.557L105.241-67.812C106.381-66.694 107.838-66.079 109.352-66.079C112.517-66.079 115.031-68.56 115.031-71.746C115.031-73.32 114.45-74.627 113.394-75.735L76.182-113.781C74.946-115.071 73.446-115.729 71.776-115.739C70.116-115.739 68.701-115.089 67.378-113.79L30.207-75.744ZM30.207 5.191L67.378 43.236C68.711 44.569 70.116 45.229 71.776 45.229C73.446 45.219 74.936 44.55 76.182 43.228L113.394 5.182C114.45 4.118 115.031 2.802 115.031 1.236C115.031-1.95 112.517-4.474 109.352-4.474C107.838-4.474 106.381-3.816 105.241-2.742L69.438 34.047L74.205 34.047L38.311-2.742C37.179-3.805 35.765-4.474 34.198-4.474C31.033-4.474 28.518-1.95 28.518 1.236C28.518 2.792 29.118 4.116 30.207 5.191Z"/>
  </g>
  <g id="Regular-M" transform="matrix(1 0 0 1 1378.9 1126)">
   <path class="SFSymbolsPreviewWireframe" d="M29.896-73.656C29.026-72.775 28.518-71.708 28.518-70.454C28.518-67.916 30.476-66.01 33.014-66.01C34.246-66.01 35.345-66.486 36.204-67.305L73.584-105.474L68.37-105.474L105.677-67.305C106.547-66.486 107.697-66.01 108.878-66.01C111.416-66.01 113.374-67.916 113.374-70.454C113.374-71.708 112.877-72.764 112.058-73.645L74.226-112.318C73.376-113.22 72.174-113.749 70.941-113.749C69.707-113.749 68.619-113.231 67.666-112.329L29.896-73.656ZM29.896 3.082L67.666 41.755C68.619 42.709 69.707 43.227 70.941 43.227C72.174 43.227 73.376 42.698 74.226 41.744L112.058 3.071C112.877 2.242 113.374 1.175 113.374-0.068C113.374-2.606 111.416-4.564 108.878-4.564C107.697-4.564 106.547-4.036 105.677-3.269L68.37 34.952L73.584 34.952L36.204-3.269C35.345-4.036 34.246-4.564 33.014-4.564C30.476-4.564 28.518-2.606 28.518-0.068C28.518 1.175 29.026 2.253 29.896 3.082ZM57.432-13.2667C57.432-12.0706 56.9591-10.9246 56.1146-10.0795C55.2701-9.23437 54.1216-8.76167 52.928-8.76167C52.928-8.76167 52.928-8.76167 52.928-8.76167C51.7344-8.76167 50.5859-9.23437 49.7414-10.0795C48.8969-10.9246 48.424-12.0706 48.424-13.2667C48.424-23.265 48.424-47.2511 48.424-57.2567C48.424-58.4527 48.8969-59.5987 49.7414-60.4438C50.5859-61.289 51.7344-61.7617 52.928-61.7617C52.928-61.7617 52.928-61.7617 52.928-61.7617C54.1216-61.7617 55.2701-61.289 56.1146-60.4438C56.9591-59.5987 57.432-58.4527 57.432-57.2567C57.432-47.2511 57.432-23.265 57.432-13.2667ZM93.462-46.4991C93.462-44.0138 91.4465-41.9941 88.958-41.9941C88.958-41.9941 88.958-41.9941 88.958-41.9941C86.4695-41.9941 84.454-44.0138 84.454-46.4991L84.454-57.2567C84.454-59.7491 86.4695-61.7617 88.958-61.7617C88.958-61.7617 88.958-61.7617 88.958-61.7617C91.4465-61.7617 93.462-59.7491 93.462-57.2567L93.462-46.4991ZM75.452-30.4988C75.452-29.3027 74.9791-28.1568 74.1346-27.3117C73.2901-26.4665 72.1416-25.9938 70.948-25.9938C70.948-25.9938 70.948-25.9938 70.948-25.9938C69.7544-25.9938 68.6059-26.4665 67.7614-27.3117C66.9169-28.1568 66.444-29.3027 66.444-30.4988C66.444-37.3673 66.444-50.3881 66.444-57.2567C66.444-58.4527 66.9169-59.5987 67.7614-60.4438C68.6059-61.289 69.7544-61.7617 70.948-61.7617C70.948-61.7617 70.948-61.7617 70.948-61.7617C72.1416-61.7617 73.2901-61.289 74.1346-60.4438C74.9791-59.5987 75.452-58.4527 75.452-57.2567C75.452-50.3881 75.452-37.3673 75.452-30.4988Z"/>
  </g>
  <g id="Light-M" transform="matrix(1 0 0 1 1083.91 1126)">
   <path class="SFSymbolsPreviewWireframe" d="M29.605-71.974C28.94-71.282 28.518-70.506 28.518-69.543C28.518-67.638 30.014-66.177 31.919-66.177C32.826-66.177 33.685-66.516 34.322-67.146L71.394-106.086L67.121-106.086L104.103-67.146C104.768-66.516 105.661-66.177 106.534-66.177C108.439-66.177 109.935-67.638 109.935-69.543C109.935-70.506 109.54-71.254 108.91-71.947L71.865-110.893C71.152-111.641 70.224-112.119 69.213-112.119C68.202-112.119 67.37-111.669 66.588-110.921L29.605-71.974ZM29.605 1.392L66.588 40.339C67.37 41.122 68.202 41.572 69.213 41.572C70.224 41.572 71.152 41.094 71.865 40.311L108.91 1.365C109.54 0.707 109.935-0.069 109.935-1.004C109.935-2.909 108.439-4.405 106.534-4.405C105.661-4.405 104.768-4.031 104.103-3.436L67.121 35.538L71.394 35.538L34.322-3.436C33.685-4.031 32.826-4.405 31.919-4.405C30.014-4.405 28.518-2.909 28.518-1.004C28.518-0.069 28.94 0.734 29.605 1.392Z"/>
  </g>
  <g id="Thin-M" transform="matrix(1 0 0 1 789.471 1126)">
   <path class="SFSymbolsPreviewWireframe" d="M29.22-69.746C28.827-69.303 28.518-68.911 28.518-68.333C28.518-67.266 29.403-66.393 30.47-66.393C30.948-66.393 31.49-66.551 31.833-66.933L68.497-106.89L65.469-106.89L102.021-66.933C102.414-66.551 102.968-66.393 103.434-66.393C104.501-66.393 105.386-67.266 105.386-68.333C105.386-68.911 105.127-69.252 104.746-69.696L68.742-109.005C68.21-109.549 67.644-109.959 66.927-109.959C66.21-109.959 65.718-109.6 65.162-109.055L29.22-69.746ZM29.22-0.838L65.162 38.471C65.718 39.027 66.21 39.387 66.927 39.387C67.644 39.387 68.21 38.977 68.742 38.421L104.746-0.888C105.127-1.32 105.386-1.711 105.386-2.239C105.386-3.306 104.501-4.191 103.434-4.191C102.968-4.191 102.414-4.021 102.021-3.652L65.469 36.318L68.497 36.318L31.833-3.652C31.49-4.021 30.948-4.191 30.47-4.191C29.403-4.191 28.518-3.306 28.518-2.239C28.518-1.711 28.827-1.27 29.22-0.838Z"/>
  </g>
  <g id="Ultralight-M" transform="matrix(1 0 0 1 493.925 1126)">
   <path class="SFSymbolsPreviewWireframe" d="M29.024-68.601C28.77-68.285 28.518-68.091 28.518-67.71C28.518-67.072 29.09-66.5 29.729-66.5C29.986-66.5 30.366-66.566 30.558-66.819L67.014-107.299L64.623-107.299L100.955-66.819C101.209-66.566 101.589-66.5 101.846-66.5C102.485-66.5 103.057-67.072 103.057-67.71C103.057-68.091 102.868-68.223 102.614-68.54L67.143-108.034C66.703-108.474 66.323-108.849 65.757-108.849C65.19-108.849 64.873-108.536 64.432-108.096L29.024-68.601ZM29.024-1.977L64.432 37.518C64.873 37.958 65.19 38.271 65.757 38.271C66.323 38.271 66.703 37.896 67.143 37.456L102.614-2.039C102.868-2.354 103.057-2.548 103.057-2.868C103.057-3.506 102.485-4.078 101.846-4.078C101.589-4.078 101.209-4.012 100.955-3.759L64.623 36.721L67.014 36.721L30.558-3.759C30.366-4.012 29.986-4.078 29.729-4.078C29.09-4.078 28.518-3.506 28.518-2.868C28.518-2.548 28.77-2.292 29.024-1.977Z"/>
  </g>
  <g id="Black-S" transform="matrix(1 0 0 1 2867.8 696)">
   <path class="SFSymbolsPreviewWireframe" d="M31.057-79.497C29.299-77.739 28.518-75.689 28.518-73.247C28.518-68.218 32.668-64.019 37.6-64.019C40.139-64.019 42.482-65.093 44.436-67.095L66.652-90.288L64.748-90.288L86.818-67.095C88.771-65.044 91.115-64.019 93.605-64.019C98.537-64.019 102.688-68.218 102.688-73.247C102.688-75.738 101.906-77.739 100.148-79.497L73.488-106.841C70.998-109.38 68.654-110.406 65.627-110.454C62.648-110.454 60.256-109.429 57.766-106.841L31.057-79.497ZM31.057 9.038L57.766 36.382C60.305 38.921 62.648 39.995 65.627 39.995C68.654 39.946 70.949 38.872 73.488 36.382L100.148 9.038C101.906 7.28 102.688 5.278 102.688 2.788C102.688-2.241 98.537-6.441 93.605-6.441C91.115-6.441 88.771-5.415 86.818-3.364L64.748 19.829L66.652 19.829L44.436-3.364C42.482-5.366 40.139-6.441 37.6-6.441C32.668-6.441 28.518-2.241 28.518 2.788C28.518 5.229 29.348 7.231 31.057 9.038Z"/>
  </g>
  <g id="Heavy-S" transform="matrix(1 0 0 1 2571.8 696)">
   <path class="SFSymbolsPreviewWireframe" d="M30.746-77.371C29.219-75.843 28.518-74.046 28.518-71.916C28.518-67.532 32.104-63.92 36.413-63.92C38.618-63.92 40.639-64.845 42.316-66.547L66.238-91.239L63.711-91.239L87.51-66.547C89.187-64.807 91.219-63.92 93.375-63.92C97.685-63.92 101.271-67.532 101.271-71.916C101.271-74.083 100.57-75.843 99.054-77.371L71.599-105.383C69.523-107.507 67.479-108.394 64.913-108.431C62.384-108.431 60.326-107.544 58.227-105.383L30.746-77.371ZM30.746 6.889L58.227 34.901C60.363 37.037 62.384 37.961 64.913 37.961C67.479 37.924 69.486 37 71.599 34.901L99.054 6.889C100.57 5.373 101.271 3.613 101.271 1.446C101.271-2.938 97.685-6.561 93.375-6.561C91.219-6.561 89.187-5.663 87.51-3.934L63.711 20.769L66.238 20.769L42.316-3.934C40.639-5.625 38.618-6.561 36.413-6.561C32.104-6.561 28.518-2.938 28.518 1.446C28.518 3.576 29.256 5.336 30.746 6.889Z"/>
  </g>
  <g id="Bold-S" transform="matrix(1 0 0 1 2275.88 696)">
   <path class="SFSymbolsPreviewWireframe" d="M30.398-74.993C29.129-73.723 28.518-72.209 28.518-70.427C28.518-66.765 31.472-63.811 35.086-63.811C36.917-63.811 38.577-64.568 39.944-65.935L65.774-92.302L62.551-92.302L88.284-65.935C89.651-64.543 91.336-63.811 93.118-63.811C96.731-63.811 99.685-66.765 99.685-70.427C99.685-72.234 99.075-73.723 97.83-74.993L69.485-103.752C67.874-105.412 66.165-106.145 64.114-106.169C62.088-106.169 60.403-105.437 58.743-103.752L30.398-74.993ZM30.398 4.485L58.743 33.245C60.427 34.929 62.088 35.686 64.114 35.686C66.165 35.662 67.849 34.905 69.485 33.245L97.83 4.485C99.075 3.24 99.685 1.751 99.685-0.056C99.685-3.718 96.731-6.697 93.118-6.697C91.336-6.697 89.651-5.94 88.284-4.573L62.551 21.819L65.774 21.819L39.944-4.573C38.577-5.916 36.917-6.697 35.086-6.697C31.472-6.697 28.518-3.718 28.518-0.056C28.518 1.726 29.153 3.215 30.398 4.485Z"/>
  </g>
  <g id="Semibold-S" transform="matrix(1 0 0 1 1979.71 696)">
   <path class="SFSymbolsPreviewWireframe" d="M30.158-73.353C29.066-72.261 28.518-70.943 28.518-69.4C28.518-66.236 31.037-63.735 34.17-63.735C35.744-63.735 37.155-64.376 38.309-65.513L65.454-93.035L61.752-93.035L88.817-65.513C89.971-64.361 91.415-63.735 92.94-63.735C96.074-63.735 98.592-66.236 98.592-69.4C98.592-70.958 98.044-72.261 96.986-73.353L68.028-102.628C66.736-103.968 65.258-104.594 63.563-104.609C61.883-104.609 60.456-103.984 59.098-102.628L30.158-73.353ZM30.158 2.828L59.098 32.103C60.472 33.477 61.883 34.118 63.563 34.118C65.258 34.102 66.721 33.461 68.028 32.103L96.986 2.828C98.044 1.769 98.592 0.467 98.592-1.091C98.592-4.255 96.074-6.79 92.94-6.79C91.415-6.79 89.971-6.131 88.817-5.012L61.752 22.544L65.454 22.544L38.309-5.012C37.155-6.115 35.744-6.79 34.17-6.79C31.037-6.79 28.518-4.255 28.518-1.091C28.518 0.451 29.082 1.754 30.158 2.828Z"/>
  </g>
  <g id="Medium-S" transform="matrix(1 0 0 1 1683.42 696)">
   <path class="SFSymbolsPreviewWireframe" d="M29.976-72.11C29.019-71.153 28.518-69.983 28.518-68.623C28.518-65.836 30.706-63.678 33.476-63.678C34.854-63.678 36.077-64.232 37.069-65.193L65.211-93.591L61.145-93.591L89.221-65.193C90.213-64.223 91.476-63.678 92.805-63.678C95.575-63.678 97.763-65.836 97.763-68.623C97.763-69.992 97.262-71.153 96.345-72.11L66.922-101.776C65.873-102.874 64.571-103.419 63.145-103.427C61.728-103.427 60.497-102.883 59.368-101.776L29.976-72.11ZM29.976 1.571L59.368 31.237C60.505 32.374 61.728 32.928 63.145 32.928C64.571 32.919 65.865 32.366 66.922 31.237L96.345 1.571C97.262 0.654 97.763-0.507 97.763-1.877C97.763-4.664 95.575-6.861 92.805-6.861C91.476-6.861 90.213-6.276 89.221-5.346L61.145 23.092L65.211 23.092L37.069-5.346C36.077-6.267 34.854-6.861 33.476-6.861C30.706-6.861 28.518-4.664 28.518-1.877C28.518-0.516 29.028 0.645 29.976 1.571Z"/>
  </g>
  <g id="Regular-S" transform="matrix(1 0 0 1 1387.25 696)">
   <path class="SFSymbolsPreviewWireframe" d="M29.739-70.488C28.957-69.707 28.518-68.73 28.518-67.607C28.518-65.312 30.276-63.603 32.571-63.603C33.694-63.603 34.67-64.043 35.451-64.775L64.895-94.316L60.354-94.316L89.748-64.775C90.53-64.043 91.555-63.603 92.629-63.603C94.924-63.603 96.682-65.312 96.682-67.607C96.682-68.73 96.243-69.707 95.51-70.488L65.481-100.664C64.748-101.445 63.674-101.884 62.6-101.884C61.526-101.884 60.549-101.445 59.719-100.664L29.739-70.488ZM29.739-0.068L59.719 30.108C60.549 30.938 61.526 31.377 62.6 31.377C63.674 31.377 64.748 30.938 65.481 30.108L95.51-0.068C96.243-0.8 96.682-1.777 96.682-2.9C96.682-5.195 94.924-6.953 92.629-6.953C91.555-6.953 90.53-6.464 89.748-5.781L60.354 23.809L64.895 23.809L35.451-5.781C34.67-6.464 33.694-6.953 32.571-6.953C30.276-6.953 28.518-5.195 28.518-2.9C28.518-1.777 28.957-0.8 29.739-0.068Z"/>
  </g>
  <g id="Light-S" transform="matrix(1 0 0 1 1092.06 696)">
   <path class="SFSymbolsPreviewWireframe" d="M29.481-68.997C28.881-68.383 28.518-67.663 28.518-66.798C28.518-65.063 29.867-63.747 31.602-63.747C32.437-63.747 33.202-64.066 33.786-64.632L62.957-94.854L59.249-94.854L88.356-64.632C88.955-64.066 89.754-63.747 90.555-63.747C92.29-63.747 93.639-65.063 93.639-66.798C93.639-67.663 93.291-68.368 92.725-68.982L63.392-99.4C62.78-100.045 61.948-100.439 61.071-100.439C60.194-100.439 59.444-100.06 58.765-99.415L29.481-68.997ZM29.481-1.559L58.765 28.859C59.444 29.537 60.194 29.916 61.071 29.916C61.948 29.916 62.78 29.522 63.392 28.843L92.725-1.575C93.291-2.156 93.639-2.875 93.639-3.725C93.639-5.46 92.29-6.809 90.555-6.809C89.754-6.809 88.955-6.457 88.356-5.925L59.249 24.331L62.957 24.331L33.786-5.925C33.202-6.457 32.437-6.809 31.602-6.809C29.867-6.809 28.518-5.46 28.518-3.725C28.518-2.875 28.881-2.14 29.481-1.559Z"/>
  </g>
  <g id="Thin-S" transform="matrix(1 0 0 1 797.357 696)">
   <path class="SFSymbolsPreviewWireframe" d="M29.141-67.025C28.781-66.631 28.518-66.252 28.518-65.727C28.518-64.732 29.326-63.937 30.32-63.937C30.775-63.937 31.26-64.096 31.584-64.441L60.395-95.564L57.787-95.564L86.514-64.441C86.873-64.096 87.371-63.937 87.813-63.937C88.807-63.937 89.615-64.732 89.615-65.727C89.615-66.252 89.387-66.596 89.041-66.99L60.629-97.729C60.178-98.193 59.666-98.527 59.049-98.527C58.432-98.527 57.983-98.229 57.504-97.764L29.141-67.025ZM29.141-3.531L57.504 27.207C57.983 27.686 58.432 27.984 59.049 27.984C59.666 27.984 60.178 27.65 60.629 27.172L89.041-3.566C89.387-3.947 89.615-4.326 89.615-4.816C89.615-5.81 88.807-6.619 87.813-6.619C87.371-6.619 86.873-6.447 86.514-6.115L57.787 25.022L60.395 25.022L31.584-6.115C31.26-6.447 30.775-6.619 30.32-6.619C29.326-6.619 28.518-5.81 28.518-4.816C28.518-4.326 28.781-3.912 29.141-3.531Z"/>
  </g>
  <g id="Ultralight-S" transform="matrix(1 0 0 1 501.676 696)">
   <path class="SFSymbolsPreviewWireframe" d="M28.967-71.016C28.731-70.734 28.518-70.529 28.518-70.178C28.518-69.563 29.05-69.035 29.665-69.035C29.925-69.035 30.266-69.111 30.457-69.344L59.083-100.929L57.039-100.929L85.571-69.344C85.807-69.111 86.152-69.035 86.409-69.035C87.023-69.035 87.555-69.563 87.555-70.178C87.555-70.529 87.388-70.688 87.155-70.97L59.215-101.873C58.846-102.245 58.498-102.548 58.014-102.548C57.53-102.548 57.235-102.291 56.859-101.918L28.967-71.016ZM28.967 0.459L56.859 31.361C57.235 31.737 57.53 31.995 58.014 31.995C58.498 31.995 58.846 31.691 59.215 31.315L87.155 0.413C87.388 0.135 87.555-0.07 87.555-0.375C87.555-0.99 87.023-1.522 86.409-1.522C86.152-1.522 85.807-1.442 85.571-1.213L57.039 30.375L59.083 30.375L30.457-1.213C30.266-1.442 29.925-1.522 29.665-1.522C29.05-1.522 28.518-0.99 28.518-0.375C28.518-0.07 28.731 0.18 28.967 0.459Z"/>
  </g>
 </g>
</svg>
