<?xml version="1.0" encoding="UTF-8"?>
<!--Generator: Apple Native CoreSVG 341-->
<!DOCTYPE svg
PUBLIC "-//W3C//DTD SVG 1.1//EN"
       "http://www.w3.org/Graphics/SVG/1.1/DTD/svg11.dtd">
<svg version="1.1" xmlns="http://www.w3.org/2000/svg" xmlns:xlink="http://www.w3.org/1999/xlink" viewBox="0 0 3300 2200">
 <!--glyph: "", point size: 100.0, font version: "21.1d1e1", template writer version: "138.0.0"-->
 <style>.defaults {-sfsymbols-variable-value-mode:color;-sfsymbols-draw-reverses-motion-groups:false}

.SFSymbolsPreviewWireframe {fill:none;opacity:1.0;stroke:black;stroke-width:0.5}
</style>
 <g id="Notes">
  <rect height="2200" id="artboard" style="fill:white;opacity:1" width="3300" x="0" y="0"/>
  <line style="fill:none;stroke:black;opacity:1;stroke-width:0.5;" x1="263" x2="3036" y1="292" y2="292"/>
  <text style="stroke:none;fill:black;font-family:sans-serif;font-size:13;font-weight:bold;" transform="matrix(1 0 0 1 263 322)">Weight/Scale Variations</text>
  <text style="stroke:none;fill:black;font-family:sans-serif;font-size:13;text-anchor:middle;" transform="matrix(1 0 0 1 559.711 322)">Ultralight</text>
  <text style="stroke:none;fill:black;font-family:sans-serif;font-size:13;text-anchor:middle;" transform="matrix(1 0 0 1 856.422 322)">Thin</text>
  <text style="stroke:none;fill:black;font-family:sans-serif;font-size:13;text-anchor:middle;" transform="matrix(1 0 0 1 1153.13 322)">Light</text>
  <text style="stroke:none;fill:black;font-family:sans-serif;font-size:13;text-anchor:middle;" transform="matrix(1 0 0 1 1449.84 322)">Regular</text>
  <text style="stroke:none;fill:black;font-family:sans-serif;font-size:13;text-anchor:middle;" transform="matrix(1 0 0 1 1746.56 322)">Medium</text>
  <text style="stroke:none;fill:black;font-family:sans-serif;font-size:13;text-anchor:middle;" transform="matrix(1 0 0 1 2043.27 322)">Semibold</text>
  <text style="stroke:none;fill:black;font-family:sans-serif;font-size:13;text-anchor:middle;" transform="matrix(1 0 0 1 2339.98 322)">Bold</text>
  <text style="stroke:none;fill:black;font-family:sans-serif;font-size:13;text-anchor:middle;" transform="matrix(1 0 0 1 2636.69 322)">Heavy</text>
  <text style="stroke:none;fill:black;font-family:sans-serif;font-size:13;text-anchor:middle;" transform="matrix(1 0 0 1 2933.4 322)">Black</text>
  <line style="fill:none;stroke:black;opacity:1;stroke-width:0.5;" x1="263" x2="3036" y1="1903" y2="1903"/>
  <g transform="matrix(0.2 0 0 0.2 263 1933)">
   <path d="m46.2402 4.15039c21.7773 0 39.4531-17.627 39.4531-39.4043s-17.6758-39.4043-39.4531-39.4043c-21.7285 0-39.4043 17.627-39.4043 39.4043s17.6758 39.4043 39.4043 39.4043Zm0-7.42188c-17.6758 0-31.9336-14.3066-31.9336-31.9824s14.2578-31.9824 31.9336-31.9824 31.9824 14.3066 31.9824 31.9824-14.3066 31.9824-31.9824 31.9824Zm3.61328-17.7734v-28.4668c0-2.24609-1.46484-3.75977-3.71094-3.75977-2.14844 0-3.61328 1.51367-3.61328 3.75977v28.4668c0 2.19727 1.46484 3.71094 3.61328 3.71094 2.24609 0 3.71094-1.51367 3.71094-3.71094Zm-17.8223-10.5957h28.418c2.19727 0 3.71094-1.46484 3.71094-3.61328 0-2.19727-1.51367-3.71094-3.71094-3.71094h-28.418c-2.24609 0-3.75977 1.51367-3.75977 3.71094 0 2.14844 1.51367 3.61328 3.75977 3.61328Z"/>
  </g>
  <g transform="matrix(0.2 0 0 0.2 281.506 1933)">
   <path d="m58.5449 14.5508c27.4902 0 49.8047-22.3145 49.8047-49.8047s-22.3145-49.8047-49.8047-49.8047-49.8047 22.3145-49.8047 49.8047 22.3145 49.8047 49.8047 49.8047Zm0-8.30078c-22.9492 0-41.5039-18.5547-41.5039-41.5039s18.5547-41.5039 41.5039-41.5039 41.5039 18.5547 41.5039 41.5039-18.5547 41.5039-41.5039 41.5039Zm4.05273-23.0957v-36.9141c0-2.49023-1.70898-4.19922-4.15039-4.19922-2.39258 0-4.05273 1.70898-4.05273 4.19922v36.9141c0 2.44141 1.66016 4.15039 4.05273 4.15039 2.44141 0 4.15039-1.66016 4.15039-4.15039Zm-22.5586-14.4043h36.9629c2.44141 0 4.15039-1.61133 4.15039-4.00391 0-2.44141-1.70898-4.15039-4.15039-4.15039h-36.9629c-2.49023 0-4.15039 1.70898-4.15039 4.15039 0 2.39258 1.66016 4.00391 4.15039 4.00391Z"/>
  </g>
  <g transform="matrix(0.2 0 0 0.2 304.924 1933)">
   <path d="m74.8535 28.3203c35.1074 0 63.623-28.4668 63.623-63.5742s-28.5156-63.623-63.623-63.623-63.5742 28.5156-63.5742 63.623 28.4668 63.5742 63.5742 63.5742Zm0-9.08203c-30.127 0-54.4922-24.3652-54.4922-54.4922s24.3652-54.4922 54.4922-54.4922 54.4922 24.3652 54.4922 54.4922-24.3652 54.4922-54.4922 54.4922Zm4.44336-30.3223v-48.4863c0-2.73438-1.85547-4.63867-4.54102-4.63867-2.58789 0-4.44336 1.9043-4.44336 4.63867v48.4863c0 2.68555 1.85547 4.58984 4.44336 4.58984 2.68555 0 4.54102-1.85547 4.54102-4.58984Zm-28.7109-19.7754h48.4863c2.68555 0 4.58984-1.80664 4.58984-4.39453 0-2.73438-1.85547-4.58984-4.58984-4.58984h-48.4863c-2.73438 0-4.58984 1.85547-4.58984 4.58984 0 2.58789 1.85547 4.39453 4.58984 4.39453Z"/>
  </g>
  <text style="stroke:none;fill:black;font-family:sans-serif;font-size:13;font-weight:bold;" transform="matrix(1 0 0 1 263 1953)">Design Variations</text>
  <text style="stroke:none;fill:black;font-family:sans-serif;font-size:13;" transform="matrix(1 0 0 1 263 1971)">Symbols are supported in up to nine weights and three scales.</text>
  <text style="stroke:none;fill:black;font-family:sans-serif;font-size:13;" transform="matrix(1 0 0 1 263 1989)">For optimal layout with text and other symbols, vertically align</text>
  <text style="stroke:none;fill:black;font-family:sans-serif;font-size:13;" transform="matrix(1 0 0 1 263 2007)">symbols with the adjacent text.</text>
  <line style="fill:none;stroke:#00AEEF;stroke-width:0.5;opacity:1.0;" x1="776" x2="776" y1="1919" y2="1933"/>
  <g transform="matrix(0.2 0 0 0.2 776 1933)">
   <path d="m16.5527 0.78125c2.58789 0 3.85742-0.976562 4.78516-3.71094l20.5566-57.5195h0.244141l20.6055 57.5195c0.927734 2.73438 2.19727 3.71094 4.73633 3.71094 2.58789 0 4.24805-1.5625 4.24805-4.00391 0-0.830078-0.146484-1.61133-0.537109-2.63672l-22.9004-60.9863c-1.12305-2.97852-3.125-4.49219-6.25-4.49219-3.02734 0-5.07812 1.46484-6.15234 4.44336l-22.9004 61.084c-0.390625 1.02539-0.537109 1.80664-0.537109 2.63672 0 2.44141 1.5625 3.95508 4.10156 3.95508Zm10.2051-20.9473h30.6641c2.00195 0 3.66211-1.66016 3.66211-3.66211 0-2.05078-1.66016-3.66211-3.66211-3.66211h-30.6641c-2.00195 0-3.66211 1.61133-3.66211 3.66211 0 2.00195 1.66016 3.66211 3.66211 3.66211Z"/>
  </g>
  <line style="fill:none;stroke:#00AEEF;stroke-width:0.5;opacity:1.0;" x1="792.836" x2="792.836" y1="1919" y2="1933"/>
  <text style="stroke:none;fill:black;font-family:sans-serif;font-size:13;font-weight:bold;" transform="matrix(1 0 0 1 776 1953)">Margins</text>
  <text style="stroke:none;fill:black;font-family:sans-serif;font-size:13;" transform="matrix(1 0 0 1 776 1971)">Leading and trailing margins on the left and right side of each symbol</text>
  <text style="stroke:none;fill:black;font-family:sans-serif;font-size:13;" transform="matrix(1 0 0 1 776 1989)">can be adjusted by modifying the x-location of the margin guidelines.</text>
  <text style="stroke:none;fill:black;font-family:sans-serif;font-size:13;" transform="matrix(1 0 0 1 776 2007)">Modifications are automatically applied proportionally to all</text>
  <text style="stroke:none;fill:black;font-family:sans-serif;font-size:13;" transform="matrix(1 0 0 1 776 2025)">scales and weights.</text>
  <g transform="matrix(0.2 0 0 0.2 1289 1933)">
   <path d="m14.209 13.1348 7.86133 7.86133c4.29688 4.39453 9.32617 4.10156 13.8672-1.02539l60.6934-68.2129-4.88281-4.88281-60.2539 67.6758c-1.80664 1.95312-3.4668 2.44141-5.81055 0.0976562l-5.17578-5.12695c-2.29492-2.29492-1.80664-3.95508 0.195312-5.81055l67.4805-62.1582-4.88281-4.83398-68.0664 62.5977c-4.98047 4.58984-5.32227 9.47266-1.02539 13.8184Zm44.873-97.4609c-2.05078 2.00195-2.24609 4.88281-1.07422 6.78711 1.12305 1.80664 3.4668 3.02734 6.5918 2.24609 5.85938-1.66016 12.5977-2.39258 18.8965 0.927734l-2.68555 7.12891c-1.61133 4.00391-0.732422 6.88477 1.70898 9.42383l10.2539 10.3027c2.34375 2.39258 4.54102 2.44141 7.08008 1.95312l4.44336-0.732422 2.58789 2.53906-0.195312 2.24609c-0.0976562 2.29492 0.537109 4.29688 2.7832 6.49414l3.36914 3.32031c2.29492 2.29492 5.51758 2.49023 7.8125 0.195312l12.9883-13.0371c2.29492-2.34375 2.14844-5.37109-0.195312-7.66602l-3.41797-3.41797c-2.19727-2.19727-4.05273-3.02734-6.34766-2.88086l-2.34375 0.244141-2.44141-2.44141 1.02539-4.6875c0.634766-2.73438-0.244141-4.98047-2.88086-7.61719l-11.2793-11.1816c-12.9395-12.8418-35.5957-11.0352-46.6797-0.146484Zm7.08008 2.05078c8.78906-6.39648 25.9766-5.66406 33.6914 1.95312l12.3047 12.207c1.02539 1.02539 1.2207 1.80664 0.927734 3.32031l-1.46484 6.64062 6.73828 6.68945 4.39453-0.244141c1.12305-0.0488281 1.51367 0.0488281 2.34375 0.878906l2.53906 2.49023-10.8398 10.8398-2.49023-2.49023c-0.830078-0.878906-0.976562-1.2207-0.927734-2.39258l0.292969-4.3457-6.68945-6.73828-6.83594 1.17188c-1.41602 0.292969-2.05078 0.195312-3.17383-0.878906l-8.93555-8.88672c-1.07422-1.02539-1.17188-1.70898-0.488281-3.36914l4.58984-11.4746c-6.10352-6.34766-17.041-7.51953-25.5859-4.58984-0.683594 0.244141-0.927734-0.390625-0.390625-0.78125Z"/>
  </g>
  <text style="stroke:none;fill:black;font-family:sans-serif;font-size:13;font-weight:bold;" transform="matrix(1 0 0 1 1289 1953)">Exporting</text>
  <text style="stroke:none;fill:black;font-family:sans-serif;font-size:13;" transform="matrix(1 0 0 1 1289 1971)">Symbols should be outlined when exporting to ensure the</text>
  <text style="stroke:none;fill:black;font-family:sans-serif;font-size:13;" transform="matrix(1 0 0 1 1289 1989)">design is preserved when submitting to Xcode.</text>
  <text id="template-version" style="stroke:none;fill:black;font-family:sans-serif;font-size:13;text-anchor:end;" transform="matrix(1 0 0 1 3036 1933)">Template v.6.0</text>
  <text style="stroke:none;fill:black;font-family:sans-serif;font-size:13;text-anchor:end;" transform="matrix(1 0 0 1 3036 1951)">Requires Xcode 16 or greater</text>
  <text id="descriptive-name" style="stroke:none;fill:black;font-family:sans-serif;font-size:13;text-anchor:end;" transform="matrix(1 0 0 1 3036 1969)">Generated from line.chevron.up.line.chevron.down</text>
  <text style="stroke:none;fill:black;font-family:sans-serif;font-size:13;text-anchor:end;" transform="matrix(1 0 0 1 3036 1987)">Typeset at 100.0 points</text>
  <text style="stroke:none;fill:black;font-family:sans-serif;font-size:13;" transform="matrix(1 0 0 1 263 726)">Small</text>
  <text style="stroke:none;fill:black;font-family:sans-serif;font-size:13;" transform="matrix(1 0 0 1 263 1156)">Medium</text>
  <text style="stroke:none;fill:black;font-family:sans-serif;font-size:13;" transform="matrix(1 0 0 1 263 1586)">Large</text>
 </g>
 <g id="Guides">
  <g id="H-reference" style="fill:#27AAE1;stroke:none;" transform="matrix(1 0 0 1 339 696)">
   <path d="M0.993654 0L3.63775 0L29.3281-67.1323L30.0303-67.1323L30.0303-70.459L28.1226-70.459ZM11.6885-24.4799L46.9815-24.4799L46.2315-26.7285L12.4385-26.7285ZM55.1196 0L57.7637 0L30.6382-70.459L29.4326-70.459L29.4326-67.1323Z"/>
  </g>
  <line id="Baseline-S" style="fill:none;stroke:#27AAE1;opacity:1;stroke-width:0.5;" x1="263" x2="3036" y1="696" y2="696"/>
  <line id="Capline-S" style="fill:none;stroke:#27AAE1;opacity:1;stroke-width:0.5;" x1="263" x2="3036" y1="625.541" y2="625.541"/>
  <g id="H-reference" style="fill:#27AAE1;stroke:none;" transform="matrix(1 0 0 1 339 1126)">
   <path d="M0.993654 0L3.63775 0L29.3281-67.1323L30.0303-67.1323L30.0303-70.459L28.1226-70.459ZM11.6885-24.4799L46.9815-24.4799L46.2315-26.7285L12.4385-26.7285ZM55.1196 0L57.7637 0L30.6382-70.459L29.4326-70.459L29.4326-67.1323Z"/>
  </g>
  <line id="Baseline-M" style="fill:none;stroke:#27AAE1;opacity:1;stroke-width:0.5;" x1="263" x2="3036" y1="1126" y2="1126"/>
  <line id="Capline-M" style="fill:none;stroke:#27AAE1;opacity:1;stroke-width:0.5;" x1="263" x2="3036" y1="1055.54" y2="1055.54"/>
  <g id="H-reference" style="fill:#27AAE1;stroke:none;" transform="matrix(1 0 0 1 339 1556)">
   <path d="M0.993654 0L3.63775 0L29.3281-67.1323L30.0303-67.1323L30.0303-70.459L28.1226-70.459ZM11.6885-24.4799L46.9815-24.4799L46.2315-26.7285L12.4385-26.7285ZM55.1196 0L57.7637 0L30.6382-70.459L29.4326-70.459L29.4326-67.1323Z"/>
  </g>
  <line id="Baseline-L" style="fill:none;stroke:#27AAE1;opacity:1;stroke-width:0.5;" x1="263" x2="3036" y1="1556" y2="1556"/>
  <line id="Capline-L" style="fill:none;stroke:#27AAE1;opacity:1;stroke-width:0.5;" x1="263" x2="3036" y1="1485.54" y2="1485.54"/>
  <line id="right-margin-Regular-M" style="fill:none;stroke:#00AEEF;stroke-width:0.5;opacity:1.0;" x1="1520.79" x2="1520.79" y1="1030.79" y2="1150.12"/>
  <line id="left-margin-Regular-M" style="fill:none;stroke:#00AEEF;stroke-width:0.5;opacity:1.0;" x1="1378.9" x2="1378.9" y1="1030.79" y2="1150.12"/>
 </g>
 <g id="Symbols">
  <g id="Black-L" transform="matrix(1 0 0 1 2845.28 1556)">
   <path class="SFSymbolsPreviewWireframe" d="M32.085-81.018C29.645-78.576 28.518-75.703 28.518-72.297C28.518-65.291 34.243-59.528 41.132-59.528C44.653-59.528 47.88-61.002 50.553-63.714L90.381-104.829L86.121-104.829L125.75-63.714C128.425-60.944 131.672-59.528 135.114-59.528C142.003-59.528 147.728-65.291 147.728-72.297C147.728-75.762 146.603-78.575 144.183-81.017L98.81-127.348C95.51-130.726 92.242-132.148 88.152-132.206C84.12-132.206 80.836-130.786 77.495-127.349L32.085-81.018ZM32.085 10.517L77.495 56.848C80.894 60.247 84.12 61.725 88.152 61.725C92.242 61.667 95.452 60.188 98.81 56.847L144.183 10.515C146.603 8.095 147.728 5.28 147.728 1.817C147.728-5.19 142.003-10.973 135.114-10.973C131.672-10.973 128.425-9.537 125.75-6.788L86.121 34.348L90.381 34.348L50.553-6.788C47.88-9.479 44.653-10.973 41.132-10.973C34.243-10.973 28.518-5.19 28.518 1.817C28.518 5.222 29.703 8.037 32.085 10.517Z"/>
  </g>
  <g id="Heavy-L" transform="matrix(1 0 0 1 2549.86 1556)">
   <path class="SFSymbolsPreviewWireframe" d="M31.638-78.041C29.526-75.923 28.518-73.429 28.518-70.47C28.518-64.399 33.448-59.454 39.43-59.454C42.467-59.454 45.246-60.713 47.531-63.018L89.319-106.124L84.558-106.124L126.171-63.018C128.461-60.669 131.271-59.454 134.233-59.454C140.214-59.454 145.145-64.399 145.145-70.47C145.145-73.473 144.142-75.918 142.06-78.035L95.939-125.236C93.172-128.079 90.332-129.321 86.851-129.366C83.414-129.366 80.596-128.129 77.768-125.242L31.638-78.041ZM31.638 7.51L77.768 54.711C80.641 57.584 83.414 58.866 86.851 58.866C90.332 58.821 93.127 57.534 95.939 54.706L142.06 7.504C144.142 5.417 145.145 2.967 145.145-0.031C145.145-6.102 140.214-11.077 134.233-11.077C131.271-11.077 128.461-9.832 126.171-7.513L84.558 35.623L89.319 35.623L47.531-7.513C45.246-9.787 42.467-11.077 39.43-11.077C33.448-11.077 28.518-6.102 28.518-0.031C28.518 2.923 29.571 5.378 31.638 7.51Z"/>
  </g>
  <g id="Bold-L" transform="matrix(1 0 0 1 2254.86 1556)">
   <path class="SFSymbolsPreviewWireframe" d="M31.092-74.449C29.38-72.724 28.518-70.698 28.518-68.285C28.518-63.359 32.487-59.399 37.354-59.399C39.799-59.399 42.04-60.397 43.856-62.217L87.789-107.67L82.614-107.67L126.395-62.217C128.224-60.367 130.503-59.399 132.881-59.399C137.748-59.399 141.717-63.359 141.717-68.285C141.717-70.727 140.868-72.711 139.194-74.436L92.36-122.653C90.208-124.872 87.891-125.907 85.126-125.936C82.389-125.936 80.133-124.915 77.905-122.666L31.092-74.449ZM31.092 3.881L77.905 52.098C80.162 54.355 82.389 55.405 85.126 55.405C87.891 55.376 90.179 54.312 92.36 52.085L139.194 3.867C140.868 2.18 141.717 0.183 141.717-2.246C141.717-7.172 137.748-11.17 132.881-11.17C130.503-11.17 128.224-10.163 126.395-8.352L82.614 37.139L87.789 37.139L43.856-8.352C42.04-10.134 39.799-11.17 37.354-11.17C32.487-11.17 28.518-7.172 28.518-2.246C28.518 0.154 29.409 2.164 31.092 3.881Z"/>
  </g>
  <g id="Semibold-L" transform="matrix(1 0 0 1 1959.33 1556)">
   <path class="SFSymbolsPreviewWireframe" d="M30.715-71.968C29.279-70.513 28.518-68.81 28.518-66.773C28.518-62.637 31.824-59.356 35.923-59.356C37.96-59.356 39.83-60.173 41.322-61.659L86.734-108.73L81.274-108.73L126.55-61.659C128.06-60.154 129.973-59.356 131.949-59.356C136.047-59.356 139.354-62.637 139.354-66.773C139.354-68.829 138.611-70.494 137.218-71.949L89.891-120.867C88.164-122.656 86.208-123.547 83.936-123.566C81.682-123.566 79.813-122.693 77.999-120.886L30.715-71.968ZM30.715 1.384L77.999 50.302C79.831 52.134 81.682 53.025 83.936 53.025C86.208 53.007 88.146 52.097 89.891 50.283L137.218 1.365C138.611-0.046 139.354-1.731 139.354-3.768C139.354-7.904 136.047-11.228 131.949-11.228C129.973-11.228 128.06-10.386 126.55-8.925L81.274 38.189L86.734 38.189L41.322-8.925C39.83-10.368 37.96-11.228 35.923-11.228C31.824-11.228 28.518-7.904 28.518-3.768C28.518-1.749 29.298-0.046 30.715 1.384Z"/>
  </g>
  <g id="Medium-L" transform="matrix(1 0 0 1 1663.52 1556)">
   <path class="SFSymbolsPreviewWireframe" d="M30.43-70.083C29.203-68.833 28.518-67.375 28.518-65.624C28.518-62.087 31.321-59.32 34.838-59.32C36.565-59.32 38.154-60 39.401-61.233L85.934-109.531L80.258-109.531L126.667-61.233C127.936-59.99 129.572-59.32 131.242-59.32C134.758-59.32 137.562-62.087 137.562-65.624C137.562-67.386 136.899-68.811 135.719-70.061L88.02-119.51C86.615-120.973 84.931-121.755 83.034-121.766C81.147-121.766 79.57-121.006 78.07-119.532L30.43-70.083ZM30.43-0.506L78.07 48.943C79.581 50.453 81.147 51.224 83.034 51.224C84.931 51.213 86.604 50.42 88.02 48.92L135.719-0.529C136.899-1.731 137.562-3.179 137.562-4.918C137.562-8.456 134.758-11.27 131.242-11.27C129.572-11.27 127.936-10.552 126.667-9.357L80.258 38.989L85.934 38.989L39.401-9.357C38.154-10.542 36.565-11.27 34.838-11.27C31.321-11.27 28.518-8.456 28.518-4.918C28.518-3.189 29.213-1.719 30.43-0.506Z"/>
  </g>
  <g id="Regular-L" transform="matrix(1 0 0 1 1367.98 1556)">
   <path class="SFSymbolsPreviewWireframe" d="M30.058-67.633C29.103-66.651 28.518-65.512 28.518-64.133C28.518-61.376 30.666-59.281 33.423-59.281C34.747-59.281 35.968-59.783 36.895-60.685L84.891-110.584L78.933-110.584L126.82-60.685C127.775-59.783 129.049-59.281 130.32-59.281C133.077-59.281 135.225-61.376 135.225-64.133C135.225-65.512 134.667-66.623 133.765-67.605L85.579-117.747C84.594-118.785 83.267-119.426 81.858-119.426C80.448-119.426 79.255-118.813 78.164-117.775L30.058-67.633ZM30.058-2.98L78.164 47.162C79.255 48.253 80.448 48.866 81.858 48.866C83.267 48.866 84.594 48.225 85.579 47.135L133.765-3.007C134.667-3.937 135.225-5.075 135.225-6.427C135.225-9.184 133.077-11.332 130.32-11.332C129.049-11.332 127.775-10.777 126.82-9.927L78.933 40.024L84.891 40.024L36.895-9.927C35.968-10.777 34.747-11.332 33.423-11.332C30.666-11.332 28.518-9.184 28.518-6.427C28.518-5.075 29.103-3.91 30.058-2.98Z"/>
  </g>
  <g id="Light-L" transform="matrix(1 0 0 1 1073.18 1556)">
   <path class="SFSymbolsPreviewWireframe" d="M29.733-65.756C29.008-64.983 28.518-64.169 28.518-63.114C28.518-61.064 30.151-59.465 32.201-59.465C33.162-59.465 34.116-59.814 34.796-60.507L82.447-111.264L77.539-111.264L125.064-60.507C125.79-59.814 126.777-59.465 127.705-59.465C129.756-59.465 131.389-61.064 131.389-63.114C131.389-64.169 130.945-64.936 130.253-65.709L82.945-116.156C82.113-117.022 81.091-117.606 79.93-117.606C78.768-117.606 77.861-117.069 76.961-116.203L29.733-65.756ZM29.733-4.862L76.961 45.585C77.861 46.485 78.768 47.022 79.93 47.022C81.091 47.022 82.113 46.438 82.945 45.538L130.253-4.909C130.945-5.648 131.389-6.462 131.389-7.47C131.389-9.52 129.756-11.153 127.705-11.153C126.777-11.153 125.79-10.77 125.064-10.111L77.539 40.68L82.447 40.68L34.796-10.111C34.116-10.77 33.162-11.153 32.201-11.153C30.151-11.153 28.518-9.52 28.518-7.47C28.518-6.462 29.008-5.601 29.733-4.862Z"/>
  </g>
  <g id="Thin-L" transform="matrix(1 0 0 1 779.01 1556)">
   <path class="SFSymbolsPreviewWireframe" d="M29.305-63.27C28.882-62.775 28.518-62.39 28.518-61.764C28.518-60.648 29.469-59.705 30.586-59.705C31.068-59.705 31.668-59.853 32.019-60.267L79.217-112.161L75.697-112.161L122.742-60.267C123.165-59.853 123.774-59.705 124.248-59.705C125.364-59.705 126.315-60.648 126.315-61.764C126.315-62.39 126.024-62.703 125.609-63.198L79.462-114.049C78.832-114.688 78.214-115.196 77.381-115.196C76.547-115.196 76.019-114.76 75.371-114.121L29.305-63.27ZM29.305-7.349L75.371 43.502C76.019 44.149 76.547 44.585 77.381 44.585C78.214 44.585 78.832 44.077 79.462 43.43L125.609-7.421C126.024-7.908 126.315-8.292 126.315-8.846C126.315-9.963 125.364-10.914 124.248-10.914C123.774-10.914 123.165-10.758 122.742-10.352L75.697 41.55L79.217 41.55L32.019-10.352C31.668-10.758 31.068-10.914 30.586-10.914C29.469-10.914 28.518-9.963 28.518-8.846C28.518-8.292 28.882-7.836 29.305-7.349Z"/>
  </g>
  <g id="Ultralight-L" transform="matrix(1 0 0 1 483.598 1556)">
   <path class="SFSymbolsPreviewWireframe" d="M29.085-62.001C28.817-61.649 28.518-61.484 28.518-61.078C28.518-60.44 29.12-59.833 29.758-59.833C29.994-59.833 30.414-59.877 30.597-60.149L77.562-112.625L74.753-112.625L121.552-60.149C121.82-59.877 122.235-59.833 122.476-59.833C123.114-59.833 123.717-60.44 123.717-61.078C123.717-61.484 123.502-61.564 123.23-61.916L77.678-112.974C77.151-113.497 76.74-113.966 76.075-113.966C75.409-113.966 75.075-113.582 74.557-113.059L29.085-62.001ZM29.085-8.627L74.557 42.431C75.075 42.949 75.409 43.333 76.075 43.333C76.74 43.333 77.151 42.864 77.678 42.346L123.23-8.712C123.502-9.07 123.717-9.234 123.717-9.556C123.717-10.194 123.114-10.796 122.476-10.796C122.235-10.796 121.82-10.756 121.552-10.479L74.753 41.991L77.562 41.991L30.597-10.479C30.414-10.756 29.994-10.796 29.758-10.796C29.12-10.796 28.518-10.194 28.518-9.556C28.518-9.234 28.817-8.985 29.085-8.627Z"/>
  </g>
  <g id="Black-M" transform="matrix(1 0 0 1 2857.86 1126)">
   <path class="SFSymbolsPreviewWireframe" d="M31.622-75.262C29.48-73.12 28.518-70.613 28.518-67.633C28.518-61.497 33.567-56.397 39.589-56.397C42.683-56.397 45.532-57.703 47.903-60.125L77.027-90.384L74.3-90.384L103.249-60.125C105.619-57.645 108.474-56.397 111.505-56.397C117.527-56.397 122.575-61.497 122.575-67.633C122.575-70.67 121.613-73.12 119.477-75.262L85.086-110.45C82.094-113.505 79.234-114.752 75.576-114.809C71.975-114.809 69.068-113.562 66.065-110.45L31.622-75.262ZM31.622 4.792L66.065 39.981C69.126 43.041 71.975 44.345 75.576 44.345C79.234 44.288 82.037 42.984 85.086 39.981L119.477 4.793C121.613 2.656 122.575 0.206 122.575-2.83C122.575-8.967 117.527-14.072 111.505-14.072C108.474-14.072 105.619-12.818 103.249-10.345L74.3 19.92L77.027 19.92L47.903-10.345C45.532-12.761 42.683-14.072 39.589-14.072C33.567-14.072 28.518-8.967 28.518-2.83C28.518 0.149 29.537 2.599 31.622 4.792Z"/>
  </g>
  <g id="Heavy-M" transform="matrix(1 0 0 1 2562.23 1126)">
   <path class="SFSymbolsPreviewWireframe" d="M31.215-72.523C29.373-70.679 28.518-68.511 28.518-65.939C28.518-60.652 32.837-56.306 38.037-56.306C40.692-56.306 43.127-57.416 45.142-59.459L76.214-91.585L72.901-91.585L103.822-59.459C105.838-57.372 108.29-56.306 110.885-56.306C116.085-56.306 120.404-60.652 120.404-65.939C120.404-68.555 119.551-70.676 117.726-72.521L82.523-108.531C80.036-111.078 77.568-112.155 74.482-112.199C71.439-112.199 68.962-111.124 66.443-108.533L31.215-72.523ZM31.215 2.029L66.443 38.039C69.006 40.602 71.439 41.721 74.482 41.721C77.568 41.678 79.993 40.557 82.523 38.037L117.726 2.026C119.551 0.198 120.404-1.925 120.404-4.539C120.404-9.826 116.085-14.188 110.885-14.188C108.29-14.188 105.838-13.106 103.822-11.035L72.901 21.107L76.214 21.107L45.142-11.035C43.127-13.062 40.692-14.188 38.037-14.188C32.837-14.188 28.518-9.826 28.518-4.539C28.518-1.969 29.416 0.157 31.215 2.029Z"/>
  </g>
  <g id="Bold-M" transform="matrix(1 0 0 1 2266.74 1126)">
   <path class="SFSymbolsPreviewWireframe" d="M30.759-69.459C29.252-67.947 28.518-66.16 28.518-64.044C28.518-59.707 32.021-56.204 36.301-56.204C38.464-56.204 40.438-57.094 42.053-58.715L75.305-92.929L71.335-92.929L104.462-58.715C106.083-57.066 108.085-56.204 110.191-56.204C114.471-56.204 117.974-59.707 117.974-64.044C117.974-66.189 117.245-67.942 115.767-69.453L79.656-106.384C77.734-108.363 75.704-109.25 73.258-109.279C70.84-109.279 68.843-108.396 66.865-106.389L30.759-69.459ZM30.759-1.063L66.865 35.868C68.872 37.875 70.84 38.786 73.258 38.786C75.704 38.758 77.706 37.841 79.656 35.863L115.767-1.068C117.245-2.551 117.974-4.309 117.974-6.449C117.974-10.786 114.471-14.318 110.191-14.318C108.085-14.318 106.083-13.427 104.462-11.807L71.335 22.436L75.305 22.436L42.053-11.807C40.438-13.398 38.464-14.318 36.301-14.318C32.021-14.318 28.518-10.786 28.518-6.449C28.518-4.338 29.281-2.574 30.759-1.063Z"/>
  </g>
  <g id="Semibold-M" transform="matrix(1 0 0 1 1970.86 1126)">
   <path class="SFSymbolsPreviewWireframe" d="M30.445-67.349C29.17-66.067 28.518-64.543 28.518-62.74C28.518-59.058 31.459-56.136 35.105-56.136C36.929-56.136 38.584-56.876 39.924-58.204L74.679-93.858L70.256-93.858L104.905-58.204C106.252-56.858 107.944-56.136 109.714-56.136C113.36-56.136 116.3-59.058 116.3-62.74C116.3-64.561 115.655-66.06 114.417-67.342L77.68-104.907C76.148-106.494 74.419-107.251 72.415-107.269C70.428-107.269 68.762-106.519 67.157-104.914L30.445-67.349ZM30.445-3.197L67.157 34.368C68.78 35.991 70.428 36.76 72.415 36.76C74.419 36.742 76.13 35.966 77.68 34.361L114.417-3.204C115.655-4.449 116.3-5.956 116.3-7.769C116.3-11.451 113.36-14.41 109.714-14.41C107.944-14.41 106.252-13.651 104.905-12.342L70.256 23.349L74.679 23.349L39.924-12.342C38.584-13.633 36.929-14.41 35.105-14.41C31.459-14.41 28.518-11.451 28.518-7.769C28.518-5.974 29.188-4.46 30.445-3.197Z"/>
  </g>
  <g id="Medium-M" transform="matrix(1 0 0 1 1674.79 1126)">
   <path class="SFSymbolsPreviewWireframe" d="M30.207-65.744C29.108-64.636 28.518-63.31 28.518-61.746C28.518-58.56 31.033-56.079 34.198-56.079C35.765-56.079 37.179-56.704 38.311-57.812L74.205-94.557L69.438-94.557L105.241-57.812C106.381-56.694 107.838-56.079 109.352-56.079C112.517-56.079 115.031-58.56 115.031-61.746C115.031-63.32 114.45-64.627 113.394-65.735L76.182-103.781C74.946-105.07 73.446-105.729 71.776-105.739C70.116-105.739 68.701-105.089 67.378-103.79L30.207-65.744ZM30.207-4.809L67.378 33.236C68.711 34.569 70.116 35.229 71.776 35.229C73.446 35.219 74.936 34.55 76.182 33.228L113.394-4.818C114.45-5.882 115.031-7.198 115.031-8.764C115.031-11.95 112.517-14.474 109.352-14.474C107.838-14.474 106.381-13.816 105.241-12.742L69.438 24.047L74.205 24.047L38.311-12.742C37.179-13.805 35.765-14.474 34.198-14.474C31.033-14.474 28.518-11.95 28.518-8.764C28.518-7.208 29.118-5.884 30.207-4.809Z"/>
  </g>
  <g id="Regular-M" transform="matrix(1 0 0 1 1378.9 1126)">
   <path class="SFSymbolsPreviewWireframe" d="M29.896-63.656C29.026-62.775 28.518-61.708 28.518-60.454C28.518-57.916 30.476-56.01 33.014-56.01C34.246-56.01 35.345-56.486 36.204-57.305L73.584-95.474L68.37-95.474L105.677-57.305C106.547-56.486 107.697-56.01 108.878-56.01C111.416-56.01 113.374-57.916 113.374-60.454C113.374-61.708 112.877-62.764 112.058-63.645L74.226-102.318C73.376-103.22 72.174-103.749 70.941-103.749C69.707-103.749 68.619-103.231 67.666-102.329L29.896-63.656ZM29.896-6.918L67.666 31.755C68.619 32.709 69.707 33.227 70.941 33.227C72.174 33.227 73.376 32.698 74.226 31.744L112.058-6.929C112.877-7.758 113.374-8.825 113.374-10.068C113.374-12.606 111.416-14.564 108.878-14.564C107.697-14.564 106.547-14.036 105.677-13.269L68.37 24.952L73.584 24.952L36.204-13.269C35.345-14.036 34.246-14.564 33.014-14.564C30.476-14.564 28.518-12.606 28.518-10.068C28.518-8.825 29.026-7.747 29.896-6.918ZM108.874 34.2086C111.363 34.2086 113.381 36.2307 113.381 38.7215C113.381 38.7215 113.381 38.7215 113.381 38.7215C113.381 41.2124 111.363 43.2211 108.874 43.2211C94.1707 43.2211 47.7287 43.2211 33.0373 43.2211C30.5364 43.2211 28.5188 41.2124 28.5188 38.7215C28.5188 38.7215 28.5188 38.7215 28.5188 38.7215C28.5188 36.2307 30.5364 34.2086 33.0373 34.2086C47.7287 34.2086 94.1707 34.2086 108.874 34.2086ZM108.874-113.741C111.363-113.741 113.381-111.719 113.381-109.228C113.381-109.228 113.381-109.228 113.381-109.228C113.381-106.738 111.363-104.729 108.874-104.729C94.1707-104.729 47.7287-104.729 33.0373-104.729C30.5364-104.729 28.5188-106.738 28.5188-109.228C28.5188-109.228 28.5188-109.228 28.5188-109.228C28.5188-111.719 30.5364-113.741 33.0373-113.741C47.7287-113.741 94.1707-113.741 108.874-113.741Z"/>
  </g>
  <g id="Light-M" transform="matrix(1 0 0 1 1083.91 1126)">
   <path class="SFSymbolsPreviewWireframe" d="M29.605-61.974C28.94-61.282 28.518-60.506 28.518-59.543C28.518-57.638 30.014-56.177 31.919-56.177C32.826-56.177 33.685-56.516 34.322-57.146L71.394-96.086L67.121-96.086L104.103-57.146C104.768-56.516 105.661-56.177 106.534-56.177C108.439-56.177 109.935-57.638 109.935-59.543C109.935-60.506 109.54-61.254 108.91-61.947L71.865-100.893C71.152-101.641 70.224-102.119 69.213-102.119C68.202-102.119 67.37-101.669 66.588-100.921L29.605-61.974ZM29.605-8.608L66.588 30.339C67.37 31.122 68.202 31.572 69.213 31.572C70.224 31.572 71.152 31.094 71.865 30.311L108.91-8.635C109.54-9.293 109.935-10.069 109.935-11.004C109.935-12.909 108.439-14.405 106.534-14.405C105.661-14.405 104.768-14.031 104.103-13.436L67.121 25.538L71.394 25.538L34.322-13.436C33.685-14.031 32.826-14.405 31.919-14.405C30.014-14.405 28.518-12.909 28.518-11.004C28.518-10.069 28.94-9.266 29.605-8.608Z"/>
  </g>
  <g id="Thin-M" transform="matrix(1 0 0 1 789.475 1126)">
   <path class="SFSymbolsPreviewWireframe" d="M29.22-59.746C28.827-59.303 28.518-58.911 28.518-58.333C28.518-57.266 29.403-56.393 30.47-56.393C30.948-56.393 31.49-56.551 31.833-56.933L68.497-96.89L65.469-96.89L102.021-56.933C102.414-56.551 102.968-56.393 103.434-56.393C104.501-56.393 105.386-57.266 105.386-58.333C105.386-58.911 105.127-59.252 104.746-59.696L68.742-99.005C68.21-99.549 67.644-99.959 66.927-99.959C66.21-99.959 65.718-99.6 65.162-99.055L29.22-59.746ZM29.22-10.838L65.162 28.471C65.718 29.027 66.21 29.387 66.927 29.387C67.644 29.387 68.21 28.977 68.742 28.421L104.746-10.888C105.127-11.32 105.386-11.711 105.386-12.239C105.386-13.306 104.501-14.191 103.434-14.191C102.968-14.191 102.414-14.021 102.021-13.652L65.469 26.318L68.497 26.318L31.833-13.652C31.49-14.021 30.948-14.191 30.47-14.191C29.403-14.191 28.518-13.306 28.518-12.239C28.518-11.711 28.827-11.27 29.22-10.838Z"/>
  </g>
  <g id="Ultralight-M" transform="matrix(1 0 0 1 493.928 1126)">
   <path class="SFSymbolsPreviewWireframe" d="M29.024-58.601C28.77-58.285 28.518-58.091 28.518-57.71C28.518-57.072 29.09-56.5 29.729-56.5C29.986-56.5 30.366-56.566 30.558-56.82L67.014-97.299L64.623-97.299L100.955-56.82C101.209-56.566 101.589-56.5 101.846-56.5C102.485-56.5 103.057-57.072 103.057-57.71C103.057-58.091 102.868-58.223 102.614-58.54L67.143-98.034C66.703-98.474 66.323-98.849 65.757-98.849C65.19-98.849 64.873-98.536 64.432-98.096L29.024-58.601ZM29.024-11.977L64.432 27.518C64.873 27.958 65.19 28.271 65.757 28.271C66.323 28.271 66.703 27.896 67.143 27.456L102.614-12.039C102.868-12.354 103.057-12.548 103.057-12.868C103.057-13.506 102.485-14.078 101.846-14.078C101.589-14.078 101.209-14.012 100.955-13.759L64.623 26.721L67.014 26.721L30.558-13.759C30.366-14.012 29.986-14.078 29.729-14.078C29.09-14.078 28.518-13.506 28.518-12.868C28.518-12.548 28.77-12.292 29.024-11.977Z"/>
  </g>
  <g id="Black-S" transform="matrix(1 0 0 1 2867.8 696)">
   <path class="SFSymbolsPreviewWireframe" d="M31.057-69.497C29.299-67.739 28.518-65.689 28.518-63.247C28.518-58.218 32.668-54.019 37.6-54.019C40.139-54.019 42.482-55.093 44.436-57.095L66.652-80.288L64.748-80.288L86.818-57.095C88.771-55.044 91.115-54.019 93.605-54.019C98.537-54.019 102.688-58.218 102.688-63.247C102.688-65.738 101.906-67.739 100.148-69.497L73.488-96.841C70.998-99.38 68.654-100.406 65.627-100.454C62.648-100.454 60.256-99.429 57.766-96.841L31.057-69.497ZM31.057-0.962L57.766 26.382C60.305 28.921 62.648 29.995 65.627 29.995C68.654 29.946 70.949 28.872 73.488 26.382L100.148-0.962C101.906-2.72 102.688-4.722 102.688-7.212C102.688-12.241 98.537-16.441 93.605-16.441C91.115-16.441 88.771-15.415 86.818-13.364L64.748 9.829L66.652 9.829L44.436-13.364C42.482-15.366 40.139-16.441 37.6-16.441C32.668-16.441 28.518-12.241 28.518-7.212C28.518-4.771 29.348-2.769 31.057-0.962Z"/>
  </g>
  <g id="Heavy-S" transform="matrix(1 0 0 1 2571.8 696)">
   <path class="SFSymbolsPreviewWireframe" d="M30.746-67.371C29.219-65.843 28.518-64.046 28.518-61.916C28.518-57.532 32.104-53.92 36.413-53.92C38.618-53.92 40.639-54.845 42.316-56.547L66.238-81.239L63.711-81.239L87.51-56.547C89.187-54.807 91.219-53.92 93.375-53.92C97.685-53.92 101.271-57.532 101.271-61.916C101.271-64.083 100.57-65.843 99.054-67.371L71.599-95.383C69.523-97.507 67.479-98.394 64.913-98.431C62.384-98.431 60.326-97.544 58.227-95.383L30.746-67.371ZM30.746-3.111L58.227 24.901C60.363 27.037 62.384 27.961 64.913 27.961C67.479 27.924 69.486 27 71.599 24.901L99.054-3.111C100.57-4.627 101.271-6.387 101.271-8.554C101.271-12.938 97.685-16.561 93.375-16.561C91.219-16.561 89.187-15.663 87.51-13.934L63.711 10.769L66.238 10.769L42.316-13.934C40.639-15.625 38.618-16.561 36.413-16.561C32.104-16.561 28.518-12.938 28.518-8.554C28.518-6.424 29.256-4.664 30.746-3.111Z"/>
  </g>
  <g id="Bold-S" transform="matrix(1 0 0 1 2275.88 696)">
   <path class="SFSymbolsPreviewWireframe" d="M30.398-64.993C29.129-63.723 28.518-62.209 28.518-60.427C28.518-56.765 31.472-53.811 35.086-53.811C36.917-53.811 38.577-54.568 39.944-55.935L65.774-82.302L62.551-82.302L88.284-55.935C89.651-54.543 91.336-53.811 93.118-53.811C96.731-53.811 99.685-56.765 99.685-60.427C99.685-62.234 99.075-63.723 97.83-64.993L69.485-93.752C67.874-95.412 66.165-96.145 64.114-96.169C62.088-96.169 60.403-95.437 58.743-93.752L30.398-64.993ZM30.398-5.515L58.743 23.245C60.427 24.929 62.088 25.686 64.114 25.686C66.165 25.662 67.849 24.905 69.485 23.245L97.83-5.515C99.075-6.76 99.685-8.249 99.685-10.056C99.685-13.718 96.731-16.697 93.118-16.697C91.336-16.697 89.651-15.94 88.284-14.573L62.551 11.819L65.774 11.819L39.944-14.573C38.577-15.916 36.917-16.697 35.086-16.697C31.472-16.697 28.518-13.718 28.518-10.056C28.518-8.274 29.153-6.785 30.398-5.515Z"/>
  </g>
  <g id="Semibold-S" transform="matrix(1 0 0 1 1979.72 696)">
   <path class="SFSymbolsPreviewWireframe" d="M30.158-63.353C29.066-62.261 28.518-60.943 28.518-59.4C28.518-56.236 31.037-53.735 34.17-53.735C35.744-53.735 37.155-54.376 38.309-55.513L65.454-83.035L61.752-83.035L88.817-55.513C89.971-54.361 91.415-53.735 92.94-53.735C96.074-53.735 98.592-56.236 98.592-59.4C98.592-60.958 98.044-62.261 96.986-63.353L68.028-92.628C66.736-93.968 65.258-94.594 63.563-94.609C61.883-94.609 60.456-93.984 59.098-92.628L30.158-63.353ZM30.158-7.172L59.098 22.103C60.472 23.477 61.883 24.118 63.563 24.118C65.258 24.102 66.721 23.461 68.028 22.103L96.986-7.172C98.044-8.231 98.592-9.533 98.592-11.091C98.592-14.255 96.074-16.79 92.94-16.79C91.415-16.79 89.971-16.131 88.817-15.012L61.752 12.544L65.454 12.544L38.309-15.012C37.155-16.115 35.744-16.79 34.17-16.79C31.037-16.79 28.518-14.255 28.518-11.091C28.518-9.549 29.082-8.246 30.158-7.172Z"/>
  </g>
  <g id="Medium-S" transform="matrix(1 0 0 1 1683.42 696)">
   <path class="SFSymbolsPreviewWireframe" d="M29.976-62.11C29.019-61.153 28.518-59.983 28.518-58.623C28.518-55.836 30.706-53.678 33.476-53.678C34.854-53.678 36.077-54.232 37.069-55.193L65.211-83.591L61.145-83.591L89.221-55.193C90.213-54.223 91.476-53.678 92.805-53.678C95.575-53.678 97.763-55.836 97.763-58.623C97.763-59.992 97.262-61.153 96.345-62.11L66.922-91.776C65.873-92.874 64.571-93.419 63.145-93.427C61.728-93.427 60.497-92.883 59.368-91.776L29.976-62.11ZM29.976-8.429L59.368 21.237C60.505 22.374 61.728 22.928 63.145 22.928C64.571 22.919 65.865 22.366 66.922 21.237L96.345-8.429C97.262-9.346 97.763-10.507 97.763-11.877C97.763-14.664 95.575-16.861 92.805-16.861C91.476-16.861 90.213-16.276 89.221-15.346L61.145 13.092L65.211 13.092L37.069-15.346C36.077-16.267 34.854-16.861 33.476-16.861C30.706-16.861 28.518-14.664 28.518-11.877C28.518-10.516 29.028-9.355 29.976-8.429Z"/>
  </g>
  <g id="Regular-S" transform="matrix(1 0 0 1 1387.25 696)">
   <path class="SFSymbolsPreviewWireframe" d="M29.739-60.488C28.957-59.707 28.518-58.73 28.518-57.607C28.518-55.312 30.276-53.603 32.571-53.603C33.694-53.603 34.67-54.043 35.451-54.775L64.895-84.316L60.354-84.316L89.748-54.775C90.53-54.043 91.555-53.603 92.629-53.603C94.924-53.603 96.682-55.312 96.682-57.607C96.682-58.73 96.243-59.707 95.51-60.488L65.481-90.664C64.748-91.445 63.674-91.884 62.6-91.884C61.526-91.884 60.549-91.445 59.719-90.664L29.739-60.488ZM29.739-10.068L59.719 20.108C60.549 20.938 61.526 21.377 62.6 21.377C63.674 21.377 64.748 20.938 65.481 20.108L95.51-10.068C96.243-10.8 96.682-11.777 96.682-12.9C96.682-15.195 94.924-16.953 92.629-16.953C91.555-16.953 90.53-16.464 89.748-15.781L60.354 13.809L64.895 13.809L35.451-15.781C34.67-16.464 33.694-16.953 32.571-16.953C30.276-16.953 28.518-15.195 28.518-12.9C28.518-11.777 28.957-10.8 29.739-10.068Z"/>
  </g>
  <g id="Light-S" transform="matrix(1 0 0 1 1092.06 696)">
   <path class="SFSymbolsPreviewWireframe" d="M29.481-58.997C28.881-58.383 28.518-57.663 28.518-56.798C28.518-55.063 29.867-53.747 31.602-53.747C32.437-53.747 33.202-54.066 33.786-54.632L62.957-84.854L59.249-84.854L88.356-54.632C88.955-54.066 89.754-53.747 90.555-53.747C92.29-53.747 93.639-55.063 93.639-56.798C93.639-57.663 93.291-58.368 92.725-58.982L63.392-89.4C62.78-90.045 61.948-90.439 61.071-90.439C60.194-90.439 59.444-90.06 58.765-89.415L29.481-58.997ZM29.481-11.559L58.765 18.859C59.444 19.537 60.194 19.916 61.071 19.916C61.948 19.916 62.78 19.522 63.392 18.843L92.725-11.575C93.291-12.156 93.639-12.875 93.639-13.725C93.639-15.46 92.29-16.809 90.555-16.809C89.754-16.809 88.955-16.457 88.356-15.925L59.249 14.331L62.957 14.331L33.786-15.925C33.202-16.457 32.437-16.809 31.602-16.809C29.867-16.809 28.518-15.46 28.518-13.725C28.518-12.875 28.881-12.14 29.481-11.559Z"/>
  </g>
  <g id="Thin-S" transform="matrix(1 0 0 1 797.36 696)">
   <path class="SFSymbolsPreviewWireframe" d="M29.141-57.025C28.781-56.631 28.518-56.252 28.518-55.727C28.518-54.732 29.326-53.937 30.32-53.937C30.775-53.937 31.26-54.096 31.584-54.441L60.395-85.564L57.787-85.564L86.514-54.441C86.873-54.096 87.371-53.937 87.813-53.937C88.807-53.937 89.615-54.732 89.615-55.727C89.615-56.252 89.387-56.596 89.041-56.99L60.629-87.728C60.178-88.193 59.666-88.527 59.049-88.527C58.432-88.527 57.983-88.228 57.504-87.764L29.141-57.025ZM29.141-13.531L57.504 17.207C57.983 17.686 58.432 17.984 59.049 17.984C59.666 17.984 60.178 17.65 60.629 17.172L89.041-13.566C89.387-13.947 89.615-14.326 89.615-14.816C89.615-15.81 88.807-16.619 87.813-16.619C87.371-16.619 86.873-16.447 86.514-16.115L57.787 15.022L60.395 15.022L31.584-16.115C31.26-16.447 30.775-16.619 30.32-16.619C29.326-16.619 28.518-15.81 28.518-14.816C28.518-14.326 28.781-13.912 29.141-13.531Z"/>
  </g>
  <g id="Ultralight-S" transform="matrix(1 0 0 1 501.679 696)">
   <path class="SFSymbolsPreviewWireframe" d="M28.967-61.016C28.731-60.734 28.518-60.529 28.518-60.178C28.518-59.563 29.05-59.035 29.665-59.035C29.925-59.035 30.266-59.111 30.457-59.344L59.083-90.929L57.039-90.929L85.571-59.344C85.807-59.111 86.152-59.035 86.409-59.035C87.023-59.035 87.555-59.563 87.555-60.178C87.555-60.529 87.388-60.688 87.155-60.97L59.215-91.873C58.846-92.245 58.498-92.548 58.014-92.548C57.53-92.548 57.235-92.291 56.859-91.918L28.967-61.016ZM28.967-9.541L56.859 21.361C57.235 21.737 57.53 21.995 58.014 21.995C58.498 21.995 58.846 21.691 59.215 21.315L87.155-9.587C87.388-9.865 87.555-10.07 87.555-10.375C87.555-10.99 87.023-11.522 86.409-11.522C86.152-11.522 85.807-11.442 85.571-11.213L57.039 20.375L59.083 20.375L30.457-11.213C30.266-11.442 29.925-11.522 29.665-11.522C29.05-11.522 28.518-10.99 28.518-10.375C28.518-10.07 28.731-9.82 28.967-9.541Z"/>
  </g>
 </g>
</svg>
