<?xml version="1.0" encoding="UTF-8"?>
<!--Generator: Apple Native CoreSVG 341-->
<!DOCTYPE svg
PUBLIC "-//W3C//DTD SVG 1.1//EN"
       "http://www.w3.org/Graphics/SVG/1.1/DTD/svg11.dtd">
<svg version="1.1" xmlns="http://www.w3.org/2000/svg" xmlns:xlink="http://www.w3.org/1999/xlink" viewBox="0 0 3300 2200">
 <!--glyph: "", point size: 100.0, font version: "21.1d1e1", template writer version: "138.0.0"-->
 <style>.defaults {-sfsymbols-variable-value-mode:color;-sfsymbols-draw-reverses-motion-groups:false}

.SFSymbolsPreviewWireframe {fill:none;opacity:1.0;stroke:black;stroke-width:0.5}
</style>
 <g id="Notes">
  <rect height="2200" id="artboard" style="fill:white;opacity:1" width="3300" x="0" y="0"/>
  <line style="fill:none;stroke:black;opacity:1;stroke-width:0.5;" x1="263" x2="3036" y1="292" y2="292"/>
  <text style="stroke:none;fill:black;font-family:sans-serif;font-size:13;font-weight:bold;" transform="matrix(1 0 0 1 263 322)">Weight/Scale Variations</text>
  <text style="stroke:none;fill:black;font-family:sans-serif;font-size:13;text-anchor:middle;" transform="matrix(1 0 0 1 559.711 322)">Ultralight</text>
  <text style="stroke:none;fill:black;font-family:sans-serif;font-size:13;text-anchor:middle;" transform="matrix(1 0 0 1 856.422 322)">Thin</text>
  <text style="stroke:none;fill:black;font-family:sans-serif;font-size:13;text-anchor:middle;" transform="matrix(1 0 0 1 1153.13 322)">Light</text>
  <text style="stroke:none;fill:black;font-family:sans-serif;font-size:13;text-anchor:middle;" transform="matrix(1 0 0 1 1449.84 322)">Regular</text>
  <text style="stroke:none;fill:black;font-family:sans-serif;font-size:13;text-anchor:middle;" transform="matrix(1 0 0 1 1746.56 322)">Medium</text>
  <text style="stroke:none;fill:black;font-family:sans-serif;font-size:13;text-anchor:middle;" transform="matrix(1 0 0 1 2043.27 322)">Semibold</text>
  <text style="stroke:none;fill:black;font-family:sans-serif;font-size:13;text-anchor:middle;" transform="matrix(1 0 0 1 2339.98 322)">Bold</text>
  <text style="stroke:none;fill:black;font-family:sans-serif;font-size:13;text-anchor:middle;" transform="matrix(1 0 0 1 2636.69 322)">Heavy</text>
  <text style="stroke:none;fill:black;font-family:sans-serif;font-size:13;text-anchor:middle;" transform="matrix(1 0 0 1 2933.4 322)">Black</text>
  <line style="fill:none;stroke:black;opacity:1;stroke-width:0.5;" x1="263" x2="3036" y1="1903" y2="1903"/>
  <g transform="matrix(0.2 0 0 0.2 263 1933)">
   <path d="m46.2402 4.15039c21.7773 0 39.4531-17.627 39.4531-39.4043s-17.6758-39.4043-39.4531-39.4043c-21.7285 0-39.4043 17.627-39.4043 39.4043s17.6758 39.4043 39.4043 39.4043Zm0-7.42188c-17.6758 0-31.9336-14.3066-31.9336-31.9824s14.2578-31.9824 31.9336-31.9824 31.9824 14.3066 31.9824 31.9824-14.3066 31.9824-31.9824 31.9824Zm3.61328-17.7734v-28.4668c0-2.24609-1.46484-3.75977-3.71094-3.75977-2.14844 0-3.61328 1.51367-3.61328 3.75977v28.4668c0 2.19727 1.46484 3.71094 3.61328 3.71094 2.24609 0 3.71094-1.51367 3.71094-3.71094Zm-17.8223-10.5957h28.418c2.19727 0 3.71094-1.46484 3.71094-3.61328 0-2.19727-1.51367-3.71094-3.71094-3.71094h-28.418c-2.24609 0-3.75977 1.51367-3.75977 3.71094 0 2.14844 1.51367 3.61328 3.75977 3.61328Z"/>
  </g>
  <g transform="matrix(0.2 0 0 0.2 281.506 1933)">
   <path d="m58.5449 14.5508c27.4902 0 49.8047-22.3145 49.8047-49.8047s-22.3145-49.8047-49.8047-49.8047-49.8047 22.3145-49.8047 49.8047 22.3145 49.8047 49.8047 49.8047Zm0-8.30078c-22.9492 0-41.5039-18.5547-41.5039-41.5039s18.5547-41.5039 41.5039-41.5039 41.5039 18.5547 41.5039 41.5039-18.5547 41.5039-41.5039 41.5039Zm4.05273-23.0957v-36.9141c0-2.49023-1.70898-4.19922-4.15039-4.19922-2.39258 0-4.05273 1.70898-4.05273 4.19922v36.9141c0 2.44141 1.66016 4.15039 4.05273 4.15039 2.44141 0 4.15039-1.66016 4.15039-4.15039Zm-22.5586-14.4043h36.9629c2.44141 0 4.15039-1.61133 4.15039-4.00391 0-2.44141-1.70898-4.15039-4.15039-4.15039h-36.9629c-2.49023 0-4.15039 1.70898-4.15039 4.15039 0 2.39258 1.66016 4.00391 4.15039 4.00391Z"/>
  </g>
  <g transform="matrix(0.2 0 0 0.2 304.924 1933)">
   <path d="m74.8535 28.3203c35.1074 0 63.623-28.4668 63.623-63.5742s-28.5156-63.623-63.623-63.623-63.5742 28.5156-63.5742 63.623 28.4668 63.5742 63.5742 63.5742Zm0-9.08203c-30.127 0-54.4922-24.3652-54.4922-54.4922s24.3652-54.4922 54.4922-54.4922 54.4922 24.3652 54.4922 54.4922-24.3652 54.4922-54.4922 54.4922Zm4.44336-30.3223v-48.4863c0-2.73438-1.85547-4.63867-4.54102-4.63867-2.58789 0-4.44336 1.9043-4.44336 4.63867v48.4863c0 2.68555 1.85547 4.58984 4.44336 4.58984 2.68555 0 4.54102-1.85547 4.54102-4.58984Zm-28.7109-19.7754h48.4863c2.68555 0 4.58984-1.80664 4.58984-4.39453 0-2.73438-1.85547-4.58984-4.58984-4.58984h-48.4863c-2.73438 0-4.58984 1.85547-4.58984 4.58984 0 2.58789 1.85547 4.39453 4.58984 4.39453Z"/>
  </g>
  <text style="stroke:none;fill:black;font-family:sans-serif;font-size:13;font-weight:bold;" transform="matrix(1 0 0 1 263 1953)">Design Variations</text>
  <text style="stroke:none;fill:black;font-family:sans-serif;font-size:13;" transform="matrix(1 0 0 1 263 1971)">Symbols are supported in up to nine weights and three scales.</text>
  <text style="stroke:none;fill:black;font-family:sans-serif;font-size:13;" transform="matrix(1 0 0 1 263 1989)">For optimal layout with text and other symbols, vertically align</text>
  <text style="stroke:none;fill:black;font-family:sans-serif;font-size:13;" transform="matrix(1 0 0 1 263 2007)">symbols with the adjacent text.</text>
  <line style="fill:none;stroke:#00AEEF;stroke-width:0.5;opacity:1.0;" x1="776" x2="776" y1="1919" y2="1933"/>
  <g transform="matrix(0.2 0 0 0.2 776 1933)">
   <path d="m16.5527 0.78125c2.58789 0 3.85742-0.976562 4.78516-3.71094l20.5566-57.5195h0.244141l20.6055 57.5195c0.927734 2.73438 2.19727 3.71094 4.73633 3.71094 2.58789 0 4.24805-1.5625 4.24805-4.00391 0-0.830078-0.146484-1.61133-0.537109-2.63672l-22.9004-60.9863c-1.12305-2.97852-3.125-4.49219-6.25-4.49219-3.02734 0-5.07812 1.46484-6.15234 4.44336l-22.9004 61.084c-0.390625 1.02539-0.537109 1.80664-0.537109 2.63672 0 2.44141 1.5625 3.95508 4.10156 3.95508Zm10.2051-20.9473h30.6641c2.00195 0 3.66211-1.66016 3.66211-3.66211 0-2.05078-1.66016-3.66211-3.66211-3.66211h-30.6641c-2.00195 0-3.66211 1.61133-3.66211 3.66211 0 2.00195 1.66016 3.66211 3.66211 3.66211Z"/>
  </g>
  <line style="fill:none;stroke:#00AEEF;stroke-width:0.5;opacity:1.0;" x1="792.836" x2="792.836" y1="1919" y2="1933"/>
  <text style="stroke:none;fill:black;font-family:sans-serif;font-size:13;font-weight:bold;" transform="matrix(1 0 0 1 776 1953)">Margins</text>
  <text style="stroke:none;fill:black;font-family:sans-serif;font-size:13;" transform="matrix(1 0 0 1 776 1971)">Leading and trailing margins on the left and right side of each symbol</text>
  <text style="stroke:none;fill:black;font-family:sans-serif;font-size:13;" transform="matrix(1 0 0 1 776 1989)">can be adjusted by modifying the x-location of the margin guidelines.</text>
  <text style="stroke:none;fill:black;font-family:sans-serif;font-size:13;" transform="matrix(1 0 0 1 776 2007)">Modifications are automatically applied proportionally to all</text>
  <text style="stroke:none;fill:black;font-family:sans-serif;font-size:13;" transform="matrix(1 0 0 1 776 2025)">scales and weights.</text>
  <g transform="matrix(0.2 0 0 0.2 1289 1933)">
   <path d="m14.209 13.1348 7.86133 7.86133c4.29688 4.39453 9.32617 4.10156 13.8672-1.02539l60.6934-68.2129-4.88281-4.88281-60.2539 67.6758c-1.80664 1.95312-3.4668 2.44141-5.81055 0.0976562l-5.17578-5.12695c-2.29492-2.29492-1.80664-3.95508 0.195312-5.81055l67.4805-62.1582-4.88281-4.83398-68.0664 62.5977c-4.98047 4.58984-5.32227 9.47266-1.02539 13.8184Zm44.873-97.4609c-2.05078 2.00195-2.24609 4.88281-1.07422 6.78711 1.12305 1.80664 3.4668 3.02734 6.5918 2.24609 5.85938-1.66016 12.5977-2.39258 18.8965 0.927734l-2.68555 7.12891c-1.61133 4.00391-0.732422 6.88477 1.70898 9.42383l10.2539 10.3027c2.34375 2.39258 4.54102 2.44141 7.08008 1.95312l4.44336-0.732422 2.58789 2.53906-0.195312 2.24609c-0.0976562 2.29492 0.537109 4.29688 2.7832 6.49414l3.36914 3.32031c2.29492 2.29492 5.51758 2.49023 7.8125 0.195312l12.9883-13.0371c2.29492-2.34375 2.14844-5.37109-0.195312-7.66602l-3.41797-3.41797c-2.19727-2.19727-4.05273-3.02734-6.34766-2.88086l-2.34375 0.244141-2.44141-2.44141 1.02539-4.6875c0.634766-2.73438-0.244141-4.98047-2.88086-7.61719l-11.2793-11.1816c-12.9395-12.8418-35.5957-11.0352-46.6797-0.146484Zm7.08008 2.05078c8.78906-6.39648 25.9766-5.66406 33.6914 1.95312l12.3047 12.207c1.02539 1.02539 1.2207 1.80664 0.927734 3.32031l-1.46484 6.64062 6.73828 6.68945 4.39453-0.244141c1.12305-0.0488281 1.51367 0.0488281 2.34375 0.878906l2.53906 2.49023-10.8398 10.8398-2.49023-2.49023c-0.830078-0.878906-0.976562-1.2207-0.927734-2.39258l0.292969-4.3457-6.68945-6.73828-6.83594 1.17188c-1.41602 0.292969-2.05078 0.195312-3.17383-0.878906l-8.93555-8.88672c-1.07422-1.02539-1.17188-1.70898-0.488281-3.36914l4.58984-11.4746c-6.10352-6.34766-17.041-7.51953-25.5859-4.58984-0.683594 0.244141-0.927734-0.390625-0.390625-0.78125Z"/>
  </g>
  <text style="stroke:none;fill:black;font-family:sans-serif;font-size:13;font-weight:bold;" transform="matrix(1 0 0 1 1289 1953)">Exporting</text>
  <text style="stroke:none;fill:black;font-family:sans-serif;font-size:13;" transform="matrix(1 0 0 1 1289 1971)">Symbols should be outlined when exporting to ensure the</text>
  <text style="stroke:none;fill:black;font-family:sans-serif;font-size:13;" transform="matrix(1 0 0 1 1289 1989)">design is preserved when submitting to Xcode.</text>
  <text id="template-version" style="stroke:none;fill:black;font-family:sans-serif;font-size:13;text-anchor:end;" transform="matrix(1 0 0 1 3036 1933)">Template v.6.0</text>
  <text style="stroke:none;fill:black;font-family:sans-serif;font-size:13;text-anchor:end;" transform="matrix(1 0 0 1 3036 1951)">Requires Xcode 16 or greater</text>
  <text id="descriptive-name" style="stroke:none;fill:black;font-family:sans-serif;font-size:13;text-anchor:end;" transform="matrix(1 0 0 1 3036 1969)">Generated from chevron.down.chevron.up</text>
  <text style="stroke:none;fill:black;font-family:sans-serif;font-size:13;text-anchor:end;" transform="matrix(1 0 0 1 3036 1987)">Typeset at 100.0 points</text>
  <text style="stroke:none;fill:black;font-family:sans-serif;font-size:13;" transform="matrix(1 0 0 1 263 726)">Small</text>
  <text style="stroke:none;fill:black;font-family:sans-serif;font-size:13;" transform="matrix(1 0 0 1 263 1156)">Medium</text>
  <text style="stroke:none;fill:black;font-family:sans-serif;font-size:13;" transform="matrix(1 0 0 1 263 1586)">Large</text>
 </g>
 <g id="Guides">
  <g id="H-reference" style="fill:#27AAE1;stroke:none;" transform="matrix(1 0 0 1 339 696)">
   <path d="M0.993654 0L3.63775 0L29.3281-67.1323L30.0303-67.1323L30.0303-70.459L28.1226-70.459ZM11.6885-24.4799L46.9815-24.4799L46.2315-26.7285L12.4385-26.7285ZM55.1196 0L57.7637 0L30.6382-70.459L29.4326-70.459L29.4326-67.1323Z"/>
  </g>
  <line id="Baseline-S" style="fill:none;stroke:#27AAE1;opacity:1;stroke-width:0.5;" x1="263" x2="3036" y1="696" y2="696"/>
  <line id="Capline-S" style="fill:none;stroke:#27AAE1;opacity:1;stroke-width:0.5;" x1="263" x2="3036" y1="625.541" y2="625.541"/>
  <g id="H-reference" style="fill:#27AAE1;stroke:none;" transform="matrix(1 0 0 1 339 1126)">
   <path d="M0.993654 0L3.63775 0L29.3281-67.1323L30.0303-67.1323L30.0303-70.459L28.1226-70.459ZM11.6885-24.4799L46.9815-24.4799L46.2315-26.7285L12.4385-26.7285ZM55.1196 0L57.7637 0L30.6382-70.459L29.4326-70.459L29.4326-67.1323Z"/>
  </g>
  <line id="Baseline-M" style="fill:none;stroke:#27AAE1;opacity:1;stroke-width:0.5;" x1="263" x2="3036" y1="1126" y2="1126"/>
  <line id="Capline-M" style="fill:none;stroke:#27AAE1;opacity:1;stroke-width:0.5;" x1="263" x2="3036" y1="1055.54" y2="1055.54"/>
  <g id="H-reference" style="fill:#27AAE1;stroke:none;" transform="matrix(1 0 0 1 339 1556)">
   <path d="M0.993654 0L3.63775 0L29.3281-67.1323L30.0303-67.1323L30.0303-70.459L28.1226-70.459ZM11.6885-24.4799L46.9815-24.4799L46.2315-26.7285L12.4385-26.7285ZM55.1196 0L57.7637 0L30.6382-70.459L29.4326-70.459L29.4326-67.1323Z"/>
  </g>
  <line id="Baseline-L" style="fill:none;stroke:#27AAE1;opacity:1;stroke-width:0.5;" x1="263" x2="3036" y1="1556" y2="1556"/>
  <line id="Capline-L" style="fill:none;stroke:#27AAE1;opacity:1;stroke-width:0.5;" x1="263" x2="3036" y1="1485.54" y2="1485.54"/>
  <line id="right-margin-Regular-M" style="fill:none;stroke:#00AEEF;stroke-width:0.5;opacity:1.0;" x1="1520.79" x2="1520.79" y1="1030.79" y2="1150.12"/>
  <line id="left-margin-Regular-M" style="fill:none;stroke:#00AEEF;stroke-width:0.5;opacity:1.0;" x1="1378.9" x2="1378.9" y1="1030.79" y2="1150.12"/>
 </g>
 <g id="Symbols">
  <g id="Black-L" transform="matrix(1 0 0 1 2845.28 1556)">
   <path class="SFSymbolsPreviewWireframe" d="M32.085-100.716C29.645-103.158 28.518-106.031 28.518-109.437C28.518-116.444 34.243-122.206 41.132-122.206C44.653-122.206 47.88-120.732 50.553-118.021L90.381-76.906L86.121-76.906L125.75-118.021C128.425-120.791 131.672-122.206 135.114-122.206C142.003-122.206 147.728-116.444 147.728-109.437C147.728-105.973 146.603-103.159 144.183-100.718L98.81-54.386C95.51-51.008 92.242-49.587 88.152-49.528C84.12-49.528 80.836-50.948 77.495-54.385L32.085-100.716ZM32.085 30.235L77.495-16.096C80.894-19.495 84.12-20.973 88.152-20.973C92.242-20.915 95.452-19.436 98.81-16.095L144.183 30.237C146.603 32.657 147.728 35.472 147.728 38.935C147.728 45.942 142.003 51.725 135.114 51.725C131.672 51.725 128.425 50.289 125.75 47.54L86.121 6.404L90.381 6.404L50.553 47.54C47.88 50.231 44.653 51.725 41.132 51.725C34.243 51.725 28.518 45.942 28.518 38.935C28.518 35.53 29.703 32.715 32.085 30.235Z"/>
  </g>
  <g id="Heavy-L" transform="matrix(1 0 0 1 2549.86 1556)">
   <path class="SFSymbolsPreviewWireframe" d="M31.638-100.779C29.526-102.897 28.518-105.392 28.518-108.351C28.518-114.422 33.448-119.366 39.43-119.366C42.467-119.366 45.246-118.107 47.531-115.802L89.319-72.697L84.558-72.697L126.171-115.802C128.461-118.152 131.271-119.366 134.233-119.366C140.214-119.366 145.145-114.422 145.145-108.351C145.145-105.347 144.142-102.903 142.06-100.785L95.939-53.584C93.172-50.741 90.332-49.499 86.851-49.454C83.414-49.454 80.596-50.691 77.768-53.578L31.638-100.779ZM31.638 30.279L77.768-16.922C80.641-19.795 83.414-21.077 86.851-21.077C90.332-21.032 93.127-19.745 95.939-16.917L142.06 30.285C144.142 32.372 145.145 34.822 145.145 37.82C145.145 43.891 140.214 48.866 134.233 48.866C131.271 48.866 128.461 47.621 126.171 45.302L84.558 2.166L89.319 2.166L47.531 45.302C45.246 47.576 42.467 48.866 39.43 48.866C33.448 48.866 28.518 43.891 28.518 37.82C28.518 34.866 29.571 32.411 31.638 30.279Z"/>
  </g>
  <g id="Bold-L" transform="matrix(1 0 0 1 2254.86 1556)">
   <path class="SFSymbolsPreviewWireframe" d="M31.092-100.886C29.38-102.611 28.518-104.637 28.518-107.05C28.518-111.976 32.487-115.936 37.354-115.936C39.799-115.936 42.04-114.938 43.856-113.118L87.789-67.665L82.614-67.665L126.395-113.118C128.224-114.968 130.503-115.936 132.881-115.936C137.748-115.936 141.717-111.976 141.717-107.05C141.717-104.608 140.868-102.624 139.194-100.899L92.36-52.682C90.208-50.463 87.891-49.428 85.126-49.399C82.389-49.399 80.133-50.42 77.905-52.669L31.092-100.886ZM31.092 30.354L77.905-17.863C80.162-20.12 82.389-21.17 85.126-21.17C87.891-21.141 90.179-20.077 92.36-17.85L139.194 30.368C140.868 32.055 141.717 34.052 141.717 36.481C141.717 41.407 137.748 45.405 132.881 45.405C130.503 45.405 128.224 44.398 126.395 42.587L82.614-2.904L87.789-2.904L43.856 42.587C42.04 44.369 39.799 45.405 37.354 45.405C32.487 45.405 28.518 41.407 28.518 36.481C28.518 34.081 29.409 32.071 31.092 30.354Z"/>
  </g>
  <g id="Semibold-L" transform="matrix(1 0 0 1 1959.33 1556)">
   <path class="SFSymbolsPreviewWireframe" d="M30.715-100.954C29.279-102.409 28.518-104.112 28.518-106.148C28.518-110.285 31.824-113.566 35.923-113.566C37.96-113.566 39.83-112.749 41.322-111.263L86.734-64.191L81.274-64.191L126.55-111.263C128.06-112.767 129.973-113.566 131.949-113.566C136.047-113.566 139.354-110.285 139.354-106.148C139.354-104.093 138.611-102.427 137.218-100.972L89.891-52.054C88.164-50.265 86.208-49.374 83.936-49.356C81.682-49.356 79.813-50.228 77.999-52.036L30.715-100.954ZM30.715 30.413L77.999-18.505C79.831-20.337 81.682-21.228 83.936-21.228C86.208-21.21 88.146-20.3 89.891-18.486L137.218 30.432C138.611 31.843 139.354 33.528 139.354 35.565C139.354 39.701 136.047 43.025 131.949 43.025C129.973 43.025 128.06 42.183 126.55 40.722L81.274-6.392L86.734-6.392L41.322 40.722C39.83 42.165 37.96 43.025 35.923 43.025C31.824 43.025 28.518 39.701 28.518 35.565C28.518 33.546 29.298 31.843 30.715 30.413Z"/>
  </g>
  <g id="Medium-L" transform="matrix(1 0 0 1 1663.52 1556)">
   <path class="SFSymbolsPreviewWireframe" d="M30.43-101.002C29.203-102.252 28.518-103.71 28.518-105.462C28.518-108.999 31.321-111.766 34.838-111.766C36.565-111.766 38.154-111.085 39.401-109.853L85.934-61.554L80.258-61.554L126.667-109.853C127.936-111.096 129.572-111.766 131.242-111.766C134.758-111.766 137.562-108.999 137.562-105.462C137.562-103.7 136.899-102.275 135.719-101.025L88.02-51.576C86.615-50.113 84.931-49.33 83.034-49.32C81.147-49.32 79.57-50.08 78.07-51.553L30.43-101.002ZM30.43 30.46L78.07-18.989C79.581-20.499 81.147-21.27 83.034-21.27C84.931-21.259 86.604-20.466 88.02-18.966L135.719 30.483C136.899 31.685 137.562 33.133 137.562 34.872C137.562 38.41 134.758 41.224 131.242 41.224C129.572 41.224 127.936 40.506 126.667 39.311L80.258-9.035L85.934-9.035L39.401 39.311C38.154 40.496 36.565 41.224 34.838 41.224C31.321 41.224 28.518 38.41 28.518 34.872C28.518 33.143 29.213 31.673 30.43 30.46Z"/>
  </g>
  <g id="Regular-L" transform="matrix(1 0 0 1 1367.97 1556)">
   <path class="SFSymbolsPreviewWireframe" d="M30.058-101.074C29.103-102.056 28.518-103.194 28.518-104.574C28.518-107.33 30.666-109.426 33.423-109.426C34.747-109.426 35.968-108.923 36.895-108.021L84.891-58.123L78.933-58.123L126.82-108.021C127.775-108.923 129.049-109.426 130.32-109.426C133.077-109.426 135.225-107.33 135.225-104.574C135.225-103.194 134.667-102.084 133.765-101.101L85.579-50.959C84.594-49.921 83.267-49.281 81.858-49.281C80.448-49.281 79.255-49.894 78.164-50.932L30.058-101.074ZM30.058 30.514L78.164-19.628C79.255-20.719 80.448-21.332 81.858-21.332C83.267-21.332 84.594-20.691 85.579-19.601L133.765 30.541C134.667 31.471 135.225 32.609 135.225 33.961C135.225 36.718 133.077 38.866 130.32 38.866C129.049 38.866 127.775 38.311 126.82 37.461L78.933-12.49L84.891-12.49L36.895 37.461C35.968 38.311 34.747 38.866 33.423 38.866C30.666 38.866 28.518 36.718 28.518 33.961C28.518 32.609 29.103 31.444 30.058 30.514Z"/>
  </g>
  <g id="Light-L" transform="matrix(1 0 0 1 1073.18 1556)">
   <path class="SFSymbolsPreviewWireframe" d="M29.733-101.315C29.008-102.087 28.518-102.901 28.518-103.956C28.518-106.007 30.151-107.606 32.201-107.606C33.162-107.606 34.116-107.256 34.796-106.564L82.447-55.807L77.539-55.807L125.064-106.564C125.79-107.256 126.777-107.606 127.705-107.606C129.756-107.606 131.389-106.007 131.389-103.956C131.389-102.901 130.945-102.134 130.253-101.362L82.945-50.914C82.113-50.048 81.091-49.465 79.93-49.465C78.768-49.465 77.861-50.001 76.961-50.867L29.733-101.315ZM29.733 30.731L76.961-19.716C77.861-20.616 78.768-21.153 79.93-21.153C81.091-21.153 82.113-20.569 82.945-19.669L130.253 30.778C130.945 31.517 131.389 32.331 131.389 33.339C131.389 35.389 129.756 37.022 127.705 37.022C126.777 37.022 125.79 36.639 125.064 35.98L77.539-14.811L82.447-14.811L34.796 35.98C34.116 36.639 33.162 37.022 32.201 37.022C30.151 37.022 28.518 35.389 28.518 33.339C28.518 32.331 29.008 31.47 29.733 30.731Z"/>
  </g>
  <g id="Thin-L" transform="matrix(1 0 0 1 779.007 1556)">
   <path class="SFSymbolsPreviewWireframe" d="M29.305-101.631C28.882-102.126 28.518-102.511 28.518-103.137C28.518-104.253 29.469-105.196 30.586-105.196C31.068-105.196 31.668-105.048 32.019-104.634L79.217-52.74L75.697-52.74L122.742-104.634C123.165-105.048 123.774-105.196 124.248-105.196C125.364-105.196 126.315-104.253 126.315-103.137C126.315-102.511 126.024-102.198 125.609-101.703L79.462-50.852C78.832-50.213 78.214-49.705 77.381-49.705C76.547-49.705 76.019-50.141 75.371-50.78L29.305-101.631ZM29.305 31.02L75.371-19.831C76.019-20.478 76.547-20.914 77.381-20.914C78.214-20.914 78.832-20.406 79.462-19.759L125.609 31.092C126.024 31.579 126.315 31.963 126.315 32.517C126.315 33.634 125.364 34.585 124.248 34.585C123.774 34.585 123.165 34.429 122.742 34.023L75.697-17.879L79.217-17.879L32.019 34.023C31.668 34.429 31.068 34.585 30.586 34.585C29.469 34.585 28.518 33.634 28.518 32.517C28.518 31.963 28.882 31.507 29.305 31.02Z"/>
  </g>
  <g id="Ultralight-L" transform="matrix(1 0 0 1 483.595 1556)">
   <path class="SFSymbolsPreviewWireframe" d="M29.085-101.797C28.817-102.15 28.518-102.315 28.518-102.721C28.518-103.359 29.12-103.966 29.758-103.966C29.994-103.966 30.414-103.922 30.597-103.649L77.562-51.174L74.753-51.174L121.552-103.649C121.82-103.922 122.235-103.966 122.476-103.966C123.114-103.966 123.717-103.359 123.717-102.721C123.717-102.315 123.502-102.235 123.23-101.882L77.678-50.824C77.151-50.302 76.74-49.833 76.075-49.833C75.409-49.833 75.075-50.217 74.557-50.739L29.085-101.797ZM29.085 31.164L74.557-19.894C75.075-20.412 75.409-20.796 76.075-20.796C76.74-20.796 77.151-20.327 77.678-19.809L123.23 31.249C123.502 31.607 123.717 31.771 123.717 32.093C123.717 32.731 123.114 33.333 122.476 33.333C122.235 33.333 121.82 33.293 121.552 33.016L74.753-19.454L77.562-19.454L30.597 33.016C30.414 33.293 29.994 33.333 29.758 33.333C29.12 33.333 28.518 32.731 28.518 32.093C28.518 31.771 28.817 31.522 29.085 31.164Z"/>
  </g>
  <g id="Black-M" transform="matrix(1 0 0 1 2857.85 1126)">
   <path class="SFSymbolsPreviewWireframe" d="M31.622-85.945C29.48-88.087 28.518-90.594 28.518-93.573C28.518-99.709 33.567-104.809 39.589-104.809C42.683-104.809 45.532-103.504 47.903-101.082L77.027-70.823L74.3-70.823L103.249-101.082C105.619-103.561 108.474-104.809 111.505-104.809C117.527-104.809 122.575-99.709 122.575-93.573C122.575-90.537 121.613-88.086 119.477-85.944L85.086-50.756C82.094-47.701 79.234-46.455 75.576-46.397C71.975-46.397 69.068-47.645 66.065-50.757L31.622-85.945ZM31.622 15.481L66.065-19.708C69.126-22.768 71.975-24.072 75.576-24.072C79.234-24.015 82.037-22.711 85.086-19.708L119.477 15.48C121.613 17.617 122.575 20.067 122.575 23.103C122.575 29.24 117.527 34.345 111.505 34.345C108.474 34.345 105.619 33.091 103.249 30.618L74.3 0.353L77.027 0.353L47.903 30.618C45.532 33.034 42.683 34.345 39.589 34.345C33.567 34.345 28.518 29.24 28.518 23.103C28.518 20.124 29.537 17.674 31.622 15.481Z"/>
  </g>
  <g id="Heavy-M" transform="matrix(1 0 0 1 2562.23 1126)">
   <path class="SFSymbolsPreviewWireframe" d="M31.215-85.982C29.373-87.827 28.518-89.994 28.518-92.566C28.518-97.853 32.837-102.199 38.037-102.199C40.692-102.199 43.127-101.089 45.142-99.046L76.214-66.92L72.901-66.92L103.822-99.046C105.838-101.133 108.29-102.199 110.885-102.199C116.085-102.199 120.404-97.853 120.404-92.566C120.404-89.95 119.551-87.829 117.726-85.985L82.523-49.974C80.036-47.427 77.568-46.35 74.482-46.306C71.439-46.306 68.962-47.381 66.443-49.972L31.215-85.982ZM31.215 15.504L66.443-20.506C69.006-23.069 71.439-24.188 74.482-24.188C77.568-24.145 79.993-23.024 82.523-20.504L117.726 15.507C119.551 17.335 120.404 19.458 120.404 22.072C120.404 27.358 116.085 31.721 110.885 31.721C108.29 31.721 105.838 30.639 103.822 28.568L72.901-3.574L76.214-3.574L45.142 28.568C43.127 30.595 40.692 31.721 38.037 31.721C32.837 31.721 28.518 27.358 28.518 22.072C28.518 19.502 29.416 17.376 31.215 15.504Z"/>
  </g>
  <g id="Bold-M" transform="matrix(1 0 0 1 2266.73 1126)">
   <path class="SFSymbolsPreviewWireframe" d="M30.759-86.024C29.252-87.535 28.518-89.322 28.518-91.439C28.518-95.776 32.021-99.279 36.301-99.279C38.464-99.279 40.438-98.388 42.053-96.768L75.305-62.554L71.335-62.554L104.462-96.768C106.083-98.417 108.085-99.279 110.191-99.279C114.471-99.279 117.974-95.776 117.974-91.439C117.974-89.294 117.245-87.541 115.767-86.029L79.656-49.099C77.734-47.12 75.704-46.232 73.258-46.204C70.84-46.204 68.843-47.086 66.865-49.093L30.759-86.024ZM30.759 15.531L66.865-21.4C68.872-23.407 70.84-24.318 73.258-24.318C75.704-24.29 77.706-23.373 79.656-21.395L115.767 15.536C117.245 17.019 117.974 18.777 117.974 20.917C117.974 25.254 114.471 28.786 110.191 28.786C108.085 28.786 106.083 27.895 104.462 26.275L71.335-7.968L75.305-7.968L42.053 26.275C40.438 27.867 38.464 28.786 36.301 28.786C32.021 28.786 28.518 25.254 28.518 20.917C28.518 18.806 29.281 17.042 30.759 15.531Z"/>
  </g>
  <g id="Semibold-M" transform="matrix(1 0 0 1 1970.86 1126)">
   <path class="SFSymbolsPreviewWireframe" d="M30.445-86.056C29.17-87.338 28.518-88.863 28.518-90.665C28.518-94.347 31.459-97.269 35.105-97.269C36.929-97.269 38.584-96.529 39.924-95.201L74.679-59.547L70.256-59.547L104.905-95.201C106.252-96.547 107.944-97.269 109.714-97.269C113.36-97.269 116.3-94.347 116.3-90.665C116.3-88.844 115.655-87.345 114.417-86.063L77.68-48.498C76.148-46.912 74.419-46.154 72.415-46.136C70.428-46.136 68.762-46.886 67.157-48.491L30.445-86.056ZM30.445 15.547L67.157-22.018C68.78-23.641 70.428-24.41 72.415-24.41C74.419-24.392 76.13-23.616 77.68-22.011L114.417 15.554C115.655 16.799 116.3 18.305 116.3 20.119C116.3 23.801 113.36 26.76 109.714 26.76C107.944 26.76 106.252 26.001 104.905 24.691L70.256-10.999L74.679-10.999L39.924 24.691C38.584 25.983 36.929 26.76 35.105 26.76C31.459 26.76 28.518 23.801 28.518 20.119C28.518 18.323 29.188 16.81 30.445 15.547Z"/>
  </g>
  <g id="Medium-M" transform="matrix(1 0 0 1 1674.78 1126)">
   <path class="SFSymbolsPreviewWireframe" d="M30.207-86.074C29.108-87.182 28.518-88.508 28.518-90.072C28.518-93.258 31.033-95.739 34.198-95.739C35.765-95.739 37.179-95.114 38.311-94.006L74.205-57.261L69.438-57.261L105.241-94.006C106.381-95.124 107.838-95.739 109.352-95.739C112.517-95.739 115.031-93.258 115.031-90.072C115.031-88.498 114.45-87.191 113.394-86.083L76.182-48.037C74.946-46.748 73.446-46.089 71.776-46.079C70.116-46.079 68.701-46.729 67.378-48.028L30.207-86.074ZM30.207 15.564L67.378-22.481C68.711-23.814 70.116-24.474 71.776-24.474C73.446-24.464 74.936-23.795 76.182-22.473L113.394 15.573C114.45 16.637 115.031 17.953 115.031 19.519C115.031 22.704 112.517 25.229 109.352 25.229C107.838 25.229 106.381 24.57 105.241 23.496L69.438-13.292L74.205-13.292L38.311 23.496C37.179 24.56 35.765 25.229 34.198 25.229C31.033 25.229 28.518 22.704 28.518 19.519C28.518 17.963 29.118 16.639 30.207 15.564Z"/>
  </g>
  <g id="Regular-M" transform="matrix(1 0 0 1 1378.9 1126)">
   <path class="SFSymbolsPreviewWireframe" d="M29.896-86.104C29.026-86.984 28.518-88.051 28.518-89.305C28.518-91.843 30.476-93.749 33.014-93.749C34.246-93.749 35.345-93.273 36.204-92.454L73.584-54.285L68.37-54.285L105.677-92.454C106.547-93.273 107.697-93.749 108.878-93.749C111.416-93.749 113.374-91.843 113.374-89.305C113.374-88.051 112.877-86.995 112.058-86.114L74.226-47.441C73.376-46.539 72.174-46.01 70.941-46.01C69.707-46.01 68.619-46.529 67.666-47.431L29.896-86.104ZM29.896 15.581L67.666-23.092C68.619-24.046 69.707-24.564 70.941-24.564C72.174-24.564 73.376-24.035 74.226-23.081L112.058 15.592C112.877 16.421 113.374 17.488 113.374 18.731C113.374 21.269 111.416 23.227 108.878 23.227C107.697 23.227 106.547 22.699 105.677 21.932L68.37-16.289L73.584-16.289L36.204 21.932C35.345 22.699 34.246 23.227 33.014 23.227C30.476 23.227 28.518 21.269 28.518 18.731C28.518 17.488 29.026 16.411 29.896 15.581Z"/>
  </g>
  <g id="Light-M" transform="matrix(1 0 0 1 1083.91 1126)">
   <path class="SFSymbolsPreviewWireframe" d="M29.605-86.322C28.94-87.014 28.518-87.79 28.518-88.753C28.518-90.658 30.014-92.119 31.919-92.119C32.826-92.119 33.685-91.78 34.322-91.149L71.394-52.21L67.121-52.21L104.103-91.149C104.768-91.78 105.661-92.119 106.534-92.119C108.439-92.119 109.935-90.658 109.935-88.753C109.935-87.79 109.54-87.042 108.91-86.349L71.865-47.402C71.152-46.655 70.224-46.177 69.213-46.177C68.202-46.177 67.37-46.627 66.588-47.375L29.605-86.322ZM29.605 15.775L66.588-23.172C67.37-23.955 68.202-24.405 69.213-24.405C70.224-24.405 71.152-23.927 71.865-23.144L108.91 15.802C109.54 16.46 109.935 17.236 109.935 18.171C109.935 20.076 108.439 21.572 106.534 21.572C105.661 21.572 104.768 21.198 104.103 20.602L67.121-18.371L71.394-18.371L34.322 20.602C33.685 21.198 32.826 21.572 31.919 21.572C30.014 21.572 28.518 20.076 28.518 18.171C28.518 17.236 28.94 16.432 29.605 15.775Z"/>
  </g>
  <g id="Thin-M" transform="matrix(1 0 0 1 789.471 1126)">
   <path class="SFSymbolsPreviewWireframe" d="M29.22-86.606C28.827-87.049 28.518-87.44 28.518-88.018C28.518-89.086 29.403-89.959 30.47-89.959C30.948-89.959 31.49-89.801 31.833-89.419L68.497-49.462L65.469-49.462L102.021-89.419C102.414-89.801 102.968-89.959 103.434-89.959C104.501-89.959 105.386-89.086 105.386-88.018C105.386-87.44 105.127-87.1 104.746-86.656L68.742-47.347C68.21-46.803 67.644-46.393 66.927-46.393C66.21-46.393 65.718-46.752 65.162-47.297L29.22-86.606ZM29.22 16.034L65.162-23.276C65.718-23.832 66.21-24.192 66.927-24.192C67.644-24.192 68.21-23.782 68.742-23.226L104.746 16.084C105.127 16.515 105.386 16.907 105.386 17.434C105.386 18.502 104.501 19.387 103.434 19.387C102.968 19.387 102.414 19.216 102.021 18.847L65.469-21.123L68.497-21.123L31.833 18.847C31.49 19.216 30.948 19.387 30.47 19.387C29.403 19.387 28.518 18.502 28.518 17.434C28.518 16.907 28.827 16.465 29.22 16.034Z"/>
  </g>
  <g id="Ultralight-M" transform="matrix(1 0 0 1 493.925 1126)">
   <path class="SFSymbolsPreviewWireframe" d="M29.024-86.748C28.77-87.064 28.518-87.258 28.518-87.639C28.518-88.277 29.09-88.849 29.729-88.849C29.986-88.849 30.366-88.783 30.558-88.53L67.014-48.05L64.623-48.05L100.955-88.53C101.209-88.783 101.589-88.849 101.846-88.849C102.485-88.849 103.057-88.277 103.057-87.639C103.057-87.258 102.868-87.126 102.614-86.809L67.143-47.315C66.703-46.875 66.323-46.5 65.757-46.5C65.19-46.5 64.873-46.813 64.432-47.253L29.024-86.748ZM29.024 16.17L64.432-23.325C64.873-23.765 65.19-24.078 65.757-24.078C66.323-24.078 66.703-23.703 67.143-23.263L102.614 16.231C102.868 16.547 103.057 16.741 103.057 17.06C103.057 17.699 102.485 18.271 101.846 18.271C101.589 18.271 101.209 18.205 100.955 17.952L64.623-22.528L67.014-22.528L30.558 17.952C30.366 18.205 29.986 18.271 29.729 18.271C29.09 18.271 28.518 17.699 28.518 17.06C28.518 16.741 28.77 16.485 29.024 16.17Z"/>
  </g>
  <g id="Black-S" transform="matrix(1 0 0 1 2867.8 696)">
   <path class="SFSymbolsPreviewWireframe" d="M31.057-74.976C29.299-76.734 28.518-78.784 28.518-81.226C28.518-86.255 32.668-90.454 37.6-90.454C40.139-90.454 42.482-89.38 44.436-87.378L66.652-64.185L64.748-64.185L86.818-87.378C88.771-89.429 91.115-90.454 93.605-90.454C98.537-90.454 102.688-86.255 102.688-81.226C102.688-78.736 101.906-76.734 100.148-74.976L73.488-47.632C70.998-45.093 68.654-44.068 65.627-44.019C62.648-44.019 60.256-45.044 57.766-47.632L31.057-74.976ZM31.057 4.517L57.766-22.828C60.305-25.367 62.648-26.441 65.627-26.441C68.654-26.392 70.949-25.318 73.488-22.828L100.148 4.517C101.906 6.274 102.688 8.276 102.688 10.767C102.688 15.796 98.537 19.995 93.605 19.995C91.115 19.995 88.771 18.97 86.818 16.919L64.748-6.275L66.652-6.275L44.436 16.919C42.482 18.921 40.139 19.995 37.6 19.995C32.668 19.995 28.518 15.796 28.518 10.767C28.518 8.325 29.348 6.323 31.057 4.517Z"/>
  </g>
  <g id="Heavy-S" transform="matrix(1 0 0 1 2571.8 696)">
   <path class="SFSymbolsPreviewWireframe" d="M30.746-74.981C29.219-76.508 28.518-78.306 28.518-80.436C28.518-84.82 32.104-88.431 36.413-88.431C38.618-88.431 40.639-87.507 42.316-85.805L66.238-61.113L63.711-61.113L87.51-85.805C89.187-87.544 91.219-88.431 93.375-88.431C97.685-88.431 101.271-84.82 101.271-80.436C101.271-78.268 100.57-76.508 99.054-74.981L71.599-46.969C69.523-44.845 67.479-43.958 64.913-43.92C62.384-43.92 60.326-44.807 58.227-46.969L30.746-74.981ZM30.746 4.511L58.227-23.501C60.363-25.637 62.384-26.561 64.913-26.561C67.479-26.524 69.486-25.6 71.599-23.501L99.054 4.511C100.57 6.026 101.271 7.786 101.271 9.954C101.271 14.338 97.685 17.961 93.375 17.961C91.219 17.961 89.187 17.062 87.51 15.334L63.711-9.369L66.238-9.369L42.316 15.334C40.639 17.025 38.618 17.961 36.413 17.961C32.104 17.961 28.518 14.338 28.518 9.954C28.518 7.824 29.256 6.064 30.746 4.511Z"/>
  </g>
  <g id="Bold-S" transform="matrix(1 0 0 1 2275.88 696)">
   <path class="SFSymbolsPreviewWireframe" d="M30.398-74.988C29.129-76.257 28.518-77.771 28.518-79.553C28.518-83.215 31.472-86.169 35.086-86.169C36.917-86.169 38.577-85.413 39.944-84.045L65.774-57.678L62.551-57.678L88.284-84.045C89.651-85.437 91.336-86.169 93.118-86.169C96.731-86.169 99.685-83.215 99.685-79.553C99.685-77.747 99.075-76.257 97.83-74.988L69.485-46.228C67.874-44.568 66.165-43.835 64.114-43.811C62.088-43.811 60.403-44.543 58.743-46.228L30.398-74.988ZM30.398 4.504L58.743-24.256C60.427-25.94 62.088-26.697 64.114-26.697C66.165-26.673 67.849-25.916 69.485-24.256L97.83 4.504C99.075 5.75 99.685 7.239 99.685 9.045C99.685 12.708 96.731 15.686 93.118 15.686C91.336 15.686 89.651 14.929 88.284 13.562L62.551-12.83L65.774-12.83L39.944 13.562C38.577 14.905 36.917 15.686 35.086 15.686C31.472 15.686 28.518 12.708 28.518 9.045C28.518 7.263 29.153 5.774 30.398 4.504Z"/>
  </g>
  <g id="Semibold-S" transform="matrix(1 0 0 1 1979.71 696)">
   <path class="SFSymbolsPreviewWireframe" d="M30.158-74.992C29.066-76.084 28.518-77.402 28.518-78.944C28.518-82.109 31.037-84.609 34.17-84.609C35.744-84.609 37.155-83.968 38.309-82.832L65.454-55.309L61.752-55.309L88.817-82.832C89.971-83.984 91.415-84.609 92.94-84.609C96.074-84.609 98.592-82.109 98.592-78.944C98.592-77.386 98.044-76.084 96.986-74.992L68.028-45.717C66.736-44.376 65.258-43.751 63.563-43.735C61.883-43.735 60.456-44.361 59.098-45.717L30.158-74.992ZM30.158 4.501L59.098-24.775C60.472-26.149 61.883-26.79 63.563-26.79C65.258-26.774 66.721-26.133 68.028-24.775L96.986 4.501C98.044 5.559 98.592 6.862 98.592 8.419C98.592 11.584 96.074 14.118 92.94 14.118C91.415 14.118 89.971 13.459 88.817 12.341L61.752-15.215L65.454-15.215L38.309 12.341C37.155 13.443 35.744 14.118 34.17 14.118C31.037 14.118 28.518 11.584 28.518 8.419C28.518 6.877 29.082 5.575 30.158 4.501Z"/>
  </g>
  <g id="Medium-S" transform="matrix(1 0 0 1 1683.42 696)">
   <path class="SFSymbolsPreviewWireframe" d="M29.976-74.996C29.019-75.953 28.518-77.123 28.518-78.483C28.518-81.27 30.706-83.427 33.476-83.427C34.854-83.427 36.077-82.874 37.069-81.913L65.211-53.514L61.145-53.514L89.221-81.913C90.213-82.882 91.476-83.427 92.805-83.427C95.575-83.427 97.763-81.27 97.763-78.483C97.763-77.114 97.262-75.953 96.345-74.996L66.922-45.33C65.873-44.232 64.571-43.687 63.145-43.678C61.728-43.678 60.497-44.223 59.368-45.33L29.976-74.996ZM29.976 4.496L59.368-25.17C60.505-26.307 61.728-26.861 63.145-26.861C64.571-26.852 65.865-26.299 66.922-25.17L96.345 4.496C97.262 5.413 97.763 6.574 97.763 7.944C97.763 10.731 95.575 12.928 92.805 12.928C91.476 12.928 90.213 12.343 89.221 11.413L61.145-17.025L65.211-17.025L37.069 11.413C36.077 12.334 34.854 12.928 33.476 12.928C30.706 12.928 28.518 10.731 28.518 7.944C28.518 6.583 29.028 5.422 29.976 4.496Z"/>
  </g>
  <g id="Regular-S" transform="matrix(1 0 0 1 1387.25 696)">
   <path class="SFSymbolsPreviewWireframe" d="M29.739-75C28.957-75.781 28.518-76.757 28.518-77.88C28.518-80.175 30.276-81.884 32.571-81.884C33.694-81.884 34.67-81.445 35.451-80.712L64.895-51.171L60.354-51.171L89.748-80.712C90.53-81.445 91.555-81.884 92.629-81.884C94.924-81.884 96.682-80.175 96.682-77.88C96.682-76.757 96.243-75.781 95.51-75L65.481-44.824C64.748-44.043 63.674-43.603 62.6-43.603C61.526-43.603 60.549-44.043 59.719-44.824L29.739-75ZM29.739 4.492L59.719-25.684C60.549-26.514 61.526-26.953 62.6-26.953C63.674-26.953 64.748-26.514 65.481-25.684L95.51 4.492C96.243 5.225 96.682 6.201 96.682 7.324C96.682 9.619 94.924 11.377 92.629 11.377C91.555 11.377 90.53 10.889 89.748 10.205L60.354-19.385L64.895-19.385L35.451 10.205C34.67 10.889 33.694 11.377 32.571 11.377C30.276 11.377 28.518 9.619 28.518 7.324C28.518 6.201 28.957 5.225 29.739 4.492Z"/>
  </g>
  <g id="Light-S" transform="matrix(1 0 0 1 1092.06 696)">
   <path class="SFSymbolsPreviewWireframe" d="M29.481-75.189C28.881-75.804 28.518-76.523 28.518-77.389C28.518-79.124 29.867-80.439 31.602-80.439C32.437-80.439 33.202-80.121 33.786-79.555L62.957-49.333L59.249-49.333L88.356-79.555C88.955-80.121 89.754-80.439 90.555-80.439C92.29-80.439 93.639-79.124 93.639-77.389C93.639-76.523 93.291-75.819 92.725-75.205L63.392-44.787C62.78-44.142 61.948-43.748 61.071-43.748C60.194-43.748 59.444-44.126 58.765-44.771L29.481-75.189ZM29.481 4.666L58.765-25.752C59.444-26.431 60.194-26.809 61.071-26.809C61.948-26.809 62.78-26.416 63.392-25.737L92.725 4.681C93.291 5.262 93.639 5.981 93.639 6.832C93.639 8.567 92.29 9.916 90.555 9.916C89.754 9.916 88.955 9.564 88.356 9.032L59.249-21.224L62.957-21.224L33.786 9.032C33.202 9.564 32.437 9.916 31.602 9.916C29.867 9.916 28.518 8.567 28.518 6.832C28.518 5.981 28.881 5.247 29.481 4.666Z"/>
  </g>
  <g id="Thin-S" transform="matrix(1 0 0 1 797.357 696)">
   <path class="SFSymbolsPreviewWireframe" d="M29.141-75.439C28.781-75.834 28.518-76.213 28.518-76.738C28.518-77.732 29.326-78.527 30.32-78.527C30.775-78.527 31.26-78.369 31.584-78.023L60.395-46.9L57.787-46.9L86.514-78.023C86.873-78.369 87.371-78.527 87.813-78.527C88.807-78.527 89.615-77.732 89.615-76.738C89.615-76.213 89.387-75.869 89.041-75.475L60.629-44.736C60.178-44.271 59.666-43.937 59.049-43.937C58.432-43.937 57.983-44.236 57.504-44.701L29.141-75.439ZM29.141 4.896L57.504-25.842C57.983-26.32 58.432-26.619 59.049-26.619C59.666-26.619 60.178-26.285 60.629-25.807L89.041 4.932C89.387 5.312 89.615 5.691 89.615 6.182C89.615 7.176 88.807 7.984 87.813 7.984C87.371 7.984 86.873 7.813 86.514 7.48L57.787-23.656L60.395-23.656L31.584 7.48C31.26 7.813 30.775 7.984 30.32 7.984C29.326 7.984 28.518 7.176 28.518 6.182C28.518 5.691 28.781 5.277 29.141 4.896Z"/>
  </g>
  <g id="Ultralight-S" transform="matrix(1 0 0 1 501.676 696)">
   <path class="SFSymbolsPreviewWireframe" d="M28.967-75.568C28.731-75.85 28.518-76.054 28.518-76.405C28.518-77.02 29.05-77.548 29.665-77.548C29.925-77.548 30.266-77.472 30.457-77.239L59.083-45.655L57.039-45.655L85.571-77.239C85.807-77.472 86.152-77.548 86.409-77.548C87.023-77.548 87.555-77.02 87.555-76.405C87.555-76.054 87.388-75.895 87.155-75.613L59.215-44.711C58.846-44.338 58.498-44.035 58.014-44.035C57.53-44.035 57.235-44.293 56.859-44.666L28.967-75.568ZM28.967 5.014L56.859-25.888C57.235-26.264 57.53-26.522 58.014-26.522C58.498-26.522 58.846-26.219 59.215-25.843L87.155 5.06C87.388 5.338 87.555 5.542 87.555 5.848C87.555 6.463 87.023 6.995 86.409 6.995C86.152 6.995 85.807 6.915 85.571 6.686L57.039-24.902L59.083-24.902L30.457 6.686C30.266 6.915 29.925 6.995 29.665 6.995C29.05 6.995 28.518 6.463 28.518 5.848C28.518 5.542 28.731 5.292 28.967 5.014Z"/>
  </g>
 </g>
</svg>
